<?xml version="1.0" encoding="UTF-8"?>
<!DOCTYPE svg PUBLIC "-//W3C//DTD SVG 1.1//EN" "http://www.w3.org/Graphics/SVG/1.1/DTD/svg11.dtd">
<!-- Creator: CorelDRAW 2018 (64-Bit) -->
<svg xmlns="http://www.w3.org/2000/svg" xml:space="preserve" width="79.7277mm" height="172.296mm" version="1.1" style="shape-rendering:geometricPrecision; text-rendering:geometricPrecision; image-rendering:optimizeQuality; fill-rule:evenodd; clip-rule:evenodd"
viewBox="0 0 1004.16 2170.04"
 xmlns:xlink="http://www.w3.org/1999/xlink">
 <defs>
  <style type="text/css">
   <![CDATA[
    .str1 {stroke:#332C2B;stroke-width:12.59;stroke-miterlimit:22.9256}
    .str0 {stroke:#676969;stroke-width:12.59;stroke-linecap:round;stroke-linejoin:round;stroke-miterlimit:22.9256}
    .fil20 {fill:none}
    .fil11 {fill:#ED84B1}
    .fil18 {fill:#ECA4A9}
    .fil19 {fill:#F0F0F0}
    .fil0 {fill:#00000000}
    .fil12 {fill:#9499A1}
    .fil6 {fill:#7D3636}
    .fil8 {fill:#8A9096}
    .fil7 {fill:#572627}
    .fil10 {fill:#555A5E}
    .fil2 {fill:#403C37}
    .fil14 {fill:#494F57}
    .fil16 {fill:#404547}
    .fil17 {fill:#3C414A}
    .fil4 {fill:#3C4654}
    .fil3 {fill:#2E343B}
    .fil5 {fill:#2C333B}
    .fil15 {fill:#756A57}
    .fil9 {fill:#FFB096}
    .fil1 {fill:#FFC6B7}
    .fil13 {fill:#F7F1E4}
   ]]>
  </style>
 </defs>
 <g id="Layer_x0020_1">
  <metadata id="CorelCorpID_0Corel-Layer"/>
  <rect class="fil0" x="-0" y="-0" width="1004.16" height="2170.04"/>
  <g id="_2074705375552">
   <g>
    <g>
     <circle class="fil19" transform="matrix(0.983755 -0.179514 0.179514 0.983755 421.499 753.296)" r="75.53"/>
     <path class="fil20 str0" d="M420.33 746.9c-1.29,-7.07 -7.35,-11.89 -13.54,-10.76 -6.19,1.13 -10.16,7.78 -8.87,14.85 2.58,14.14 14.7,23.78 27.08,21.52 12.37,-2.26 20.31,-15.55 17.73,-29.7 -3.87,-21.21 -22.06,-35.66 -40.62,-32.28 -18.56,3.39 -30.47,23.33 -26.6,44.54 5.16,28.29 29.41,47.55 54.16,43.04 24.75,-4.52 40.63,-31.11 35.47,-59.39"/>
    </g>
    <g>
     <circle class="fil19" transform="matrix(0.983755 -0.179514 0.179514 0.983755 622.503 716.618)" r="75.53"/>
     <path class="fil20 str0" d="M621.33 710.22c-1.29,-7.07 -7.35,-11.89 -13.54,-10.76 -6.19,1.13 -10.16,7.78 -8.87,14.85 2.58,14.14 14.7,23.78 27.08,21.52 12.38,-2.26 20.31,-15.55 17.73,-29.7 -3.87,-21.21 -22.06,-35.66 -40.62,-32.28 -18.56,3.39 -30.47,23.33 -26.6,44.54 5.16,28.29 29.41,47.55 54.16,43.04 24.75,-4.52 40.63,-31.11 35.47,-59.39"/>
    </g>
    <polyline class="fil20 str1" points="548.2,730.18 519.05,721.95 495.81,739.74 "/>
   </g>
  </g>
 </g>
</svg>
