<?xml version="1.0" encoding="UTF-8"?>
<!DOCTYPE svg PUBLIC "-//W3C//DTD SVG 1.1//EN" "http://www.w3.org/Graphics/SVG/1.1/DTD/svg11.dtd">
<!-- Creator: CorelDRAW 2018 (64-Bit) -->
<svg xmlns="http://www.w3.org/2000/svg" xml:space="preserve" width="67.5057mm" height="167.889mm" version="1.1" style="shape-rendering:geometricPrecision; text-rendering:geometricPrecision; image-rendering:optimizeQuality; fill-rule:evenodd; clip-rule:evenodd"
viewBox="0 0 2550.67 6343.6"
 xmlns:xlink="http://www.w3.org/1999/xlink">
 <defs>
  <style type="text/css">
   <![CDATA[
    .fil10 {fill:#ED84B1}
    .fil18 {fill:#ECA4A9}
    .fil15 {fill:#AAB6BD}
    .fil11 {fill:#9499A1}
    .fil6 {fill:#7D3636}
    .fil0 {fill:#8A9096}
    .fil7 {fill:#572627}
    .fil9 {fill:#555A5E}
    .fil2 {fill:#403C37}
    .fil13 {fill:#494F57}
    .fil16 {fill:#404547}
    .fil17 {fill:#3C414A}
    .fil4 {fill:#3C4654}
    .fil3 {fill:#2E343B}
    .fil5 {fill:#2C333B}
    .fil14 {fill:#756A57}
    .fil8 {fill:#FFB096}
    .fil1 {fill:#FFC6B7}
    .fil12 {fill:#F7F1E4}
   ]]>
  </style>
 </defs>
 <g id="Layer_x0020_1">
  <metadata id="CorelCorpID_0Corel-Layer"/>
  <g id="_2553425736768">
   <path class="fil0" d="M2073.35 3268.16c-5.41,54.91 -0.84,102.32 -64.56,134.73 -63.54,23.72 -113.76,19.94 -159.81,3.66 -56.16,-130.08 -114.56,-278.34 -172.2,-444.07 -170.96,-96.37 -208.02,-324.06 -208.02,-324.06 0,0 130.18,5.65 299.98,222.69 86.96,111.15 192.45,251.97 304.61,407.04z"/>
   <ellipse class="fil1" cx="1248.78" cy="2252.7" rx="253.26" ry="506.52"/>
   <g>
    <path class="fil2" d="M1107.6 4675.75c-183.6,60.85 -421.52,-45.56 -434.82,-72.03 61.32,253.31 133.64,571.2 137.45,675.91 6.67,183.28 -39.99,743.12 29.99,816.43 0,0 93.31,53.32 173.28,-43.32 -6.67,-103.3 -10,-693.14 0,-766.45 6.14,-45.04 56.31,-368.1 94.09,-610.55z"/>
    <path class="fil3" d="M1013.51 6052.74c-79.98,96.64 -173.28,43.32 -173.28,43.32 0,0 66.6,193.26 173.24,223.25 106.64,29.99 0.05,-266.57 0.05,-266.57z"/>
    <path class="fil2" d="M1368.02 4697.9c183.6,60.85 421.52,-45.56 434.82,-72.03 -61.32,253.31 -133.64,571.2 -137.45,675.91 -6.67,183.28 39.99,743.12 -29.99,816.43 0,0 -93.31,53.32 -173.28,-43.32 6.67,-103.3 10,-693.14 0,-766.45 -6.14,-45.04 -56.31,-368.1 -94.09,-610.55z"/>
    <path class="fil3" d="M1462.12 6074.9c79.98,96.64 173.28,43.32 173.28,43.32 0,0 -66.6,193.26 -173.24,223.25 -106.64,29.99 -0.05,-266.57 -0.05,-266.57z"/>
    <g>
     <path class="fil2" d="M1150.14 4403.21c-194.65,-810.89 -563.18,-143.29 -563.18,-143.29 0,0 39.48,152.45 85.25,341.45 0.19,0.79 0.38,1.57 0.57,2.36 13.3,26.46 251.22,132.88 434.82,72.03 23.71,-152.15 42.53,-272.54 42.53,-272.54z"/>
     <path class="fil2" d="M1325.49 4425.36c194.65,-810.89 563.18,-143.29 563.18,-143.29 0,0 -39.48,152.45 -85.25,341.45 -0.19,0.79 -0.38,1.57 -0.57,2.36 -13.3,26.46 -251.22,132.88 -434.82,72.03 -23.71,-152.15 -42.53,-272.54 -42.53,-272.54z"/>
     <path class="fil4" d="M1127.17 3691.12c-73.8,186.18 -101.24,772.88 -106.31,897.53 0,0 185.95,21.67 207.61,16.67 21.66,5 215.43,-21.17 215.43,-21.17 -5.07,-124.64 -32.51,-711.35 -106.31,-897.53l-210.43 4.5z"/>
     <path class="fil5" d="M916.59 3661.16c-113.57,427.53 -160.57,768.78 -172.96,869.47 0,0 193.59,48.56 295.22,85.22 0,0 0.29,-8.32 0.9,-23.42 5.07,-124.64 32.51,-711.35 106.31,-897.53l-229.47 -33.73z"/>
     <path class="fil4" d="M897.7 3657.38c-113.57,427.53 -160.57,768.78 -172.96,869.47 0,0 193.59,48.56 295.22,85.22 0,0 0.29,-8.32 0.9,-23.42 5.07,-124.64 32.51,-711.35 106.31,-897.53l-229.47 -33.73z"/>
     <path class="fil5" d="M916.59 3664.94l-210.74 -52.48c0,0 -255.15,633.92 -255.15,865.52 0,0 229.41,40.09 289.39,86.75 0,0 1.1,-10.5 3.54,-30.32 12.39,-100.69 59.39,-441.94 172.96,-869.47z"/>
     <path class="fil4" d="M897.7 3657.38l-210.74 -52.48c0,0 -255.15,633.92 -255.15,865.52 0,0 229.41,40.09 289.39,86.75 0,0 1.1,-10.5 3.54,-30.32 12.39,-100.69 59.39,-441.94 172.96,-869.47z"/>
     <path class="fil5" d="M1318.7 3690.4c73.8,186.18 101.24,772.88 106.31,897.53 0.61,15.1 0.9,23.42 0.9,23.42 101.64,-36.66 295.22,-85.22 295.22,-85.22 -12.39,-100.69 -59.39,-441.94 -172.96,-869.47l-229.47 33.73z"/>
     <path class="fil4" d="M1337.6 3686.62c73.8,186.18 101.24,772.88 106.31,897.53 0.61,15.1 0.9,23.42 0.9,23.42 101.64,-36.66 295.22,-85.22 295.22,-85.22 -12.39,-100.69 -59.39,-441.94 -172.96,-869.47l-229.47 33.73z"/>
     <path class="fil5" d="M1544.4 3660.45c113.57,427.53 160.57,768.78 172.96,869.47 2.44,19.82 3.54,30.32 3.54,30.32 59.98,-46.65 289.39,-86.75 289.39,-86.75 0,-231.6 -255.15,-865.52 -255.15,-865.52l-210.74 52.48z"/>
     <path class="fil4" d="M1567.07 3652.89c113.57,427.53 160.57,768.78 172.96,869.47 2.44,19.82 3.54,30.32 3.54,30.32 59.98,-46.65 289.39,-86.75 289.39,-86.75 0,-231.6 -255.15,-865.52 -255.15,-865.52l-210.74 52.48z"/>
     <path class="fil5" d="M1234.41 2865.8c0,0 -255.45,-12.96 -260.45,-124.59 -153.78,277.12 -310.64,822.78 -310.64,822.78 -1.67,39.99 13.33,41.66 13.33,41.66 389.09,115.02 569.43,95.14 569.43,95.14 0,0 219.53,-8.5 569.43,-95.14 0,0 14.99,-1.67 13.33,-41.66 0,0 -155.05,-539.36 -307.97,-817.94 -8.35,109.47 -254.74,120.79 -254.74,120.79l55.27 1.79c0,0 6.31,89.6 -28.67,111.54 30.93,165.87 48.19,210.01 38.19,338.96 -10,128.95 -89.97,158.7 -89.97,158.7 6.67,-49.59 -14.24,-287.76 -14.24,-287.76 -50.26,258.35 -129.06,307.76 -129.06,307.76 10,-76.84 10,-246.98 10,-246.98 -13.33,-192.1 101.76,-270.13 101.76,-270.13 0,0 -20.46,-15.39 -30.22,-116.69l55.22 1.79z"/>
     <path class="fil4" d="M1234.41 2846.91c0,0 -255.45,-12.96 -260.45,-124.59 -153.78,277.12 -310.64,822.78 -310.64,822.78 -1.67,39.99 13.33,41.66 13.33,41.66 389.09,115.02 569.43,95.14 569.43,95.14 0,0 219.53,-8.5 569.43,-95.14 0,0 14.99,-1.67 13.33,-41.66 0,0 -155.05,-539.36 -307.97,-817.94 -8.35,109.47 -254.74,120.79 -254.74,120.79l55.27 1.79c0,0 6.31,89.6 -28.67,111.54 30.93,165.87 48.19,210.01 38.19,338.96 -10,128.95 -89.97,158.7 -89.97,158.7 6.67,-49.59 -14.24,-287.76 -14.24,-287.76 -50.26,258.35 -129.06,307.76 -129.06,307.76 10,-76.84 10,-246.98 10,-246.98 -13.33,-192.1 101.76,-270.13 101.76,-270.13 0,0 -20.46,-15.39 -30.22,-116.69l55.22 1.79z"/>
     <path class="fil4" d="M1099.91 2674.94c42.2,100.59 134.51,171.97 134.51,171.98l31.72 1.03c0,0 87.78,-69.74 128.86,-168.95 -120.44,-35.62 -295.09,-4.05 -295.09,-4.05z"/>
     <path class="fil5" d="M1383.66 2678.99c-41.08,99.21 -128.86,168.95 -128.86,168.95 0,0 246.39,-11.32 254.74,-120.79 -35.85,-65.31 -71.58,-116.29 -105.17,-142.62 -0.54,33.36 -8.59,65.19 -20.71,94.46z"/>
     <path class="fil5" d="M1245.75 2846.91c0,0 -92.31,-71.38 -134.51,-171.97 -12.08,-28.8 -20.06,-59.99 -20.58,-92.59 -33.59,25.01 -69.39,75.15 -105.36,139.97 5,111.64 260.45,124.59 260.45,124.59z"/>
     <path class="fil5" d="M1395 2694.1c-41.08,99.21 -128.86,168.95 -128.86,168.95 0,0 246.39,-11.32 254.74,-120.79 -35.85,-65.31 -71.58,-116.29 -105.17,-142.62 -0.54,33.36 -8.59,65.19 -20.71,94.46z"/>
     <path class="fil4" d="M1395 2678.99c-41.08,99.21 -128.86,168.95 -128.86,168.95 0,0 246.39,-11.32 254.74,-120.79 -35.85,-65.31 -71.58,-116.29 -105.17,-142.62 -0.54,33.36 -8.59,65.19 -20.71,94.46z"/>
     <path class="fil5" d="M1234.41 2862.02c0,0 -92.31,-71.38 -134.51,-171.97 -12.08,-28.8 -20.06,-59.99 -20.58,-92.59 -33.59,25.01 -69.39,75.15 -105.36,139.97 5,111.64 260.45,124.59 260.45,124.59z"/>
     <path class="fil4" d="M1234.41 2846.91c0,0 -92.31,-71.38 -134.51,-171.97 -12.08,-28.8 -20.06,-59.99 -20.58,-92.59 -33.59,25.01 -69.39,75.15 -105.36,139.97 5,111.64 260.45,124.59 260.45,124.59z"/>
     <path class="fil6" d="M1255.23 2961.51c-7.21,81.85 -17.14,151.12 -28.52,209.66 0,0 20.9,238.17 14.24,287.76 0,0 79.97,-29.76 89.97,-158.7 10,-128.95 -7.27,-173.08 -38.19,-338.96l-37.49 0.24z"/>
     <path class="fil7" d="M1216.97 2961.81c0,0 -115.09,78.03 -101.76,270.13 0,0 0,170.14 -10,246.98 0,0 78.8,-49.4 129.06,-307.76 11.39,-58.54 21.31,-127.81 28.52,-209.66l-45.82 0.3z"/>
     <path class="fil6" d="M1209.41 2961.81c0,0 -115.09,78.03 -101.76,270.13 0,0 0,170.14 -10,246.98 0,0 78.8,-49.4 129.06,-307.76 11.39,-58.54 21.31,-127.81 28.52,-209.66l-45.82 0.3z"/>
     <path class="fil7" d="M1179.19 2852.68c9.76,101.31 30.22,116.69 30.22,116.69l45.82 -0.3 37.49 -0.24c34.99,-21.93 28.67,-111.54 28.67,-111.54l-55.27 -1.79 -31.72 -1.03 -55.22 -1.79z"/>
     <path class="fil6" d="M1179.19 2845.12c9.76,101.31 30.22,116.69 30.22,116.69l45.82 -0.3 37.49 -0.24c34.99,-21.93 28.67,-111.54 28.67,-111.54l-55.27 -1.79 -31.72 -1.03 -55.22 -1.79z"/>
    </g>
    <g>
     <path class="fil0" d="M800.77 4032.45c0,0 -66.65,-1003.04 349.9,-1482.91l-73.31 6.66c0,0 -356.57,346.57 -589.83,1356.28 0,0 -49.99,69.98 313.25,119.97z"/>
     <path class="fil0" d="M1336.33 2547.92c416.55,479.87 349.9,1482.91 349.9,1482.91 363.23,-49.99 313.25,-119.97 313.25,-119.97 -233.27,-1009.72 -589.83,-1356.28 -589.83,-1356.28l-73.31 -6.66z"/>
    </g>
   </g>
   <ellipse class="fil8" transform="matrix(0.490278 0.528848 -0.528848 0.490278 110.248 3999.3)" rx="124.96" ry="173.28"/>
   <path class="fil0" d="M863.38 2881.07c170.96,-96.37 208.02,-324.06 208.02,-324.06 0,0 -130.18,5.65 -299.98,222.69 -203.22,259.77 -507.66,681.58 -761.96,1068.59 0,0 -16.67,50.82 33.31,62.49l14.16 -22.49c0,0 173.29,104.14 173.29,117.47 0,0 -1.49,3.66 -3.89,8.91 0,0 73.63,-47.96 87.2,-20.57 13.57,27.38 289.52,-364.48 549.84,-1113.03z"/>
   <path class="fil9" d="M230.23 4005.76c0,-13.33 -173.29,-117.47 -173.29,-117.47l-14.16 22.49 -10.83 35.82c1.67,10.83 168.28,104.97 168.28,104.97 8.34,-0.59 20.08,-23.75 26.1,-36.91 2.4,-5.25 3.89,-8.91 3.89,-8.91z"/>
   <g>
    <path class="fil10" d="M2012.77 1849.62c0.57,-2.22 0.88,-3.48 0.88,-3.48 0.06,0.87 -0.25,2.04 -0.88,3.48zm-544.59 -421.1c2.26,-93.75 11.75,-165.86 0,0zm-515.72 -334.05c-0.33,-37.09 1.3,-59.53 1.3,-59.53 0,0 4.75,21.37 -1.3,59.53zm298.09 197.08c0,0 8.73,279 9.07,298.02 3.06,16.67 152.95,22.81 196.88,-7.92 5.23,-65.12 9.01,-115.3 11.68,-153.12 -1.61,66.81 0.46,144.61 16.52,155.14 18.01,13.76 77.84,9.52 97.3,1.13 0,0 136.48,-226.45 90.3,-524.85 0,0 91.32,386.19 278.25,450.13 23.86,110.33 33.93,267.72 -29.7,440.86 0,0 82.44,-79.83 91.93,-101.31 -3.46,13.49 -16.48,62.44 -27.38,78.7 0,0 32.03,-20.81 61.02,-45.24 142.99,-21.95 110.32,231.4 -111.34,260.46 -34.25,65 -79.5,123.94 -133.6,176.55l-8.77 64.79c39.99,0 93.31,-76.64 93.31,-76.64l-10 69.98c79.98,-20 259.75,-201.51 259.75,-201.51 131.41,-384.8 60.88,-506.74 60.88,-506.74 -182.33,-260.77 -374.08,-466.5 -524.34,-610.03 -163.24,-155.94 -277.5,-238.48 -277.5,-238.48 0,0 -72.03,-20.79 -132.1,-27.34 -60.07,6.56 -118.2,24.67 -118.2,24.67 0,0 -421.43,304.44 -801.84,848.52 0,0 -73.79,127.58 70.22,533.55 0,0 177.98,190.43 257.96,210.43l-10 -69.98c0,0 53.32,76.64 93.31,76.64l-6.22 -70.66c-63.44,-59.82 -116.12,-128.55 -156.72,-205.59 -221.6,-29.05 -246.22,-276.74 -103.38,-254.97 47.65,29.71 128.93,75.34 128.93,75.34 -16.94,-26.86 -36.06,-84.64 -36.06,-84.64 17.71,37.83 49.27,44.62 49.27,44.62 -22.14,-153.89 -7.19,-302.67 16.9,-421.98 235.66,-179.37 293.22,-327.58 305.6,-405.59 0.97,109.1 18.99,344.98 145.82,509.53 0.71,10.13 114.9,-4.95 128.43,-12.1 0,0 10.03,-47.88 17.08,-129.76 4.02,-46.67 7.08,-104.39 6.76,-170.59z"/>
    <path class="fil11" d="M1672.29 1059.94c150.26,143.54 342.01,349.26 524.34,610.03 0,0 70.53,121.94 -60.88,506.74 -7.3,21.37 -15.22,43.54 -23.8,66.55 0,0 -329.64,329.49 -723.79,411.75l-1.2 10.64c458.42,-19.87 1049.01,-499.65 1031.18,-550.06 300.52,-535.96 -196.08,-1194.28 -196.08,-1194.28 -376.1,-491.66 -595.14,-597.37 -595.14,-597.37 0,0 -170.67,-43.7 -350.55,-52.94 -179.88,9.24 -317.92,63.56 -317.92,63.56 0,0 -219.04,105.72 -595.14,597.37 0,0 -496.6,658.32 -196.08,1194.28 2.66,37.47 526.81,508.31 943.69,536.68 0,0 0,0 -0.39,-3.65 -403.61,-71.54 -683.19,-418.65 -683.19,-418.65 -5.05,-13.53 -9.87,-26.78 -14.47,-39.74 -144,-405.97 -70.22,-533.55 -70.22,-533.55 380.41,-544.08 801.84,-848.52 801.84,-848.52 0,0 58.13,-18.12 118.2,-24.67 60.07,6.56 132.1,27.34 132.1,27.34 0,0 114.26,82.54 277.5,238.48z"/>
    <path class="fil12" d="M1581.99 1584.79c-19.45,8.39 -79.28,12.63 -97.3,-1.13 -16.05,-10.52 -18.13,-88.33 -16.52,-155.14 -2.68,37.81 -6.46,88 -11.68,153.12 -43.93,30.74 -193.82,24.59 -196.88,7.92 -0.34,-19.02 -9.07,-298.02 -9.07,-298.02 0.32,66.2 -2.74,123.92 -6.76,170.59 -7.05,81.88 -17.08,129.76 -17.08,129.76 -13.53,7.15 -127.72,22.22 -128.43,12.1 -126.83,-164.54 -144.85,-400.42 -145.82,-509.53 -12.38,78.01 -69.94,226.22 -305.6,405.59 -24.1,119.3 -39.04,268.09 -16.9,421.98 0,0 -31.56,-6.79 -49.27,-44.62 0,0 19.12,57.78 36.06,84.64 0,0 -81.28,-45.63 -128.93,-75.34 -142.84,-21.76 -118.22,225.93 103.38,254.97 40.59,77.04 93.27,145.77 156.72,205.59 94.67,89.27 213.3,158.71 351.48,206.38 47.31,16.32 96.9,30.08 148.61,41.22 50.56,-10.89 99.94,-24.24 147.68,-39.99 158.66,-52.37 299.35,-131.33 405.78,-234.8 54.1,-52.61 99.35,-111.55 133.6,-176.55 221.67,-29.06 254.34,-282.4 111.34,-260.46 -29,24.43 -61.02,45.24 -61.02,45.24 10.9,-16.26 23.93,-65.21 27.38,-78.7 -9.49,21.48 -91.93,101.31 -91.93,101.31 63.63,-173.14 53.56,-330.52 29.7,-440.86 -186.93,-63.94 -278.25,-450.13 -278.25,-450.13 46.18,298.4 -90.3,524.85 -90.3,524.85z"/>
    <path class="fil13" d="M1099.39 2553.67c-138.18,-47.67 -256.81,-117.11 -351.48,-206.38l6.22 70.66c-39.99,0 -93.31,-76.64 -93.31,-76.64l10 69.98c-79.98,-20 -257.96,-210.43 -257.96,-210.43 4.6,12.96 9.42,26.21 14.47,39.74 0,0 279.58,347.11 683.19,418.65 -0.81,-7.68 -3.33,-31.52 -11.14,-105.58z"/>
    <path class="fil13" d="M1801.46 2320.09c-106.42,103.47 -247.11,182.44 -405.78,234.8l3.78 0 -11.31 100.12c394.15,-82.26 723.79,-411.75 723.79,-411.75 8.59,-23.01 16.51,-45.19 23.8,-66.55 0,0 -179.77,181.51 -259.75,201.51l10 -69.98c0,0 -53.32,76.64 -93.31,76.64l8.77 -64.79z"/>
    <path class="fil14" d="M2012.77 1849.62c0.57,-2.22 0.88,-3.48 0.88,-3.48 0.06,0.87 -0.25,2.04 -0.88,3.48zm-544.59 -421.1c2.26,-93.75 11.75,-165.86 0,0zm-515.72 -334.05c-0.33,-37.09 1.3,-59.53 1.3,-59.53 0,0 4.75,21.37 -1.3,59.53zm298.09 197.08c0,0 8.73,279 9.07,298.02 3.06,16.67 152.95,22.81 196.88,-7.92 5.23,-65.12 9.01,-115.3 11.68,-153.12 -1.61,66.81 0.46,144.61 16.52,155.14 18.01,13.76 77.84,9.52 97.3,1.13 0,0 136.48,-226.45 90.3,-524.85 0,0 91.32,386.19 278.25,450.13 23.86,110.33 33.93,267.72 -29.7,440.86 0,0 82.44,-79.83 91.93,-101.31 -3.46,13.49 -16.48,62.44 -27.38,78.7 0,0 32.03,-20.81 61.02,-45.24 142.99,-21.95 110.32,231.4 -111.34,260.46 -34.25,65 -79.5,123.94 -133.6,176.55l-8.77 64.79c39.99,0 93.31,-76.64 93.31,-76.64l-10 69.98c79.98,-20 259.75,-201.51 259.75,-201.51 131.41,-384.8 60.88,-506.74 60.88,-506.74 -182.33,-260.77 -374.08,-466.5 -524.34,-610.03 -163.24,-155.94 -277.5,-238.48 -277.5,-238.48 0,0 -72.03,-20.79 -132.1,-27.34 -60.07,6.56 -118.2,24.67 -118.2,24.67 0,0 -421.43,304.44 -801.84,848.52 0,0 -73.79,127.58 70.22,533.55 0,0 177.98,190.43 257.96,210.43l-10 -69.98c0,0 53.32,76.64 93.31,76.64l-6.22 -70.66c-63.44,-59.82 -116.12,-128.55 -156.72,-205.59 -221.6,-29.05 -246.22,-276.74 -103.38,-254.97 47.65,29.71 128.93,75.34 128.93,75.34 -16.94,-26.86 -36.06,-84.64 -36.06,-84.64 17.71,37.83 49.27,44.62 49.27,44.62 -22.14,-153.89 -7.19,-302.67 16.9,-421.98 235.66,-179.37 293.22,-327.58 305.6,-405.59 0.97,109.1 18.99,344.98 145.82,509.53 0.71,10.13 114.9,-4.95 128.43,-12.1 0,0 10.03,-47.88 17.08,-129.76 4.02,-46.67 7.08,-104.39 6.76,-170.59z"/>
    <path class="fil0" d="M1672.29 1059.94c150.26,143.54 342.01,349.26 524.34,610.03 0,0 70.53,121.94 -60.88,506.74 -7.3,21.37 -15.22,43.54 -23.8,66.55 0,0 -329.64,329.49 -723.79,411.75l-1.2 10.64c458.42,-19.87 1049.01,-499.65 1031.18,-550.06 300.52,-535.96 -196.08,-1194.28 -196.08,-1194.28 -376.1,-491.66 -595.14,-597.37 -595.14,-597.37 0,0 -170.67,-43.7 -350.55,-52.94 -179.88,9.24 -317.92,63.56 -317.92,63.56 0,0 -219.04,105.72 -595.14,597.37 0,0 -496.6,658.32 -196.08,1194.28 2.66,37.47 526.81,508.31 943.69,536.68 0,0 0,0 -0.39,-3.65 -403.61,-71.54 -683.19,-418.65 -683.19,-418.65 -5.05,-13.53 -9.87,-26.78 -14.47,-39.74 -144,-405.97 -70.22,-533.55 -70.22,-533.55 380.41,-544.08 801.84,-848.52 801.84,-848.52 0,0 58.13,-18.12 118.2,-24.67 60.07,6.56 132.1,27.34 132.1,27.34 0,0 114.26,82.54 277.5,238.48z"/>
    <path class="fil1" d="M1581.99 1584.79c-19.45,8.39 -79.28,12.63 -97.3,-1.13 -16.05,-10.52 -18.13,-88.33 -16.52,-155.14 -2.68,37.81 -6.46,88 -11.68,153.12 -43.93,30.74 -193.82,24.59 -196.88,7.92 -0.34,-19.02 -9.07,-298.02 -9.07,-298.02 0.32,66.2 -2.74,123.92 -6.76,170.59 -7.05,81.88 -17.08,129.76 -17.08,129.76 -13.53,7.15 -127.72,22.22 -128.43,12.1 -126.83,-164.54 -144.85,-400.42 -145.82,-509.53 -12.38,78.01 -69.94,226.22 -305.6,405.59 -24.1,119.3 -39.04,268.09 -16.9,421.98 0,0 -31.56,-6.79 -49.27,-44.62 0,0 19.12,57.78 36.06,84.64 0,0 -81.28,-45.63 -128.93,-75.34 -142.84,-21.76 -118.22,225.93 103.38,254.97 40.59,77.04 93.27,145.77 156.72,205.59 94.67,89.27 213.3,158.71 351.48,206.38 47.31,16.32 96.9,30.08 148.61,41.22 50.56,-10.89 99.94,-24.24 147.68,-39.99 158.66,-52.37 299.35,-131.33 405.78,-234.8 54.1,-52.61 99.35,-111.55 133.6,-176.55 221.67,-29.06 254.34,-282.4 111.34,-260.46 -29,24.43 -61.02,45.24 -61.02,45.24 10.9,-16.26 23.93,-65.21 27.38,-78.7 -9.49,21.48 -91.93,101.31 -91.93,101.31 63.63,-173.14 53.56,-330.52 29.7,-440.86 -186.93,-63.94 -278.25,-450.13 -278.25,-450.13 46.18,298.4 -90.3,524.85 -90.3,524.85z"/>
    <path class="fil13" d="M1099.39 2553.67c-138.18,-47.67 -256.81,-117.11 -351.48,-206.38l6.22 70.66c-39.99,0 -93.31,-76.64 -93.31,-76.64l10 69.98c-79.98,-20 -257.96,-210.43 -257.96,-210.43 4.6,12.96 9.42,26.21 14.47,39.74 0,0 279.58,347.11 683.19,418.65 -0.81,-7.68 -3.33,-31.52 -11.14,-105.58z"/>
    <path class="fil13" d="M1801.46 2320.09c-106.42,103.47 -247.11,182.44 -405.78,234.8l3.78 0 -11.31 100.12c394.15,-82.26 723.79,-411.75 723.79,-411.75 8.59,-23.01 16.51,-45.19 23.8,-66.55 0,0 -179.77,181.51 -259.75,201.51l10 -69.98c0,0 -53.32,76.64 -93.31,76.64l8.77 -64.79z"/>
    <path class="fil0" d="M1547.55 353.74c66.93,-11.79 -77.11,-301.97 -254.79,-353.74 -182.48,66.65 -348.71,350.91 -254.2,350.91 62.79,-11.38 150.28,32.37 235.32,28.78 104.22,4.4 195.75,-37.54 273.66,-25.95z"/>
    <path class="fil0" d="M2329.8 2196.62c69.62,16.1 131.73,198.71 131.73,198.71 177.98,-98.94 34.47,-869.43 34.47,-869.43l-166.2 670.72z"/>
    <path class="fil15" d="M1672.29 1059.94c150.26,143.54 342.01,349.26 524.34,610.03 0,0 70.53,121.94 -60.88,506.74 -7.3,21.37 -15.22,43.54 -23.8,66.55 0,0 -329.64,329.49 -723.79,411.75l-1.2 10.64c355.92,-15.43 791.43,-308.05 960.09,-461.75 -0,-0.92 -4.44,-1078.88 -807.92,-1265.33 38.68,33.54 83.67,74.07 133.18,121.36zm-1415.36 1161.73c167.96,149.52 541.17,419.94 853.98,441.23 0,0 0,0 -0.39,-3.65 -403.61,-71.54 -683.19,-418.65 -683.19,-418.65 -5.05,-13.53 -9.87,-26.78 -14.47,-39.74 -144,-405.97 -70.22,-533.55 -70.22,-533.55 233.32,-333.7 482.03,-577.22 639.52,-715.67 -769.57,220.76 -725.24,1269.96 -725.23,1270.04z"/>
    <path class="fil0" d="M827.47 898.9c0,0 387.92,703.13 928.07,13.33l-432.12 -226.6 -495.95 213.28z"/>
    <path class="fil0" d="M257.98 2225.93c-69.62,16.1 -131.73,198.71 -131.73,198.71 -177.98,-98.94 -34.47,-869.43 -34.47,-869.43l166.2 670.72z"/>
    <circle class="fil16" cx="850.42" cy="787.79" r="46.65"/>
    <path class="fil16" d="M902.55 836.92c6.59,-56.57 -20.69,-112.04 -45.21,-124.66 -111.73,-57.53 -128.08,121.33 -128.08,121.33 0,0 93.31,-217.44 173.28,3.33z"/>
    <circle class="fil16" cx="1677.9" cy="787.79" r="46.65"/>
    <path class="fil16" d="M1625.76 836.92c-6.59,-56.57 20.69,-112.04 45.21,-124.66 111.73,-57.53 128.08,121.33 128.08,121.33 0,0 -93.31,-217.44 -173.28,3.33z"/>
   </g>
   <path class="fil17" d="M858.18 1646.56l92.95 30.03c38.65,0 69.98,47 69.98,104.97 0,57.97 -31.33,104.97 -69.98,104.97 -38.65,0 -69.98,-47 -69.98,-104.97 0,-23.71 5.24,-45.58 14.08,-63.15l-37.04 -71.85z"/>
   <path class="fil17" d="M1679.3 1661.83l-92.95 30.03c-38.65,0 -69.98,47 -69.98,104.97 0,57.97 31.33,104.97 69.98,104.97 38.65,0 69.98,-47 69.98,-104.97 0,-23.71 -5.24,-45.58 -14.08,-63.15l37.04 -71.85z"/>
   <path class="fil18" d="M1036.02 2150.68l448.21 0c0,0 -56.65,209.94 -219.94,208.28 -163.29,-1.67 -228.27,-208.28 -228.27,-208.28z"/>
   <ellipse class="fil8" transform="matrix(0.719786 0.044274 0.044274 -0.719786 2253.49 2397.52)" rx="124.96" ry="173.28"/>
   <path class="fil0" d="M1850.72 3188.19c-16.38,75.2 -38.55,166.98 60.61,229.41 102,28.88 124.98,-19.66 188.61,-143.49 228.83,-442.59 301.5,-721.34 278.31,-716 -29.78,6.85 -39.33,-80.5 -39.33,-80.5 -2.54,5.18 -4.43,8.65 -4.43,8.65 -10.32,8.45 -200.67,-59.65 -200.67,-59.65l8.43 -25.21c-40.69,-31.28 -69.46,13.81 -69.46,13.81 -79.14,252.84 -156.69,525.59 -222.09,772.98z"/>
   <path class="fil9" d="M2334.5 2486.25c-10.32,8.45 -200.67,-59.65 -200.67,-59.65l8.43 -25.21 20.85 -31.07c9.43,-5.57 187.83,63.7 187.83,63.7 4.83,6.83 -5.65,30.58 -12.02,43.58 -2.54,5.18 -4.43,8.65 -4.43,8.65z"/>
  </g>
 </g>
</svg>
