<?xml version="1.0" encoding="UTF-8"?>
<!DOCTYPE svg PUBLIC "-//W3C//DTD SVG 1.1//EN" "http://www.w3.org/Graphics/SVG/1.1/DTD/svg11.dtd">
<!-- Creator: CorelDRAW 2018 (64-Bit) -->
<svg xmlns="http://www.w3.org/2000/svg" xml:space="preserve" width="68.7359mm" height="165.354mm" version="1.1" style="shape-rendering:geometricPrecision; text-rendering:geometricPrecision; image-rendering:optimizeQuality; fill-rule:evenodd; clip-rule:evenodd"
viewBox="0 0 1556.03 3743.26"
 xmlns:xlink="http://www.w3.org/1999/xlink">
 <defs>
  <style type="text/css">
   <![CDATA[
    .fil10 {fill:#ED84B1}
    .fil18 {fill:#ECA4A9}
    .fil15 {fill:#AAB6BD}
    .fil11 {fill:#9499A1}
    .fil5 {fill:#7D3636}
    .fil7 {fill:#8A9096}
    .fil6 {fill:#572627}
    .fil9 {fill:#555A5E}
    .fil1 {fill:#403C37}
    .fil13 {fill:#494F57}
    .fil16 {fill:#404547}
    .fil17 {fill:#3C414A}
    .fil3 {fill:#3C4654}
    .fil2 {fill:#2E343B}
    .fil4 {fill:#2C333B}
    .fil14 {fill:#756A57}
    .fil8 {fill:#FFB096}
    .fil0 {fill:#FFC6B7}
    .fil12 {fill:#F7F1E4}
   ]]>
  </style>
 </defs>
 <g id="Layer_x0020_1">
  <metadata id="CorelCorpID_0Corel-Layer"/>
  <g id="_2553427563536">
   <ellipse class="fil0" cx="825.98" cy="1292.28" rx="151.73" ry="303.47"/>
   <g>
    <path class="fil1" d="M741.39 2744c-110,36.46 -252.55,-27.3 -260.52,-43.15 36.74,151.77 80.07,342.22 82.35,404.96 3.99,109.81 -23.96,445.23 17.97,489.15 0,0 55.9,31.94 103.82,-25.95 -3.99,-61.89 -5.99,-415.28 0,-459.2 3.68,-26.99 33.74,-220.54 56.38,-365.8z"/>
    <path class="fil2" d="M685.02 3569c-47.92,57.9 -103.82,25.95 -103.82,25.95 0,0 39.9,115.79 103.79,133.76 63.89,17.97 0.03,-159.71 0.03,-159.71z"/>
    <path class="fil1" d="M897.41 2757.27c110,36.46 252.55,-27.3 260.52,-43.15 -36.74,151.77 -80.07,342.22 -82.35,404.96 -3.99,109.81 23.96,445.23 -17.97,489.15 0,0 -55.9,31.94 -103.82,-25.95 3.99,-61.89 5.99,-415.28 0,-459.2 -3.68,-26.99 -33.74,-220.54 -56.38,-365.8z"/>
    <path class="fil2" d="M953.79 3582.27c47.92,57.9 103.82,25.95 103.82,25.95 0,0 -39.9,115.79 -103.79,133.76 -63.89,17.97 -0.03,-159.71 -0.03,-159.71z"/>
    <g>
     <path class="fil1" d="M766.87 2580.71c-116.62,-485.83 -337.42,-85.85 -337.42,-85.85 0,0 23.65,91.34 51.07,204.57 0.12,0.47 0.23,0.94 0.34,1.41 7.97,15.86 150.51,79.61 260.51,43.15 14.2,-91.16 25.48,-163.29 25.48,-163.29z"/>
     <path class="fil1" d="M871.93 2593.99c116.62,-485.83 337.42,-85.85 337.42,-85.85 0,0 -23.65,91.34 -51.07,204.57 -0.12,0.47 -0.23,0.94 -0.34,1.41 -7.97,15.86 -150.51,79.61 -260.51,43.15 -14.2,-91.16 -25.48,-163.29 -25.48,-163.29z"/>
     <path class="fil3" d="M753.11 2154.08c-44.21,111.54 -60.65,463.06 -63.69,537.74 0,0 111.41,12.98 124.39,9.99 12.98,2.99 129.07,-12.68 129.07,-12.68 -3.04,-74.68 -19.48,-426.19 -63.69,-537.74l-126.07 2.69z"/>
     <path class="fil4" d="M626.95 2136.13c-68.04,256.15 -96.2,460.6 -103.62,520.92 0,0 115.98,29.09 176.88,51.06 0,0 0.17,-4.98 0.54,-14.03 3.04,-74.68 19.48,-426.19 63.69,-537.74l-137.48 -20.21z"/>
     <path class="fil3" d="M615.63 2133.87c-68.04,256.15 -96.2,460.6 -103.62,520.92 0,0 115.98,29.09 176.88,51.06 0,0 0.17,-4.98 0.54,-14.03 3.04,-74.68 19.48,-426.19 63.69,-537.74l-137.48 -20.21z"/>
     <path class="fil4" d="M626.95 2138.4l-126.26 -31.44c0,0 -152.87,379.8 -152.87,518.56 0,0 137.44,24.02 173.38,51.97 0,0 0.66,-6.29 2.12,-18.16 7.42,-60.33 35.58,-264.78 103.62,-520.92z"/>
     <path class="fil3" d="M615.63 2133.87l-126.26 -31.44c0,0 -152.87,379.8 -152.87,518.56 0,0 137.44,24.02 173.38,51.97 0,0 0.66,-6.29 2.12,-18.16 7.42,-60.33 35.58,-264.78 103.62,-520.92z"/>
     <path class="fil4" d="M867.87 2153.65c44.21,111.54 60.65,463.06 63.69,537.74 0.37,9.05 0.54,14.03 0.54,14.03 60.89,-21.96 176.88,-51.06 176.88,-51.06 -7.42,-60.33 -35.58,-264.78 -103.62,-520.92l-137.48 20.21z"/>
     <path class="fil3" d="M879.19 2151.39c44.21,111.54 60.65,463.06 63.69,537.74 0.37,9.05 0.54,14.03 0.54,14.03 60.89,-21.96 176.88,-51.06 176.88,-51.06 -7.42,-60.33 -35.58,-264.78 -103.62,-520.92l-137.48 20.21z"/>
     <path class="fil4" d="M1003.09 2135.7c68.04,256.15 96.2,460.6 103.62,520.92 1.46,11.88 2.12,18.16 2.12,18.16 35.94,-27.95 173.38,-51.97 173.38,-51.97 0,-138.76 -152.87,-518.56 -152.87,-518.56l-126.26 31.44z"/>
     <path class="fil3" d="M1016.67 2131.17c68.04,256.15 96.2,460.6 103.62,520.92 1.46,11.88 2.12,18.16 2.12,18.16 35.94,-27.95 173.38,-51.97 173.38,-51.97 0,-138.76 -152.87,-518.56 -152.87,-518.56l-126.26 31.44z"/>
     <path class="fil4" d="M817.37 1659.61c0,0 -153.05,-7.76 -156.05,-74.65 -92.13,166.03 -186.11,492.95 -186.11,492.95 -1,23.96 7.98,24.96 7.98,24.96 233.12,68.91 341.16,57 341.16,57 0,0 131.53,-5.09 341.16,-57 0,0 8.98,-1 7.98,-24.96 0,0 -92.9,-323.15 -184.51,-490.05 -5.01,65.58 -152.62,72.37 -152.62,72.37l33.11 1.08c0,0 3.78,53.68 -17.18,66.82 18.53,99.38 28.87,125.82 22.88,203.08 -5.99,77.26 -53.91,95.08 -53.91,95.08 3.99,-29.71 -8.53,-172.41 -8.53,-172.41 -30.11,154.79 -77.32,184.39 -77.32,184.39 5.99,-46.04 5.99,-147.97 5.99,-147.97 -7.99,-115.09 60.97,-161.84 60.97,-161.84 0,0 -12.26,-9.22 -18.11,-69.91l33.09 1.07z"/>
     <path class="fil3" d="M817.37 1648.29c0,0 -153.05,-7.76 -156.05,-74.65 -92.13,166.03 -186.11,492.95 -186.11,492.95 -1,23.96 7.98,24.96 7.98,24.96 233.12,68.91 341.16,57 341.16,57 0,0 131.53,-5.09 341.16,-57 0,0 8.98,-1 7.98,-24.96 0,0 -92.9,-323.15 -184.51,-490.05 -5.01,65.58 -152.62,72.37 -152.62,72.37l33.11 1.08c0,0 3.78,53.68 -17.18,66.82 18.53,99.38 28.87,125.82 22.88,203.08 -5.99,77.26 -53.91,95.08 -53.91,95.08 3.99,-29.71 -8.53,-172.41 -8.53,-172.41 -30.11,154.79 -77.32,184.39 -77.32,184.39 5.99,-46.04 5.99,-147.97 5.99,-147.97 -7.99,-115.09 60.97,-161.84 60.97,-161.84 0,0 -12.26,-9.22 -18.11,-69.91l33.09 1.07z"/>
     <path class="fil3" d="M736.78 1545.25c25.28,60.27 80.59,103.03 80.59,103.04l19 0.62c0,0 52.59,-41.78 77.21,-101.23 -72.16,-21.34 -176.8,-2.43 -176.8,-2.43z"/>
     <path class="fil4" d="M906.78 1547.68c-24.61,59.44 -77.21,101.23 -77.21,101.23 0,0 147.62,-6.78 152.62,-72.37 -21.48,-39.13 -42.89,-69.67 -63.01,-85.45 -0.32,19.99 -5.15,39.06 -12.41,56.59z"/>
     <path class="fil4" d="M824.16 1648.29c0,0 -55.3,-42.77 -80.59,-103.03 -7.24,-17.25 -12.02,-35.94 -12.33,-55.48 -20.12,14.99 -41.57,45.02 -63.13,83.86 2.99,66.89 156.05,74.65 156.05,74.65z"/>
     <path class="fil4" d="M913.58 1556.74c-24.61,59.44 -77.21,101.23 -77.21,101.23 0,0 147.62,-6.78 152.62,-72.37 -21.48,-39.13 -42.89,-69.67 -63.01,-85.45 -0.32,19.99 -5.15,39.06 -12.41,56.59z"/>
     <path class="fil3" d="M913.58 1547.68c-24.61,59.44 -77.21,101.23 -77.21,101.23 0,0 147.62,-6.78 152.62,-72.37 -21.48,-39.13 -42.89,-69.67 -63.01,-85.45 -0.32,19.99 -5.15,39.06 -12.41,56.59z"/>
     <path class="fil4" d="M817.37 1657.34c0,0 -55.3,-42.77 -80.59,-103.03 -7.24,-17.25 -12.02,-35.94 -12.33,-55.48 -20.12,14.99 -41.57,45.02 -63.13,83.86 2.99,66.89 156.05,74.65 156.05,74.65z"/>
     <path class="fil3" d="M817.37 1648.29c0,0 -55.3,-42.77 -80.59,-103.03 -7.24,-17.25 -12.02,-35.94 -12.33,-55.48 -20.12,14.99 -41.57,45.02 -63.13,83.86 2.99,66.89 156.05,74.65 156.05,74.65z"/>
     <path class="fil5" d="M829.84 1716.95c-4.32,49.04 -10.27,90.54 -17.09,125.61 0,0 12.52,142.69 8.53,172.41 0,0 47.92,-17.83 53.91,-95.08 5.99,-77.26 -4.35,-103.7 -22.88,-203.08l-22.46 0.14z"/>
     <path class="fil6" d="M806.92 1717.13c0,0 -68.95,46.75 -60.97,161.84 0,0 0,101.94 -5.99,147.97 0,0 47.21,-29.6 77.32,-184.39 6.82,-35.07 12.77,-76.57 17.09,-125.61l-27.45 0.18z"/>
     <path class="fil5" d="M802.39 1717.13c0,0 -68.95,46.75 -60.97,161.84 0,0 0,101.94 -5.99,147.97 0,0 47.21,-29.6 77.32,-184.39 6.82,-35.07 12.77,-76.57 17.09,-125.61l-27.45 0.18z"/>
     <path class="fil6" d="M784.28 1651.74c5.85,60.7 18.11,69.91 18.11,69.91l27.45 -0.18 22.46 -0.14c20.96,-13.14 17.18,-66.82 17.18,-66.82l-33.11 -1.08 -19 -0.62 -33.08 -1.07z"/>
     <path class="fil5" d="M784.28 1647.21c5.85,60.7 18.11,69.91 18.11,69.91l27.45 -0.18 22.46 -0.14c20.96,-13.14 17.18,-66.82 17.18,-66.82l-33.11 -1.08 -19 -0.62 -33.08 -1.07z"/>
    </g>
    <g>
     <path class="fil7" d="M557.56 2358.58c0,0 -39.93,-600.95 209.64,-888.46l-43.92 3.99c0,0 -213.63,207.64 -353.39,812.59 0,0 -29.95,41.93 187.67,71.88z"/>
     <path class="fil7" d="M878.43 1469.15c249.57,287.5 209.64,888.46 209.64,888.46 217.62,-29.95 187.67,-71.88 187.67,-71.88 -139.76,-604.95 -353.39,-812.59 -353.39,-812.59l-43.92 -3.99z"/>
    </g>
   </g>
   <ellipse class="fil8" transform="matrix(-0.490278 0.528848 0.528848 0.490278 1489.98 2333.55)" rx="74.87" ry="103.82"/>
   <path class="fil7" d="M1038.76 1663.58c-102.43,-57.74 -124.63,-194.15 -124.63,-194.15 0,0 77.99,3.38 179.73,133.42 121.76,155.63 304.16,408.35 456.51,640.23 0,0 9.99,30.45 -19.96,37.44l-8.48 -13.48c0,0 -103.82,62.39 -103.82,70.38 0,0 0.89,2.19 2.33,5.34 0,0 -44.11,-28.73 -52.24,-12.33 -8.13,16.41 -173.46,-218.37 -329.43,-666.85z"/>
   <path class="fil9" d="M1418.1 2337.42c0,-7.99 103.82,-70.38 103.82,-70.38l8.48 13.48 6.49 21.46c-1,6.49 -100.82,62.89 -100.82,62.89 -5,-0.36 -12.03,-14.23 -15.64,-22.11 -1.44,-3.15 -2.33,-5.34 -2.33,-5.34z"/>
   <g>
    <path class="fil10" d="M1164.09 987.72c0.04,-1.37 0.06,-2.15 0.06,-2.15 0.15,0.5 0.12,1.23 -0.06,2.15zm-373.37 -175.23c-10.91,-55.12 -14.76,-98.52 0,0zm-345.14 -128.1c-5.03,-21.65 -7,-34.98 -7,-34.98 0,0 5.56,11.88 7,34.98zm200.01 76.38c0,0 41.48,162.01 44.16,173.09 3.96,9.35 92.41,-6.6 114.09,-30.3 -5.44,-38.76 -9.77,-68.6 -13.13,-91.06 7.77,39.28 19.13,84.5 29.89,88.56 12.33,5.7 46.76,-4.58 57.04,-12.03 0,0 50.28,-150.22 -15.63,-318.69 0,0 103.76,213.93 221.41,226.94 28.34,61.41 54.75,152.13 40.12,261.67 0,0 37.8,-57.43 40.55,-71.23 -0.26,8.34 -1.5,38.66 -5.75,49.59 0,0 16.01,-16.35 29.78,-34.41 80.76,-31.48 94.69,120.93 -31.15,166.83 -11.55,42.48 -30.33,82.85 -55.11,120.66l3.32 39.03c23.38,-5.21 44.57,-56.99 44.57,-56.99l3.28 42.22c44.16,-22.12 125.62,-151.7 125.62,-151.7 26.67,-242.15 -30.48,-304.26 -30.48,-304.26 -140.62,-128.72 -279.58,-224.01 -386.16,-288.36 -115.79,-69.9 -193.37,-103.27 -193.37,-103.27 0,0 -44.83,-2.76 -80.81,1.24 -34.28,11.67 -65.9,29.84 -65.9,29.84 0,0 -206.74,232.98 -358.25,600.74 0,0 -26.51,84.23 110.63,302.84 0,0 128.9,88.15 178.28,89.42l-14.97 -39.62c0,0 41.17,37.87 64.56,32.65l-12.85 -40.51c-44.9,-26.71 -84.67,-60.03 -118.45,-99.79 -133.37,11.91 -180.07,-129.72 -93.7,-135.62 31.74,11.16 85.22,27.24 85.22,27.24 -13.41,-13.5 -32.13,-44.79 -32.13,-44.79 15.29,19.81 34.63,19.67 34.63,19.67 -33.02,-87.11 -43.67,-176.06 -45.14,-248.96 114.42,-135.62 128.75,-229.79 125.82,-277.03 14.8,63.67 56.09,199.26 151.71,278.94 1.74,5.83 66.55,-17.87 73.53,-23.82 0,0 -0.38,-29.3 -6.93,-78.11 -3.74,-27.82 -9.47,-61.97 -18.29,-100.64z"/>
    <path class="fil11" d="M862.02 570.33c106.58,64.34 245.54,159.64 386.16,288.36 0,0 57.14,62.11 30.48,304.26 -1.48,13.45 -3.22,27.45 -5.24,42.02 0,0 -149.8,235.66 -369.56,335.16l0.68 6.38c265.48,-71.4 548.28,-428.96 531.27,-456.12 105.85,-352.6 -270.39,-672.81 -270.39,-672.81 -284.04,-238.47 -425.92,-271.72 -425.92,-271.72 0,0 -105.5,-3.3 -211.89,14.75 -103.98,28.86 -177.62,78.62 -177.62,78.62 0,0 -114.3,90.38 -270.13,426.93 0,0 -204.56,449.72 41.07,723.95 6.44,21.56 374.34,228.55 621.82,190.79 0,0 0,0 -0.7,-2.08 -245.35,10.79 -454.1,-155.73 -454.1,-155.73 -4.72,-7.26 -9.26,-14.37 -13.64,-21.35 -137.14,-218.62 -110.63,-302.84 -110.63,-302.84 151.51,-367.76 358.25,-600.74 358.25,-600.74 0,0 31.63,-18.18 65.9,-29.84 35.98,-4 80.81,-1.24 80.81,-1.24 0,0 77.58,33.37 193.37,103.27z"/>
    <path class="fil12" d="M877.65 889.02c-10.28,7.44 -44.72,17.72 -57.04,12.03 -10.76,-4.06 -22.12,-49.28 -29.89,-88.56 3.37,22.46 7.7,52.3 13.13,91.06 -21.68,23.7 -110.13,39.65 -114.09,30.3 -2.68,-11.07 -44.16,-173.09 -44.16,-173.09 8.82,38.67 14.56,72.82 18.29,100.64 6.55,48.8 6.93,78.11 6.93,78.11 -6.98,5.95 -71.79,29.65 -73.53,23.82 -95.62,-79.68 -136.91,-215.27 -151.71,-278.94 2.93,47.23 -11.4,141.41 -125.82,277.03 1.47,72.91 12.12,161.86 45.14,248.96 0,0 -19.34,0.15 -34.63,-19.67 0,0 18.72,31.29 32.13,44.79 0,0 -53.48,-16.09 -85.22,-27.24 -86.37,5.9 -39.67,147.53 93.7,135.62 33.78,39.76 73.55,73.08 118.45,99.79 67,39.85 145.43,65 232.44,74.85 29.79,3.38 60.59,4.96 92.28,4.73 28.15,-12.96 55.28,-27.21 81.15,-42.65 85.95,-51.31 157.93,-115.83 206.67,-190.22 24.78,-37.82 43.55,-78.18 55.11,-120.66 125.83,-45.89 111.91,-198.3 31.15,-166.83 -13.77,18.07 -29.78,34.41 -29.78,34.41 4.25,-10.93 5.49,-41.25 5.75,-49.59 -2.75,13.8 -40.55,71.23 -40.55,71.23 14.63,-109.54 -11.78,-200.26 -40.12,-261.67 -117.65,-13.02 -221.41,-226.94 -221.41,-226.94 65.91,168.47 15.63,318.69 15.63,318.69z"/>
    <path class="fil13" d="M721.78 1518.52c-87.02,-9.85 -165.44,-35 -232.44,-74.85l12.85 40.51c-23.38,5.22 -64.56,-32.65 -64.56,-32.65l14.97 39.62c-49.38,-1.26 -178.28,-89.42 -178.28,-89.42 4.38,6.98 8.92,14.1 13.64,21.35 0,0 208.75,166.52 454.1,155.73 -1.47,-4.38 -6.05,-18 -20.28,-60.29z"/>
    <path class="fil13" d="M1101.87 1290.39c-48.74,74.38 -120.71,138.9 -206.67,190.22l2.21 -0.49 6.44 60.02c219.76,-99.5 369.56,-335.16 369.56,-335.16 2.02,-14.58 3.76,-28.58 5.24,-42.02 0,0 -81.46,129.58 -125.62,151.7l-3.28 -42.22c0,0 -21.19,51.77 -44.57,56.99l-3.32 -39.03z"/>
    <path class="fil14" d="M1164.09 987.72c0.04,-1.37 0.06,-2.15 0.06,-2.15 0.15,0.5 0.12,1.23 -0.06,2.15zm-373.37 -175.23c-10.91,-55.12 -14.76,-98.52 0,0zm-345.14 -128.1c-5.03,-21.65 -7,-34.98 -7,-34.98 0,0 5.56,11.88 7,34.98zm200.01 76.38c0,0 41.48,162.01 44.16,173.09 3.96,9.35 92.41,-6.6 114.09,-30.3 -5.44,-38.76 -9.77,-68.6 -13.13,-91.06 7.77,39.28 19.13,84.5 29.89,88.56 12.33,5.7 46.76,-4.58 57.04,-12.03 0,0 50.28,-150.22 -15.63,-318.69 0,0 103.76,213.93 221.41,226.94 28.34,61.41 54.75,152.13 40.12,261.67 0,0 37.8,-57.43 40.55,-71.23 -0.26,8.34 -1.5,38.66 -5.75,49.59 0,0 16.01,-16.35 29.78,-34.41 80.76,-31.48 94.69,120.93 -31.15,166.83 -11.55,42.48 -30.33,82.85 -55.11,120.66l3.32 39.03c23.38,-5.21 44.57,-56.99 44.57,-56.99l3.28 42.22c44.16,-22.12 125.62,-151.7 125.62,-151.7 26.67,-242.15 -30.48,-304.26 -30.48,-304.26 -140.62,-128.72 -279.58,-224.01 -386.16,-288.36 -115.79,-69.9 -193.37,-103.27 -193.37,-103.27 0,0 -44.83,-2.76 -80.81,1.24 -34.28,11.67 -65.9,29.84 -65.9,29.84 0,0 -206.74,232.98 -358.25,600.74 0,0 -26.51,84.23 110.63,302.84 0,0 128.9,88.15 178.28,89.42l-14.97 -39.62c0,0 41.17,37.87 64.56,32.65l-12.85 -40.51c-44.9,-26.71 -84.67,-60.03 -118.45,-99.79 -133.37,11.91 -180.07,-129.72 -93.7,-135.62 31.74,11.16 85.22,27.24 85.22,27.24 -13.41,-13.5 -32.13,-44.79 -32.13,-44.79 15.29,19.81 34.63,19.67 34.63,19.67 -33.02,-87.11 -43.67,-176.06 -45.14,-248.96 114.42,-135.62 128.75,-229.79 125.82,-277.03 14.8,63.67 56.09,199.26 151.71,278.94 1.74,5.83 66.55,-17.87 73.53,-23.82 0,0 -0.38,-29.3 -6.93,-78.11 -3.74,-27.82 -9.47,-61.97 -18.29,-100.64z"/>
    <path class="fil7" d="M862.02 570.33c106.58,64.34 245.54,159.64 386.16,288.36 0,0 57.14,62.11 30.48,304.26 -1.48,13.45 -3.22,27.45 -5.24,42.02 0,0 -149.8,235.66 -369.56,335.16l0.68 6.38c265.48,-71.4 548.28,-428.96 531.27,-456.12 105.85,-352.6 -270.39,-672.81 -270.39,-672.81 -284.04,-238.47 -425.92,-271.72 -425.92,-271.72 0,0 -105.5,-3.3 -211.89,14.75 -103.98,28.86 -177.62,78.62 -177.62,78.62 0,0 -114.3,90.38 -270.13,426.93 0,0 -204.56,449.72 41.07,723.95 6.44,21.56 374.34,228.55 621.82,190.79 0,0 0,0 -0.7,-2.08 -245.35,10.79 -454.1,-155.73 -454.1,-155.73 -4.72,-7.26 -9.26,-14.37 -13.64,-21.35 -137.14,-218.62 -110.63,-302.84 -110.63,-302.84 151.51,-367.76 358.25,-600.74 358.25,-600.74 0,0 31.63,-18.18 65.9,-29.84 35.98,-4 80.81,-1.24 80.81,-1.24 0,0 77.58,33.37 193.37,103.27z"/>
    <path class="fil0" d="M877.65 889.02c-10.28,7.44 -44.72,17.72 -57.04,12.03 -10.76,-4.06 -22.12,-49.28 -29.89,-88.56 3.37,22.46 7.7,52.3 13.13,91.06 -21.68,23.7 -110.13,39.65 -114.09,30.3 -2.68,-11.07 -44.16,-173.09 -44.16,-173.09 8.82,38.67 14.56,72.82 18.29,100.64 6.55,48.8 6.93,78.11 6.93,78.11 -6.98,5.95 -71.79,29.65 -73.53,23.82 -95.62,-79.68 -136.91,-215.27 -151.71,-278.94 2.93,47.23 -11.4,141.41 -125.82,277.03 1.47,72.91 12.12,161.86 45.14,248.96 0,0 -19.34,0.15 -34.63,-19.67 0,0 18.72,31.29 32.13,44.79 0,0 -53.48,-16.09 -85.22,-27.24 -86.37,5.9 -39.67,147.53 93.7,135.62 33.78,39.76 73.55,73.08 118.45,99.79 67,39.85 145.43,65 232.44,74.85 29.79,3.38 60.59,4.96 92.28,4.73 28.15,-12.96 55.28,-27.21 81.15,-42.65 85.95,-51.31 157.93,-115.83 206.67,-190.22 24.78,-37.82 43.55,-78.18 55.11,-120.66 125.83,-45.89 111.91,-198.3 31.15,-166.83 -13.77,18.07 -29.78,34.41 -29.78,34.41 4.25,-10.93 5.49,-41.25 5.75,-49.59 -2.75,13.8 -40.55,71.23 -40.55,71.23 14.63,-109.54 -11.78,-200.26 -40.12,-261.67 -117.65,-13.02 -221.41,-226.94 -221.41,-226.94 65.91,168.47 15.63,318.69 15.63,318.69z"/>
    <path class="fil13" d="M721.78 1518.52c-87.02,-9.85 -165.44,-35 -232.44,-74.85l12.85 40.51c-23.38,5.22 -64.56,-32.65 -64.56,-32.65l14.97 39.62c-49.38,-1.26 -178.28,-89.42 -178.28,-89.42 4.38,6.98 8.92,14.1 13.64,21.35 0,0 208.75,166.52 454.1,155.73 -1.47,-4.38 -6.05,-18 -20.28,-60.29z"/>
    <path class="fil13" d="M1101.87 1290.39c-48.74,74.38 -120.71,138.9 -206.67,190.22l2.21 -0.49 6.44 60.02c219.76,-99.5 369.56,-335.16 369.56,-335.16 2.02,-14.58 3.76,-28.58 5.24,-42.02 0,0 -81.46,129.58 -125.62,151.7l-3.28 -42.22c0,0 -21.19,51.77 -44.57,56.99l-3.32 -39.03z"/>
    <path class="fil7" d="M697 173.63c37.6,-15.62 -84.47,-166.52 -195.12,-173.63 -98.02,62.77 -158.16,250.67 -102.89,238.35 35.24,-14.84 92.1,-0.67 141.36,-13.85 61.52,-11.02 109.57,-47.47 156.64,-50.86z"/>
    <path class="fil7" d="M1394.73 1149.29c42.81,0.34 102.94,99.02 102.94,99.02 91.18,-81.07 -93.21,-512.91 -93.21,-512.91l-9.73 413.89z"/>
    <path class="fil15" d="M862.02 570.33c106.58,64.34 245.54,159.64 386.16,288.36 0,0 57.14,62.11 30.48,304.26 -1.48,13.45 -3.22,27.45 -5.24,42.02 0,0 -149.8,235.66 -369.56,335.16l0.68 6.38c206.12,-55.43 422.64,-283.33 501.22,-395.2 -0.12,-0.54 -143.28,-630.32 -637.44,-634.58 26.99,14.57 58.58,32.4 93.7,53.6zm-676.18 863.9c117.71,65.53 371.21,175 556.91,146.66 0,0 0,0 -0.7,-2.08 -245.35,10.79 -454.1,-155.73 -454.1,-155.73 -4.72,-7.26 -9.26,-14.37 -13.64,-21.35 -137.14,-218.62 -110.63,-302.84 -110.63,-302.84 92.93,-225.56 206.61,-400.39 280.65,-501.89 -421.23,229.44 -258.5,837.2 -258.49,837.24z"/>
    <path class="fil7" d="M347 586.32c0,0 318.53,360.59 544.44,-113.22l-282.24 -76.16 -262.21 189.39z"/>
    <path class="fil7" d="M187.02 1436.58c-38.61,18.49 -51.12,133.37 -51.12,133.37 -116.98,-34.65 -133.52,-503.92 -133.52,-503.92l184.64 370.55z"/>
    <circle class="fil16" transform="matrix(0.976029 -0.217639 0.217639 0.976029 345.928 518.352)" r="27.95"/>
    <path class="fil16" d="M382.82 540.29c-3.52,-33.94 -26.71,-62.82 -42.69,-67 -72.84,-19.07 -59.08,87.65 -59.08,87.65 0,0 26.21,-139.32 101.77,-20.65z"/>
    <circle class="fil16" transform="matrix(-0.976029 0.217639 0.217639 0.976029 829.813 410.454)" r="27.95"/>
    <path class="fil16" d="M805.73 445.99c-11.23,-32.22 -2.51,-68.21 10.18,-78.79 57.83,-48.21 90.72,54.25 90.72,54.25 0,0 -82.92,-114.98 -100.9,24.54z"/>
   </g>
   <ellipse class="fil8" transform="matrix(-0.536525 -0.481864 0.481864 -0.536525 612.632 1454.42)" rx="74.87" ry="103.82"/>
   <path class="fil7" d="M444.35 1958.72c-25.22,38.6 -55.09,86.64 -123.42,70.55 -55.2,-31.41 -44.14,-61.62 -18.02,-140.84 92.78,-283.73 181.24,-431.92 188.71,-419.78 9.59,15.6 50.9,-17.05 50.9,-17.05 -1.15,3.26 -1.84,5.53 -1.84,5.53 0.73,7.95 109.82,60.6 109.82,60.6l7.22 -14.19c30.46,4.22 23.29,35.46 23.29,35.46 -74.69,140.06 -158.54,287.82 -236.67,419.72z"/>
   <path class="fil9" d="M540.69 1457.13c0.73,7.95 109.82,60.6 109.82,60.6l7.22 -14.19 4.5 -21.97c-1.59,-6.37 -106.15,-53.42 -106.15,-53.42 -4.94,0.81 -10.68,15.27 -13.55,23.45 -1.15,3.26 -1.84,5.53 -1.84,5.53z"/>
   <path class="fil17" d="M991.13 964.15l-55.69 17.99c-23.16,0 -41.93,28.16 -41.93,62.89 0,34.73 18.77,62.89 41.93,62.89 23.16,0 41.93,-28.16 41.93,-62.89 0,-14.21 -3.14,-27.31 -8.43,-37.84l22.19 -43.05z"/>
   <path class="fil17" d="M627.76 1034.03l-55.69 17.99c-23.16,0 -41.93,28.16 -41.93,62.89 0,34.73 18.77,62.89 41.93,62.89 23.16,0 41.93,-28.16 41.93,-62.89 0,-14.21 -3.14,-27.31 -8.43,-37.84l22.19 -43.05z"/>
   <path class="fil18" d="M742.97 1379.43l115.8 -8.98c0,0 9.49,-25.95 -47.92,-88.35 -74.87,63.39 -67.88,97.33 -67.88,97.33z"/>
  </g>
 </g>
</svg>
