<?xml version="1.0" encoding="UTF-8"?>
<!DOCTYPE svg PUBLIC "-//W3C//DTD SVG 1.1//EN" "http://www.w3.org/Graphics/SVG/1.1/DTD/svg11.dtd">
<!-- Creator: CorelDRAW 2018 (64-Bit) -->
<svg xmlns="http://www.w3.org/2000/svg" xml:space="preserve" width="79.9277mm" height="172.496mm" version="1.1" style="shape-rendering:geometricPrecision; text-rendering:geometricPrecision; image-rendering:optimizeQuality; fill-rule:evenodd; clip-rule:evenodd"
viewBox="0 0 1009.52 2178.7"
 xmlns:xlink="http://www.w3.org/1999/xlink">
 <defs>
  <style type="text/css">
   <![CDATA[
    .str0 {stroke:#332C2B;stroke-width:2.53;stroke-miterlimit:22.9256}
    .str1 {stroke:#ECA4A9;stroke-width:12.63;stroke-linecap:round;stroke-miterlimit:22.9256}
    .fil18 {fill:none}
    .fil9 {fill:#ED84B1}
    .fil0 {fill:#AAB6BD}
    .fil10 {fill:#9499A1}
    .fil7 {fill:#7D3636}
    .fil1 {fill:#8A9096}
    .fil8 {fill:#572627}
    .fil16 {fill:#555A5E}
    .fil3 {fill:#403C37}
    .fil12 {fill:#494F57}
    .fil14 {fill:#404547}
    .fil17 {fill:#3C414A}
    .fil5 {fill:#3C4654}
    .fil4 {fill:#2E343B}
    .fil6 {fill:#2C333B}
    .fil13 {fill:#756A57}
    .fil15 {fill:#FFB096}
    .fil2 {fill:#FFC6B7}
    .fil11 {fill:#F7F1E4}
   ]]>
  </style>
 </defs>
 <g id="Layer_x0020_1">
  <metadata id="CorelCorpID_0Corel-Layer"/>
  <g id="_1585056195264">
   <path class="fil1" d="M754.3 1142.73c-1.81,18.35 -0.28,34.2 -21.58,45.04 -21.24,7.93 -38.03,6.66 -53.42,1.22 -18.77,-43.48 -38.29,-93.04 -57.56,-148.44 -57.15,-32.21 -69.54,-108.32 -69.54,-108.32 0,0 43.52,1.89 100.28,74.44 29.07,37.15 64.33,84.23 101.82,136.06z"/>
   <path class="fil1" d="M225.4 1127.53c1.81,18.35 0.28,34.2 21.58,45.04 21.24,7.93 38.03,6.66 53.42,1.22 18.77,-43.48 38.29,-93.04 57.56,-148.44 57.15,-32.21 69.54,-108.32 69.54,-108.32 0,0 -43.52,1.89 -100.28,74.44 -29.07,37.15 -64.33,84.23 -101.82,136.06z"/>
   <ellipse class="fil2" cx="489.68" cy="809.95" rx="84.66" ry="169.32"/>
   <g>
    <path class="fil3" d="M442.49 1619.91c-61.37,20.34 -140.9,-15.23 -145.35,-24.08 20.5,84.68 44.67,190.94 45.95,225.94 2.23,61.27 -13.37,248.41 10.03,272.91 0,0 31.19,17.82 57.92,-14.48 -2.23,-34.53 -3.34,-231.7 0,-256.2 2.05,-15.06 18.82,-123.05 31.45,-204.09z"/>
    <path class="fil4" d="M411.04 2080.21c-26.73,32.3 -57.92,14.48 -57.92,14.48 0,0 22.26,64.6 57.91,74.63 35.65,10.03 0.02,-89.11 0.02,-89.11z"/>
    <path class="fil3" d="M529.54 1627.32c61.37,20.34 140.9,-15.23 145.35,-24.08 -20.5,84.68 -44.67,190.94 -45.95,225.94 -2.23,61.27 13.37,248.41 -10.03,272.91 0,0 -31.19,17.82 -57.92,-14.48 2.23,-34.53 3.34,-231.7 0,-256.2 -2.05,-15.06 -18.82,-123.05 -31.45,-204.09z"/>
    <path class="fil4" d="M560.99 2087.61c26.73,32.3 57.92,14.48 57.92,14.48 0,0 -22.26,64.6 -57.91,74.63 -35.65,10.03 -0.02,-89.11 -0.02,-89.11z"/>
    <g>
     <path class="fil3" d="M456.71 1528.81c-65.07,-271.06 -188.25,-47.9 -188.25,-47.9 0,0 13.2,50.96 28.5,114.14 0.06,0.26 0.13,0.53 0.19,0.79 4.45,8.85 83.98,44.42 145.35,24.08 7.92,-50.86 14.22,-91.1 14.22,-91.1z"/>
     <path class="fil3" d="M515.32 1536.22c65.07,-271.06 188.25,-47.9 188.25,-47.9 0,0 -13.2,50.96 -28.5,114.14 -0.06,0.26 -0.13,0.53 -0.19,0.79 -4.45,8.85 -83.98,44.42 -145.35,24.08 -7.92,-50.86 -14.22,-91.1 -14.22,-91.1z"/>
     <path class="fil5" d="M449.03 1290.78c-24.67,62.23 -33.84,258.36 -35.54,300.02 0,0 62.16,7.24 69.4,5.57 7.24,1.67 72.01,-7.08 72.01,-7.08 -1.7,-41.67 -10.87,-237.79 -35.54,-300.02l-70.34 1.5z"/>
     <path class="fil6" d="M378.64 1280.77c-37.96,142.91 -53.67,256.98 -57.82,290.64 0,0 64.71,16.23 98.69,28.49 0,0 0.1,-2.78 0.3,-7.83 1.7,-41.67 10.87,-237.79 35.54,-300.02l-76.71 -11.28z"/>
     <path class="fil5" d="M372.32 1279.5c-37.96,142.91 -53.67,256.98 -57.82,290.64 0,0 64.71,16.23 98.69,28.49 0,0 0.1,-2.78 0.3,-7.83 1.7,-41.67 10.87,-237.79 35.54,-300.02l-76.71 -11.28z"/>
     <path class="fil6" d="M378.64 1282.03l-70.44 -17.54c0,0 -85.29,211.9 -85.29,289.32 0,0 76.68,13.4 96.74,29 0,0 0.37,-3.51 1.18,-10.13 4.14,-33.66 19.85,-147.73 57.82,-290.64z"/>
     <path class="fil5" d="M372.32 1279.5l-70.44 -17.54c0,0 -85.29,211.9 -85.29,289.32 0,0 76.68,13.4 96.74,29 0,0 0.37,-3.51 1.18,-10.13 4.14,-33.66 19.85,-147.73 57.82,-290.64z"/>
     <path class="fil6" d="M513.05 1290.54c24.67,62.23 33.84,258.36 35.54,300.02 0.2,5.05 0.3,7.83 0.3,7.83 33.97,-12.25 98.69,-28.49 98.69,-28.49 -4.14,-33.66 -19.85,-147.73 -57.82,-290.64l-76.71 11.28z"/>
     <path class="fil5" d="M519.37 1289.28c24.67,62.23 33.84,258.36 35.54,300.02 0.2,5.05 0.3,7.83 0.3,7.83 33.97,-12.25 98.69,-28.49 98.69,-28.49 -4.14,-33.66 -19.85,-147.73 -57.82,-290.64l-76.71 11.28z"/>
     <path class="fil6" d="M588.5 1280.53c37.96,142.91 53.67,256.98 57.82,290.64 0.82,6.63 1.18,10.13 1.18,10.13 20.05,-15.59 96.74,-29 96.74,-29 0,-77.42 -85.29,-289.32 -85.29,-289.32l-70.44 17.54z"/>
     <path class="fil5" d="M596.08 1278c37.96,142.91 53.67,256.98 57.82,290.64 0.82,6.63 1.18,10.13 1.18,10.13 20.05,-15.59 96.74,-29 96.74,-29 0,-77.42 -85.29,-289.32 -85.29,-289.32l-70.44 17.54z"/>
     <path class="fil6" d="M484.88 1014.9c0,0 -85.39,-4.33 -87.06,-41.65 -51.4,92.63 -103.84,275.03 -103.84,275.03 -0.56,13.37 4.45,13.93 4.45,13.93 130.06,38.45 190.35,31.8 190.35,31.8 0,0 73.38,-2.84 190.35,-31.8 0,0 5.01,-0.56 4.45,-13.93 0,0 -51.83,-180.29 -102.95,-273.42 -2.79,36.59 -85.15,40.38 -85.15,40.38l18.48 0.6c0,0 2.11,29.95 -9.59,37.28 10.34,55.45 16.11,70.2 12.77,113.3 -3.34,43.1 -30.08,53.05 -30.08,53.05 2.23,-16.58 -4.76,-96.19 -4.76,-96.19 -16.8,86.36 -43.14,102.87 -43.14,102.87 3.34,-25.69 3.34,-82.56 3.34,-82.56 -4.46,-64.21 34.02,-90.3 34.02,-90.3 0,0 -6.84,-5.14 -10.1,-39.01l18.46 0.6z"/>
     <path class="fil5" d="M484.88 1008.58c0,0 -85.39,-4.33 -87.06,-41.65 -51.4,92.63 -103.84,275.03 -103.84,275.03 -0.56,13.37 4.45,13.93 4.45,13.93 130.06,38.45 190.35,31.8 190.35,31.8 0,0 73.38,-2.84 190.35,-31.8 0,0 5.01,-0.56 4.45,-13.93 0,0 -51.83,-180.29 -102.95,-273.42 -2.79,36.59 -85.15,40.38 -85.15,40.38l18.48 0.6c0,0 2.11,29.95 -9.59,37.28 10.34,55.45 16.11,70.2 12.77,113.3 -3.34,43.1 -30.08,53.05 -30.08,53.05 2.23,-16.58 -4.76,-96.19 -4.76,-96.19 -16.8,86.36 -43.14,102.87 -43.14,102.87 3.34,-25.69 3.34,-82.56 3.34,-82.56 -4.46,-64.21 34.02,-90.3 34.02,-90.3 0,0 -6.84,-5.14 -10.1,-39.01l18.46 0.6z"/>
     <path class="fil5" d="M439.92 951.1c14.11,33.62 44.96,57.49 44.96,57.49l10.6 0.34c0,0 29.34,-23.31 43.08,-56.48 -40.26,-11.91 -98.64,-1.35 -98.64,-1.35z"/>
     <path class="fil6" d="M534.77 952.45c-13.73,33.16 -43.08,56.48 -43.08,56.48 0,0 82.36,-3.79 85.15,-40.38 -11.98,-21.83 -23.93,-38.87 -35.16,-47.67 -0.18,11.15 -2.87,21.79 -6.92,31.57z"/>
     <path class="fil6" d="M488.67 1008.58c0,0 -30.86,-23.86 -44.96,-57.49 -4.04,-9.63 -6.7,-20.05 -6.88,-30.95 -11.23,8.36 -23.2,25.12 -35.22,46.79 1.67,37.32 87.06,41.65 87.06,41.65z"/>
     <path class="fil6" d="M538.56 957.5c-13.73,33.16 -43.08,56.48 -43.08,56.48 0,0 82.36,-3.79 85.15,-40.38 -11.98,-21.83 -23.93,-38.87 -35.16,-47.67 -0.18,11.15 -2.87,21.79 -6.92,31.57z"/>
     <path class="fil5" d="M538.56 952.45c-13.73,33.16 -43.08,56.48 -43.08,56.48 0,0 82.36,-3.79 85.15,-40.38 -11.98,-21.83 -23.93,-38.87 -35.16,-47.67 -0.18,11.15 -2.87,21.79 -6.92,31.57z"/>
     <path class="fil6" d="M484.88 1013.63c0,0 -30.86,-23.86 -44.96,-57.49 -4.04,-9.63 -6.7,-20.05 -6.88,-30.95 -11.23,8.36 -23.2,25.12 -35.22,46.79 1.67,37.32 87.06,41.65 87.06,41.65z"/>
     <path class="fil5" d="M484.88 1008.58c0,0 -30.86,-23.86 -44.96,-57.49 -4.04,-9.63 -6.7,-20.05 -6.88,-30.95 -11.23,8.36 -23.2,25.12 -35.22,46.79 1.67,37.32 87.06,41.65 87.06,41.65z"/>
     <path class="fil7" d="M491.84 1046.89c-2.41,27.36 -5.73,50.52 -9.53,70.08 0,0 6.99,79.61 4.76,96.19 0,0 26.73,-9.95 30.08,-53.05 3.34,-43.11 -2.43,-57.86 -12.77,-113.3l-12.53 0.08z"/>
     <path class="fil8" d="M479.05 1046.99c0,0 -38.47,26.08 -34.02,90.3 0,0 0,56.87 -3.34,82.56 0,0 26.34,-16.51 43.14,-102.87 3.81,-19.57 7.12,-42.72 9.53,-70.08l-15.32 0.1z"/>
     <path class="fil7" d="M476.52 1046.99c0,0 -38.47,26.08 -34.02,90.3 0,0 0,56.87 -3.34,82.56 0,0 26.34,-16.51 43.14,-102.87 3.81,-19.57 7.12,-42.72 9.53,-70.08l-15.32 0.1z"/>
     <path class="fil8" d="M466.42 1010.51c3.26,33.86 10.1,39.01 10.1,39.01l15.32 -0.1 12.53 -0.08c11.7,-7.33 9.59,-37.28 9.59,-37.28l-18.48 -0.6 -10.6 -0.34 -18.46 -0.6z"/>
     <path class="fil7" d="M466.42 1007.98c3.26,33.86 10.1,39.01 10.1,39.01l15.32 -0.1 12.53 -0.08c11.7,-7.33 9.59,-37.28 9.59,-37.28l-18.48 -0.6 -10.6 -0.34 -18.46 -0.6z"/>
    </g>
    <g>
     <path class="fil1" d="M339.92 1404.88c0,0 -22.28,-335.29 116.96,-495.7l-24.51 2.23c0,0 -119.19,115.85 -197.17,453.37 0,0 -16.71,23.39 104.71,40.1z"/>
     <path class="fil1" d="M518.95 908.64c139.24,160.41 116.96,495.7 116.96,495.7 121.42,-16.71 104.71,-40.1 104.71,-40.1 -77.98,-337.52 -197.17,-453.37 -197.17,-453.37l-24.51 -2.23z"/>
    </g>
   </g>
   <g>
    <path class="fil9" d="M745.06 675.21c0.19,-0.74 0.29,-1.16 0.29,-1.16 0.02,0.29 -0.08,0.68 -0.29,1.16zm-182.04 -140.76c0.75,-31.34 3.93,-55.44 0,0zm-172.39 -111.67c-0.11,-12.4 0.44,-19.9 0.44,-19.9 0,0 1.59,7.14 -0.44,19.9zm99.64 65.88c0,0 2.92,93.26 3.03,99.62 1.02,5.57 51.13,7.63 65.81,-2.65 1.75,-21.77 3.01,-38.54 3.91,-51.18 -0.54,22.33 0.16,48.34 5.52,51.86 6.02,4.6 26.02,3.18 32.52,0.38 0,0 45.62,-75.7 30.19,-175.44 0,0 30.53,129.09 93.01,150.47 7.97,36.88 11.34,89.49 -9.93,147.37 0,0 27.56,-26.69 30.73,-33.86 -1.16,4.51 -5.51,20.87 -9.15,26.31 0,0 10.71,-6.96 20.4,-15.12 47.8,-7.34 36.88,77.35 -37.22,87.06 -11.45,21.73 -26.57,41.43 -44.66,59.02l-2.93 21.66c13.37,0 31.19,-25.62 31.19,-25.62l-3.34 23.39c26.73,-6.68 86.83,-67.36 86.83,-67.36 43.93,-128.63 20.35,-169.39 20.35,-169.39 -60.95,-87.17 -125.05,-155.94 -175.27,-203.92 -54.57,-52.13 -92.76,-79.72 -92.76,-79.72 0,0 -24.08,-6.95 -44.16,-9.14 -20.08,2.19 -39.51,8.25 -39.51,8.25 0,0 -140.87,101.77 -268.03,283.64 0,0 -24.67,42.65 23.47,178.35 0,0 59.49,63.66 86.23,70.34l-3.34 -23.39c0,0 17.82,25.62 31.19,25.62l-2.08 -23.62c-21.21,-20 -38.82,-42.97 -52.39,-68.72 -74.07,-9.71 -82.3,-92.51 -34.56,-85.23 15.93,9.93 43.1,25.18 43.1,25.18 -5.66,-8.98 -12.05,-28.29 -12.05,-28.29 5.92,12.65 16.47,14.92 16.47,14.92 -7.4,-51.44 -2.4,-101.18 5.65,-141.06 78.78,-59.96 98.01,-109.5 102.15,-135.58 0.33,36.47 6.35,115.32 48.74,170.32 0.24,3.38 38.41,-1.65 42.93,-4.04 0,0 3.35,-16 5.71,-43.37 1.34,-15.6 2.37,-34.9 2.26,-57.03z"/>
    <path class="fil10" d="M631.25 411.24c50.23,47.98 114.33,116.75 175.27,203.92 0,0 23.58,40.76 -20.35,169.39 -2.44,7.14 -5.09,14.56 -7.96,22.25 0,0 -110.19,110.14 -241.95,137.64l-0.4 3.56c153.24,-6.64 350.66,-167.02 344.7,-183.87 100.46,-179.16 -65.54,-399.22 -65.54,-399.22 -125.72,-164.35 -198.94,-199.69 -198.94,-199.69 0,0 -57.05,-14.61 -117.18,-17.7 -60.13,3.09 -106.27,21.25 -106.27,21.25 0,0 -73.22,35.34 -198.94,199.69 0,0 -166,220.06 -65.54,399.22 0.89,12.53 176.1,169.92 315.45,179.4 0,0 0,0 -0.13,-1.22 -134.92,-23.91 -228.37,-139.94 -228.37,-139.94 -1.69,-4.52 -3.3,-8.95 -4.84,-13.28 -48.14,-135.7 -23.47,-178.35 -23.47,-178.35 127.16,-181.87 268.03,-283.64 268.03,-283.64 0,0 19.43,-6.06 39.51,-8.25 20.08,2.19 44.16,9.14 44.16,9.14 0,0 38.2,27.59 92.76,79.72z"/>
    <path class="fil11" d="M601.06 586.69c-6.5,2.81 -26.5,4.22 -32.52,-0.38 -5.37,-3.52 -6.06,-29.52 -5.52,-51.86 -0.89,12.64 -2.16,29.42 -3.91,51.18 -14.68,10.27 -64.79,8.22 -65.81,2.65 -0.11,-6.36 -3.03,-99.62 -3.03,-99.62 0.11,22.13 -0.91,41.42 -2.26,57.03 -2.36,27.37 -5.71,43.37 -5.71,43.37 -4.52,2.39 -42.69,7.43 -42.93,4.04 -42.4,-55 -48.42,-133.85 -48.74,-170.32 -4.14,26.08 -23.38,75.62 -102.15,135.58 -8.05,39.88 -13.05,89.61 -5.65,141.06 0,0 -10.55,-2.27 -16.47,-14.92 0,0 6.39,19.31 12.05,28.29 0,0 -27.17,-15.25 -43.1,-25.18 -47.75,-7.28 -39.52,75.52 34.56,85.23 13.57,25.75 31.18,48.73 52.39,68.72 31.65,29.84 71.3,53.05 117.49,68.99 15.81,5.46 32.39,10.06 49.68,13.78 16.9,-3.64 33.41,-8.1 49.37,-13.37 53.04,-17.51 100.07,-43.9 135.64,-78.49 18.09,-17.59 33.21,-37.29 44.66,-59.02 74.1,-9.71 85.02,-94.4 37.22,-87.06 -9.69,8.17 -20.4,15.12 -20.4,15.12 3.64,-5.44 8,-21.8 9.15,-26.31 -3.17,7.18 -30.73,33.86 -30.73,33.86 21.27,-57.88 17.9,-110.48 9.93,-147.37 -62.49,-21.37 -93.01,-150.47 -93.01,-150.47 15.44,99.75 -30.19,175.44 -30.19,175.44z"/>
    <path class="fil12" d="M439.74 910.56c-46.19,-15.93 -85.84,-39.15 -117.49,-68.99l2.08 23.62c-13.37,0 -31.19,-25.62 -31.19,-25.62l3.34 23.39c-26.73,-6.68 -86.23,-70.34 -86.23,-70.34 1.54,4.33 3.15,8.76 4.84,13.28 0,0 93.46,116.03 228.37,139.94 -0.27,-2.57 -1.11,-10.54 -3.72,-35.29z"/>
    <path class="fil12" d="M674.43 832.48c-35.57,34.59 -82.6,60.98 -135.64,78.49l1.26 0 -3.78 33.47c131.75,-27.5 241.95,-137.64 241.95,-137.64 2.87,-7.69 5.52,-15.1 7.96,-22.25 0,0 -60.09,60.67 -86.83,67.36l3.34 -23.39c0,0 -17.82,25.62 -31.19,25.62l2.93 -21.66z"/>
    <path class="fil13" d="M745.06 675.21c0.19,-0.74 0.29,-1.16 0.29,-1.16 0.02,0.29 -0.08,0.68 -0.29,1.16zm-182.04 -140.76c0.75,-31.34 3.93,-55.44 0,0zm-172.39 -111.67c-0.11,-12.4 0.44,-19.9 0.44,-19.9 0,0 1.59,7.14 -0.44,19.9zm99.64 65.88c0,0 2.92,93.26 3.03,99.62 1.02,5.57 51.13,7.63 65.81,-2.65 1.75,-21.77 3.01,-38.54 3.91,-51.18 -0.54,22.33 0.16,48.34 5.52,51.86 6.02,4.6 26.02,3.18 32.52,0.38 0,0 45.62,-75.7 30.19,-175.44 0,0 30.53,129.09 93.01,150.47 7.97,36.88 11.34,89.49 -9.93,147.37 0,0 27.56,-26.69 30.73,-33.86 -1.16,4.51 -5.51,20.87 -9.15,26.31 0,0 10.71,-6.96 20.4,-15.12 47.8,-7.34 36.88,77.35 -37.22,87.06 -11.45,21.73 -26.57,41.43 -44.66,59.02l-2.93 21.66c13.37,0 31.19,-25.62 31.19,-25.62l-3.34 23.39c26.73,-6.68 86.83,-67.36 86.83,-67.36 43.93,-128.63 20.35,-169.39 20.35,-169.39 -60.95,-87.17 -125.05,-155.94 -175.27,-203.92 -54.57,-52.13 -92.76,-79.72 -92.76,-79.72 0,0 -24.08,-6.95 -44.16,-9.14 -20.08,2.19 -39.51,8.25 -39.51,8.25 0,0 -140.87,101.77 -268.03,283.64 0,0 -24.67,42.65 23.47,178.35 0,0 59.49,63.66 86.23,70.34l-3.34 -23.39c0,0 17.82,25.62 31.19,25.62l-2.08 -23.62c-21.21,-20 -38.82,-42.97 -52.39,-68.72 -74.07,-9.71 -82.3,-92.51 -34.56,-85.23 15.93,9.93 43.1,25.18 43.1,25.18 -5.66,-8.98 -12.05,-28.29 -12.05,-28.29 5.92,12.65 16.47,14.92 16.47,14.92 -7.4,-51.44 -2.4,-101.18 5.65,-141.06 78.78,-59.96 98.01,-109.5 102.15,-135.58 0.33,36.47 6.35,115.32 48.74,170.32 0.24,3.38 38.41,-1.65 42.93,-4.04 0,0 3.35,-16 5.71,-43.37 1.34,-15.6 2.37,-34.9 2.26,-57.03z"/>
    <path class="fil1" d="M631.25 411.24c50.23,47.98 114.33,116.75 175.27,203.92 0,0 23.58,40.76 -20.35,169.39 -2.44,7.14 -5.09,14.56 -7.96,22.25 0,0 -110.19,110.14 -241.95,137.64l-0.4 3.56c153.24,-6.64 350.66,-167.02 344.7,-183.87 100.46,-179.16 -65.54,-399.22 -65.54,-399.22 -125.72,-164.35 -198.94,-199.69 -198.94,-199.69 0,0 -57.05,-14.61 -117.18,-17.7 -60.13,3.09 -106.27,21.25 -106.27,21.25 0,0 -73.22,35.34 -198.94,199.69 0,0 -166,220.06 -65.54,399.22 0.89,12.53 176.1,169.92 315.45,179.4 0,0 0,0 -0.13,-1.22 -134.92,-23.91 -228.37,-139.94 -228.37,-139.94 -1.69,-4.52 -3.3,-8.95 -4.84,-13.28 -48.14,-135.7 -23.47,-178.35 -23.47,-178.35 127.16,-181.87 268.03,-283.64 268.03,-283.64 0,0 19.43,-6.06 39.51,-8.25 20.08,2.19 44.16,9.14 44.16,9.14 0,0 38.2,27.59 92.76,79.72z"/>
    <path class="fil2" d="M601.06 586.69c-6.5,2.81 -26.5,4.22 -32.52,-0.38 -5.37,-3.52 -6.06,-29.52 -5.52,-51.86 -0.89,12.64 -2.16,29.42 -3.91,51.18 -14.68,10.27 -64.79,8.22 -65.81,2.65 -0.11,-6.36 -3.03,-99.62 -3.03,-99.62 0.11,22.13 -0.91,41.42 -2.26,57.03 -2.36,27.37 -5.71,43.37 -5.71,43.37 -4.52,2.39 -42.69,7.43 -42.93,4.04 -42.4,-55 -48.42,-133.85 -48.74,-170.32 -4.14,26.08 -23.38,75.62 -102.15,135.58 -8.05,39.88 -13.05,89.61 -5.65,141.06 0,0 -10.55,-2.27 -16.47,-14.92 0,0 6.39,19.31 12.05,28.29 0,0 -27.17,-15.25 -43.1,-25.18 -47.75,-7.28 -39.52,75.52 34.56,85.23 13.57,25.75 31.18,48.73 52.39,68.72 31.65,29.84 71.3,53.05 117.49,68.99 15.81,5.46 32.39,10.06 49.68,13.78 16.9,-3.64 33.41,-8.1 49.37,-13.37 53.04,-17.51 100.07,-43.9 135.64,-78.49 18.09,-17.59 33.21,-37.29 44.66,-59.02 74.1,-9.71 85.02,-94.4 37.22,-87.06 -9.69,8.17 -20.4,15.12 -20.4,15.12 3.64,-5.44 8,-21.8 9.15,-26.31 -3.17,7.18 -30.73,33.86 -30.73,33.86 21.27,-57.88 17.9,-110.48 9.93,-147.37 -62.49,-21.37 -93.01,-150.47 -93.01,-150.47 15.44,99.75 -30.19,175.44 -30.19,175.44z"/>
    <path class="fil12" d="M439.74 910.56c-46.19,-15.93 -85.84,-39.15 -117.49,-68.99l2.08 23.62c-13.37,0 -31.19,-25.62 -31.19,-25.62l3.34 23.39c-26.73,-6.68 -86.23,-70.34 -86.23,-70.34 1.54,4.33 3.15,8.76 4.84,13.28 0,0 93.46,116.03 228.37,139.94 -0.27,-2.57 -1.11,-10.54 -3.72,-35.29z"/>
    <path class="fil12" d="M674.43 832.48c-35.57,34.59 -82.6,60.98 -135.64,78.49l1.26 0 -3.78 33.47c131.75,-27.5 241.95,-137.64 241.95,-137.64 2.87,-7.69 5.52,-15.1 7.96,-22.25 0,0 -60.09,60.67 -86.83,67.36l3.34 -23.39c0,0 -17.82,25.62 -31.19,25.62l2.93 -21.66z"/>
    <path class="fil1" d="M589.55 175.18c22.37,-3.94 -25.78,-100.94 -85.17,-118.25 -61,22.28 -116.56,117.3 -84.97,117.3 20.99,-3.8 50.23,10.82 78.66,9.62 34.84,1.47 65.43,-12.55 91.48,-8.68z"/>
    <path class="fil1" d="M851.04 791.21c23.27,5.38 44.03,66.42 44.03,66.42 59.49,-33.07 11.52,-290.63 11.52,-290.63l-55.55 224.2z"/>
    <path class="fil0" d="M631.25 411.24c50.23,47.98 114.33,116.75 175.27,203.92 0,0 23.58,40.76 -20.35,169.39 -2.44,7.14 -5.09,14.56 -7.96,22.25 0,0 -110.19,110.14 -241.95,137.64l-0.4 3.56c118.97,-5.16 264.56,-102.97 320.93,-154.35 -0,-0.31 -1.49,-360.64 -270.07,-422.97 12.93,11.21 27.97,24.76 44.52,40.57zm-473.12 388.34c56.14,49.98 180.9,140.37 285.46,147.49 0,0 0,0 -0.13,-1.22 -134.92,-23.91 -228.37,-139.94 -228.37,-139.94 -1.69,-4.52 -3.3,-8.95 -4.84,-13.28 -48.14,-135.7 -23.47,-178.35 -23.47,-178.35 77.99,-111.55 161.13,-192.95 213.77,-239.23 -257.25,73.79 -242.43,424.51 -242.43,424.54z"/>
    <path class="fil1" d="M348.85 357.41c0,0 129.67,235.04 310.23,4.45l-144.45 -75.75 -165.78 71.29z"/>
    <path class="fil1" d="M158.48 801c-23.27,5.38 -44.03,66.42 -44.03,66.42 -59.49,-33.07 -11.52,-290.63 -11.52,-290.63l55.55 224.2z"/>
    <circle class="fil14" cx="356.52" cy="320.27" r="15.59"/>
    <path class="fil14" d="M373.95 336.7c2.2,-18.91 -6.92,-37.45 -15.11,-41.67 -37.35,-19.23 -42.81,40.56 -42.81,40.56 0,0 31.19,-72.68 57.92,1.11z"/>
    <circle class="fil14" cx="633.12" cy="320.27" r="15.59"/>
    <path class="fil14" d="M615.7 336.7c-2.2,-18.91 6.92,-37.45 15.11,-41.67 37.35,-19.23 42.81,40.56 42.81,40.56 0,0 -31.19,-72.68 -57.92,1.11z"/>
   </g>
   <ellipse class="fil15" transform="matrix(0.0601631 -0.718633 0.718633 0.0601631 628.943 1091.69)" rx="41.77" ry="57.92"/>
   <path class="fil1" d="M347.97 1186.74c-25.66,1.79 -57.09,4.69 -72.95,-31.13 -4.63,-35.13 12.54,-40.39 56.57,-55.46 157.45,-54.32 253.15,-64.9 250.27,-57.48 -3.7,9.52 24.73,16.9 24.73,16.9 -1.84,0.59 -3.08,1.05 -3.08,1.05 -3.29,3 10.04,69.26 10.04,69.26l8.75 -1.57c8.38,14.97 -7.92,22.31 -7.92,22.31 -87.45,13.97 -181.42,26.45 -266.4,36.14z"/>
   <path class="fil16" d="M603.5 1060.61c-3.29,3 10.04,69.26 10.04,69.26l8.75 -1.57 11.29 -5.4c2.3,-2.85 -12,-65.21 -12,-65.21 -2.03,-1.92 -10.39,0.39 -15,1.87 -1.84,0.59 -3.08,1.05 -3.08,1.05z"/>
   <ellipse class="fil15" transform="matrix(-0.0601631 -0.718633 -0.718633 0.0601631 335.65 1074.31)" rx="41.77" ry="57.92"/>
   <path class="fil1" d="M616.63 1169.36c25.66,1.79 57.09,4.69 72.95,-31.13 4.63,-35.13 -12.54,-40.39 -56.57,-55.46 -157.45,-54.32 -253.15,-64.9 -250.27,-57.48 3.7,9.52 -24.73,16.9 -24.73,16.9 1.84,0.59 3.08,1.05 3.08,1.05 3.29,3 -10.04,69.26 -10.04,69.26l-8.75 -1.57c-8.38,14.97 7.92,22.31 7.92,22.31 87.45,13.97 181.42,26.45 266.4,36.14z"/>
   <path class="fil16" d="M361.09 1043.23c3.29,3 -10.04,69.26 -10.04,69.26l-8.75 -1.57 -11.29 -5.4c-2.3,-2.85 12,-65.21 12,-65.21 2.03,-1.92 10.39,0.39 15,1.87 1.84,0.59 3.08,1.05 3.08,1.05z"/>
   <path class="fil17" d="M631.75 626.67l-31.07 10.04c-12.92,0 -23.39,15.71 -23.39,35.09 0,19.38 10.47,35.09 23.39,35.09 12.92,0 23.39,-15.71 23.39,-35.09 0,-7.93 -1.75,-15.24 -4.71,-21.11l12.38 -24.02z"/>
   <path class="fil17" d="M358.96 619.98l31.07 10.04c12.92,0 23.39,15.71 23.39,35.09 0,19.38 -10.47,35.09 -23.39,35.09 -12.92,0 -23.39,-15.71 -23.39,-35.09 0,-7.93 1.75,-15.24 4.71,-21.11l-12.38 -24.02z"/>
   <polyline class="fil18 str1" points="457.34,845.66 492.98,800.55 531.97,848.45 "/>
  </g>
 </g>
</svg>
