<?xml version="1.0" encoding="UTF-8"?>
<!DOCTYPE svg PUBLIC "-//W3C//DTD SVG 1.1//EN" "http://www.w3.org/Graphics/SVG/1.1/DTD/svg11.dtd">
<!-- Creator: CorelDRAW 2018 (64-Bit) -->
<svg xmlns="http://www.w3.org/2000/svg" xml:space="preserve" width="66.5237mm" height="167.889mm" version="1.1" style="shape-rendering:geometricPrecision; text-rendering:geometricPrecision; image-rendering:optimizeQuality; fill-rule:evenodd; clip-rule:evenodd"
viewBox="0 0 20682.16 52196.44"
 xmlns:xlink="http://www.w3.org/1999/xlink">
 <defs>
  <style type="text/css">
   <![CDATA[
    .str0 {stroke:#ECA4A9;stroke-width:310.9;stroke-linecap:round;stroke-miterlimit:22.9256}
    .fil18 {fill:none}
    .fil8 {fill:#ED84B1}
    .fil13 {fill:#AAB6BD}
    .fil9 {fill:#9499A1}
    .fil6 {fill:#7D3636}
    .fil0 {fill:#8A9096}
    .fil7 {fill:#572627}
    .fil16 {fill:#555A5E}
    .fil2 {fill:#403C37}
    .fil11 {fill:#494F57}
    .fil14 {fill:#404547}
    .fil17 {fill:#3C414A}
    .fil4 {fill:#3C4654}
    .fil3 {fill:#2E343B}
    .fil5 {fill:#2C333B}
    .fil12 {fill:#756A57}
    .fil15 {fill:#FFB096}
    .fil1 {fill:#FFC6B7}
    .fil10 {fill:#F7F1E4}
   ]]>
  </style>
 </defs>
 <g id="Layer_x0020_1">
  <metadata id="CorelCorpID_0Corel-Layer"/>
  <g id="_2555358952480">
   <path class="fil0" d="M16483.47 26727c-44.55,451.8 -6.87,841.88 -531.23,1108.6 -522.81,195.15 -936.02,164.03 -1314.92,30.13 -462.06,-1070.36 -942.61,-2290.21 -1416.89,-3653.9 -1406.73,-792.92 -1711.65,-2666.39 -1711.65,-2666.39 0,0 1071.14,46.48 2468.29,1832.35 715.5,914.57 1583.5,2073.29 2506.41,3349.22z"/>
   <path class="fil0" d="M3464.69 26352.89c44.55,451.8 6.87,841.88 531.23,1108.6 522.81,195.15 936.02,164.03 1314.92,30.13 462.06,-1070.36 942.61,-2290.21 1416.89,-3653.9 1406.73,-792.92 1711.65,-2666.39 1711.65,-2666.39 0,0 -1071.14,46.48 -2468.29,1832.35 -715.5,914.57 -1583.5,2073.29 -2506.41,3349.22z"/>
   <ellipse class="fil1" cx="9969.94" cy="18535.65" rx="2083.86" ry="4167.79"/>
   <g>
    <path class="fil2" d="M8808.27 38472.99c-1510.69,500.7 -3468.36,-374.91 -3577.83,-592.67 504.53,2084.3 1099.65,4699.95 1130.99,5561.52 54.84,1508.08 -329.02,6114.55 246.79,6717.78 0,0 767.73,438.71 1425.81,-356.45 -54.84,-850 -82.26,-5703.29 0,-6306.49 50.55,-370.62 463.36,-3028.84 774.23,-5023.69z"/>
    <path class="fil3" d="M8034.04 49803.17c-658.08,795.16 -1425.81,356.45 -1425.81,356.45 0,0 547.99,1590.19 1425.44,1836.98 877.45,246.79 0.37,-2193.42 0.37,-2193.42z"/>
    <path class="fil2" d="M10951.05 38655.3c1510.69,500.7 3468.36,-374.91 3577.83,-592.67 -504.53,2084.3 -1099.65,4699.95 -1130.99,5561.52 -54.84,1508.08 329.02,6114.55 -246.79,6717.78 0,0 -767.73,438.71 -1425.81,-356.45 54.84,-850 82.26,-5703.29 0,-6306.49 -50.55,-370.62 -463.36,-3028.84 -774.23,-5023.69z"/>
    <path class="fil3" d="M11725.28 49985.49c658.08,795.16 1425.81,356.45 1425.81,356.45 0,0 -547.99,1590.19 -1425.44,1836.98 -877.45,246.79 -0.37,-2193.42 -0.37,-2193.42z"/>
    <g>
     <path class="fil2" d="M9158.25 36230.47c-1601.6,-6672.21 -4633.92,-1179.05 -4633.92,-1179.05 0,0 324.86,1254.42 701.42,2809.5 1.59,6.47 3.14,12.93 4.73,19.4 109.47,217.75 2067.11,1093.37 3577.8,592.67 195.06,-1251.9 349.98,-2242.52 349.98,-2242.52z"/>
     <path class="fil2" d="M10601.07 36412.78c1601.6,-6672.21 4633.92,-1179.05 4633.92,-1179.05 0,0 -324.86,1254.42 -701.42,2809.5 -1.59,6.47 -3.14,12.93 -4.73,19.4 -109.47,217.75 -2067.11,1093.37 -3577.8,592.67 -195.06,-1251.9 -349.98,-2242.52 -349.98,-2242.52z"/>
     <path class="fil4" d="M8969.25 30371.27c-607.22,1531.89 -832.99,6359.44 -874.71,7385.03 0,0 1530.03,178.3 1708.27,137.17 178.24,41.13 1772.62,-174.17 1772.62,-174.17 -41.72,-1025.59 -267.5,-5853.14 -874.71,-7385.03l-1731.46 37z"/>
     <path class="fil5" d="M7236.58 30124.78c-934.47,3517.82 -1321.2,6325.68 -1423.14,7154.16 0,0 1592.86,399.54 2429.15,701.17 0,0 2.36,-68.46 7.4,-192.73 41.72,-1025.59 267.5,-5853.14 874.71,-7385.03l-1888.12 -277.57z"/>
     <path class="fil4" d="M7081.13 30093.7c-934.47,3517.82 -1321.2,6325.68 -1423.14,7154.16 0,0 1592.86,399.54 2429.15,701.17 0,0 2.36,-68.46 7.4,-192.73 41.72,-1025.59 267.5,-5853.14 874.71,-7385.03l-1888.12 -277.57z"/>
     <path class="fil5" d="M7236.58 30155.87l-1733.98 -431.81c0,0 -2099.41,5215.99 -2099.41,7121.67 0,0 1887.59,329.9 2381.15,713.76 0,0 9.02,-86.37 29.1,-249.47 101.94,-828.48 488.67,-3636.34 1423.14,-7154.16z"/>
     <path class="fil4" d="M7081.13 30093.7l-1733.98 -431.81c0,0 -2099.41,5215.99 -2099.41,7121.67 0,0 1887.59,329.9 2381.15,713.76 0,0 9.02,-86.37 29.1,-249.47 101.94,-828.48 488.67,-3636.34 1423.14,-7154.16z"/>
     <path class="fil5" d="M10545.26 30365.36c607.22,1531.89 832.99,6359.44 874.71,7385.03 5.04,124.27 7.4,192.73 7.4,192.73 836.29,-301.63 2429.15,-701.17 2429.15,-701.17 -101.94,-828.48 -488.67,-3636.34 -1423.14,-7154.16l-1888.12 277.57z"/>
     <path class="fil4" d="M10700.71 30334.27c607.22,1531.89 832.99,6359.44 874.71,7385.03 5.04,124.27 7.4,192.73 7.4,192.73 836.29,-301.63 2429.15,-701.17 2429.15,-701.17 -101.94,-828.48 -488.67,-3636.34 -1423.14,-7154.16l-1888.12 277.57z"/>
     <path class="fil5" d="M12402.29 30118.88c934.47,3517.82 1321.2,6325.68 1423.14,7154.16 20.08,163.1 29.1,249.47 29.1,249.47 493.55,-383.87 2381.15,-713.76 2381.15,-713.76 0,-1905.69 -2099.41,-7121.67 -2099.41,-7121.67l-1733.98 431.81z"/>
     <path class="fil4" d="M12588.83 30056.7c934.47,3517.82 1321.2,6325.68 1423.14,7154.16 20.08,163.1 29.1,249.47 29.1,249.47 493.55,-383.87 2381.15,-713.76 2381.15,-713.76 0,-1905.69 -2099.41,-7121.67 -2099.41,-7121.67l-1733.98 431.81z"/>
     <path class="fil5" d="M9851.71 23580.39c0,0 -2101.93,-106.61 -2143.06,-1025.19 -1265.3,2280.2 -2555.99,6769.98 -2555.99,6769.98 -13.71,329.06 109.65,342.77 109.65,342.77 3201.51,946.38 4685.4,782.84 4685.4,782.84 0,0 1806.32,-69.92 4685.4,-782.84 0,0 123.36,-13.71 109.65,-342.77 0,0 -1275.81,-4437.96 -2534.01,-6730.19 -68.74,900.71 -2096.08,993.88 -2096.08,993.88l454.78 14.77c0,0 51.95,737.27 -235.94,917.74 254.47,1364.85 396.52,1727.98 314.26,2789.01 -82.26,1061.01 -740.31,1305.84 -740.31,1305.84 54.84,-408.06 -117.15,-2367.75 -117.15,-2367.75 -413.56,2125.77 -1061.91,2532.27 -1061.91,2532.27 82.26,-632.24 82.26,-2032.22 82.26,-2032.22 -109.69,-1580.64 837.31,-2222.71 837.31,-2222.71 0,0 -168.35,-126.6 -248.66,-960.18l454.38 14.74z"/>
     <path class="fil4" d="M9851.71 23424.94c0,0 -2101.93,-106.61 -2143.06,-1025.19 -1265.3,2280.2 -2555.99,6769.98 -2555.99,6769.98 -13.71,329.06 109.65,342.77 109.65,342.77 3201.51,946.38 4685.4,782.84 4685.4,782.84 0,0 1806.32,-69.92 4685.4,-782.84 0,0 123.36,-13.71 109.65,-342.77 0,0 -1275.81,-4437.96 -2534.01,-6730.19 -68.74,900.71 -2096.08,993.88 -2096.08,993.88l454.78 14.77c0,0 51.95,737.27 -235.94,917.74 254.47,1364.85 396.52,1727.98 314.26,2789.01 -82.26,1061.01 -740.31,1305.84 -740.31,1305.84 54.84,-408.06 -117.15,-2367.75 -117.15,-2367.75 -413.56,2125.77 -1061.91,2532.27 -1061.91,2532.27 82.26,-632.24 82.26,-2032.22 82.26,-2032.22 -109.69,-1580.64 837.31,-2222.71 837.31,-2222.71 0,0 -168.35,-126.6 -248.66,-960.18l454.38 14.74z"/>
     <path class="fil4" d="M8744.94 22009.91c347.24,827.68 1106.77,1415.03 1106.77,1415.06l260.97 8.46c0,0 722.31,-573.83 1060.32,-1390.19 -990.99,-293.05 -2428.06,-33.33 -2428.06,-33.33z"/>
     <path class="fil5" d="M11079.73 22043.24c-338.01,816.36 -1060.32,1390.19 -1060.32,1390.19 0,0 2027.34,-93.18 2096.08,-993.88 -294.98,-537.39 -589,-956.85 -865.39,-1173.52 -4.41,274.49 -70.67,536.43 -170.37,777.22z"/>
     <path class="fil5" d="M9944.98 23424.94c0,0 -759.53,-587.35 -1106.77,-1415.03 -99.43,-236.97 -165.03,-493.65 -169.35,-761.89 -276.36,205.82 -570.97,618.32 -866.94,1151.73 41.13,918.58 2143.06,1025.19 2143.06,1025.19z"/>
     <path class="fil5" d="M11173 22167.6c-338.01,816.36 -1060.32,1390.19 -1060.32,1390.19 0,0 2027.34,-93.18 2096.08,-993.88 -294.98,-537.39 -589,-956.85 -865.39,-1173.52 -4.41,274.49 -70.67,536.43 -170.37,777.22z"/>
     <path class="fil4" d="M11173 22043.24c-338.01,816.36 -1060.32,1390.19 -1060.32,1390.19 0,0 2027.34,-93.18 2096.08,-993.88 -294.98,-537.39 -589,-956.85 -865.39,-1173.52 -4.41,274.49 -70.67,536.43 -170.37,777.22z"/>
     <path class="fil5" d="M9851.71 23549.3c0,0 -759.53,-587.35 -1106.77,-1415.03 -99.43,-236.97 -165.03,-493.65 -169.35,-761.89 -276.36,205.82 -570.97,618.32 -866.94,1151.73 41.13,918.58 2143.06,1025.19 2143.06,1025.19z"/>
     <path class="fil4" d="M9851.71 23424.94c0,0 -759.53,-587.35 -1106.77,-1415.03 -99.43,-236.97 -165.03,-493.65 -169.35,-761.89 -276.36,205.82 -570.97,618.32 -866.94,1151.73 41.13,918.58 2143.06,1025.19 2143.06,1025.19z"/>
     <path class="fil6" d="M10023.01 24367.93c-59.32,673.5 -140.99,1243.44 -234.7,1725.12 0,0 171.99,1959.69 117.15,2367.75 0,0 658.05,-244.83 740.31,-1305.84 82.26,-1061.04 -59.79,-1424.17 -314.26,-2789.01l-308.51 1.99z"/>
     <path class="fil7" d="M9708.17 24370.38c0,0 -947,642.07 -837.31,2222.71 0,0 0,1399.98 -82.26,2032.22 0,0 648.35,-406.5 1061.91,-2532.27 93.7,-481.68 175.38,-1051.62 234.7,-1725.12l-377.03 2.46z"/>
     <path class="fil6" d="M9645.99 24370.38c0,0 -947,642.07 -837.31,2222.71 0,0 0,1399.98 -82.26,2032.22 0,0 648.35,-406.5 1061.91,-2532.27 93.7,-481.68 175.38,-1051.62 234.7,-1725.12l-377.03 2.46z"/>
     <path class="fil7" d="M9397.33 23472.38c80.31,833.58 248.66,960.18 248.66,960.18l377.03 -2.46 308.51 -1.99c287.89,-180.48 235.94,-917.74 235.94,-917.74l-454.78 -14.77 -261 -8.49 -454.35 -14.74z"/>
     <path class="fil6" d="M9397.33 23410.2c80.31,833.58 248.66,960.18 248.66,960.18l377.03 -2.46 308.51 -1.99c287.89,-180.48 235.94,-917.74 235.94,-917.74l-454.78 -14.77 -261 -8.49 -454.35 -14.74z"/>
    </g>
    <g>
     <path class="fil0" d="M6283.61 33179.77c0,0 -548.39,-8253.25 2879.05,-12201.7l-603.24 54.81c0,0 -2933.89,2851.63 -4853.26,11159.79 0,0 -411.29,575.82 2577.45,987.1z"/>
     <path class="fil0" d="M10690.3 20964.77c3427.44,3948.45 2879.05,12201.7 2879.05,12201.7 2988.74,-411.29 2577.45,-987.1 2577.45,-987.1 -1919.37,-8308.16 -4853.26,-11159.79 -4853.26,-11159.79l-603.24 -54.81z"/>
    </g>
   </g>
   <g>
    <path class="fil8" d="M16256.17 15219.07c4.66,-18.25 7.21,-28.6 7.21,-28.6 0.5,7.18 -2.02,16.82 -7.21,28.6zm-4481.02 -3464.88c18.56,-771.43 96.66,-1364.75 0,0zm-4243.46 -2748.66c-2.74,-305.18 10.73,-489.82 10.73,-489.82 0,0 39.11,175.81 -10.73,489.82zm2452.75 1621.59c0,0 71.82,2295.68 74.65,2452.15 25.15,137.17 1258.49,187.72 1619.94,-65.2 43,-535.8 74.12,-948.74 96.13,-1259.89 -13.21,549.73 3.82,1189.9 135.93,1276.49 148.21,113.2 640.51,78.35 800.57,9.3 0,0 1123,-1863.25 743.02,-4318.54 0,0 751.38,3177.67 2289.49,3703.77 196.3,907.86 279.16,2202.84 -244.37,3627.45 0,0 678.35,-656.87 756.39,-833.58 -28.45,110.99 -135.61,513.76 -225.31,647.57 0,0 263.52,-171.24 502.1,-372.27 1176.57,-180.57 907.76,1904.01 -916.16,2143.09 -281.83,534.87 -654.13,1019.84 -1099.31,1452.71l-72.16 533.13c329.02,0 767.77,-630.63 767.77,-630.63l-82.26 575.79c658.08,-164.53 2137.28,-1658.02 2137.28,-1658.02 1081.24,-3166.2 500.92,-4169.53 500.92,-4169.53 -1500.24,-2145.7 -3078.03,-3838.42 -4314.38,-5019.47 -1343.15,-1283.11 -2283.34,-1962.3 -2283.34,-1962.3 0,0 -592.67,-171.03 -1086.97,-224.97 -494.3,53.94 -972.59,203.02 -972.59,203.02 0,0 -3467.61,2505.01 -6597.71,6981.77 0,0 -607.15,1049.75 577.74,4390.14 0,0 1464.43,1566.9 2122.51,1731.43l-82.26 -575.79c0,0 438.74,630.63 767.77,630.63l-51.14 -581.38c-522.03,-492.25 -955.49,-1057.74 -1289.49,-1691.63 -1823.33,-239.02 -2025.94,-2277.06 -850.62,-2097.98 392.04,244.43 1060.85,619.9 1060.85,619.9 -139.38,-221.02 -296.72,-696.45 -296.72,-696.45 145.72,311.3 405.38,367.14 405.38,367.14 -182.19,-1266.26 -59.2,-2490.46 139.07,-3472.12 1939.08,-1475.87 2412.64,-2695.37 2514.55,-3337.32 8.02,897.72 156.26,2838.6 1199.85,4192.47 5.88,83.32 945.44,-40.7 1056.78,-99.55 0,0 82.51,-393.94 140.53,-1067.66 33.08,-384.02 58.23,-858.95 55.59,-1403.68z"/>
    <path class="fil9" d="M13454.66 8721.43c1236.35,1181.04 2814.13,2873.76 4314.38,5019.47 0,0 580.32,1003.33 -500.92,4169.53 -60.03,175.81 -125.2,358.28 -195.87,547.62 0,0 -2712.38,2711.07 -5955.52,3387.96l-9.89 87.52c3771.98,-163.5 8631.43,-4111.21 8484.72,-4526.01 2472.77,-4409.98 -1613.38,-9826.77 -1613.38,-9826.77 -3094.66,-4045.45 -4896.97,-4915.31 -4896.97,-4915.31 0,0 -1404.3,-359.59 -2884.4,-435.6 -1480.1,76.01 -2615.87,522.99 -2615.87,522.99 0,0 -1802.31,869.86 -4896.97,4915.31 0,0 -4086.15,5416.79 -1613.38,9826.77 21.86,308.32 4334.68,4182.49 7764.89,4415.95 0,0 0,0 -3.17,-30 -3321.02,-588.66 -5621.46,-3444.76 -5621.46,-3444.76 -41.57,-111.36 -81.21,-220.33 -119.04,-327 -1184.9,-3340.39 -577.74,-4390.14 -577.74,-4390.14 3130.1,-4476.76 6597.71,-6981.77 6597.71,-6981.77 0,0 478.29,-149.08 972.59,-203.02 494.3,53.94 1086.97,224.97 1086.97,224.97 0,0 940.19,679.19 2283.34,1962.3z"/>
    <path class="fil10" d="M12711.64 13039.98c-160.05,69.05 -652.36,103.9 -800.57,-9.3 -132.1,-86.59 -149.14,-726.76 -135.93,-1276.49 -22.01,311.15 -53.13,724.08 -96.13,1259.89 -361.45,252.92 -1594.79,202.36 -1619.94,65.2 -2.83,-156.48 -74.65,-2452.15 -74.65,-2452.15 2.64,544.73 -22.51,1019.66 -55.59,1403.68 -58.01,673.72 -140.53,1067.66 -140.53,1067.66 -111.33,58.85 -1050.9,182.87 -1056.78,99.55 -1043.59,-1353.87 -1191.83,-3294.75 -1199.85,-4192.47 -101.88,641.91 -575.44,1861.42 -2514.55,3337.32 -198.26,981.66 -321.25,2205.86 -139.07,3472.12 0,0 -259.66,-55.84 -405.38,-367.14 0,0 157.35,475.43 296.72,696.45 0,0 -668.81,-375.47 -1060.85,-619.9 -1175.32,-179.08 -972.71,1858.96 850.62,2097.98 334,633.89 767.45,1199.39 1289.49,1691.63 778.96,734.5 1755.06,1305.93 2892.01,1698.13 389.25,134.28 797.33,247.54 1222.83,339.16 416.01,-89.57 822.3,-199.44 1215.18,-329.09 1305.53,-430.91 2463.13,-1080.62 3338.81,-1932.02 445.18,-432.86 817.48,-917.84 1099.31,-1452.71 1823.92,-239.08 2092.72,-2323.66 916.16,-2143.09 -238.58,201.03 -502.1,372.27 -502.1,372.27 89.69,-133.81 196.86,-536.58 225.31,-647.57 -78.07,176.72 -756.39,833.58 -756.39,833.58 523.52,-1424.6 440.67,-2719.59 244.37,-3627.45 -1538.11,-526.1 -2289.49,-3703.77 -2289.49,-3703.77 379.98,2455.29 -743.02,4318.54 -743.02,4318.54z"/>
    <path class="fil11" d="M8740.68 21012.11c-1136.96,-392.2 -2113.06,-963.63 -2892.01,-1698.13l51.14 581.38c-329.02,0 -767.77,-630.63 -767.77,-630.63l82.26 575.79c-658.08,-164.53 -2122.51,-1731.43 -2122.51,-1731.43 37.84,106.67 77.48,215.64 119.04,327 0,0 2300.44,2856.11 5621.46,3444.76 -6.65,-63.17 -27.36,-259.38 -91.62,-868.75z"/>
    <path class="fil11" d="M14517.5 19090.17c-875.68,851.4 -2033.28,1501.11 -3338.81,1932.02l31.09 0 -93.05 823.82c3243.14,-676.89 5955.52,-3387.96 5955.52,-3387.96 70.67,-189.34 135.83,-371.8 195.87,-547.62 0,0 -1479.2,1493.5 -2137.28,1658.02l82.26 -575.79c0,0 -438.74,630.63 -767.77,630.63l72.16 -533.13z"/>
    <path class="fil12" d="M16256.17 15219.07c4.66,-18.25 7.21,-28.6 7.21,-28.6 0.5,7.18 -2.02,16.82 -7.21,28.6zm-4481.02 -3464.88c18.56,-771.43 96.66,-1364.75 0,0zm-4243.46 -2748.66c-2.74,-305.18 10.73,-489.82 10.73,-489.82 0,0 39.11,175.81 -10.73,489.82zm2452.75 1621.59c0,0 71.82,2295.68 74.65,2452.15 25.15,137.17 1258.49,187.72 1619.94,-65.2 43,-535.8 74.12,-948.74 96.13,-1259.89 -13.21,549.73 3.82,1189.9 135.93,1276.49 148.21,113.2 640.51,78.35 800.57,9.3 0,0 1123,-1863.25 743.02,-4318.54 0,0 751.38,3177.67 2289.49,3703.77 196.3,907.86 279.16,2202.84 -244.37,3627.45 0,0 678.35,-656.87 756.39,-833.58 -28.45,110.99 -135.61,513.76 -225.31,647.57 0,0 263.52,-171.24 502.1,-372.27 1176.57,-180.57 907.76,1904.01 -916.16,2143.09 -281.83,534.87 -654.13,1019.84 -1099.31,1452.71l-72.16 533.13c329.02,0 767.77,-630.63 767.77,-630.63l-82.26 575.79c658.08,-164.53 2137.28,-1658.02 2137.28,-1658.02 1081.24,-3166.2 500.92,-4169.53 500.92,-4169.53 -1500.24,-2145.7 -3078.03,-3838.42 -4314.38,-5019.47 -1343.15,-1283.11 -2283.34,-1962.3 -2283.34,-1962.3 0,0 -592.67,-171.03 -1086.97,-224.97 -494.3,53.94 -972.59,203.02 -972.59,203.02 0,0 -3467.61,2505.01 -6597.71,6981.77 0,0 -607.15,1049.75 577.74,4390.14 0,0 1464.43,1566.9 2122.51,1731.43l-82.26 -575.79c0,0 438.74,630.63 767.77,630.63l-51.14 -581.38c-522.03,-492.25 -955.49,-1057.74 -1289.49,-1691.63 -1823.33,-239.02 -2025.94,-2277.06 -850.62,-2097.98 392.04,244.43 1060.85,619.9 1060.85,619.9 -139.38,-221.02 -296.72,-696.45 -296.72,-696.45 145.72,311.3 405.38,367.14 405.38,367.14 -182.19,-1266.26 -59.2,-2490.46 139.07,-3472.12 1939.08,-1475.87 2412.64,-2695.37 2514.55,-3337.32 8.02,897.72 156.26,2838.6 1199.85,4192.47 5.88,83.32 945.44,-40.7 1056.78,-99.55 0,0 82.51,-393.94 140.53,-1067.66 33.08,-384.02 58.23,-858.95 55.59,-1403.68z"/>
    <path class="fil0" d="M13454.66 8721.43c1236.35,1181.04 2814.13,2873.76 4314.38,5019.47 0,0 580.32,1003.33 -500.92,4169.53 -60.03,175.81 -125.2,358.28 -195.87,547.62 0,0 -2712.38,2711.07 -5955.52,3387.96l-9.89 87.52c3771.98,-163.5 8631.43,-4111.21 8484.72,-4526.01 2472.77,-4409.98 -1613.38,-9826.77 -1613.38,-9826.77 -3094.66,-4045.45 -4896.97,-4915.31 -4896.97,-4915.31 0,0 -1404.3,-359.59 -2884.4,-435.6 -1480.1,76.01 -2615.87,522.99 -2615.87,522.99 0,0 -1802.31,869.86 -4896.97,4915.31 0,0 -4086.15,5416.79 -1613.38,9826.77 21.86,308.32 4334.68,4182.49 7764.89,4415.95 0,0 0,0 -3.17,-30 -3321.02,-588.66 -5621.46,-3444.76 -5621.46,-3444.76 -41.57,-111.36 -81.21,-220.33 -119.04,-327 -1184.9,-3340.39 -577.74,-4390.14 -577.74,-4390.14 3130.1,-4476.76 6597.71,-6981.77 6597.71,-6981.77 0,0 478.29,-149.08 972.59,-203.02 494.3,53.94 1086.97,224.97 1086.97,224.97 0,0 940.19,679.19 2283.34,1962.3z"/>
    <path class="fil1" d="M12711.64 13039.98c-160.05,69.05 -652.36,103.9 -800.57,-9.3 -132.1,-86.59 -149.14,-726.76 -135.93,-1276.49 -22.01,311.15 -53.13,724.08 -96.13,1259.89 -361.45,252.92 -1594.79,202.36 -1619.94,65.2 -2.83,-156.48 -74.65,-2452.15 -74.65,-2452.15 2.64,544.73 -22.51,1019.66 -55.59,1403.68 -58.01,673.72 -140.53,1067.66 -140.53,1067.66 -111.33,58.85 -1050.9,182.87 -1056.78,99.55 -1043.59,-1353.87 -1191.83,-3294.75 -1199.85,-4192.47 -101.88,641.91 -575.44,1861.42 -2514.55,3337.32 -198.26,981.66 -321.25,2205.86 -139.07,3472.12 0,0 -259.66,-55.84 -405.38,-367.14 0,0 157.35,475.43 296.72,696.45 0,0 -668.81,-375.47 -1060.85,-619.9 -1175.32,-179.08 -972.71,1858.96 850.62,2097.98 334,633.89 767.45,1199.39 1289.49,1691.63 778.96,734.5 1755.06,1305.93 2892.01,1698.13 389.25,134.28 797.33,247.54 1222.83,339.16 416.01,-89.57 822.3,-199.44 1215.18,-329.09 1305.53,-430.91 2463.13,-1080.62 3338.81,-1932.02 445.18,-432.86 817.48,-917.84 1099.31,-1452.71 1823.92,-239.08 2092.72,-2323.66 916.16,-2143.09 -238.58,201.03 -502.1,372.27 -502.1,372.27 89.69,-133.81 196.86,-536.58 225.31,-647.57 -78.07,176.72 -756.39,833.58 -756.39,833.58 523.52,-1424.6 440.67,-2719.59 244.37,-3627.45 -1538.11,-526.1 -2289.49,-3703.77 -2289.49,-3703.77 379.98,2455.29 -743.02,4318.54 -743.02,4318.54z"/>
    <path class="fil11" d="M8740.68 21012.11c-1136.96,-392.2 -2113.06,-963.63 -2892.01,-1698.13l51.14 581.38c-329.02,0 -767.77,-630.63 -767.77,-630.63l82.26 575.79c-658.08,-164.53 -2122.51,-1731.43 -2122.51,-1731.43 37.84,106.67 77.48,215.64 119.04,327 0,0 2300.44,2856.11 5621.46,3444.76 -6.65,-63.17 -27.36,-259.38 -91.62,-868.75z"/>
    <path class="fil11" d="M14517.5 19090.17c-875.68,851.4 -2033.28,1501.11 -3338.81,1932.02l31.09 0 -93.05 823.82c3243.14,-676.89 5955.52,-3387.96 5955.52,-3387.96 70.67,-189.34 135.83,-371.8 195.87,-547.62 0,0 -1479.2,1493.5 -2137.28,1658.02l82.26 -575.79c0,0 -438.74,630.63 -767.77,630.63l72.16 -533.13z"/>
    <path class="fil0" d="M12428.28 2910.64c550.73,-97 -634.51,-2484.64 -2096.42,-2910.64 -1501.52,548.39 -2869.26,2887.35 -2091.6,2887.35 516.68,-93.61 1236.54,266.38 1936.28,236.84 857.52,36.22 1610.67,-308.85 2251.75,-213.56z"/>
    <path class="fil0" d="M18864.73 18074.24c572.83,132.47 1083.89,1634.99 1083.89,1634.99 1464.46,-814.12 283.6,-7153.82 283.6,-7153.82l-1367.49 5518.83z"/>
    <path class="fil13" d="M13454.66 8721.43c1236.35,1181.04 2814.13,2873.76 4314.38,5019.47 0,0 580.32,1003.33 -500.92,4169.53 -60.03,175.81 -125.2,358.28 -195.87,547.62 0,0 -2712.38,2711.07 -5955.52,3387.96l-9.89 87.52c2928.55,-126.94 6512.06,-2534.67 7899.79,-3799.34 -0.03,-7.55 -36.56,-8877.23 -6647.77,-10411.36 318.24,275.95 688.42,609.46 1095.79,998.61zm-11645.91 9558.93c1382.01,1230.26 4452.82,3455.33 7026.72,3630.49 0,0 0,0 -3.17,-30 -3321.02,-588.66 -5621.46,-3444.76 -5621.46,-3444.76 -41.57,-111.36 -81.21,-220.33 -119.04,-327 -1184.9,-3340.39 -577.74,-4390.14 -577.74,-4390.14 1919.8,-2745.74 3966.26,-4749.45 5262.06,-5888.71 -6332.18,1816.43 -5967.4,10449.47 -5967.37,10450.13z"/>
    <path class="fil0" d="M6503.29 7396.35c0,0 3191.91,5785.49 7636.33,109.65l-3555.54 -1864.52 -4080.8 1754.87z"/>
    <path class="fil0" d="M1817.42 18315.41c-572.83,132.47 -1083.89,1634.99 -1083.89,1634.99 -1464.46,-814.12 -283.6,-7153.82 -283.6,-7153.82l1367.49 5518.83z"/>
    <circle class="fil14" cx="6692.1" cy="6482.06" r="383.87"/>
    <path class="fil14" d="M7121.08 6886.38c54.25,-465.48 -170.28,-921.88 -371.96,-1025.72 -919.33,-473.34 -1053.85,998.3 -1053.85,998.3 0,0 767.8,-1789.13 1425.81,27.42z"/>
    <circle class="fil14" cx="13500.79" cy="6482.06" r="383.87"/>
    <path class="fil14" d="M13071.81 6886.38c-54.25,-465.48 170.28,-921.88 371.96,-1025.72 919.33,-473.34 1053.85,998.3 1053.85,998.3 0,0 -767.8,-1789.13 -1425.81,27.42z"/>
   </g>
   <ellipse class="fil15" transform="matrix(0.0601631 -0.718633 0.718633 0.0601631 13397.9 25470.7)" rx="1028.24" ry="1425.81"/>
   <path class="fil0" d="M6481.59 27810.27c-631.72,43.96 -1405.36,115.41 -1795.78,-766.15 -113.94,-864.8 308.63,-994.22 1392.49,-1365.13 3875.54,-1337.02 6231.41,-1597.43 6160.43,-1415 -91.16,234.36 608.68,415.89 608.68,415.89 -45.24,14.55 -75.74,25.77 -75.74,25.77 -81.02,73.93 247.16,1704.75 247.16,1704.75l215.27 -38.68c206.34,368.48 -195.03,549.05 -195.03,549.05 -2152.67,343.79 -4465.57,651.02 -6557.48,889.48z"/>
   <path class="fil16" d="M12771.67 24705.66c-81.02,73.93 247.16,1704.75 247.16,1704.75l215.27 -38.68 277.79 -132.88c56.55,-70.2 -295.35,-1605.05 -295.35,-1605.05 -49.87,-47.38 -255.75,9.67 -369.13,46.08 -45.24,14.55 -75.74,25.77 -75.74,25.77z"/>
   <ellipse class="fil15" transform="matrix(-0.0601631 -0.718633 -0.718633 0.0601631 6178.42 25042.9)" rx="1028.24" ry="1425.81"/>
   <path class="fil0" d="M13094.7 27382.47c631.72,43.96 1405.36,115.41 1795.78,-766.15 113.94,-864.8 -308.63,-994.22 -1392.49,-1365.13 -3875.54,-1337.02 -6231.41,-1597.43 -6160.43,-1415 91.16,234.36 -608.68,415.89 -608.68,415.89 45.24,14.55 75.74,25.77 75.74,25.77 81.02,73.93 -247.16,1704.75 -247.16,1704.75l-215.27 -38.68c-206.34,368.48 195.03,549.05 195.03,549.05 2152.67,343.79 4465.57,651.02 6557.48,889.48z"/>
   <path class="fil16" d="M6804.62 24277.86c81.02,73.93 -247.16,1704.75 -247.16,1704.75l-215.27 -38.68 -277.79 -132.88c-56.55,-70.2 295.35,-1605.05 295.35,-1605.05 49.87,-47.38 255.75,9.67 369.13,46.08 45.24,14.55 75.74,25.77 75.74,25.77z"/>
   <path class="fil17" d="M13466.97 14024.07l-764.78 247.13c-318.02,0 -575.82,386.7 -575.82,863.71 0,477.01 257.8,863.71 575.82,863.71 318.02,0 575.82,-386.7 575.82,-863.71 0,-195.09 -43.12,-375.04 -115.84,-519.64l304.81 -591.21z"/>
   <path class="fil17" d="M6752.11 13859.54l764.78 247.13c318.02,0 575.82,386.7 575.82,863.71 0,477.01 -257.8,863.71 -575.82,863.71 -318.02,0 -575.82,-386.7 -575.82,-863.71 0,-195.09 43.12,-375.04 115.84,-519.64l-304.81 -591.21z"/>
   <polyline class="fil18 str0" points="9173.73,19414.68 10051.15,18304.21 11010.83,19483.24 "/>
  </g>
 </g>
</svg>
