<?xml version="1.0" encoding="UTF-8"?>
<!DOCTYPE svg PUBLIC "-//W3C//DTD SVG 1.1//EN" "http://www.w3.org/Graphics/SVG/1.1/DTD/svg11.dtd">
<!-- Creator: CorelDRAW 2018 (64-Bit) -->
<svg xmlns="http://www.w3.org/2000/svg" xml:space="preserve" width="67.5057mm" height="167.889mm" version="1.1" style="shape-rendering:geometricPrecision; text-rendering:geometricPrecision; image-rendering:optimizeQuality; fill-rule:evenodd; clip-rule:evenodd"
viewBox="0 0 1318.61 3279.43"
 xmlns:xlink="http://www.w3.org/1999/xlink">
 <defs>
  <style type="text/css">
   <![CDATA[
    .fil9 {fill:#ED84B1}
    .fil17 {fill:#ECA4A9}
    .fil14 {fill:#AAB6BD}
    .fil10 {fill:#9499A1}
    .fil5 {fill:#7D3636}
    .fil7 {fill:#8A9096}
    .fil6 {fill:#572627}
    .fil8 {fill:#555A5E}
    .fil1 {fill:#403C37}
    .fil12 {fill:#494F57}
    .fil15 {fill:#404547}
    .fil16 {fill:#3C414A}
    .fil3 {fill:#3C4654}
    .fil2 {fill:#2E343B}
    .fil4 {fill:#2C333B}
    .fil13 {fill:#756A57}
    .fil0 {fill:#FFC6B7}
    .fil11 {fill:#F7F1E4}
   ]]>
  </style>
 </defs>
 <g id="Layer_x0020_1">
  <metadata id="CorelCorpID_0Corel-Layer"/>
  <g id="_2553427596944">
   <g>
    <ellipse class="fil0" cx="645.58" cy="1164.57" rx="130.93" ry="261.86"/>
    <g>
     <path class="fil1" d="M572.59 2417.2c-94.91,31.46 -217.91,-23.56 -224.79,-37.24 31.7,130.95 69.09,295.29 71.06,349.42 3.45,94.75 -20.67,384.17 15.51,422.07 0,0 48.24,27.56 89.58,-22.4 -3.45,-53.4 -5.17,-358.33 0,-396.23 3.18,-23.29 29.11,-190.3 48.64,-315.63z"/>
     <path class="fil2" d="M523.95 3129.07c-41.35,49.96 -89.58,22.4 -89.58,22.4 0,0 34.43,99.91 89.56,115.41 55.13,15.51 0.02,-137.81 0.02,-137.81z"/>
     <path class="fil1" d="M707.22 2428.66c94.91,31.46 217.91,-23.56 224.79,-37.24 -31.7,130.95 -69.09,295.29 -71.06,349.42 -3.45,94.75 20.67,384.17 -15.51,422.07 0,0 -48.24,27.56 -89.58,-22.4 3.45,-53.4 5.17,-358.33 0,-396.23 -3.18,-23.29 -29.11,-190.3 -48.64,-315.63z"/>
     <path class="fil2" d="M755.86 3140.52c41.35,49.96 89.58,22.4 89.58,22.4 0,0 -34.43,99.91 -89.56,115.41 -55.13,15.51 -0.02,-137.81 -0.02,-137.81z"/>
     <g>
      <path class="fil1" d="M594.58 2276.31c-100.63,-419.21 -291.14,-74.08 -291.14,-74.08 0,0 20.41,78.81 44.07,176.52 0.1,0.41 0.2,0.81 0.3,1.22 6.88,13.68 129.87,68.69 224.79,37.24 12.26,-78.65 21.99,-140.89 21.99,-140.89z"/>
      <path class="fil1" d="M685.23 2287.77c100.63,-419.21 291.14,-74.08 291.14,-74.08 0,0 -20.41,78.81 -44.07,176.52 -0.1,0.41 -0.2,0.81 -0.3,1.22 -6.88,13.68 -129.87,68.69 -224.79,37.24 -12.26,-78.65 -21.99,-140.89 -21.99,-140.89z"/>
      <path class="fil3" d="M582.71 1908.18c-38.15,96.25 -52.34,399.55 -54.96,463.99 0,0 96.13,11.2 107.33,8.62 11.2,2.58 111.37,-10.94 111.37,-10.94 -2.62,-64.44 -16.81,-367.74 -54.96,-463.99l-108.79 2.32z"/>
      <path class="fil4" d="M473.85 1892.7c-58.71,221.02 -83.01,397.43 -89.41,449.49 0,0 100.08,25.1 152.62,44.05 0,0 0.15,-4.3 0.46,-12.11 2.62,-64.44 16.81,-367.74 54.96,-463.99l-118.63 -17.44z"/>
      <path class="fil3" d="M464.08 1890.75c-58.71,221.02 -83.01,397.43 -89.41,449.49 0,0 100.08,25.1 152.62,44.05 0,0 0.15,-4.3 0.46,-12.11 2.62,-64.44 16.81,-367.74 54.96,-463.99l-118.63 -17.44z"/>
      <path class="fil4" d="M473.85 1894.65l-108.94 -27.13c0,0 -131.9,327.71 -131.9,447.44 0,0 118.59,20.73 149.6,44.84 0,0 0.57,-5.43 1.83,-15.67 6.4,-52.05 30.7,-228.47 89.41,-449.49z"/>
      <path class="fil3" d="M464.08 1890.75l-108.94 -27.13c0,0 -131.9,327.71 -131.9,447.44 0,0 118.59,20.73 149.6,44.84 0,0 0.57,-5.43 1.83,-15.67 6.4,-52.05 30.7,-228.47 89.41,-449.49z"/>
      <path class="fil4" d="M681.73 1907.81c38.15,96.25 52.34,399.55 54.96,463.99 0.32,7.81 0.46,12.11 0.46,12.11 52.54,-18.95 152.62,-44.05 152.62,-44.05 -6.4,-52.05 -30.7,-228.47 -89.41,-449.49l-118.63 17.44z"/>
      <path class="fil3" d="M691.49 1905.86c38.15,96.25 52.34,399.55 54.96,463.99 0.32,7.81 0.46,12.11 0.46,12.11 52.54,-18.95 152.62,-44.05 152.62,-44.05 -6.4,-52.05 -30.7,-228.47 -89.41,-449.49l-118.63 17.44z"/>
      <path class="fil4" d="M798.4 1892.33c58.71,221.02 83.01,397.43 89.41,449.49 1.26,10.25 1.83,15.67 1.83,15.67 31.01,-24.12 149.6,-44.84 149.6,-44.84 0,-119.73 -131.9,-447.44 -131.9,-447.44l-108.94 27.13z"/>
      <path class="fil3" d="M810.12 1888.42c58.71,221.02 83.01,397.43 89.41,449.49 1.26,10.25 1.83,15.67 1.83,15.67 31.01,-24.12 149.6,-44.84 149.6,-44.84 0,-119.73 -131.9,-447.44 -131.9,-447.44l-108.94 27.13z"/>
      <path class="fil4" d="M638.15 1481.52c0,0 -132.06,-6.7 -134.65,-64.41 -79.5,143.26 -160.59,425.35 -160.59,425.35 -0.86,20.67 6.89,21.54 6.89,21.54 201.15,59.46 294.38,49.19 294.38,49.19 0,0 113.49,-4.39 294.38,-49.19 0,0 7.75,-0.86 6.89,-21.54 0,0 -80.16,-278.83 -159.21,-422.85 -4.32,56.59 -131.69,62.44 -131.69,62.44l28.57 0.93c0,0 3.26,46.32 -14.82,57.66 15.99,85.75 24.91,108.57 19.74,175.23 -5.17,66.66 -46.51,82.04 -46.51,82.04 3.45,-25.64 -7.36,-148.76 -7.36,-148.76 -25.98,133.56 -66.72,159.1 -66.72,159.1 5.17,-39.72 5.17,-127.68 5.17,-127.68 -6.89,-99.31 52.61,-139.65 52.61,-139.65 0,0 -10.58,-7.95 -15.62,-60.33l28.55 0.93z"/>
      <path class="fil3" d="M638.15 1471.76c0,0 -132.06,-6.7 -134.65,-64.41 -79.5,143.26 -160.59,425.35 -160.59,425.35 -0.86,20.67 6.89,21.54 6.89,21.54 201.15,59.46 294.38,49.19 294.38,49.19 0,0 113.49,-4.39 294.38,-49.19 0,0 7.75,-0.86 6.89,-21.54 0,0 -80.16,-278.83 -159.21,-422.85 -4.32,56.59 -131.69,62.44 -131.69,62.44l28.57 0.93c0,0 3.26,46.32 -14.82,57.66 15.99,85.75 24.91,108.57 19.74,175.23 -5.17,66.66 -46.51,82.04 -46.51,82.04 3.45,-25.64 -7.36,-148.76 -7.36,-148.76 -25.98,133.56 -66.72,159.1 -66.72,159.1 5.17,-39.72 5.17,-127.68 5.17,-127.68 -6.89,-99.31 52.61,-139.65 52.61,-139.65 0,0 -10.58,-7.95 -15.62,-60.33l28.55 0.93z"/>
      <path class="fil3" d="M568.61 1382.85c21.82,52 69.54,88.9 69.54,88.91l16.4 0.53c0,0 45.38,-36.05 66.62,-87.34 -62.26,-18.41 -152.55,-2.09 -152.55,-2.09z"/>
      <path class="fil4" d="M715.31 1384.95c-21.24,51.29 -66.62,87.34 -66.62,87.34 0,0 127.38,-5.85 131.69,-62.44 -18.53,-33.76 -37.01,-60.12 -54.37,-73.73 -0.28,17.25 -4.44,33.7 -10.7,48.83z"/>
      <path class="fil4" d="M644.01 1471.76c0,0 -47.72,-36.9 -69.54,-88.9 -6.25,-14.89 -10.37,-31.02 -10.64,-47.87 -17.36,12.93 -35.87,38.85 -54.47,72.36 2.58,57.71 134.65,64.41 134.65,64.41z"/>
      <path class="fil4" d="M721.17 1392.76c-21.24,51.29 -66.62,87.34 -66.62,87.34 0,0 127.38,-5.85 131.69,-62.44 -18.53,-33.76 -37.01,-60.12 -54.37,-73.73 -0.28,17.25 -4.44,33.7 -10.7,48.83z"/>
      <path class="fil3" d="M721.17 1384.95c-21.24,51.29 -66.62,87.34 -66.62,87.34 0,0 127.38,-5.85 131.69,-62.44 -18.53,-33.76 -37.01,-60.12 -54.37,-73.73 -0.28,17.25 -4.44,33.7 -10.7,48.83z"/>
      <path class="fil4" d="M638.15 1479.57c0,0 -47.72,-36.9 -69.54,-88.9 -6.25,-14.89 -10.37,-31.02 -10.64,-47.87 -17.36,12.93 -35.87,38.85 -54.47,72.36 2.58,57.71 134.65,64.41 134.65,64.41z"/>
      <path class="fil3" d="M638.15 1471.76c0,0 -47.72,-36.9 -69.54,-88.9 -6.25,-14.89 -10.37,-31.02 -10.64,-47.87 -17.36,12.93 -35.87,38.85 -54.47,72.36 2.58,57.71 134.65,64.41 134.65,64.41z"/>
      <path class="fil5" d="M648.91 1531c-3.73,42.32 -8.86,78.12 -14.75,108.39 0,0 10.81,123.12 7.36,148.76 0,0 41.34,-15.38 46.51,-82.04 5.17,-66.66 -3.76,-89.48 -19.74,-175.23l-19.38 0.13z"/>
      <path class="fil6" d="M629.13 1531.16c0,0 -59.5,40.34 -52.61,139.65 0,0 0,87.96 -5.17,127.68 0,0 40.73,-25.54 66.72,-159.1 5.89,-30.26 11.02,-66.07 14.75,-108.39l-23.69 0.15z"/>
      <path class="fil5" d="M625.23 1531.16c0,0 -59.5,40.34 -52.61,139.65 0,0 0,87.96 -5.17,127.68 0,0 40.73,-25.54 66.72,-159.1 5.89,-30.26 11.02,-66.07 14.75,-108.39l-23.69 0.15z"/>
      <path class="fil6" d="M609.6 1474.74c5.05,52.37 15.62,60.33 15.62,60.33l23.69 -0.15 19.38 -0.13c18.09,-11.34 14.82,-57.66 14.82,-57.66l-28.57 -0.93 -16.4 -0.53 -28.55 -0.93z"/>
      <path class="fil5" d="M609.6 1470.83c5.05,52.37 15.62,60.33 15.62,60.33l23.69 -0.15 19.38 -0.13c18.09,-11.34 14.82,-57.66 14.82,-57.66l-28.57 -0.93 -16.4 -0.53 -28.55 -0.93z"/>
     </g>
     <g>
      <path class="fil7" d="M413.97 2084.64c0,0 -34.45,-518.54 180.89,-766.62l-37.9 3.44c0,0 -184.33,179.16 -304.92,701.15 0,0 -25.84,36.18 161.94,62.02z"/>
      <path class="fil7" d="M690.84 1317.19c215.34,248.08 180.89,766.62 180.89,766.62 187.78,-25.84 161.94,-62.02 161.94,-62.02 -120.59,-521.99 -304.92,-701.15 -304.92,-701.15l-37.9 -3.44z"/>
     </g>
    </g>
    <g>
     <ellipse class="fil0" transform="matrix(0.490278 0.528848 -0.528848 0.490278 56.9944 2067.5)" rx="64.6" ry="89.58"/>
     <path class="fil7" d="M446.34 1489.42c88.38,-49.82 107.54,-167.53 107.54,-167.53 0,0 -67.3,2.92 -155.08,115.12 -105.06,134.29 -262.44,352.35 -393.91,552.43 0,0 -8.62,26.27 17.22,32.3l7.32 -11.63c0,0 89.58,53.84 89.58,60.73 0,0 -0.77,1.89 -2.01,4.61 0,0 38.06,-24.79 45.08,-10.64 7.01,14.16 149.67,-188.42 284.25,-575.4z"/>
     <path class="fil8" d="M119.02 2070.84c0,-6.89 -89.58,-60.73 -89.58,-60.73l-7.32 11.63 -5.6 18.52c0.86,5.6 87,54.27 87,54.27 4.31,-0.31 10.38,-12.28 13.49,-19.08 1.24,-2.72 2.01,-4.61 2.01,-4.61z"/>
    </g>
    <g>
     <ellipse class="fil0" transform="matrix(-0.490278 0.528848 0.528848 0.490278 1218.52 2063.04)" rx="64.6" ry="89.58"/>
     <path class="fil7" d="M829.18 1484.95c-88.38,-49.82 -107.54,-167.53 -107.54,-167.53 0,0 67.3,2.92 155.08,115.12 105.06,134.29 262.44,352.35 393.91,552.43 0,0 8.62,26.27 -17.22,32.3l-7.32 -11.63c0,0 -89.58,53.84 -89.58,60.73 0,0 0.77,1.89 2.01,4.61 0,0 -38.06,-24.79 -45.08,-10.64 -7.01,14.16 -149.67,-188.42 -284.25,-575.4z"/>
     <path class="fil8" d="M1156.5 2066.38c0,-6.89 89.58,-60.73 89.58,-60.73l7.32 11.63 5.6 18.52c-0.86,5.6 -87,54.27 -87,54.27 -4.31,-0.31 -10.38,-12.28 -13.49,-19.08 -1.24,-2.72 -2.01,-4.61 -2.01,-4.61z"/>
    </g>
    <g>
     <path class="fil9" d="M1040.53 956.19c0.29,-1.15 0.45,-1.8 0.45,-1.8 0.03,0.45 -0.13,1.06 -0.45,1.8zm-281.54 -217.69c1.17,-48.47 6.07,-85.75 0,0zm-266.61 -172.69c-0.17,-19.17 0.67,-30.77 0.67,-30.77 0,0 2.46,11.05 -0.67,30.77zm154.1 101.88c0,0 4.51,144.23 4.69,154.07 1.58,8.62 79.07,11.79 101.78,-4.1 2.7,-33.66 4.66,-59.61 6.04,-79.16 -0.83,34.54 0.24,74.76 8.54,80.2 9.31,7.11 40.24,4.92 50.3,0.58 0,0 70.56,-117.07 46.68,-271.33 0,0 47.21,199.65 143.85,232.7 12.33,57.04 17.54,138.4 -15.35,227.91 0,0 42.62,-41.27 47.52,-52.37 -1.79,6.97 -8.52,32.28 -14.16,40.69 0,0 16.56,-10.76 31.55,-23.39 73.92,-11.34 57.03,119.63 -57.56,134.65 -17.71,33.61 -41.1,64.08 -69.07,91.27l-4.53 33.5c20.67,0 48.24,-39.62 48.24,-39.62l-5.17 36.18c41.35,-10.34 134.28,-104.17 134.28,-104.17 67.93,-198.93 31.47,-261.97 31.47,-261.97 -94.26,-134.81 -193.39,-241.16 -271.07,-315.37 -84.39,-80.62 -143.46,-123.29 -143.46,-123.29 0,0 -37.24,-10.75 -68.29,-14.13 -31.06,3.39 -61.11,12.76 -61.11,12.76 0,0 -217.87,157.39 -414.53,438.65 0,0 -38.15,65.95 36.3,275.83 0,0 92.01,98.45 133.35,108.78l-5.17 -36.18c0,0 27.57,39.62 48.24,39.62l-3.21 -36.53c-32.8,-30.93 -60.03,-66.46 -81.02,-106.28 -114.56,-15.02 -127.29,-143.06 -53.44,-131.81 24.63,15.36 66.65,38.95 66.65,38.95 -8.76,-13.89 -18.64,-43.76 -18.64,-43.76 9.16,19.56 25.47,23.07 25.47,23.07 -11.45,-79.56 -3.72,-156.47 8.74,-218.15 121.83,-92.73 151.58,-169.35 157.99,-209.68 0.5,56.4 9.82,178.35 75.39,263.41 0.37,5.23 59.4,-2.56 66.4,-6.25 0,0 5.18,-24.75 8.83,-67.08 2.08,-24.13 3.66,-53.97 3.49,-88.19z"/>
     <path class="fil10" d="M864.52 547.96c77.68,74.2 176.81,180.55 271.07,315.37 0,0 36.46,63.04 -31.47,261.97 -3.77,11.05 -7.87,22.51 -12.31,34.41 0,0 -170.41,170.33 -374.18,212.86l-0.62 5.5c236.99,-10.27 542.3,-258.3 533.08,-284.36 155.36,-277.07 -101.37,-617.4 -101.37,-617.4 -194.43,-254.17 -307.67,-308.82 -307.67,-308.82 0,0 -88.23,-22.59 -181.22,-27.37 -92.99,4.78 -164.35,32.86 -164.35,32.86 0,0 -113.24,54.65 -307.67,308.82 0,0 -256.73,340.33 -101.37,617.4 1.37,19.37 272.34,262.78 487.86,277.45 0,0 0,0 -0.2,-1.88 -208.66,-36.98 -353.19,-216.43 -353.19,-216.43 -2.61,-7 -5.1,-13.84 -7.48,-20.55 -74.45,-209.87 -36.3,-275.83 -36.3,-275.83 196.66,-281.27 414.53,-438.65 414.53,-438.65 0,0 30.05,-9.37 61.11,-12.76 31.06,3.39 68.29,14.13 68.29,14.13 0,0 59.07,42.67 143.46,123.29z"/>
     <path class="fil11" d="M817.84 819.28c-10.06,4.34 -40.99,6.53 -50.3,-0.58 -8.3,-5.44 -9.37,-45.66 -8.54,-80.2 -1.38,19.55 -3.34,45.49 -6.04,79.16 -22.71,15.89 -100.2,12.71 -101.78,4.1 -0.18,-9.83 -4.69,-154.07 -4.69,-154.07 0.17,34.22 -1.41,64.06 -3.49,88.19 -3.64,42.33 -8.83,67.08 -8.83,67.08 -6.99,3.7 -66.03,11.49 -66.4,6.25 -65.57,-85.06 -74.88,-207 -75.39,-263.41 -6.4,40.33 -36.15,116.95 -157.99,209.68 -12.46,61.68 -20.18,138.59 -8.74,218.15 0,0 -16.31,-3.51 -25.47,-23.07 0,0 9.89,29.87 18.64,43.76 0,0 -42.02,-23.59 -66.65,-38.95 -73.84,-11.25 -61.11,116.8 53.44,131.81 20.98,39.83 48.22,75.36 81.02,106.28 48.94,46.15 110.27,82.05 181.7,106.69 24.46,8.44 50.1,15.55 76.83,21.31 26.14,-5.63 51.66,-12.53 76.35,-20.68 82.02,-27.07 154.76,-67.89 209.77,-121.39 27.97,-27.2 51.36,-57.67 69.07,-91.27 114.59,-15.02 131.48,-145.99 57.56,-134.65 -14.99,12.63 -31.55,23.39 -31.55,23.39 5.64,-8.41 12.37,-33.71 14.16,-40.69 -4.9,11.1 -47.52,52.37 -47.52,52.37 32.89,-89.51 27.69,-170.87 15.35,-227.91 -96.64,-33.05 -143.85,-232.7 -143.85,-232.7 23.87,154.26 -46.68,271.33 -46.68,271.33z"/>
     <path class="fil12" d="M568.35 1320.16c-71.43,-24.64 -132.76,-60.54 -181.7,-106.69l3.21 36.53c-20.67,0 -48.24,-39.62 -48.24,-39.62l5.17 36.18c-41.35,-10.34 -133.35,-108.78 -133.35,-108.78 2.38,6.7 4.87,13.55 7.48,20.55 0,0 144.53,179.45 353.19,216.43 -0.42,-3.97 -1.72,-16.3 -5.76,-54.58z"/>
     <path class="fil12" d="M931.3 1199.41c-55.02,53.49 -127.75,94.31 -209.77,121.39l1.95 0 -5.85 51.76c203.76,-42.53 374.18,-212.86 374.18,-212.86 4.44,-11.9 8.53,-23.36 12.31,-34.41 0,0 -92.94,93.83 -134.28,104.17l5.17 -36.18c0,0 -27.57,39.62 -48.24,39.62l4.53 -33.5z"/>
     <path class="fil13" d="M1040.53 956.19c0.29,-1.15 0.45,-1.8 0.45,-1.8 0.03,0.45 -0.13,1.06 -0.45,1.8zm-281.54 -217.69c1.17,-48.47 6.07,-85.75 0,0zm-266.61 -172.69c-0.17,-19.17 0.67,-30.77 0.67,-30.77 0,0 2.46,11.05 -0.67,30.77zm154.1 101.88c0,0 4.51,144.23 4.69,154.07 1.58,8.62 79.07,11.79 101.78,-4.1 2.7,-33.66 4.66,-59.61 6.04,-79.16 -0.83,34.54 0.24,74.76 8.54,80.2 9.31,7.11 40.24,4.92 50.3,0.58 0,0 70.56,-117.07 46.68,-271.33 0,0 47.21,199.65 143.85,232.7 12.33,57.04 17.54,138.4 -15.35,227.91 0,0 42.62,-41.27 47.52,-52.37 -1.79,6.97 -8.52,32.28 -14.16,40.69 0,0 16.56,-10.76 31.55,-23.39 73.92,-11.34 57.03,119.63 -57.56,134.65 -17.71,33.61 -41.1,64.08 -69.07,91.27l-4.53 33.5c20.67,0 48.24,-39.62 48.24,-39.62l-5.17 36.18c41.35,-10.34 134.28,-104.17 134.28,-104.17 67.93,-198.93 31.47,-261.97 31.47,-261.97 -94.26,-134.81 -193.39,-241.16 -271.07,-315.37 -84.39,-80.62 -143.46,-123.29 -143.46,-123.29 0,0 -37.24,-10.75 -68.29,-14.13 -31.06,3.39 -61.11,12.76 -61.11,12.76 0,0 -217.87,157.39 -414.53,438.65 0,0 -38.15,65.95 36.3,275.83 0,0 92.01,98.45 133.35,108.78l-5.17 -36.18c0,0 27.57,39.62 48.24,39.62l-3.21 -36.53c-32.8,-30.93 -60.03,-66.46 -81.02,-106.28 -114.56,-15.02 -127.29,-143.06 -53.44,-131.81 24.63,15.36 66.65,38.95 66.65,38.95 -8.76,-13.89 -18.64,-43.76 -18.64,-43.76 9.16,19.56 25.47,23.07 25.47,23.07 -11.45,-79.56 -3.72,-156.47 8.74,-218.15 121.83,-92.73 151.58,-169.35 157.99,-209.68 0.5,56.4 9.82,178.35 75.39,263.41 0.37,5.23 59.4,-2.56 66.4,-6.25 0,0 5.18,-24.75 8.83,-67.08 2.08,-24.13 3.66,-53.97 3.49,-88.19z"/>
     <path class="fil7" d="M864.52 547.96c77.68,74.2 176.81,180.55 271.07,315.37 0,0 36.46,63.04 -31.47,261.97 -3.77,11.05 -7.87,22.51 -12.31,34.41 0,0 -170.41,170.33 -374.18,212.86l-0.62 5.5c236.99,-10.27 542.3,-258.3 533.08,-284.36 155.36,-277.07 -101.37,-617.4 -101.37,-617.4 -194.43,-254.17 -307.67,-308.82 -307.67,-308.82 0,0 -88.23,-22.59 -181.22,-27.37 -92.99,4.78 -164.35,32.86 -164.35,32.86 0,0 -113.24,54.65 -307.67,308.82 0,0 -256.73,340.33 -101.37,617.4 1.37,19.37 272.34,262.78 487.86,277.45 0,0 0,0 -0.2,-1.88 -208.66,-36.98 -353.19,-216.43 -353.19,-216.43 -2.61,-7 -5.1,-13.84 -7.48,-20.55 -74.45,-209.87 -36.3,-275.83 -36.3,-275.83 196.66,-281.27 414.53,-438.65 414.53,-438.65 0,0 30.05,-9.37 61.11,-12.76 31.06,3.39 68.29,14.13 68.29,14.13 0,0 59.07,42.67 143.46,123.29z"/>
     <path class="fil0" d="M817.84 819.28c-10.06,4.34 -40.99,6.53 -50.3,-0.58 -8.3,-5.44 -9.37,-45.66 -8.54,-80.2 -1.38,19.55 -3.34,45.49 -6.04,79.16 -22.71,15.89 -100.2,12.71 -101.78,4.1 -0.18,-9.83 -4.69,-154.07 -4.69,-154.07 0.17,34.22 -1.41,64.06 -3.49,88.19 -3.64,42.33 -8.83,67.08 -8.83,67.08 -6.99,3.7 -66.03,11.49 -66.4,6.25 -65.57,-85.06 -74.88,-207 -75.39,-263.41 -6.4,40.33 -36.15,116.95 -157.99,209.68 -12.46,61.68 -20.18,138.59 -8.74,218.15 0,0 -16.31,-3.51 -25.47,-23.07 0,0 9.89,29.87 18.64,43.76 0,0 -42.02,-23.59 -66.65,-38.95 -73.84,-11.25 -61.11,116.8 53.44,131.81 20.98,39.83 48.22,75.36 81.02,106.28 48.94,46.15 110.27,82.05 181.7,106.69 24.46,8.44 50.1,15.55 76.83,21.31 26.14,-5.63 51.66,-12.53 76.35,-20.68 82.02,-27.07 154.76,-67.89 209.77,-121.39 27.97,-27.2 51.36,-57.67 69.07,-91.27 114.59,-15.02 131.48,-145.99 57.56,-134.65 -14.99,12.63 -31.55,23.39 -31.55,23.39 5.64,-8.41 12.37,-33.71 14.16,-40.69 -4.9,11.1 -47.52,52.37 -47.52,52.37 32.89,-89.51 27.69,-170.87 15.35,-227.91 -96.64,-33.05 -143.85,-232.7 -143.85,-232.7 23.87,154.26 -46.68,271.33 -46.68,271.33z"/>
     <path class="fil12" d="M568.35 1320.16c-71.43,-24.64 -132.76,-60.54 -181.7,-106.69l3.21 36.53c-20.67,0 -48.24,-39.62 -48.24,-39.62l5.17 36.18c-41.35,-10.34 -133.35,-108.78 -133.35,-108.78 2.38,6.7 4.87,13.55 7.48,20.55 0,0 144.53,179.45 353.19,216.43 -0.42,-3.97 -1.72,-16.3 -5.76,-54.58z"/>
     <path class="fil12" d="M931.3 1199.41c-55.02,53.49 -127.75,94.31 -209.77,121.39l1.95 0 -5.85 51.76c203.76,-42.53 374.18,-212.86 374.18,-212.86 4.44,-11.9 8.53,-23.36 12.31,-34.41 0,0 -92.94,93.83 -134.28,104.17l5.17 -36.18c0,0 -27.57,39.62 -48.24,39.62l4.53 -33.5z"/>
     <path class="fil7" d="M800.03 182.87c34.6,-6.09 -39.87,-156.11 -131.72,-182.87 -94.34,34.45 -180.27,181.41 -131.41,181.41 32.46,-5.88 77.69,16.74 121.65,14.88 53.88,2.28 101.2,-19.4 141.47,-13.42z"/>
     <path class="fil7" d="M1204.43 1135.58c35.99,8.32 68.1,102.72 68.1,102.72 92.01,-51.15 17.82,-449.46 17.82,-449.46l-85.92 346.74z"/>
     <path class="fil14" d="M864.52 547.96c77.68,74.2 176.81,180.55 271.07,315.37 0,0 36.46,63.04 -31.47,261.97 -3.77,11.05 -7.87,22.51 -12.31,34.41 0,0 -170.41,170.33 -374.18,212.86l-0.62 5.5c184,-7.98 409.14,-159.25 496.33,-238.71 -0,-0.47 -2.3,-557.74 -417.67,-654.13 19.99,17.34 43.25,38.29 68.85,62.74zm-731.7 600.57c86.83,77.3 279.76,217.09 441.48,228.1 0,0 0,0 -0.2,-1.88 -208.66,-36.98 -353.19,-216.43 -353.19,-216.43 -2.61,-7 -5.1,-13.84 -7.48,-20.55 -74.45,-209.87 -36.3,-275.83 -36.3,-275.83 120.62,-172.51 249.19,-298.4 330.61,-369.98 -397.84,114.12 -374.92,656.53 -374.92,656.57z"/>
     <path class="fil7" d="M427.77 464.7c0,0 200.54,363.49 479.78,6.89l-223.39 -117.15 -256.39 110.26z"/>
     <path class="fil7" d="M133.37 1150.73c-35.99,8.32 -68.1,102.72 -68.1,102.72 -92.01,-51.15 -17.82,-449.46 -17.82,-449.46l85.92 346.74z"/>
     <circle class="fil15" cx="439.64" cy="407.26" r="24.12"/>
     <path class="fil15" d="M466.59 432.66c3.41,-29.25 -10.7,-57.92 -23.37,-64.44 -57.76,-29.74 -66.21,62.72 -66.21,62.72 0,0 48.24,-112.41 89.58,1.72z"/>
     <circle class="fil15" cx="867.42" cy="407.26" r="24.12"/>
     <path class="fil15" d="M840.47 432.66c-3.41,-29.25 10.7,-57.92 23.37,-64.44 57.76,-29.74 66.21,62.72 66.21,62.72 0,0 -48.24,-112.41 -89.58,1.72z"/>
    </g>
   </g>
   <g>
    <ellipse class="fil0" cx="645.58" cy="1164.57" rx="130.93" ry="261.86"/>
    <g>
     <path class="fil1" d="M572.59 2417.2c-94.91,31.46 -217.91,-23.56 -224.79,-37.24 31.7,130.95 69.09,295.29 71.06,349.42 3.45,94.75 -20.67,384.17 15.51,422.07 0,0 48.24,27.56 89.58,-22.4 -3.45,-53.4 -5.17,-358.33 0,-396.23 3.18,-23.29 29.11,-190.3 48.64,-315.63z"/>
     <path class="fil2" d="M523.95 3129.07c-41.35,49.96 -89.58,22.4 -89.58,22.4 0,0 34.43,99.91 89.56,115.41 55.13,15.51 0.02,-137.81 0.02,-137.81z"/>
     <path class="fil1" d="M707.22 2428.66c94.91,31.46 217.91,-23.56 224.79,-37.24 -31.7,130.95 -69.09,295.29 -71.06,349.42 -3.45,94.75 20.67,384.17 -15.51,422.07 0,0 -48.24,27.56 -89.58,-22.4 3.45,-53.4 5.17,-358.33 0,-396.23 -3.18,-23.29 -29.11,-190.3 -48.64,-315.63z"/>
     <path class="fil2" d="M755.86 3140.52c41.35,49.96 89.58,22.4 89.58,22.4 0,0 -34.43,99.91 -89.56,115.41 -55.13,15.51 -0.02,-137.81 -0.02,-137.81z"/>
     <g>
      <path class="fil1" d="M594.58 2276.31c-100.63,-419.21 -291.14,-74.08 -291.14,-74.08 0,0 20.41,78.81 44.07,176.52 0.1,0.41 0.2,0.81 0.3,1.22 6.88,13.68 129.87,68.69 224.79,37.24 12.26,-78.65 21.99,-140.89 21.99,-140.89z"/>
      <path class="fil1" d="M685.23 2287.77c100.63,-419.21 291.14,-74.08 291.14,-74.08 0,0 -20.41,78.81 -44.07,176.52 -0.1,0.41 -0.2,0.81 -0.3,1.22 -6.88,13.68 -129.87,68.69 -224.79,37.24 -12.26,-78.65 -21.99,-140.89 -21.99,-140.89z"/>
      <path class="fil3" d="M582.71 1908.18c-38.15,96.25 -52.34,399.55 -54.96,463.99 0,0 96.13,11.2 107.33,8.62 11.2,2.58 111.37,-10.94 111.37,-10.94 -2.62,-64.44 -16.81,-367.74 -54.96,-463.99l-108.79 2.32z"/>
      <path class="fil4" d="M473.85 1892.7c-58.71,221.02 -83.01,397.43 -89.41,449.49 0,0 100.08,25.1 152.62,44.05 0,0 0.15,-4.3 0.46,-12.11 2.62,-64.44 16.81,-367.74 54.96,-463.99l-118.63 -17.44z"/>
      <path class="fil3" d="M464.08 1890.75c-58.71,221.02 -83.01,397.43 -89.41,449.49 0,0 100.08,25.1 152.62,44.05 0,0 0.15,-4.3 0.46,-12.11 2.62,-64.44 16.81,-367.74 54.96,-463.99l-118.63 -17.44z"/>
      <path class="fil4" d="M473.85 1894.65l-108.94 -27.13c0,0 -131.9,327.71 -131.9,447.44 0,0 118.59,20.73 149.6,44.84 0,0 0.57,-5.43 1.83,-15.67 6.4,-52.05 30.7,-228.47 89.41,-449.49z"/>
      <path class="fil3" d="M464.08 1890.75l-108.94 -27.13c0,0 -131.9,327.71 -131.9,447.44 0,0 118.59,20.73 149.6,44.84 0,0 0.57,-5.43 1.83,-15.67 6.4,-52.05 30.7,-228.47 89.41,-449.49z"/>
      <path class="fil4" d="M681.73 1907.81c38.15,96.25 52.34,399.55 54.96,463.99 0.32,7.81 0.46,12.11 0.46,12.11 52.54,-18.95 152.62,-44.05 152.62,-44.05 -6.4,-52.05 -30.7,-228.47 -89.41,-449.49l-118.63 17.44z"/>
      <path class="fil3" d="M691.49 1905.86c38.15,96.25 52.34,399.55 54.96,463.99 0.32,7.81 0.46,12.11 0.46,12.11 52.54,-18.95 152.62,-44.05 152.62,-44.05 -6.4,-52.05 -30.7,-228.47 -89.41,-449.49l-118.63 17.44z"/>
      <path class="fil4" d="M798.4 1892.33c58.71,221.02 83.01,397.43 89.41,449.49 1.26,10.25 1.83,15.67 1.83,15.67 31.01,-24.12 149.6,-44.84 149.6,-44.84 0,-119.73 -131.9,-447.44 -131.9,-447.44l-108.94 27.13z"/>
      <path class="fil3" d="M810.12 1888.42c58.71,221.02 83.01,397.43 89.41,449.49 1.26,10.25 1.83,15.67 1.83,15.67 31.01,-24.12 149.6,-44.84 149.6,-44.84 0,-119.73 -131.9,-447.44 -131.9,-447.44l-108.94 27.13z"/>
      <path class="fil4" d="M638.15 1481.52c0,0 -132.06,-6.7 -134.65,-64.41 -79.5,143.26 -160.59,425.35 -160.59,425.35 -0.86,20.67 6.89,21.54 6.89,21.54 201.15,59.46 294.38,49.19 294.38,49.19 0,0 113.49,-4.39 294.38,-49.19 0,0 7.75,-0.86 6.89,-21.54 0,0 -80.16,-278.83 -159.21,-422.85 -4.32,56.59 -131.69,62.44 -131.69,62.44l28.57 0.93c0,0 3.26,46.32 -14.82,57.66 15.99,85.75 24.91,108.57 19.74,175.23 -5.17,66.66 -46.51,82.04 -46.51,82.04 3.45,-25.64 -7.36,-148.76 -7.36,-148.76 -25.98,133.56 -66.72,159.1 -66.72,159.1 5.17,-39.72 5.17,-127.68 5.17,-127.68 -6.89,-99.31 52.61,-139.65 52.61,-139.65 0,0 -10.58,-7.95 -15.62,-60.33l28.55 0.93z"/>
      <path class="fil3" d="M638.15 1471.76c0,0 -132.06,-6.7 -134.65,-64.41 -79.5,143.26 -160.59,425.35 -160.59,425.35 -0.86,20.67 6.89,21.54 6.89,21.54 201.15,59.46 294.38,49.19 294.38,49.19 0,0 113.49,-4.39 294.38,-49.19 0,0 7.75,-0.86 6.89,-21.54 0,0 -80.16,-278.83 -159.21,-422.85 -4.32,56.59 -131.69,62.44 -131.69,62.44l28.57 0.93c0,0 3.26,46.32 -14.82,57.66 15.99,85.75 24.91,108.57 19.74,175.23 -5.17,66.66 -46.51,82.04 -46.51,82.04 3.45,-25.64 -7.36,-148.76 -7.36,-148.76 -25.98,133.56 -66.72,159.1 -66.72,159.1 5.17,-39.72 5.17,-127.68 5.17,-127.68 -6.89,-99.31 52.61,-139.65 52.61,-139.65 0,0 -10.58,-7.95 -15.62,-60.33l28.55 0.93z"/>
      <path class="fil3" d="M568.61 1382.85c21.82,52 69.54,88.9 69.54,88.91l16.4 0.53c0,0 45.38,-36.05 66.62,-87.34 -62.26,-18.41 -152.55,-2.09 -152.55,-2.09z"/>
      <path class="fil4" d="M715.31 1384.95c-21.24,51.29 -66.62,87.34 -66.62,87.34 0,0 127.38,-5.85 131.69,-62.44 -18.53,-33.76 -37.01,-60.12 -54.37,-73.73 -0.28,17.25 -4.44,33.7 -10.7,48.83z"/>
      <path class="fil4" d="M644.01 1471.76c0,0 -47.72,-36.9 -69.54,-88.9 -6.25,-14.89 -10.37,-31.02 -10.64,-47.87 -17.36,12.93 -35.87,38.85 -54.47,72.36 2.58,57.71 134.65,64.41 134.65,64.41z"/>
      <path class="fil4" d="M721.17 1392.76c-21.24,51.29 -66.62,87.34 -66.62,87.34 0,0 127.38,-5.85 131.69,-62.44 -18.53,-33.76 -37.01,-60.12 -54.37,-73.73 -0.28,17.25 -4.44,33.7 -10.7,48.83z"/>
      <path class="fil3" d="M721.17 1384.95c-21.24,51.29 -66.62,87.34 -66.62,87.34 0,0 127.38,-5.85 131.69,-62.44 -18.53,-33.76 -37.01,-60.12 -54.37,-73.73 -0.28,17.25 -4.44,33.7 -10.7,48.83z"/>
      <path class="fil4" d="M638.15 1479.57c0,0 -47.72,-36.9 -69.54,-88.9 -6.25,-14.89 -10.37,-31.02 -10.64,-47.87 -17.36,12.93 -35.87,38.85 -54.47,72.36 2.58,57.71 134.65,64.41 134.65,64.41z"/>
      <path class="fil3" d="M638.15 1471.76c0,0 -47.72,-36.9 -69.54,-88.9 -6.25,-14.89 -10.37,-31.02 -10.64,-47.87 -17.36,12.93 -35.87,38.85 -54.47,72.36 2.58,57.71 134.65,64.41 134.65,64.41z"/>
      <path class="fil5" d="M648.91 1531c-3.73,42.32 -8.86,78.12 -14.75,108.39 0,0 10.81,123.12 7.36,148.76 0,0 41.34,-15.38 46.51,-82.04 5.17,-66.66 -3.76,-89.48 -19.74,-175.23l-19.38 0.13z"/>
      <path class="fil6" d="M629.13 1531.16c0,0 -59.5,40.34 -52.61,139.65 0,0 0,87.96 -5.17,127.68 0,0 40.73,-25.54 66.72,-159.1 5.89,-30.26 11.02,-66.07 14.75,-108.39l-23.69 0.15z"/>
      <path class="fil5" d="M625.23 1531.16c0,0 -59.5,40.34 -52.61,139.65 0,0 0,87.96 -5.17,127.68 0,0 40.73,-25.54 66.72,-159.1 5.89,-30.26 11.02,-66.07 14.75,-108.39l-23.69 0.15z"/>
      <path class="fil6" d="M609.6 1474.74c5.05,52.37 15.62,60.33 15.62,60.33l23.69 -0.15 19.38 -0.13c18.09,-11.34 14.82,-57.66 14.82,-57.66l-28.57 -0.93 -16.4 -0.53 -28.55 -0.93z"/>
      <path class="fil5" d="M609.6 1470.83c5.05,52.37 15.62,60.33 15.62,60.33l23.69 -0.15 19.38 -0.13c18.09,-11.34 14.82,-57.66 14.82,-57.66l-28.57 -0.93 -16.4 -0.53 -28.55 -0.93z"/>
     </g>
     <g>
      <path class="fil7" d="M413.97 2084.64c0,0 -34.45,-518.54 180.89,-766.62l-37.9 3.44c0,0 -184.33,179.16 -304.92,701.15 0,0 -25.84,36.18 161.94,62.02z"/>
      <path class="fil7" d="M690.84 1317.19c215.34,248.08 180.89,766.62 180.89,766.62 187.78,-25.84 161.94,-62.02 161.94,-62.02 -120.59,-521.99 -304.92,-701.15 -304.92,-701.15l-37.9 -3.44z"/>
     </g>
    </g>
    <g>
     <ellipse class="fil0" transform="matrix(0.490278 0.528848 -0.528848 0.490278 56.9944 2067.5)" rx="64.6" ry="89.58"/>
     <path class="fil7" d="M446.34 1489.42c88.38,-49.82 107.54,-167.53 107.54,-167.53 0,0 -67.3,2.92 -155.08,115.12 -105.06,134.29 -262.44,352.35 -393.91,552.43 0,0 -8.62,26.27 17.22,32.3l7.32 -11.63c0,0 89.58,53.84 89.58,60.73 0,0 -0.77,1.89 -2.01,4.61 0,0 38.06,-24.79 45.08,-10.64 7.01,14.16 149.67,-188.42 284.25,-575.4z"/>
     <path class="fil8" d="M119.02 2070.84c0,-6.89 -89.58,-60.73 -89.58,-60.73l-7.32 11.63 -5.6 18.52c0.86,5.6 87,54.27 87,54.27 4.31,-0.31 10.38,-12.28 13.49,-19.08 1.24,-2.72 2.01,-4.61 2.01,-4.61z"/>
    </g>
    <g>
     <ellipse class="fil0" transform="matrix(-0.490278 0.528848 0.528848 0.490278 1218.52 2063.04)" rx="64.6" ry="89.58"/>
     <path class="fil7" d="M829.18 1484.95c-88.38,-49.82 -107.54,-167.53 -107.54,-167.53 0,0 67.3,2.92 155.08,115.12 105.06,134.29 262.44,352.35 393.91,552.43 0,0 8.62,26.27 -17.22,32.3l-7.32 -11.63c0,0 -89.58,53.84 -89.58,60.73 0,0 0.77,1.89 2.01,4.61 0,0 -38.06,-24.79 -45.08,-10.64 -7.01,14.16 -149.67,-188.42 -284.25,-575.4z"/>
     <path class="fil8" d="M1156.5 2066.38c0,-6.89 89.58,-60.73 89.58,-60.73l7.32 11.63 5.6 18.52c-0.86,5.6 -87,54.27 -87,54.27 -4.31,-0.31 -10.38,-12.28 -13.49,-19.08 -1.24,-2.72 -2.01,-4.61 -2.01,-4.61z"/>
    </g>
    <g>
     <path class="fil9" d="M1040.53 956.19c0.29,-1.15 0.45,-1.8 0.45,-1.8 0.03,0.45 -0.13,1.06 -0.45,1.8zm-281.54 -217.69c1.17,-48.47 6.07,-85.75 0,0zm-266.61 -172.69c-0.17,-19.17 0.67,-30.77 0.67,-30.77 0,0 2.46,11.05 -0.67,30.77zm154.1 101.88c0,0 4.51,144.23 4.69,154.07 1.58,8.62 79.07,11.79 101.78,-4.1 2.7,-33.66 4.66,-59.61 6.04,-79.16 -0.83,34.54 0.24,74.76 8.54,80.2 9.31,7.11 40.24,4.92 50.3,0.58 0,0 70.56,-117.07 46.68,-271.33 0,0 47.21,199.65 143.85,232.7 12.33,57.04 17.54,138.4 -15.35,227.91 0,0 42.62,-41.27 47.52,-52.37 -1.79,6.97 -8.52,32.28 -14.16,40.69 0,0 16.56,-10.76 31.55,-23.39 73.92,-11.34 57.03,119.63 -57.56,134.65 -17.71,33.61 -41.1,64.08 -69.07,91.27l-4.53 33.5c20.67,0 48.24,-39.62 48.24,-39.62l-5.17 36.18c41.35,-10.34 134.28,-104.17 134.28,-104.17 67.93,-198.93 31.47,-261.97 31.47,-261.97 -94.26,-134.81 -193.39,-241.16 -271.07,-315.37 -84.39,-80.62 -143.46,-123.29 -143.46,-123.29 0,0 -37.24,-10.75 -68.29,-14.13 -31.06,3.39 -61.11,12.76 -61.11,12.76 0,0 -217.87,157.39 -414.53,438.65 0,0 -38.15,65.95 36.3,275.83 0,0 92.01,98.45 133.35,108.78l-5.17 -36.18c0,0 27.57,39.62 48.24,39.62l-3.21 -36.53c-32.8,-30.93 -60.03,-66.46 -81.02,-106.28 -114.56,-15.02 -127.29,-143.06 -53.44,-131.81 24.63,15.36 66.65,38.95 66.65,38.95 -8.76,-13.89 -18.64,-43.76 -18.64,-43.76 9.16,19.56 25.47,23.07 25.47,23.07 -11.45,-79.56 -3.72,-156.47 8.74,-218.15 121.83,-92.73 151.58,-169.35 157.99,-209.68 0.5,56.4 9.82,178.35 75.39,263.41 0.37,5.23 59.4,-2.56 66.4,-6.25 0,0 5.18,-24.75 8.83,-67.08 2.08,-24.13 3.66,-53.97 3.49,-88.19z"/>
     <path class="fil10" d="M864.52 547.96c77.68,74.2 176.81,180.55 271.07,315.37 0,0 36.46,63.04 -31.47,261.97 -3.77,11.05 -7.87,22.51 -12.31,34.41 0,0 -170.41,170.33 -374.18,212.86l-0.62 5.5c236.99,-10.27 542.3,-258.3 533.08,-284.36 155.36,-277.07 -101.37,-617.4 -101.37,-617.4 -194.43,-254.17 -307.67,-308.82 -307.67,-308.82 0,0 -88.23,-22.59 -181.22,-27.37 -92.99,4.78 -164.35,32.86 -164.35,32.86 0,0 -113.24,54.65 -307.67,308.82 0,0 -256.73,340.33 -101.37,617.4 1.37,19.37 272.34,262.78 487.86,277.45 0,0 0,0 -0.2,-1.88 -208.66,-36.98 -353.19,-216.43 -353.19,-216.43 -2.61,-7 -5.1,-13.84 -7.48,-20.55 -74.45,-209.87 -36.3,-275.83 -36.3,-275.83 196.66,-281.27 414.53,-438.65 414.53,-438.65 0,0 30.05,-9.37 61.11,-12.76 31.06,3.39 68.29,14.13 68.29,14.13 0,0 59.07,42.67 143.46,123.29z"/>
     <path class="fil11" d="M817.84 819.28c-10.06,4.34 -40.99,6.53 -50.3,-0.58 -8.3,-5.44 -9.37,-45.66 -8.54,-80.2 -1.38,19.55 -3.34,45.49 -6.04,79.16 -22.71,15.89 -100.2,12.71 -101.78,4.1 -0.18,-9.83 -4.69,-154.07 -4.69,-154.07 0.17,34.22 -1.41,64.06 -3.49,88.19 -3.64,42.33 -8.83,67.08 -8.83,67.08 -6.99,3.7 -66.03,11.49 -66.4,6.25 -65.57,-85.06 -74.88,-207 -75.39,-263.41 -6.4,40.33 -36.15,116.95 -157.99,209.68 -12.46,61.68 -20.18,138.59 -8.74,218.15 0,0 -16.31,-3.51 -25.47,-23.07 0,0 9.89,29.87 18.64,43.76 0,0 -42.02,-23.59 -66.65,-38.95 -73.84,-11.25 -61.11,116.8 53.44,131.81 20.98,39.83 48.22,75.36 81.02,106.28 48.94,46.15 110.27,82.05 181.7,106.69 24.46,8.44 50.1,15.55 76.83,21.31 26.14,-5.63 51.66,-12.53 76.35,-20.68 82.02,-27.07 154.76,-67.89 209.77,-121.39 27.97,-27.2 51.36,-57.67 69.07,-91.27 114.59,-15.02 131.48,-145.99 57.56,-134.65 -14.99,12.63 -31.55,23.39 -31.55,23.39 5.64,-8.41 12.37,-33.71 14.16,-40.69 -4.9,11.1 -47.52,52.37 -47.52,52.37 32.89,-89.51 27.69,-170.87 15.35,-227.91 -96.64,-33.05 -143.85,-232.7 -143.85,-232.7 23.87,154.26 -46.68,271.33 -46.68,271.33z"/>
     <path class="fil12" d="M568.35 1320.16c-71.43,-24.64 -132.76,-60.54 -181.7,-106.69l3.21 36.53c-20.67,0 -48.24,-39.62 -48.24,-39.62l5.17 36.18c-41.35,-10.34 -133.35,-108.78 -133.35,-108.78 2.38,6.7 4.87,13.55 7.48,20.55 0,0 144.53,179.45 353.19,216.43 -0.42,-3.97 -1.72,-16.3 -5.76,-54.58z"/>
     <path class="fil12" d="M931.3 1199.41c-55.02,53.49 -127.75,94.31 -209.77,121.39l1.95 0 -5.85 51.76c203.76,-42.53 374.18,-212.86 374.18,-212.86 4.44,-11.9 8.53,-23.36 12.31,-34.41 0,0 -92.94,93.83 -134.28,104.17l5.17 -36.18c0,0 -27.57,39.62 -48.24,39.62l4.53 -33.5z"/>
     <path class="fil13" d="M1040.53 956.19c0.29,-1.15 0.45,-1.8 0.45,-1.8 0.03,0.45 -0.13,1.06 -0.45,1.8zm-281.54 -217.69c1.17,-48.47 6.07,-85.75 0,0zm-266.61 -172.69c-0.17,-19.17 0.67,-30.77 0.67,-30.77 0,0 2.46,11.05 -0.67,30.77zm154.1 101.88c0,0 4.51,144.23 4.69,154.07 1.58,8.62 79.07,11.79 101.78,-4.1 2.7,-33.66 4.66,-59.61 6.04,-79.16 -0.83,34.54 0.24,74.76 8.54,80.2 9.31,7.11 40.24,4.92 50.3,0.58 0,0 70.56,-117.07 46.68,-271.33 0,0 47.21,199.65 143.85,232.7 12.33,57.04 17.54,138.4 -15.35,227.91 0,0 42.62,-41.27 47.52,-52.37 -1.79,6.97 -8.52,32.28 -14.16,40.69 0,0 16.56,-10.76 31.55,-23.39 73.92,-11.34 57.03,119.63 -57.56,134.65 -17.71,33.61 -41.1,64.08 -69.07,91.27l-4.53 33.5c20.67,0 48.24,-39.62 48.24,-39.62l-5.17 36.18c41.35,-10.34 134.28,-104.17 134.28,-104.17 67.93,-198.93 31.47,-261.97 31.47,-261.97 -94.26,-134.81 -193.39,-241.16 -271.07,-315.37 -84.39,-80.62 -143.46,-123.29 -143.46,-123.29 0,0 -37.24,-10.75 -68.29,-14.13 -31.06,3.39 -61.11,12.76 -61.11,12.76 0,0 -217.87,157.39 -414.53,438.65 0,0 -38.15,65.95 36.3,275.83 0,0 92.01,98.45 133.35,108.78l-5.17 -36.18c0,0 27.57,39.62 48.24,39.62l-3.21 -36.53c-32.8,-30.93 -60.03,-66.46 -81.02,-106.28 -114.56,-15.02 -127.29,-143.06 -53.44,-131.81 24.63,15.36 66.65,38.95 66.65,38.95 -8.76,-13.89 -18.64,-43.76 -18.64,-43.76 9.16,19.56 25.47,23.07 25.47,23.07 -11.45,-79.56 -3.72,-156.47 8.74,-218.15 121.83,-92.73 151.58,-169.35 157.99,-209.68 0.5,56.4 9.82,178.35 75.39,263.41 0.37,5.23 59.4,-2.56 66.4,-6.25 0,0 5.18,-24.75 8.83,-67.08 2.08,-24.13 3.66,-53.97 3.49,-88.19z"/>
     <path class="fil7" d="M864.52 547.96c77.68,74.2 176.81,180.55 271.07,315.37 0,0 36.46,63.04 -31.47,261.97 -3.77,11.05 -7.87,22.51 -12.31,34.41 0,0 -170.41,170.33 -374.18,212.86l-0.62 5.5c236.99,-10.27 542.3,-258.3 533.08,-284.36 155.36,-277.07 -101.37,-617.4 -101.37,-617.4 -194.43,-254.17 -307.67,-308.82 -307.67,-308.82 0,0 -88.23,-22.59 -181.22,-27.37 -92.99,4.78 -164.35,32.86 -164.35,32.86 0,0 -113.24,54.65 -307.67,308.82 0,0 -256.73,340.33 -101.37,617.4 1.37,19.37 272.34,262.78 487.86,277.45 0,0 0,0 -0.2,-1.88 -208.66,-36.98 -353.19,-216.43 -353.19,-216.43 -2.61,-7 -5.1,-13.84 -7.48,-20.55 -74.45,-209.87 -36.3,-275.83 -36.3,-275.83 196.66,-281.27 414.53,-438.65 414.53,-438.65 0,0 30.05,-9.37 61.11,-12.76 31.06,3.39 68.29,14.13 68.29,14.13 0,0 59.07,42.67 143.46,123.29z"/>
     <path class="fil0" d="M817.84 819.28c-10.06,4.34 -40.99,6.53 -50.3,-0.58 -8.3,-5.44 -9.37,-45.66 -8.54,-80.2 -1.38,19.55 -3.34,45.49 -6.04,79.16 -22.71,15.89 -100.2,12.71 -101.78,4.1 -0.18,-9.83 -4.69,-154.07 -4.69,-154.07 0.17,34.22 -1.41,64.06 -3.49,88.19 -3.64,42.33 -8.83,67.08 -8.83,67.08 -6.99,3.7 -66.03,11.49 -66.4,6.25 -65.57,-85.06 -74.88,-207 -75.39,-263.41 -6.4,40.33 -36.15,116.95 -157.99,209.68 -12.46,61.68 -20.18,138.59 -8.74,218.15 0,0 -16.31,-3.51 -25.47,-23.07 0,0 9.89,29.87 18.64,43.76 0,0 -42.02,-23.59 -66.65,-38.95 -73.84,-11.25 -61.11,116.8 53.44,131.81 20.98,39.83 48.22,75.36 81.02,106.28 48.94,46.15 110.27,82.05 181.7,106.69 24.46,8.44 50.1,15.55 76.83,21.31 26.14,-5.63 51.66,-12.53 76.35,-20.68 82.02,-27.07 154.76,-67.89 209.77,-121.39 27.97,-27.2 51.36,-57.67 69.07,-91.27 114.59,-15.02 131.48,-145.99 57.56,-134.65 -14.99,12.63 -31.55,23.39 -31.55,23.39 5.64,-8.41 12.37,-33.71 14.16,-40.69 -4.9,11.1 -47.52,52.37 -47.52,52.37 32.89,-89.51 27.69,-170.87 15.35,-227.91 -96.64,-33.05 -143.85,-232.7 -143.85,-232.7 23.87,154.26 -46.68,271.33 -46.68,271.33z"/>
     <path class="fil12" d="M568.35 1320.16c-71.43,-24.64 -132.76,-60.54 -181.7,-106.69l3.21 36.53c-20.67,0 -48.24,-39.62 -48.24,-39.62l5.17 36.18c-41.35,-10.34 -133.35,-108.78 -133.35,-108.78 2.38,6.7 4.87,13.55 7.48,20.55 0,0 144.53,179.45 353.19,216.43 -0.42,-3.97 -1.72,-16.3 -5.76,-54.58z"/>
     <path class="fil12" d="M931.3 1199.41c-55.02,53.49 -127.75,94.31 -209.77,121.39l1.95 0 -5.85 51.76c203.76,-42.53 374.18,-212.86 374.18,-212.86 4.44,-11.9 8.53,-23.36 12.31,-34.41 0,0 -92.94,93.83 -134.28,104.17l5.17 -36.18c0,0 -27.57,39.62 -48.24,39.62l4.53 -33.5z"/>
     <path class="fil7" d="M800.03 182.87c34.6,-6.09 -39.87,-156.11 -131.72,-182.87 -94.34,34.45 -180.27,181.41 -131.41,181.41 32.46,-5.88 77.69,16.74 121.65,14.88 53.88,2.28 101.2,-19.4 141.47,-13.42z"/>
     <path class="fil7" d="M1204.43 1135.58c35.99,8.32 68.1,102.72 68.1,102.72 92.01,-51.15 17.82,-449.46 17.82,-449.46l-85.92 346.74z"/>
     <path class="fil14" d="M864.52 547.96c77.68,74.2 176.81,180.55 271.07,315.37 0,0 36.46,63.04 -31.47,261.97 -3.77,11.05 -7.87,22.51 -12.31,34.41 0,0 -170.41,170.33 -374.18,212.86l-0.62 5.5c184,-7.98 409.14,-159.25 496.33,-238.71 -0,-0.47 -2.3,-557.74 -417.67,-654.13 19.99,17.34 43.25,38.29 68.85,62.74zm-731.7 600.57c86.83,77.3 279.76,217.09 441.48,228.1 0,0 0,0 -0.2,-1.88 -208.66,-36.98 -353.19,-216.43 -353.19,-216.43 -2.61,-7 -5.1,-13.84 -7.48,-20.55 -74.45,-209.87 -36.3,-275.83 -36.3,-275.83 120.62,-172.51 249.19,-298.4 330.61,-369.98 -397.84,114.12 -374.92,656.53 -374.92,656.57z"/>
     <path class="fil7" d="M427.77 464.7c0,0 200.54,363.49 479.78,6.89l-223.39 -117.15 -256.39 110.26z"/>
     <path class="fil7" d="M133.37 1150.73c-35.99,8.32 -68.1,102.72 -68.1,102.72 -92.01,-51.15 -17.82,-449.46 -17.82,-449.46l85.92 346.74z"/>
     <circle class="fil15" cx="439.64" cy="407.26" r="24.12"/>
     <path class="fil15" d="M466.59 432.66c3.41,-29.25 -10.7,-57.92 -23.37,-64.44 -57.76,-29.74 -66.21,62.72 -66.21,62.72 0,0 48.24,-112.41 89.58,1.72z"/>
     <circle class="fil15" cx="867.42" cy="407.26" r="24.12"/>
     <path class="fil15" d="M840.47 432.66c-3.41,-29.25 10.7,-57.92 23.37,-64.44 57.76,-29.74 66.21,62.72 66.21,62.72 0,0 -48.24,-112.41 -89.58,1.72z"/>
    </g>
   </g>
   <path class="fil16" d="M437.79 850.12l48.05 15.53c19.98,0 36.18,24.3 36.18,54.27 0,29.97 -16.2,54.27 -36.18,54.27 -19.98,0 -36.18,-24.3 -36.18,-54.27 0,-12.26 2.71,-23.56 7.28,-32.65l-19.15 -37.14z"/>
   <path class="fil16" d="M862.28 858.01l-48.05 15.53c-19.98,0 -36.18,24.3 -36.18,54.27 0,29.97 16.2,54.27 36.18,54.27 19.98,0 36.18,-24.3 36.18,-54.27 0,-12.26 -2.71,-23.56 -7.28,-32.65l19.15 -37.14z"/>
   <path class="fil17" d="M529.73 1110.73l231.71 0c0,0 -29.29,108.53 -113.7,107.67 -84.41,-0.86 -118.01,-107.67 -118.01,-107.67z"/>
  </g>
 </g>
</svg>
