<?xml version="1.0" encoding="UTF-8"?>
<!DOCTYPE svg PUBLIC "-//W3C//DTD SVG 1.1//EN" "http://www.w3.org/Graphics/SVG/1.1/DTD/svg11.dtd">
<!-- Creator: CorelDRAW 2018 (64-Bit) -->
<svg xmlns="http://www.w3.org/2000/svg" xml:space="preserve" width="79.9277mm" height="172.496mm" version="1.1" style="shape-rendering:geometricPrecision; text-rendering:geometricPrecision; image-rendering:optimizeQuality; fill-rule:evenodd; clip-rule:evenodd"
viewBox="0 0 1009.52 2178.7"
 xmlns:xlink="http://www.w3.org/1999/xlink">
 <defs>
  <style type="text/css">
   <![CDATA[
    .str0 {stroke:#332C2B;stroke-width:2.53;stroke-miterlimit:22.9256}
    .fil11 {fill:#ED84B1}
    .fil18 {fill:#ECA4A9}
    .fil0 {fill:#AAB6BD}
    .fil12 {fill:#9499A1}
    .fil6 {fill:#7D3636}
    .fil8 {fill:#8A9096}
    .fil7 {fill:#572627}
    .fil10 {fill:#555A5E}
    .fil2 {fill:#403C37}
    .fil14 {fill:#494F57}
    .fil16 {fill:#404547}
    .fil17 {fill:#3C414A}
    .fil4 {fill:#3C4654}
    .fil3 {fill:#2E343B}
    .fil5 {fill:#2C333B}
    .fil15 {fill:#756A57}
    .fil9 {fill:#FFB096}
    .fil1 {fill:#FFC6B7}
    .fil13 {fill:#F7F1E4}
   ]]>
  </style>
 </defs>
 <g id="Layer_x0020_1">
  <metadata id="CorelCorpID_0Corel-Layer"/>
  <g id="_1585056180640">
   <ellipse class="fil1" cx="531.52" cy="809.95" rx="84.66" ry="169.32"/>
   <g>
    <path class="fil2" d="M484.32 1619.91c-61.37,20.34 -140.9,-15.23 -145.35,-24.08 20.5,84.68 44.67,190.94 45.95,225.94 2.23,61.27 -13.37,248.41 10.03,272.91 0,0 31.19,17.82 57.92,-14.48 -2.23,-34.53 -3.34,-231.7 0,-256.2 2.05,-15.06 18.82,-123.05 31.45,-204.09z"/>
    <path class="fil3" d="M452.87 2080.21c-26.73,32.3 -57.92,14.48 -57.92,14.48 0,0 22.26,64.6 57.91,74.63 35.65,10.03 0.02,-89.11 0.02,-89.11z"/>
    <path class="fil2" d="M571.37 1627.32c61.37,20.34 140.9,-15.23 145.35,-24.08 -20.5,84.68 -44.67,190.94 -45.95,225.94 -2.23,61.27 13.37,248.41 -10.03,272.91 0,0 -31.19,17.82 -57.92,-14.48 2.23,-34.53 3.34,-231.7 0,-256.2 -2.05,-15.06 -18.82,-123.05 -31.45,-204.09z"/>
    <path class="fil3" d="M602.83 2087.61c26.73,32.3 57.92,14.48 57.92,14.48 0,0 -22.26,64.6 -57.91,74.63 -35.65,10.03 -0.02,-89.11 -0.02,-89.11z"/>
    <g>
     <path class="fil2" d="M498.54 1528.81c-65.07,-271.06 -188.25,-47.9 -188.25,-47.9 0,0 13.2,50.96 28.5,114.14 0.06,0.26 0.13,0.53 0.19,0.79 4.45,8.85 83.98,44.42 145.35,24.08 7.92,-50.86 14.22,-91.1 14.22,-91.1z"/>
     <path class="fil2" d="M557.16 1536.22c65.07,-271.06 188.25,-47.9 188.25,-47.9 0,0 -13.2,50.96 -28.5,114.14 -0.06,0.26 -0.13,0.53 -0.19,0.79 -4.45,8.85 -83.98,44.42 -145.35,24.08 -7.92,-50.86 -14.22,-91.1 -14.22,-91.1z"/>
     <path class="fil4" d="M490.86 1290.78c-24.67,62.23 -33.84,258.36 -35.54,300.02 0,0 62.16,7.24 69.4,5.57 7.24,1.67 72.01,-7.08 72.01,-7.08 -1.7,-41.67 -10.87,-237.79 -35.54,-300.02l-70.34 1.5z"/>
     <path class="fil5" d="M420.47 1280.77c-37.96,142.91 -53.67,256.98 -57.82,290.64 0,0 64.71,16.23 98.69,28.49 0,0 0.1,-2.78 0.3,-7.83 1.7,-41.67 10.87,-237.79 35.54,-300.02l-76.71 -11.28z"/>
     <path class="fil4" d="M414.16 1279.5c-37.96,142.91 -53.67,256.98 -57.82,290.64 0,0 64.71,16.23 98.69,28.49 0,0 0.1,-2.78 0.3,-7.83 1.7,-41.67 10.87,-237.79 35.54,-300.02l-76.71 -11.28z"/>
     <path class="fil5" d="M420.47 1282.03l-70.44 -17.54c0,0 -85.29,211.9 -85.29,289.32 0,0 76.68,13.4 96.74,29 0,0 0.37,-3.51 1.18,-10.13 4.14,-33.66 19.85,-147.73 57.82,-290.64z"/>
     <path class="fil4" d="M414.16 1279.5l-70.44 -17.54c0,0 -85.29,211.9 -85.29,289.32 0,0 76.68,13.4 96.74,29 0,0 0.37,-3.51 1.18,-10.13 4.14,-33.66 19.85,-147.73 57.82,-290.64z"/>
     <path class="fil5" d="M554.89 1290.54c24.67,62.23 33.84,258.36 35.54,300.02 0.2,5.05 0.3,7.83 0.3,7.83 33.97,-12.25 98.69,-28.49 98.69,-28.49 -4.14,-33.66 -19.85,-147.73 -57.82,-290.64l-76.71 11.28z"/>
     <path class="fil4" d="M561.2 1289.28c24.67,62.23 33.84,258.36 35.54,300.02 0.2,5.05 0.3,7.83 0.3,7.83 33.97,-12.25 98.69,-28.49 98.69,-28.49 -4.14,-33.66 -19.85,-147.73 -57.82,-290.64l-76.71 11.28z"/>
     <path class="fil5" d="M630.33 1280.53c37.96,142.91 53.67,256.98 57.82,290.64 0.82,6.63 1.18,10.13 1.18,10.13 20.05,-15.59 96.74,-29 96.74,-29 0,-77.42 -85.29,-289.32 -85.29,-289.32l-70.44 17.54z"/>
     <path class="fil4" d="M637.91 1278c37.96,142.91 53.67,256.98 57.82,290.64 0.82,6.63 1.18,10.13 1.18,10.13 20.05,-15.59 96.74,-29 96.74,-29 0,-77.42 -85.29,-289.32 -85.29,-289.32l-70.44 17.54z"/>
     <path class="fil5" d="M526.71 1014.9c0,0 -85.39,-4.33 -87.06,-41.65 -51.4,92.63 -103.84,275.03 -103.84,275.03 -0.56,13.37 4.45,13.93 4.45,13.93 130.06,38.45 190.35,31.8 190.35,31.8 0,0 73.38,-2.84 190.35,-31.8 0,0 5.01,-0.56 4.45,-13.93 0,0 -51.83,-180.29 -102.95,-273.42 -2.79,36.59 -85.15,40.38 -85.15,40.38l18.48 0.6c0,0 2.11,29.95 -9.59,37.28 10.34,55.45 16.11,70.2 12.77,113.3 -3.34,43.1 -30.08,53.05 -30.08,53.05 2.23,-16.58 -4.76,-96.19 -4.76,-96.19 -16.8,86.36 -43.14,102.87 -43.14,102.87 3.34,-25.69 3.34,-82.56 3.34,-82.56 -4.46,-64.21 34.02,-90.3 34.02,-90.3 0,0 -6.84,-5.14 -10.1,-39.01l18.46 0.6z"/>
     <path class="fil4" d="M526.71 1008.58c0,0 -85.39,-4.33 -87.06,-41.65 -51.4,92.63 -103.84,275.03 -103.84,275.03 -0.56,13.37 4.45,13.93 4.45,13.93 130.06,38.45 190.35,31.8 190.35,31.8 0,0 73.38,-2.84 190.35,-31.8 0,0 5.01,-0.56 4.45,-13.93 0,0 -51.83,-180.29 -102.95,-273.42 -2.79,36.59 -85.15,40.38 -85.15,40.38l18.48 0.6c0,0 2.11,29.95 -9.59,37.28 10.34,55.45 16.11,70.2 12.77,113.3 -3.34,43.1 -30.08,53.05 -30.08,53.05 2.23,-16.58 -4.76,-96.19 -4.76,-96.19 -16.8,86.36 -43.14,102.87 -43.14,102.87 3.34,-25.69 3.34,-82.56 3.34,-82.56 -4.46,-64.21 34.02,-90.3 34.02,-90.3 0,0 -6.84,-5.14 -10.1,-39.01l18.46 0.6z"/>
     <path class="fil4" d="M481.75 951.1c14.11,33.62 44.96,57.49 44.96,57.49l10.6 0.34c0,0 29.34,-23.31 43.08,-56.48 -40.26,-11.91 -98.64,-1.35 -98.64,-1.35z"/>
     <path class="fil5" d="M576.6 952.45c-13.73,33.16 -43.08,56.48 -43.08,56.48 0,0 82.36,-3.79 85.15,-40.38 -11.98,-21.83 -23.93,-38.87 -35.16,-47.67 -0.18,11.15 -2.87,21.79 -6.92,31.57z"/>
     <path class="fil5" d="M530.5 1008.58c0,0 -30.86,-23.86 -44.96,-57.49 -4.04,-9.63 -6.7,-20.05 -6.88,-30.95 -11.23,8.36 -23.2,25.12 -35.22,46.79 1.67,37.32 87.06,41.65 87.06,41.65z"/>
     <path class="fil5" d="M580.39 957.5c-13.73,33.16 -43.08,56.48 -43.08,56.48 0,0 82.36,-3.79 85.15,-40.38 -11.98,-21.83 -23.93,-38.87 -35.16,-47.67 -0.18,11.15 -2.87,21.79 -6.92,31.57z"/>
     <path class="fil4" d="M580.39 952.45c-13.73,33.16 -43.08,56.48 -43.08,56.48 0,0 82.36,-3.79 85.15,-40.38 -11.98,-21.83 -23.93,-38.87 -35.16,-47.67 -0.18,11.15 -2.87,21.79 -6.92,31.57z"/>
     <path class="fil5" d="M526.71 1013.63c0,0 -30.86,-23.86 -44.96,-57.49 -4.04,-9.63 -6.7,-20.05 -6.88,-30.95 -11.23,8.36 -23.2,25.12 -35.22,46.79 1.67,37.32 87.06,41.65 87.06,41.65z"/>
     <path class="fil4" d="M526.71 1008.58c0,0 -30.86,-23.86 -44.96,-57.49 -4.04,-9.63 -6.7,-20.05 -6.88,-30.95 -11.23,8.36 -23.2,25.12 -35.22,46.79 1.67,37.32 87.06,41.65 87.06,41.65z"/>
     <path class="fil6" d="M533.67 1046.89c-2.41,27.36 -5.73,50.52 -9.53,70.08 0,0 6.99,79.61 4.76,96.19 0,0 26.73,-9.95 30.08,-53.05 3.34,-43.11 -2.43,-57.86 -12.77,-113.3l-12.53 0.08z"/>
     <path class="fil7" d="M520.88 1046.99c0,0 -38.47,26.08 -34.02,90.3 0,0 0,56.87 -3.34,82.56 0,0 26.34,-16.51 43.14,-102.87 3.81,-19.57 7.12,-42.72 9.53,-70.08l-15.32 0.1z"/>
     <path class="fil6" d="M518.36 1046.99c0,0 -38.47,26.08 -34.02,90.3 0,0 0,56.87 -3.34,82.56 0,0 26.34,-16.51 43.14,-102.87 3.81,-19.57 7.12,-42.72 9.53,-70.08l-15.32 0.1z"/>
     <path class="fil7" d="M508.25 1010.51c3.26,33.86 10.1,39.01 10.1,39.01l15.32 -0.1 12.53 -0.08c11.7,-7.33 9.59,-37.28 9.59,-37.28l-18.48 -0.6 -10.6 -0.34 -18.46 -0.6z"/>
     <path class="fil6" d="M508.25 1007.98c3.26,33.86 10.1,39.01 10.1,39.01l15.32 -0.1 12.53 -0.08c11.7,-7.33 9.59,-37.28 9.59,-37.28l-18.48 -0.6 -10.6 -0.34 -18.46 -0.6z"/>
    </g>
    <g>
     <path class="fil8" d="M381.76 1404.88c0,0 -22.28,-335.29 116.96,-495.7l-24.51 2.23c0,0 -119.19,115.85 -197.17,453.37 0,0 -16.71,23.39 104.71,40.1z"/>
     <path class="fil8" d="M560.78 908.64c139.24,160.41 116.96,495.7 116.96,495.7 121.42,-16.71 104.71,-40.1 104.71,-40.1 -77.98,-337.52 -197.17,-453.37 -197.17,-453.37l-24.51 -2.23z"/>
    </g>
   </g>
   <ellipse class="fil9" transform="matrix(-0.490278 0.528848 0.528848 0.490278 901.987 1390.91)" rx="41.77" ry="57.92"/>
   <path class="fil8" d="M650.23 1017.11c-57.15,-32.21 -69.54,-108.32 -69.54,-108.32 0,0 43.52,1.89 100.28,74.44 67.93,86.83 169.7,227.83 254.7,357.2 0,0 5.57,16.99 -11.14,20.89l-4.73 -7.52c0,0 -57.93,34.81 -57.93,39.27 0,0 0.5,1.22 1.3,2.98 0,0 -24.61,-16.03 -29.15,-6.88 -4.54,9.15 -96.78,-121.84 -183.8,-372.06z"/>
   <path class="fil10" d="M861.88 1393.07c0,-4.46 57.93,-39.27 57.93,-39.27l4.73 7.52 3.62 11.97c-0.56,3.62 -56.25,35.09 -56.25,35.09 -2.79,-0.2 -6.71,-7.94 -8.73,-12.34 -0.8,-1.76 -1.3,-2.98 -1.3,-2.98z"/>
   <g>
    <path class="fil11" d="M720.16 640.03c0.02,-0.76 0.03,-1.2 0.03,-1.2 0.08,0.28 0.07,0.68 -0.03,1.2zm-208.31 -97.77c-6.09,-30.75 -8.24,-54.97 0,0zm-192.56 -71.47c-2.81,-12.08 -3.91,-19.52 -3.91,-19.52 0,0 3.1,6.63 3.91,19.52zm111.59 42.61c0,0 23.15,90.39 24.64,96.57 2.21,5.22 51.56,-3.68 63.66,-16.91 -3.03,-21.63 -5.45,-38.28 -7.33,-50.81 4.34,21.92 10.67,47.15 16.68,49.41 6.88,3.18 26.09,-2.56 31.83,-6.71 0,0 28.05,-83.81 -8.72,-177.81 0,0 57.89,119.36 123.53,126.62 15.81,34.26 30.55,84.88 22.38,145.99 0,0 21.09,-32.04 22.62,-39.74 -0.15,4.65 -0.83,21.57 -3.21,27.67 0,0 8.93,-9.12 16.62,-19.2 45.06,-17.56 52.83,67.47 -17.38,93.08 -6.45,23.7 -16.92,46.22 -30.74,67.32l1.85 21.78c13.05,-2.91 24.87,-31.79 24.87,-31.79l1.83 23.56c24.64,-12.34 70.09,-84.64 70.09,-84.64 14.88,-135.1 -17,-169.76 -17,-169.76 -78.46,-71.82 -155.99,-124.98 -215.45,-160.88 -64.6,-39 -107.89,-57.62 -107.89,-57.62 0,0 -25.01,-1.54 -45.09,0.69 -19.12,6.51 -36.77,16.65 -36.77,16.65 0,0 -115.35,129.99 -199.88,335.17 0,0 -14.79,46.99 61.72,168.97 0,0 71.92,49.18 99.47,49.89l-8.35 -22.1c0,0 22.97,21.13 36.02,18.22l-7.17 -22.6c-25.05,-14.9 -47.24,-33.49 -66.09,-55.67 -74.41,6.64 -100.46,-72.38 -52.28,-75.67 17.71,6.23 47.55,15.2 47.55,15.2 -7.48,-7.53 -17.92,-24.99 -17.92,-24.99 8.53,11.06 19.32,10.97 19.32,10.97 -18.42,-48.6 -24.37,-98.23 -25.19,-138.91 63.84,-75.66 71.83,-128.21 70.2,-154.56 8.26,35.53 31.29,111.17 84.64,155.63 0.97,3.25 37.13,-9.97 41.02,-13.29 0,0 -0.21,-16.35 -3.87,-43.58 -2.08,-15.52 -5.29,-34.57 -10.21,-56.15z"/>
    <path class="fil12" d="M551.63 407.16c59.47,35.9 136.99,89.07 215.45,160.88 0,0 31.88,34.65 17,169.76 -0.83,7.5 -1.8,15.31 -2.92,23.45 0,0 -83.58,131.48 -206.19,186.99l0.38 3.56c148.12,-39.83 305.9,-239.33 296.42,-254.48 59.06,-196.73 -150.86,-375.38 -150.86,-375.38 -158.48,-133.05 -237.63,-151.6 -237.63,-151.6 0,0 -58.86,-1.84 -118.22,8.23 -58.02,16.1 -99.1,43.87 -99.1,43.87 0,0 -63.77,50.43 -150.71,238.2 0,0 -114.13,250.91 22.91,403.91 3.59,12.03 208.86,127.52 346.93,106.45 0,0 0,0 -0.39,-1.16 -136.89,6.02 -253.36,-86.89 -253.36,-86.89 -2.63,-4.05 -5.17,-8.02 -7.61,-11.91 -76.52,-121.97 -61.72,-168.97 -61.72,-168.97 84.53,-205.19 199.88,-335.17 199.88,-335.17 0,0 17.65,-10.14 36.77,-16.65 20.08,-2.23 45.09,-0.69 45.09,-0.69 0,0 43.29,18.62 107.89,57.62z"/>
    <path class="fil13" d="M560.35 584.96c-5.74,4.15 -24.95,9.89 -31.83,6.71 -6,-2.26 -12.34,-27.5 -16.68,-49.41 1.88,12.53 4.29,29.18 7.33,50.81 -12.09,13.22 -61.45,22.12 -63.66,16.91 -1.5,-6.18 -24.64,-96.57 -24.64,-96.57 4.92,21.58 8.12,40.63 10.21,56.15 3.66,27.23 3.87,43.58 3.87,43.58 -3.89,3.32 -40.05,16.54 -41.02,13.29 -53.35,-44.46 -76.39,-120.1 -84.64,-155.63 1.64,26.35 -6.36,78.9 -70.2,154.56 0.82,40.68 6.76,90.31 25.19,138.91 0,0 -10.79,0.08 -19.32,-10.97 0,0 10.44,17.46 17.92,24.99 0,0 -29.84,-8.98 -47.55,-15.2 -48.19,3.29 -22.13,82.31 52.28,75.67 18.85,22.18 41.03,40.77 66.09,55.67 37.38,22.24 81.14,36.26 129.69,41.76 16.62,1.88 33.81,2.77 51.49,2.64 15.7,-7.23 30.84,-15.18 45.27,-23.79 47.96,-28.63 88.11,-64.63 115.31,-106.13 13.83,-21.1 24.3,-43.62 30.74,-67.32 70.21,-25.61 62.44,-110.64 17.38,-93.08 -7.68,10.08 -16.62,19.2 -16.62,19.2 2.37,-6.1 3.06,-23.02 3.21,-27.67 -1.53,7.7 -22.62,39.74 -22.62,39.74 8.16,-61.12 -6.57,-111.73 -22.38,-145.99 -65.64,-7.26 -123.53,-126.62 -123.53,-126.62 36.77,94 8.72,177.81 8.72,177.81z"/>
    <path class="fil14" d="M473.38 936.18c-48.55,-5.5 -92.31,-19.53 -129.69,-41.76l7.17 22.6c-13.05,2.91 -36.02,-18.22 -36.02,-18.22l8.35 22.1c-27.55,-0.7 -99.47,-49.89 -99.47,-49.89 2.44,3.9 4.98,7.87 7.61,11.91 0,0 116.47,92.91 253.36,86.89 -0.82,-2.45 -3.38,-10.04 -11.31,-33.64z"/>
    <path class="fil14" d="M685.45 808.9c-27.19,41.5 -67.35,77.5 -115.31,106.13l1.23 -0.28 3.59 33.49c122.61,-55.51 206.19,-186.99 206.19,-186.99 1.13,-8.13 2.1,-15.94 2.92,-23.45 0,0 -45.45,72.3 -70.09,84.64l-1.83 -23.56c0,0 -11.82,28.89 -24.87,31.79l-1.85 -21.78z"/>
    <path class="fil15" d="M720.16 640.03c0.02,-0.76 0.03,-1.2 0.03,-1.2 0.08,0.28 0.07,0.68 -0.03,1.2zm-208.31 -97.77c-6.09,-30.75 -8.24,-54.97 0,0zm-192.56 -71.47c-2.81,-12.08 -3.91,-19.52 -3.91,-19.52 0,0 3.1,6.63 3.91,19.52zm111.59 42.61c0,0 23.15,90.39 24.64,96.57 2.21,5.22 51.56,-3.68 63.66,-16.91 -3.03,-21.63 -5.45,-38.28 -7.33,-50.81 4.34,21.92 10.67,47.15 16.68,49.41 6.88,3.18 26.09,-2.56 31.83,-6.71 0,0 28.05,-83.81 -8.72,-177.81 0,0 57.89,119.36 123.53,126.62 15.81,34.26 30.55,84.88 22.38,145.99 0,0 21.09,-32.04 22.62,-39.74 -0.15,4.65 -0.83,21.57 -3.21,27.67 0,0 8.93,-9.12 16.62,-19.2 45.06,-17.56 52.83,67.47 -17.38,93.08 -6.45,23.7 -16.92,46.22 -30.74,67.32l1.85 21.78c13.05,-2.91 24.87,-31.79 24.87,-31.79l1.83 23.56c24.64,-12.34 70.09,-84.64 70.09,-84.64 14.88,-135.1 -17,-169.76 -17,-169.76 -78.46,-71.82 -155.99,-124.98 -215.45,-160.88 -64.6,-39 -107.89,-57.62 -107.89,-57.62 0,0 -25.01,-1.54 -45.09,0.69 -19.12,6.51 -36.77,16.65 -36.77,16.65 0,0 -115.35,129.99 -199.88,335.17 0,0 -14.79,46.99 61.72,168.97 0,0 71.92,49.18 99.47,49.89l-8.35 -22.1c0,0 22.97,21.13 36.02,18.22l-7.17 -22.6c-25.05,-14.9 -47.24,-33.49 -66.09,-55.67 -74.41,6.64 -100.46,-72.38 -52.28,-75.67 17.71,6.23 47.55,15.2 47.55,15.2 -7.48,-7.53 -17.92,-24.99 -17.92,-24.99 8.53,11.06 19.32,10.97 19.32,10.97 -18.42,-48.6 -24.37,-98.23 -25.19,-138.91 63.84,-75.66 71.83,-128.21 70.2,-154.56 8.26,35.53 31.29,111.17 84.64,155.63 0.97,3.25 37.13,-9.97 41.02,-13.29 0,0 -0.21,-16.35 -3.87,-43.58 -2.08,-15.52 -5.29,-34.57 -10.21,-56.15z"/>
    <path class="fil8" d="M551.63 407.16c59.47,35.9 136.99,89.07 215.45,160.88 0,0 31.88,34.65 17,169.76 -0.83,7.5 -1.8,15.31 -2.92,23.45 0,0 -83.58,131.48 -206.19,186.99l0.38 3.56c148.12,-39.83 305.9,-239.33 296.42,-254.48 59.06,-196.73 -150.86,-375.38 -150.86,-375.38 -158.48,-133.05 -237.63,-151.6 -237.63,-151.6 0,0 -58.86,-1.84 -118.22,8.23 -58.02,16.1 -99.1,43.87 -99.1,43.87 0,0 -63.77,50.43 -150.71,238.2 0,0 -114.13,250.91 22.91,403.91 3.59,12.03 208.86,127.52 346.93,106.45 0,0 0,0 -0.39,-1.16 -136.89,6.02 -253.36,-86.89 -253.36,-86.89 -2.63,-4.05 -5.17,-8.02 -7.61,-11.91 -76.52,-121.97 -61.72,-168.97 -61.72,-168.97 84.53,-205.19 199.88,-335.17 199.88,-335.17 0,0 17.65,-10.14 36.77,-16.65 20.08,-2.23 45.09,-0.69 45.09,-0.69 0,0 43.29,18.62 107.89,57.62z"/>
    <path class="fil1" d="M560.35 584.96c-5.74,4.15 -24.95,9.89 -31.83,6.71 -6,-2.26 -12.34,-27.5 -16.68,-49.41 1.88,12.53 4.29,29.18 7.33,50.81 -12.09,13.22 -61.45,22.12 -63.66,16.91 -1.5,-6.18 -24.64,-96.57 -24.64,-96.57 4.92,21.58 8.12,40.63 10.21,56.15 3.66,27.23 3.87,43.58 3.87,43.58 -3.89,3.32 -40.05,16.54 -41.02,13.29 -53.35,-44.46 -76.39,-120.1 -84.64,-155.63 1.64,26.35 -6.36,78.9 -70.2,154.56 0.82,40.68 6.76,90.31 25.19,138.91 0,0 -10.79,0.08 -19.32,-10.97 0,0 10.44,17.46 17.92,24.99 0,0 -29.84,-8.98 -47.55,-15.2 -48.19,3.29 -22.13,82.31 52.28,75.67 18.85,22.18 41.03,40.77 66.09,55.67 37.38,22.24 81.14,36.26 129.69,41.76 16.62,1.88 33.81,2.77 51.49,2.64 15.7,-7.23 30.84,-15.18 45.27,-23.79 47.96,-28.63 88.11,-64.63 115.31,-106.13 13.83,-21.1 24.3,-43.62 30.74,-67.32 70.21,-25.61 62.44,-110.64 17.38,-93.08 -7.68,10.08 -16.62,19.2 -16.62,19.2 2.37,-6.1 3.06,-23.02 3.21,-27.67 -1.53,7.7 -22.62,39.74 -22.62,39.74 8.16,-61.12 -6.57,-111.73 -22.38,-145.99 -65.64,-7.26 -123.53,-126.62 -123.53,-126.62 36.77,94 8.72,177.81 8.72,177.81z"/>
    <path class="fil14" d="M473.38 936.18c-48.55,-5.5 -92.31,-19.53 -129.69,-41.76l7.17 22.6c-13.05,2.91 -36.02,-18.22 -36.02,-18.22l8.35 22.1c-27.55,-0.7 -99.47,-49.89 -99.47,-49.89 2.44,3.9 4.98,7.87 7.61,11.91 0,0 116.47,92.91 253.36,86.89 -0.82,-2.45 -3.38,-10.04 -11.31,-33.64z"/>
    <path class="fil14" d="M685.45 808.9c-27.19,41.5 -67.35,77.5 -115.31,106.13l1.23 -0.28 3.59 33.49c122.61,-55.51 206.19,-186.99 206.19,-186.99 1.13,-8.13 2.1,-15.94 2.92,-23.45 0,0 -45.45,72.3 -70.09,84.64l-1.83 -23.56c0,0 -11.82,28.89 -24.87,31.79l-1.85 -21.78z"/>
    <path class="fil8" d="M459.55 185.82c20.98,-8.71 -47.13,-92.91 -108.86,-96.88 -54.69,35.02 -88.24,139.86 -57.41,132.98 19.66,-8.28 51.39,-0.37 78.87,-7.73 34.32,-6.15 61.13,-26.49 87.4,-28.38z"/>
    <path class="fil8" d="M848.84 730.18c23.88,0.19 57.43,55.25 57.43,55.25 50.87,-45.23 -52.01,-286.17 -52.01,-286.17l-5.43 230.92z"/>
    <path class="fil0" d="M551.63 407.16c59.47,35.9 136.99,89.07 215.45,160.88 0,0 31.88,34.65 17,169.76 -0.83,7.5 -1.8,15.31 -2.92,23.45 0,0 -83.58,131.48 -206.19,186.99l0.38 3.56c115,-30.93 235.8,-158.08 279.65,-220.5 -0.07,-0.3 -79.94,-351.67 -355.65,-354.05 15.06,8.13 32.68,18.08 52.28,29.91zm-377.26 482c65.68,36.56 207.11,97.64 310.72,81.83 0,0 0,0 -0.39,-1.16 -136.89,6.02 -253.36,-86.89 -253.36,-86.89 -2.63,-4.05 -5.17,-8.02 -7.61,-11.91 -76.52,-121.97 -61.72,-168.97 -61.72,-168.97 51.85,-125.85 115.28,-223.39 156.58,-280.02 -235.02,128.01 -144.23,467.1 -144.22,467.13z"/>
    <path class="fil8" d="M264.28 416.08c0,0 177.72,201.18 303.76,-63.17l-157.47 -42.49 -146.29 105.66z"/>
    <path class="fil8" d="M175.02 890.46c-21.54,10.32 -28.52,74.41 -28.52,74.41 -65.27,-19.33 -74.5,-281.15 -74.5,-281.15l103.02 206.74z"/>
    <circle class="fil16" transform="matrix(0.976029 -0.217639 0.217639 0.976029 263.682 378.153)" r="15.59"/>
    <path class="fil16" d="M284.27 390.39c-1.96,-18.94 -14.9,-35.05 -23.82,-37.38 -40.64,-10.64 -32.96,48.9 -32.96,48.9 0,0 14.63,-77.73 56.78,-11.52z"/>
    <circle class="fil16" transform="matrix(-0.976029 0.217639 0.217639 0.976029 533.657 317.953)" r="15.59"/>
    <path class="fil16" d="M520.22 337.78c-6.27,-17.98 -1.4,-38.06 5.68,-43.96 32.27,-26.9 50.61,30.27 50.61,30.27 0,0 -46.26,-64.15 -56.29,13.69z"/>
   </g>
   <ellipse class="fil9" transform="matrix(-0.536525 -0.481864 0.481864 -0.536525 412.485 900.416)" rx="41.77" ry="57.92"/>
   <path class="fil8" d="M318.6 1181.78c-14.07,21.53 -30.73,48.34 -68.86,39.36 -30.8,-17.52 -24.63,-34.38 -10.05,-78.58 51.77,-158.3 101.12,-240.98 105.29,-234.21 5.35,8.7 28.4,-9.51 28.4,-9.51 -0.64,1.82 -1.02,3.08 -1.02,3.08 0.41,4.44 61.27,33.81 61.27,33.81l4.03 -7.92c16.99,2.36 13,19.78 13,19.78 -41.67,78.15 -88.45,160.58 -132.05,234.18z"/>
   <path class="fil10" d="M372.35 901.93c0.41,4.44 61.27,33.81 61.27,33.81l4.03 -7.92 2.51 -12.26c-0.89,-3.55 -59.22,-29.81 -59.22,-29.81 -2.76,0.45 -5.96,8.52 -7.56,13.08 -0.64,1.82 -1.02,3.08 -1.02,3.08z"/>
   <path class="fil17" d="M623.66 626.88l-31.07 10.04c-12.92,0 -23.39,15.71 -23.39,35.09 0,19.38 10.47,35.09 23.39,35.09 12.92,0 23.39,-15.71 23.39,-35.09 0,-7.93 -1.75,-15.24 -4.71,-21.11l12.38 -24.02z"/>
   <path class="fil17" d="M420.93 665.86l-31.07 10.04c-12.92,0 -23.39,15.71 -23.39,35.09 0,19.38 10.47,35.09 23.39,35.09 12.92,0 23.39,-15.71 23.39,-35.09 0,-7.93 -1.75,-15.24 -4.71,-21.11l12.38 -24.02z"/>
   <path class="fil18" d="M485.2 858.58l64.61 -5.01c0,0 5.29,-14.48 -26.73,-49.29 -41.77,35.37 -37.87,54.3 -37.87,54.3z"/>
  </g>
 </g>
</svg>
