<?xml version="1.0" encoding="UTF-8"?>
<!DOCTYPE svg PUBLIC "-//W3C//DTD SVG 1.1//EN" "http://www.w3.org/Graphics/SVG/1.1/DTD/svg11.dtd">
<!-- Creator: CorelDRAW 2018 (64-Bit) -->
<svg xmlns="http://www.w3.org/2000/svg" xml:space="preserve" width="79.7277mm" height="172.296mm" version="1.1" style="shape-rendering:geometricPrecision; text-rendering:geometricPrecision; image-rendering:optimizeQuality; fill-rule:evenodd; clip-rule:evenodd"
viewBox="0 0 1004.16 2170.04"
 xmlns:xlink="http://www.w3.org/1999/xlink">
 <defs>
  <style type="text/css">
   <![CDATA[
    .str0 {stroke:#3C414A;stroke-width:12.59;stroke-linecap:round;stroke-miterlimit:22.9256}
    .fil17 {fill:none}
    .fil9 {fill:#ED84B1}
    .fil18 {fill:#ECA4A9}
    .fil0 {fill:#00000000}
    .fil10 {fill:#9499A1}
    .fil6 {fill:#7D3636}
    .fil8 {fill:#8A9096}
    .fil7 {fill:#572627}
    .fil16 {fill:#555A5E}
    .fil2 {fill:#403C37}
    .fil12 {fill:#494F57}
    .fil14 {fill:#404547}
    .fil4 {fill:#3C4654}
    .fil3 {fill:#2E343B}
    .fil5 {fill:#2C333B}
    .fil13 {fill:#756A57}
    .fil15 {fill:#FFB096}
    .fil1 {fill:#FFC6B7}
    .fil11 {fill:#F7F1E4}
   ]]>
  </style>
 </defs>
 <g id="Layer_x0020_1">
  <metadata id="CorelCorpID_0Corel-Layer"/>
  <rect class="fil0" x="-0" y="-0" width="1004.16" height="2170.04"/>
  <g id="_2311251948384">
   <ellipse class="fil1" cx="487.04" cy="806.41" rx="84.42" ry="168.84"/>
   <g>
    <path class="fil2" d="M439.98 1614.09c-61.2,20.28 -140.51,-15.19 -144.94,-24.01 20.44,84.44 44.55,190.4 45.82,225.3 2.22,61.09 -13.33,247.71 10,272.14 0,0 31.1,17.77 57.76,-14.44 -2.22,-34.43 -3.33,-231.05 0,-255.48 2.05,-15.01 18.77,-122.7 31.36,-203.51z"/>
    <path class="fil3" d="M408.62 2073.09c-26.66,32.21 -57.76,14.44 -57.76,14.44 0,0 22.2,64.42 57.75,74.42 35.55,10 0.02,-88.86 0.02,-88.86z"/>
    <path class="fil2" d="M526.79 1621.48c61.2,20.28 140.51,-15.19 144.94,-24.01 -20.44,84.44 -44.55,190.4 -45.82,225.3 -2.22,61.09 13.33,247.71 -10,272.14 0,0 -31.1,17.77 -57.76,-14.44 2.22,-34.43 3.33,-231.05 0,-255.48 -2.05,-15.01 -18.77,-122.7 -31.36,-203.51z"/>
    <path class="fil3" d="M558.15 2080.47c26.66,32.21 57.76,14.44 57.76,14.44 0,0 -22.2,64.42 -57.75,74.42 -35.55,10 -0.02,-88.86 -0.02,-88.86z"/>
    <g>
     <path class="fil2" d="M454.16 1523.24c-64.88,-270.3 -187.72,-47.76 -187.72,-47.76 0,0 13.16,50.82 28.42,113.82 0.06,0.26 0.13,0.52 0.19,0.79 4.43,8.82 83.74,44.29 144.94,24.01 7.9,-50.72 14.18,-90.85 14.18,-90.85z"/>
     <path class="fil2" d="M512.61 1530.63c64.88,-270.3 187.72,-47.76 187.72,-47.76 0,0 -13.16,50.82 -28.42,113.82 -0.06,0.26 -0.13,0.52 -0.19,0.79 -4.43,8.82 -83.74,44.29 -144.94,24.01 -7.9,-50.72 -14.18,-90.85 -14.18,-90.85z"/>
     <path class="fil4" d="M446.5 1285.88c-24.6,62.06 -33.75,257.63 -35.44,299.17 0,0 61.98,7.22 69.2,5.56 7.22,1.67 71.81,-7.06 71.81,-7.06 -1.69,-41.55 -10.84,-237.12 -35.44,-299.17l-70.14 1.5z"/>
     <path class="fil5" d="M376.31 1275.9c-37.86,142.51 -53.52,256.26 -57.65,289.82 0,0 64.53,16.19 98.41,28.41 0,0 0.1,-2.77 0.3,-7.81 1.69,-41.55 10.84,-237.12 35.44,-299.17l-76.49 -11.24z"/>
     <path class="fil4" d="M370.01 1274.64c-37.86,142.51 -53.52,256.26 -57.65,289.82 0,0 64.53,16.19 98.41,28.41 0,0 0.1,-2.77 0.3,-7.81 1.69,-41.55 10.84,-237.12 35.44,-299.17l-76.49 -11.24z"/>
     <path class="fil5" d="M376.31 1277.16l-70.25 -17.49c0,0 -85.05,211.3 -85.05,288.51 0,0 76.47,13.36 96.46,28.92 0,0 0.37,-3.5 1.18,-10.11 4.13,-33.56 19.8,-147.31 57.65,-289.82z"/>
     <path class="fil4" d="M370.01 1274.64l-70.25 -17.49c0,0 -85.05,211.3 -85.05,288.51 0,0 76.47,13.36 96.46,28.92 0,0 0.37,-3.5 1.18,-10.11 4.13,-33.56 19.8,-147.31 57.65,-289.82z"/>
     <path class="fil5" d="M510.35 1285.64c24.6,62.06 33.75,257.63 35.44,299.17 0.2,5.03 0.3,7.81 0.3,7.81 33.88,-12.22 98.41,-28.41 98.41,-28.41 -4.13,-33.56 -19.8,-147.31 -57.65,-289.82l-76.49 11.24z"/>
     <path class="fil4" d="M516.65 1284.38c24.6,62.06 33.75,257.63 35.44,299.17 0.2,5.03 0.3,7.81 0.3,7.81 33.88,-12.22 98.41,-28.41 98.41,-28.41 -4.13,-33.56 -19.8,-147.31 -57.65,-289.82l-76.49 11.24z"/>
     <path class="fil5" d="M585.58 1275.66c37.86,142.51 53.52,256.26 57.65,289.82 0.81,6.61 1.18,10.11 1.18,10.11 19.99,-15.55 96.46,-28.92 96.46,-28.92 0,-77.2 -85.05,-288.51 -85.05,-288.51l-70.25 17.49z"/>
     <path class="fil4" d="M593.14 1273.14c37.86,142.51 53.52,256.26 57.65,289.82 0.81,6.61 1.18,10.11 1.18,10.11 19.99,-15.55 96.46,-28.92 96.46,-28.92 0,-77.2 -85.05,-288.51 -85.05,-288.51l-70.25 17.49z"/>
     <path class="fil5" d="M482.25 1010.78c0,0 -85.15,-4.32 -86.82,-41.53 -51.26,92.37 -103.55,274.26 -103.55,274.26 -0.56,13.33 4.44,13.89 4.44,13.89 129.7,38.34 189.81,31.71 189.81,31.71 0,0 73.18,-2.83 189.81,-31.71 0,0 5,-0.56 4.44,-13.89 0,0 -51.68,-179.79 -102.66,-272.65 -2.78,36.49 -84.91,40.26 -84.91,40.26l18.42 0.6c0,0 2.1,29.87 -9.56,37.18 10.31,55.29 16.06,70 12.73,112.99 -3.33,42.98 -29.99,52.9 -29.99,52.9 2.22,-16.53 -4.75,-95.92 -4.75,-95.92 -16.75,86.12 -43.02,102.58 -43.02,102.58 3.33,-25.61 3.33,-82.33 3.33,-82.33 -4.44,-64.03 33.92,-90.04 33.92,-90.04 0,0 -6.82,-5.13 -10.07,-38.9l18.41 0.6z"/>
     <path class="fil4" d="M482.25 1004.48c0,0 -85.15,-4.32 -86.82,-41.53 -51.26,92.37 -103.55,274.26 -103.55,274.26 -0.56,13.33 4.44,13.89 4.44,13.89 129.7,38.34 189.81,31.71 189.81,31.71 0,0 73.18,-2.83 189.81,-31.71 0,0 5,-0.56 4.44,-13.89 0,0 -51.68,-179.79 -102.66,-272.65 -2.78,36.49 -84.91,40.26 -84.91,40.26l18.42 0.6c0,0 2.1,29.87 -9.56,37.18 10.31,55.29 16.06,70 12.73,112.99 -3.33,42.98 -29.99,52.9 -29.99,52.9 2.22,-16.53 -4.75,-95.92 -4.75,-95.92 -16.75,86.12 -43.02,102.58 -43.02,102.58 3.33,-25.61 3.33,-82.33 3.33,-82.33 -4.44,-64.03 33.92,-90.04 33.92,-90.04 0,0 -6.82,-5.13 -10.07,-38.9l18.41 0.6z"/>
     <path class="fil4" d="M437.42 947.16c14.07,33.53 44.84,57.32 44.84,57.33l10.57 0.34c0,0 29.26,-23.25 42.95,-56.32 -40.15,-11.87 -98.36,-1.35 -98.36,-1.35z"/>
     <path class="fil5" d="M532 948.51c-13.69,33.07 -42.95,56.32 -42.95,56.32 0,0 82.13,-3.77 84.91,-40.26 -11.95,-21.77 -23.86,-38.76 -35.06,-47.54 -0.18,11.12 -2.86,21.73 -6.9,31.49z"/>
     <path class="fil5" d="M486.03 1004.48c0,0 -30.77,-23.79 -44.84,-57.32 -4.03,-9.6 -6.69,-20 -6.86,-30.86 -11.2,8.34 -23.13,25.05 -35.12,46.66 1.67,37.21 86.82,41.53 86.82,41.53z"/>
     <path class="fil5" d="M535.78 953.54c-13.69,33.07 -42.95,56.32 -42.95,56.32 0,0 82.13,-3.77 84.91,-40.26 -11.95,-21.77 -23.86,-38.76 -35.06,-47.54 -0.18,11.12 -2.86,21.73 -6.9,31.49z"/>
     <path class="fil4" d="M535.78 948.51c-13.69,33.07 -42.95,56.32 -42.95,56.32 0,0 82.13,-3.77 84.91,-40.26 -11.95,-21.77 -23.86,-38.76 -35.06,-47.54 -0.18,11.12 -2.86,21.73 -6.9,31.49z"/>
     <path class="fil5" d="M482.25 1009.52c0,0 -30.77,-23.79 -44.84,-57.32 -4.03,-9.6 -6.69,-20 -6.86,-30.86 -11.2,8.34 -23.13,25.05 -35.12,46.66 1.67,37.21 86.82,41.53 86.82,41.53z"/>
     <path class="fil4" d="M482.25 1004.48c0,0 -30.77,-23.79 -44.84,-57.32 -4.03,-9.6 -6.69,-20 -6.86,-30.86 -11.2,8.34 -23.13,25.05 -35.12,46.66 1.67,37.21 86.82,41.53 86.82,41.53z"/>
     <path class="fil6" d="M489.19 1042.68c-2.4,27.28 -5.71,50.37 -9.51,69.89 0,0 6.97,79.39 4.75,95.92 0,0 26.66,-9.92 29.99,-52.9 3.33,-42.98 -2.42,-57.69 -12.73,-112.99l-12.5 0.08z"/>
     <path class="fil7" d="M476.44 1042.78c0,0 -38.36,26.01 -33.92,90.04 0,0 0,56.71 -3.33,82.33 0,0 26.27,-16.47 43.02,-102.58 3.8,-19.51 7.1,-42.6 9.51,-69.89l-15.27 0.1z"/>
     <path class="fil6" d="M473.92 1042.78c0,0 -38.36,26.01 -33.92,90.04 0,0 0,56.71 -3.33,82.33 0,0 26.27,-16.47 43.02,-102.58 3.8,-19.51 7.1,-42.6 9.51,-69.89l-15.27 0.1z"/>
     <path class="fil7" d="M463.84 1006.4c3.25,33.77 10.07,38.9 10.07,38.9l15.27 -0.1 12.5 -0.08c11.66,-7.31 9.56,-37.18 9.56,-37.18l-18.42 -0.6 -10.57 -0.34 -18.41 -0.6z"/>
     <path class="fil6" d="M463.84 1003.88c3.25,33.77 10.07,38.9 10.07,38.9l15.27 -0.1 12.5 -0.08c11.66,-7.31 9.56,-37.18 9.56,-37.18l-18.42 -0.6 -10.57 -0.34 -18.41 -0.6z"/>
    </g>
    <g>
     <path class="fil8" d="M337.7 1399.66c0,0 -22.22,-334.35 116.63,-494.3l-24.44 2.22c0,0 -118.85,115.52 -196.61,452.09 0,0 -16.66,23.33 104.41,39.99z"/>
     <path class="fil8" d="M516.22 904.82c138.85,159.96 116.63,494.3 116.63,494.3 121.08,-16.66 104.41,-39.99 104.41,-39.99 -77.76,-336.57 -196.61,-452.09 -196.61,-452.09l-24.44 -2.22z"/>
    </g>
   </g>
   <g>
    <path class="fil9" d="M741.7 672.05c0.19,-0.74 0.29,-1.16 0.29,-1.16 0.02,0.29 -0.08,0.68 -0.29,1.16zm-181.53 -140.37c0.75,-31.25 3.92,-55.29 0,0zm-171.91 -111.35c-0.11,-12.36 0.43,-19.84 0.43,-19.84 0,0 1.58,7.12 -0.43,19.84zm99.36 65.69c0,0 2.91,93 3.02,99.34 1.02,5.56 50.98,7.6 65.63,-2.64 1.74,-21.71 3,-38.43 3.89,-51.04 -0.54,22.27 0.15,48.2 5.51,51.71 6,4.59 25.95,3.17 32.43,0.38 0,0 45.49,-75.48 30.1,-174.95 0,0 30.44,128.73 92.75,150.04 7.95,36.78 11.31,89.24 -9.9,146.95 0,0 27.48,-26.61 30.64,-33.77 -1.15,4.5 -5.49,20.81 -9.13,26.23 0,0 10.68,-6.94 20.34,-15.08 47.66,-7.32 36.77,77.13 -37.11,86.82 -11.42,21.67 -26.5,41.31 -44.53,58.85l-2.92 21.6c13.33,0 31.1,-25.55 31.1,-25.55l-3.33 23.33c26.66,-6.67 86.58,-67.17 86.58,-67.17 43.8,-128.27 20.29,-168.91 20.29,-168.91 -60.78,-86.92 -124.69,-155.5 -174.78,-203.34 -54.41,-51.98 -92.5,-79.49 -92.5,-79.49 0,0 -24.01,-6.93 -44.03,-9.11 -20.02,2.19 -39.4,8.22 -39.4,8.22 0,0 -140.48,101.48 -267.28,282.84 0,0 -24.6,42.53 23.4,177.85 0,0 59.33,63.48 85.98,70.14l-3.33 -23.33c0,0 17.77,25.55 31.1,25.55l-2.07 -23.55c-21.15,-19.94 -38.71,-42.85 -52.24,-68.53 -73.86,-9.68 -82.07,-92.25 -34.46,-84.99 15.88,9.9 42.98,25.11 42.98,25.11 -5.65,-8.95 -12.02,-28.21 -12.02,-28.21 5.9,12.61 16.42,14.87 16.42,14.87 -7.38,-51.3 -2.4,-100.89 5.63,-140.66 78.55,-59.79 97.74,-109.19 101.87,-135.2 0.32,36.37 6.33,114.99 48.61,169.84 0.24,3.38 38.3,-1.65 42.81,-4.03 0,0 3.34,-15.96 5.69,-43.25 1.34,-15.56 2.36,-34.8 2.25,-56.86z"/>
    <path class="fil10" d="M628.21 408.83c50.09,47.85 114,116.42 174.78,203.34 0,0 23.51,40.65 -20.29,168.91 -2.43,7.12 -5.07,14.51 -7.93,22.18 0,0 -109.88,109.83 -241.26,137.25l-0.4 3.55c152.81,-6.62 349.67,-166.55 343.72,-183.35 100.17,-178.65 -65.36,-398.09 -65.36,-398.09 -125.37,-163.89 -198.38,-199.12 -198.38,-199.12 0,0 -56.89,-14.57 -116.85,-17.65 -59.96,3.08 -105.97,21.19 -105.97,21.19 0,0 -73.01,35.24 -198.38,199.12 0,0 -165.53,219.44 -65.36,398.09 0.89,12.49 175.6,169.44 314.56,178.89 0,0 0,0 -0.13,-1.22 -134.54,-23.85 -227.73,-139.55 -227.73,-139.55 -1.68,-4.51 -3.29,-8.93 -4.82,-13.25 -48,-135.32 -23.4,-177.85 -23.4,-177.85 126.8,-181.36 267.28,-282.84 267.28,-282.84 0,0 19.38,-6.04 39.4,-8.22 20.02,2.19 44.03,9.11 44.03,9.11 0,0 38.09,27.51 92.5,79.49z"/>
    <path class="fil11" d="M598.11 583.78c-6.48,2.8 -26.43,4.21 -32.43,-0.38 -5.35,-3.51 -6.04,-29.44 -5.51,-51.71 -0.89,12.6 -2.15,29.33 -3.89,51.04 -14.64,10.25 -64.61,8.2 -65.63,2.64 -0.11,-6.34 -3.02,-99.34 -3.02,-99.34 0.11,22.07 -0.91,41.31 -2.25,56.86 -2.35,27.29 -5.69,43.25 -5.69,43.25 -4.51,2.38 -42.57,7.41 -42.81,4.03 -42.28,-54.85 -48.28,-133.47 -48.61,-169.84 -4.13,26 -23.31,75.41 -101.87,135.2 -8.03,39.77 -13.01,89.36 -5.63,140.66 0,0 -10.52,-2.26 -16.42,-14.87 0,0 6.37,19.26 12.02,28.21 0,0 -27.09,-15.21 -42.98,-25.11 -47.61,-7.25 -39.41,75.31 34.46,84.99 13.53,25.68 31.09,48.59 52.24,68.53 31.56,29.76 71.1,52.9 117.16,68.79 15.77,5.44 32.3,10.03 49.54,13.74 16.85,-3.63 33.31,-8.08 49.23,-13.33 52.89,-17.46 99.78,-43.78 135.26,-78.27 18.03,-17.54 33.12,-37.18 44.53,-58.85 73.89,-9.69 84.78,-94.13 37.11,-86.82 -9.67,8.14 -20.34,15.08 -20.34,15.08 3.63,-5.42 7.98,-21.74 9.13,-26.23 -3.16,7.16 -30.64,33.77 -30.64,33.77 21.21,-57.71 17.85,-110.17 9.9,-146.95 -62.31,-21.31 -92.75,-150.04 -92.75,-150.04 15.39,99.47 -30.1,174.95 -30.1,174.95z"/>
    <path class="fil12" d="M437.24 906.73c-46.06,-15.89 -85.6,-39.04 -117.16,-68.79l2.07 23.55c-13.33,0 -31.1,-25.55 -31.1,-25.55l3.33 23.33c-26.66,-6.67 -85.98,-70.14 -85.98,-70.14 1.53,4.32 3.14,8.74 4.82,13.25 0,0 93.19,115.7 227.73,139.55 -0.27,-2.56 -1.11,-10.51 -3.71,-35.19z"/>
    <path class="fil12" d="M671.27 828.87c-35.47,34.49 -82.37,60.81 -135.26,78.27l1.26 0 -3.77 33.37c131.38,-27.42 241.26,-137.25 241.26,-137.25 2.86,-7.67 5.5,-15.06 7.93,-22.18 0,0 -59.92,60.5 -86.58,67.17l3.33 -23.33c0,0 -17.77,25.55 -31.1,25.55l2.92 -21.6z"/>
    <path class="fil13" d="M741.7 672.05c0.19,-0.74 0.29,-1.16 0.29,-1.16 0.02,0.29 -0.08,0.68 -0.29,1.16zm-181.53 -140.37c0.75,-31.25 3.92,-55.29 0,0zm-171.91 -111.35c-0.11,-12.36 0.43,-19.84 0.43,-19.84 0,0 1.58,7.12 -0.43,19.84zm99.36 65.69c0,0 2.91,93 3.02,99.34 1.02,5.56 50.98,7.6 65.63,-2.64 1.74,-21.71 3,-38.43 3.89,-51.04 -0.54,22.27 0.15,48.2 5.51,51.71 6,4.59 25.95,3.17 32.43,0.38 0,0 45.49,-75.48 30.1,-174.95 0,0 30.44,128.73 92.75,150.04 7.95,36.78 11.31,89.24 -9.9,146.95 0,0 27.48,-26.61 30.64,-33.77 -1.15,4.5 -5.49,20.81 -9.13,26.23 0,0 10.68,-6.94 20.34,-15.08 47.66,-7.32 36.77,77.13 -37.11,86.82 -11.42,21.67 -26.5,41.31 -44.53,58.85l-2.92 21.6c13.33,0 31.1,-25.55 31.1,-25.55l-3.33 23.33c26.66,-6.67 86.58,-67.17 86.58,-67.17 43.8,-128.27 20.29,-168.91 20.29,-168.91 -60.78,-86.92 -124.69,-155.5 -174.78,-203.34 -54.41,-51.98 -92.5,-79.49 -92.5,-79.49 0,0 -24.01,-6.93 -44.03,-9.11 -20.02,2.19 -39.4,8.22 -39.4,8.22 0,0 -140.48,101.48 -267.28,282.84 0,0 -24.6,42.53 23.4,177.85 0,0 59.33,63.48 85.98,70.14l-3.33 -23.33c0,0 17.77,25.55 31.1,25.55l-2.07 -23.55c-21.15,-19.94 -38.71,-42.85 -52.24,-68.53 -73.86,-9.68 -82.07,-92.25 -34.46,-84.99 15.88,9.9 42.98,25.11 42.98,25.11 -5.65,-8.95 -12.02,-28.21 -12.02,-28.21 5.9,12.61 16.42,14.87 16.42,14.87 -7.38,-51.3 -2.4,-100.89 5.63,-140.66 78.55,-59.79 97.74,-109.19 101.87,-135.2 0.32,36.37 6.33,114.99 48.61,169.84 0.24,3.38 38.3,-1.65 42.81,-4.03 0,0 3.34,-15.96 5.69,-43.25 1.34,-15.56 2.36,-34.8 2.25,-56.86z"/>
    <path class="fil8" d="M628.21 408.83c50.09,47.85 114,116.42 174.78,203.34 0,0 23.51,40.65 -20.29,168.91 -2.43,7.12 -5.07,14.51 -7.93,22.18 0,0 -109.88,109.83 -241.26,137.25l-0.4 3.55c152.81,-6.62 349.67,-166.55 343.72,-183.35 100.17,-178.65 -65.36,-398.09 -65.36,-398.09 -125.37,-163.89 -198.38,-199.12 -198.38,-199.12 0,0 -56.89,-14.57 -116.85,-17.65 -59.96,3.08 -105.97,21.19 -105.97,21.19 0,0 -73.01,35.24 -198.38,199.12 0,0 -165.53,219.44 -65.36,398.09 0.89,12.49 175.6,169.44 314.56,178.89 0,0 0,0 -0.13,-1.22 -134.54,-23.85 -227.73,-139.55 -227.73,-139.55 -1.68,-4.51 -3.29,-8.93 -4.82,-13.25 -48,-135.32 -23.4,-177.85 -23.4,-177.85 126.8,-181.36 267.28,-282.84 267.28,-282.84 0,0 19.38,-6.04 39.4,-8.22 20.02,2.19 44.03,9.11 44.03,9.11 0,0 38.09,27.51 92.5,79.49z"/>
    <path class="fil1" d="M598.11 583.78c-6.48,2.8 -26.43,4.21 -32.43,-0.38 -5.35,-3.51 -6.04,-29.44 -5.51,-51.71 -0.89,12.6 -2.15,29.33 -3.89,51.04 -14.64,10.25 -64.61,8.2 -65.63,2.64 -0.11,-6.34 -3.02,-99.34 -3.02,-99.34 0.11,22.07 -0.91,41.31 -2.25,56.86 -2.35,27.29 -5.69,43.25 -5.69,43.25 -4.51,2.38 -42.57,7.41 -42.81,4.03 -42.28,-54.85 -48.28,-133.47 -48.61,-169.84 -4.13,26 -23.31,75.41 -101.87,135.2 -8.03,39.77 -13.01,89.36 -5.63,140.66 0,0 -10.52,-2.26 -16.42,-14.87 0,0 6.37,19.26 12.02,28.21 0,0 -27.09,-15.21 -42.98,-25.11 -47.61,-7.25 -39.41,75.31 34.46,84.99 13.53,25.68 31.09,48.59 52.24,68.53 31.56,29.76 71.1,52.9 117.16,68.79 15.77,5.44 32.3,10.03 49.54,13.74 16.85,-3.63 33.31,-8.08 49.23,-13.33 52.89,-17.46 99.78,-43.78 135.26,-78.27 18.03,-17.54 33.12,-37.18 44.53,-58.85 73.89,-9.69 84.78,-94.13 37.11,-86.82 -9.67,8.14 -20.34,15.08 -20.34,15.08 3.63,-5.42 7.98,-21.74 9.13,-26.23 -3.16,7.16 -30.64,33.77 -30.64,33.77 21.21,-57.71 17.85,-110.17 9.9,-146.95 -62.31,-21.31 -92.75,-150.04 -92.75,-150.04 15.39,99.47 -30.1,174.95 -30.1,174.95z"/>
    <path class="fil12" d="M437.24 906.73c-46.06,-15.89 -85.6,-39.04 -117.16,-68.79l2.07 23.55c-13.33,0 -31.1,-25.55 -31.1,-25.55l3.33 23.33c-26.66,-6.67 -85.98,-70.14 -85.98,-70.14 1.53,4.32 3.14,8.74 4.82,13.25 0,0 93.19,115.7 227.73,139.55 -0.27,-2.56 -1.11,-10.51 -3.71,-35.19z"/>
    <path class="fil12" d="M671.27 828.87c-35.47,34.49 -82.37,60.81 -135.26,78.27l1.26 0 -3.77 33.37c131.38,-27.42 241.26,-137.25 241.26,-137.25 2.86,-7.67 5.5,-15.06 7.93,-22.18 0,0 -59.92,60.5 -86.58,67.17l3.33 -23.33c0,0 -17.77,25.55 -31.1,25.55l2.92 -21.6z"/>
    <path class="fil8" d="M586.63 173.43c22.31,-3.93 -25.7,-100.66 -84.93,-117.91 -60.83,22.22 -116.24,116.97 -84.73,116.97 20.93,-3.79 50.09,10.79 78.44,9.59 34.74,1.47 65.25,-12.51 91.22,-8.65z"/>
    <path class="fil8" d="M847.38 787.72c23.21,5.37 43.91,66.23 43.91,66.23 59.33,-32.98 11.49,-289.81 11.49,-289.81l-55.4 223.57z"/>
    <path class="fil0" d="M628.21 408.83c50.09,47.85 114,116.42 174.78,203.34 0,0 23.51,40.65 -20.29,168.91 -2.43,7.12 -5.07,14.51 -7.93,22.18 0,0 -109.88,109.83 -241.26,137.25l-0.4 3.55c118.64,-5.14 263.81,-102.68 320.03,-153.92 -0,-0.31 -1.48,-359.63 -269.31,-421.77 12.89,11.18 27.89,24.69 44.39,40.45zm-471.79 387.24c55.99,49.84 180.39,139.98 284.66,147.07 0,0 0,0 -0.13,-1.22 -134.54,-23.85 -227.73,-139.55 -227.73,-139.55 -1.68,-4.51 -3.29,-8.93 -4.82,-13.25 -48,-135.32 -23.4,-177.85 -23.4,-177.85 77.77,-111.23 160.68,-192.4 213.17,-238.56 -256.52,73.59 -241.75,423.32 -241.74,423.34z"/>
    <path class="fil8" d="M346.6 355.15c0,0 129.31,234.38 309.36,4.44l-144.04 -75.53 -165.32 71.09z"/>
    <path class="fil8" d="M156.78 797.49c-23.21,5.37 -43.91,66.23 -43.91,66.23 -59.33,-32.98 -11.49,-289.81 -11.49,-289.81l55.4 223.57z"/>
    <circle class="fil14" cx="354.25" cy="318.11" r="15.55"/>
    <path class="fil14" d="M371.63 334.49c2.2,-18.86 -6.9,-37.35 -15.07,-41.55 -37.24,-19.18 -42.69,40.44 -42.69,40.44 0,0 31.1,-72.48 57.76,1.11z"/>
    <circle class="fil14" cx="630.08" cy="318.11" r="15.55"/>
    <path class="fil14" d="M612.7 334.49c-2.2,-18.86 6.9,-37.35 15.07,-41.55 37.24,-19.18 42.69,40.44 42.69,40.44 0,0 -31.1,-72.48 -57.76,1.11z"/>
   </g>
   <ellipse class="fil15" transform="matrix(-0.536525 -0.481864 0.481864 -0.536525 391.514 901.33)" rx="41.65" ry="57.76"/>
   <path class="fil8" d="M297.89 1181.9c-14.03,21.47 -30.65,48.21 -68.67,39.25 -30.71,-17.47 -24.56,-34.29 -10.02,-78.36 51.62,-157.86 100.84,-240.3 104.99,-233.55 5.34,8.68 28.32,-9.48 28.32,-9.48 -0.64,1.82 -1.02,3.08 -1.02,3.08 0.41,4.43 61.1,33.72 61.1,33.72l4.02 -7.9c16.95,2.35 12.96,19.73 12.96,19.73 -41.55,77.93 -88.21,160.13 -131.67,233.52z"/>
   <path class="fil16" d="M351.49 902.84c0.41,4.43 61.1,33.72 61.1,33.72l4.02 -7.9 2.5 -12.22c-0.88,-3.54 -59.06,-29.72 -59.06,-29.72 -2.75,0.45 -5.94,8.5 -7.54,13.05 -0.64,1.82 -1.02,3.08 -1.02,3.08z"/>
   <ellipse class="fil15" transform="matrix(0.536525 -0.481864 -0.481864 -0.536525 574.451 900.214)" rx="41.65" ry="57.76"/>
   <path class="fil8" d="M668.07 1180.79c14.03,21.47 30.65,48.21 68.67,39.25 30.71,-17.47 24.56,-34.29 10.02,-78.36 -51.62,-157.86 -100.84,-240.3 -104.99,-233.55 -5.34,8.68 -28.32,-9.48 -28.32,-9.48 0.64,1.82 1.02,3.08 1.02,3.08 -0.41,4.43 -61.1,33.72 -61.1,33.72l-4.02 -7.9c-16.95,2.35 -12.96,19.73 -12.96,19.73 41.55,77.93 88.21,160.13 131.67,233.52z"/>
   <path class="fil16" d="M614.47 901.72c-0.41,4.43 -61.1,33.72 -61.1,33.72l-4.02 -7.9 -2.5 -12.22c0.88,-3.54 59.06,-29.72 59.06,-29.72 2.75,0.45 5.94,8.5 7.54,13.05 0.64,1.82 1.02,3.08 1.02,3.08z"/>
   <polyline class="fil17 str0" points="329.02,625.42 435.66,678.74 329.02,716.51 "/>
   <polyline class="fil17 str0" points="661.15,629.86 554.51,683.18 661.15,720.95 "/>
   <path class="fil18" d="M412.34 797.59l149.4 0c0,0 -18.88,69.98 -73.31,69.43 -54.43,-0.56 -76.09,-69.43 -76.09,-69.43z"/>
  </g>
 </g>
</svg>
