<?xml version="1.0" encoding="UTF-8"?>
<!DOCTYPE svg PUBLIC "-//W3C//DTD SVG 1.1//EN" "http://www.w3.org/Graphics/SVG/1.1/DTD/svg11.dtd">
<!-- Creator: CorelDRAW 2018 (64-Bit) -->
<svg xmlns="http://www.w3.org/2000/svg" xml:space="preserve" width="66.5237mm" height="167.889mm" version="1.1" style="shape-rendering:geometricPrecision; text-rendering:geometricPrecision; image-rendering:optimizeQuality; fill-rule:evenodd; clip-rule:evenodd"
viewBox="0 0 3183.49 8034.31"
 xmlns:xlink="http://www.w3.org/1999/xlink">
 <defs>
  <style type="text/css">
   <![CDATA[
    .str0 {stroke:#3C414A;stroke-width:47.85;stroke-linecap:round;stroke-miterlimit:22.9256}
    .fil17 {fill:none}
    .fil8 {fill:#ED84B1}
    .fil18 {fill:#ECA4A9}
    .fil13 {fill:#AAB6BD}
    .fil9 {fill:#9499A1}
    .fil5 {fill:#7D3636}
    .fil7 {fill:#8A9096}
    .fil6 {fill:#572627}
    .fil16 {fill:#555A5E}
    .fil1 {fill:#403C37}
    .fil11 {fill:#494F57}
    .fil14 {fill:#404547}
    .fil3 {fill:#3C4654}
    .fil2 {fill:#2E343B}
    .fil4 {fill:#2C333B}
    .fil12 {fill:#756A57}
    .fil15 {fill:#FFB096}
    .fil0 {fill:#FFC6B7}
    .fil10 {fill:#F7F1E4}
   ]]>
  </style>
 </defs>
 <g id="Layer_x0020_1">
  <metadata id="CorelCorpID_0Corel-Layer"/>
  <g id="_2553427573008">
   <ellipse class="fil0" cx="1534.62" cy="2853.09" rx="320.76" ry="641.52"/>
   <g>
    <path class="fil1" d="M1355.81 5921.94c-232.53,77.07 -533.87,-57.71 -550.72,-91.23 77.66,320.82 169.26,723.44 174.09,856.05 8.44,232.13 -50.64,941.18 37.99,1034.03 0,0 118.17,67.53 219.47,-54.87 -8.44,-130.84 -12.66,-877.88 0,-970.72 7.78,-57.05 71.32,-466.21 119.17,-773.27z"/>
    <path class="fil2" d="M1236.64 7665.93c-101.29,122.39 -219.47,54.87 -219.47,54.87 0,0 84.35,244.77 219.41,282.76 135.06,37.99 0.06,-337.62 0.06,-337.62z"/>
    <path class="fil1" d="M1685.63 5950c232.53,77.07 533.87,-57.71 550.72,-91.23 -77.66,320.82 -169.26,723.44 -174.09,856.05 -8.44,232.13 50.64,941.18 -37.99,1034.03 0,0 -118.17,67.53 -219.47,-54.87 8.44,-130.84 12.66,-877.88 0,-970.72 -7.78,-57.05 -71.32,-466.21 -119.17,-773.27z"/>
    <path class="fil2" d="M1804.81 7693.99c101.29,122.39 219.47,54.87 219.47,54.87 0,0 -84.35,244.77 -219.41,282.76 -135.06,37.99 -0.06,-337.62 -0.06,-337.62z"/>
    <g>
     <path class="fil1" d="M1409.68 5576.76c-246.52,-1027.02 -713.27,-181.49 -713.27,-181.49 0,0 50,193.09 107.97,432.45 0.24,1 0.48,1.99 0.73,2.99 16.85,33.52 318.18,168.3 550.71,91.23 30.02,-192.7 53.87,-345.18 53.87,-345.18z"/>
     <path class="fil1" d="M1631.76 5604.82c246.52,-1027.02 713.27,-181.49 713.27,-181.49 0,0 -50,193.09 -107.97,432.45 -0.24,1 -0.48,1.99 -0.73,2.99 -16.85,33.52 -318.18,168.3 -550.71,91.23 -30.02,-192.7 -53.87,-345.18 -53.87,-345.18z"/>
     <path class="fil3" d="M1380.59 4674.88c-93.47,235.8 -128.22,978.87 -134.64,1136.74 0,0 235.51,27.44 262.94,21.11 27.44,6.33 272.85,-26.81 272.85,-26.81 -6.42,-157.86 -41.17,-900.94 -134.64,-1136.74l-266.51 5.69z"/>
     <path class="fil4" d="M1113.89 4636.94c-143.84,541.48 -203.36,973.68 -219.06,1101.2 0,0 245.18,61.5 373.91,107.93 0,0 0.36,-10.54 1.14,-29.67 6.42,-157.86 41.17,-900.94 134.64,-1136.74l-290.63 -42.72z"/>
     <path class="fil3" d="M1089.96 4632.16c-143.84,541.48 -203.36,973.68 -219.06,1101.2 0,0 245.18,61.5 373.91,107.93 0,0 0.36,-10.54 1.14,-29.67 6.42,-157.86 41.17,-900.94 134.64,-1136.74l-290.63 -42.72z"/>
     <path class="fil4" d="M1113.89 4641.73l-266.9 -66.47c0,0 -323.15,802.87 -323.15,1096.2 0,0 290.55,50.78 366.52,109.87 0,0 1.39,-13.29 4.48,-38.4 15.69,-127.52 75.22,-559.72 219.06,-1101.2z"/>
     <path class="fil3" d="M1089.96 4632.16l-266.9 -66.47c0,0 -323.15,802.87 -323.15,1096.2 0,0 290.55,50.78 366.52,109.87 0,0 1.39,-13.29 4.48,-38.4 15.69,-127.52 75.22,-559.72 219.06,-1101.2z"/>
     <path class="fil4" d="M1623.17 4673.97c93.47,235.8 128.22,978.87 134.64,1136.74 0.78,19.13 1.14,29.67 1.14,29.67 128.73,-46.43 373.91,-107.93 373.91,-107.93 -15.69,-127.52 -75.22,-559.72 -219.06,-1101.2l-290.63 42.72z"/>
     <path class="fil3" d="M1647.1 4669.19c93.47,235.8 128.22,978.87 134.64,1136.74 0.78,19.13 1.14,29.67 1.14,29.67 128.73,-46.43 373.91,-107.93 373.91,-107.93 -15.69,-127.52 -75.22,-559.72 -219.06,-1101.2l-290.63 42.72z"/>
     <path class="fil4" d="M1909.02 4636.03c143.84,541.48 203.36,973.68 219.06,1101.2 3.09,25.1 4.48,38.4 4.48,38.4 75.97,-59.09 366.52,-109.87 366.52,-109.87 0,-293.33 -323.15,-1096.2 -323.15,-1096.2l-266.9 66.47z"/>
     <path class="fil3" d="M1937.73 4626.46c143.84,541.48 203.36,973.68 219.06,1101.2 3.09,25.1 4.48,38.4 4.48,38.4 75.97,-59.09 366.52,-109.87 366.52,-109.87 0,-293.33 -323.15,-1096.2 -323.15,-1096.2l-266.9 66.47z"/>
     <path class="fil4" d="M1516.42 3629.6c0,0 -323.54,-16.41 -329.87,-157.8 -194.76,350.98 -393.43,1042.07 -393.43,1042.07 -2.11,50.65 16.88,52.76 16.88,52.76 492.79,145.67 721.2,120.5 721.2,120.5 0,0 278.04,-10.76 721.2,-120.5 0,0 18.99,-2.11 16.88,-52.76 0,0 -196.38,-683.11 -390.05,-1035.94 -10.58,138.64 -322.64,152.98 -322.64,152.98l70 2.27c0,0 8,113.48 -36.32,141.26 39.17,210.08 61.03,265.98 48.37,429.3 -12.66,163.31 -113.95,201 -113.95,201 8.44,-62.81 -18.03,-364.45 -18.03,-364.45 -63.66,327.21 -163.45,389.78 -163.45,389.78 12.66,-97.32 12.66,-312.81 12.66,-312.81 -16.88,-243.3 128.88,-342.13 128.88,-342.13 0,0 -25.91,-19.49 -38.27,-147.8l69.94 2.27z"/>
     <path class="fil3" d="M1516.42 3605.67c0,0 -323.54,-16.41 -329.87,-157.8 -194.76,350.98 -393.43,1042.07 -393.43,1042.07 -2.11,50.65 16.88,52.76 16.88,52.76 492.79,145.67 721.2,120.5 721.2,120.5 0,0 278.04,-10.76 721.2,-120.5 0,0 18.99,-2.11 16.88,-52.76 0,0 -196.38,-683.11 -390.05,-1035.94 -10.58,138.64 -322.64,152.98 -322.64,152.98l70 2.27c0,0 8,113.48 -36.32,141.26 39.17,210.08 61.03,265.98 48.37,429.3 -12.66,163.31 -113.95,201 -113.95,201 8.44,-62.81 -18.03,-364.45 -18.03,-364.45 -63.66,327.21 -163.45,389.78 -163.45,389.78 12.66,-97.32 12.66,-312.81 12.66,-312.81 -16.88,-243.3 128.88,-342.13 128.88,-342.13 0,0 -25.91,-19.49 -38.27,-147.8l69.94 2.27z"/>
     <path class="fil3" d="M1346.06 3387.87c53.45,127.4 170.36,217.81 170.36,217.81l40.17 1.3c0,0 111.18,-88.33 163.21,-213.98 -152.54,-45.11 -373.74,-5.13 -373.74,-5.13z"/>
     <path class="fil4" d="M1705.44 3393c-52.03,125.66 -163.21,213.98 -163.21,213.98 0,0 312.06,-14.34 322.64,-152.98 -45.4,-82.72 -90.66,-147.28 -133.2,-180.63 -0.68,42.25 -10.88,82.57 -26.22,119.63z"/>
     <path class="fil4" d="M1530.78 3605.67c0,0 -116.91,-90.41 -170.36,-217.81 -15.3,-36.48 -25.4,-75.98 -26.07,-117.27 -42.54,31.68 -87.89,95.17 -133.44,177.28 6.33,141.39 329.87,157.8 329.87,157.8z"/>
     <path class="fil4" d="M1719.8 3412.14c-52.03,125.66 -163.21,213.98 -163.21,213.98 0,0 312.06,-14.34 322.64,-152.98 -45.4,-82.72 -90.66,-147.28 -133.2,-180.63 -0.68,42.25 -10.88,82.57 -26.22,119.63z"/>
     <path class="fil3" d="M1719.8 3393c-52.03,125.66 -163.21,213.98 -163.21,213.98 0,0 312.06,-14.34 322.64,-152.98 -45.4,-82.72 -90.66,-147.28 -133.2,-180.63 -0.68,42.25 -10.88,82.57 -26.22,119.63z"/>
     <path class="fil4" d="M1516.42 3624.81c0,0 -116.91,-90.41 -170.36,-217.81 -15.3,-36.48 -25.4,-75.98 -26.07,-117.27 -42.54,31.68 -87.89,95.17 -133.44,177.28 6.33,141.39 329.87,157.8 329.87,157.8z"/>
     <path class="fil3" d="M1516.42 3605.67c0,0 -116.91,-90.41 -170.36,-217.81 -15.3,-36.48 -25.4,-75.98 -26.07,-117.27 -42.54,31.68 -87.89,95.17 -133.44,177.28 6.33,141.39 329.87,157.8 329.87,157.8z"/>
     <path class="fil5" d="M1542.79 3750.82c-9.13,103.67 -21.7,191.4 -36.13,265.54 0,0 26.47,301.64 18.03,364.45 0,0 101.29,-37.69 113.95,-201 12.66,-163.32 -9.2,-219.21 -48.37,-429.3l-47.49 0.31z"/>
     <path class="fil6" d="M1494.32 3751.2c0,0 -145.77,98.83 -128.88,342.13 0,0 0,215.49 -12.66,312.81 0,0 99.8,-62.57 163.45,-389.78 14.42,-74.14 26.99,-161.87 36.13,-265.54l-58.03 0.38z"/>
     <path class="fil5" d="M1484.75 3751.2c0,0 -145.77,98.83 -128.88,342.13 0,0 0,215.49 -12.66,312.81 0,0 99.8,-62.57 163.45,-389.78 14.42,-74.14 26.99,-161.87 36.13,-265.54l-58.03 0.38z"/>
     <path class="fil6" d="M1446.48 3612.98c12.36,128.31 38.27,147.8 38.27,147.8l58.03 -0.38 47.49 -0.31c44.31,-27.78 36.32,-141.26 36.32,-141.26l-70 -2.27 -40.17 -1.31 -69.94 -2.27z"/>
     <path class="fil5" d="M1446.48 3603.4c12.36,128.31 38.27,147.8 38.27,147.8l58.03 -0.38 47.49 -0.31c44.31,-27.78 36.32,-141.26 36.32,-141.26l-70 -2.27 -40.17 -1.31 -69.94 -2.27z"/>
    </g>
    <g>
     <path class="fil7" d="M967.2 5107.18c0,0 -84.41,-1270.38 443.16,-1878.14l-92.85 8.44c0,0 -451.6,438.94 -747.04,1717.76 0,0 -63.31,88.63 396.73,151.94z"/>
     <path class="fil7" d="M1645.5 3226.99c527.57,607.76 443.16,1878.14 443.16,1878.14 460.04,-63.31 396.73,-151.94 396.73,-151.94 -295.44,-1278.83 -747.04,-1717.76 -747.04,-1717.76l-92.85 -8.44z"/>
    </g>
   </g>
   <g>
    <path class="fil8" d="M2502.22 2342.59c0.72,-2.81 1.11,-4.4 1.11,-4.4 0.08,1.11 -0.31,2.59 -1.11,4.4zm-689.74 -533.33c2.86,-118.74 14.88,-210.07 0,0zm-653.17 -423.09c-0.42,-46.97 1.65,-75.4 1.65,-75.4 0,0 6.02,27.06 -1.65,75.4zm377.54 249.6c0,0 11.05,353.36 11.49,377.45 3.87,21.11 193.71,28.89 249.35,-10.04 6.62,-82.47 11.41,-146.03 14.8,-193.93 -2.03,84.62 0.59,183.16 20.92,196.48 22.81,17.42 98.59,12.06 123.23,1.43 0,0 172.86,-286.8 114.37,-664.73 0,0 115.66,489.12 352.41,570.1 30.22,139.74 42.97,339.07 -37.61,558.35 0,0 104.41,-101.11 116.43,-128.31 -4.38,17.08 -20.87,79.08 -34.68,99.68 0,0 40.56,-26.36 77.29,-57.3 181.1,-27.79 139.73,293.07 -141.02,329.87 -43.38,82.33 -100.69,156.98 -169.21,223.61l-11.11 82.06c50.64,0 118.18,-97.07 118.18,-97.07l-12.66 88.63c101.29,-25.32 328.98,-255.21 328.98,-255.21 166.43,-487.36 77.1,-641.79 77.1,-641.79 -230.92,-330.28 -473.78,-590.83 -664.09,-772.62 -206.74,-197.5 -351.46,-302.05 -351.46,-302.05 0,0 -91.23,-26.33 -167.31,-34.63 -76.08,8.3 -149.7,31.25 -149.7,31.25 0,0 -533.75,385.58 -1015.55,1074.67 0,0 -93.46,161.58 88.93,675.75 0,0 225.41,241.18 326.71,266.51l-12.66 -88.63c0,0 67.53,97.07 118.18,97.07l-7.87 -89.49c-80.35,-75.77 -147.07,-162.81 -198.48,-260.38 -280.66,-36.79 -311.84,-350.49 -130.93,-322.93 60.35,37.62 163.29,95.42 163.29,95.42 -21.45,-34.02 -45.67,-107.2 -45.67,-107.2 22.43,47.92 62.4,56.51 62.4,56.51 -28.04,-194.91 -9.11,-383.34 21.41,-534.44 298.47,-227.17 371.36,-414.88 387.05,-513.69 1.23,138.18 24.05,436.93 184.69,645.32 0.9,12.83 145.53,-6.26 162.66,-15.32 0,0 12.7,-60.64 21.63,-164.34 5.09,-59.11 8.96,-132.21 8.56,-216.06z"/>
    <path class="fil9" d="M2071 1342.44c190.3,181.79 433.16,442.34 664.09,772.62 0,0 89.33,154.44 -77.1,641.79 -9.24,27.06 -19.27,55.15 -30.15,84.29 0,0 -417.5,417.3 -916.7,521.49l-1.52 13.47c580.6,-25.17 1328.59,-632.82 1306.01,-696.66 380.62,-678.8 -248.34,-1512.58 -248.34,-1512.58 -476.34,-622.69 -753.76,-756.59 -753.76,-756.59 0,0 -216.16,-55.35 -443.98,-67.05 -227.82,11.7 -402.65,80.5 -402.65,80.5 0,0 -277.42,133.89 -753.76,756.59 0,0 -628.96,833.78 -248.34,1512.58 3.36,47.46 667.21,643.79 1195.21,679.72 0,0 0,0 -0.49,-4.62 -511.19,-90.61 -865.28,-530.23 -865.28,-530.23 -6.4,-17.14 -12.5,-33.91 -18.32,-50.33 -182.38,-514.17 -88.93,-675.75 -88.93,-675.75 481.8,-689.08 1015.55,-1074.67 1015.55,-1074.67 0,0 73.62,-22.95 149.7,-31.25 76.08,8.3 167.31,34.63 167.31,34.63 0,0 144.72,104.54 351.46,302.05z"/>
    <path class="fil10" d="M1956.63 2007.17c-24.64,10.63 -100.41,15.99 -123.23,-1.43 -20.33,-13.33 -22.96,-111.87 -20.92,-196.48 -3.39,47.89 -8.18,111.45 -14.8,193.93 -55.64,38.93 -245.48,31.15 -249.35,10.04 -0.44,-24.09 -11.49,-377.45 -11.49,-377.45 0.41,83.85 -3.46,156.95 -8.56,216.06 -8.93,103.7 -21.63,164.34 -21.63,164.34 -17.14,9.06 -161.76,28.15 -162.66,15.32 -160.63,-208.39 -183.45,-507.14 -184.69,-645.32 -15.68,98.81 -88.57,286.52 -387.05,513.69 -30.52,151.1 -49.45,339.54 -21.41,534.44 0,0 -39.97,-8.59 -62.4,-56.51 0,0 24.22,73.18 45.67,107.2 0,0 -102.95,-57.79 -163.29,-95.42 -180.91,-27.56 -149.72,286.14 130.93,322.93 51.41,97.57 118.13,184.61 198.48,260.38 119.9,113.06 270.15,201.01 445.15,261.38 59.91,20.67 122.73,38.1 188.22,52.21 64.03,-13.79 126.57,-30.7 187.05,-50.65 200.95,-66.33 379.14,-166.33 513.92,-297.39 68.52,-66.63 125.83,-141.28 169.21,-223.61 280.75,-36.8 322.12,-357.67 141.02,-329.87 -36.72,30.94 -77.29,57.3 -77.29,57.3 13.81,-20.6 30.3,-82.59 34.68,-99.68 -12.02,27.2 -116.43,128.31 -116.43,128.31 80.58,-219.28 67.83,-418.61 37.61,-558.35 -236.75,-80.98 -352.41,-570.1 -352.41,-570.1 58.49,377.93 -114.37,664.73 -114.37,664.73z"/>
    <path class="fil11" d="M1345.4 3234.28c-175.01,-60.37 -325.25,-148.33 -445.15,-261.38l7.87 89.49c-50.64,0 -118.18,-97.07 -118.18,-97.07l12.66 88.63c-101.29,-25.32 -326.71,-266.51 -326.71,-266.51 5.82,16.42 11.93,33.19 18.32,50.33 0,0 354.09,439.62 865.28,530.23 -1.02,-9.72 -4.21,-39.93 -14.1,-133.72z"/>
    <path class="fil11" d="M2234.6 2938.44c-134.79,131.05 -312.97,231.06 -513.92,297.39l4.79 0 -14.32 126.81c499.2,-104.19 916.7,-521.49 916.7,-521.49 10.88,-29.14 20.91,-57.23 30.15,-84.29 0,0 -227.68,229.89 -328.98,255.21l12.66 -88.63c0,0 -67.53,97.07 -118.18,97.07l11.11 -82.06z"/>
    <path class="fil12" d="M2502.22 2342.59c0.72,-2.81 1.11,-4.4 1.11,-4.4 0.08,1.11 -0.31,2.59 -1.11,4.4zm-689.74 -533.33c2.86,-118.74 14.88,-210.07 0,0zm-653.17 -423.09c-0.42,-46.97 1.65,-75.4 1.65,-75.4 0,0 6.02,27.06 -1.65,75.4zm377.54 249.6c0,0 11.05,353.36 11.49,377.45 3.87,21.11 193.71,28.89 249.35,-10.04 6.62,-82.47 11.41,-146.03 14.8,-193.93 -2.03,84.62 0.59,183.16 20.92,196.48 22.81,17.42 98.59,12.06 123.23,1.43 0,0 172.86,-286.8 114.37,-664.73 0,0 115.66,489.12 352.41,570.1 30.22,139.74 42.97,339.07 -37.61,558.35 0,0 104.41,-101.11 116.43,-128.31 -4.38,17.08 -20.87,79.08 -34.68,99.68 0,0 40.56,-26.36 77.29,-57.3 181.1,-27.79 139.73,293.07 -141.02,329.87 -43.38,82.33 -100.69,156.98 -169.21,223.61l-11.11 82.06c50.64,0 118.18,-97.07 118.18,-97.07l-12.66 88.63c101.29,-25.32 328.98,-255.21 328.98,-255.21 166.43,-487.36 77.1,-641.79 77.1,-641.79 -230.92,-330.28 -473.78,-590.83 -664.09,-772.62 -206.74,-197.5 -351.46,-302.05 -351.46,-302.05 0,0 -91.23,-26.33 -167.31,-34.63 -76.08,8.3 -149.7,31.25 -149.7,31.25 0,0 -533.75,385.58 -1015.55,1074.67 0,0 -93.46,161.58 88.93,675.75 0,0 225.41,241.18 326.71,266.51l-12.66 -88.63c0,0 67.53,97.07 118.18,97.07l-7.87 -89.49c-80.35,-75.77 -147.07,-162.81 -198.48,-260.38 -280.66,-36.79 -311.84,-350.49 -130.93,-322.93 60.35,37.62 163.29,95.42 163.29,95.42 -21.45,-34.02 -45.67,-107.2 -45.67,-107.2 22.43,47.92 62.4,56.51 62.4,56.51 -28.04,-194.91 -9.11,-383.34 21.41,-534.44 298.47,-227.17 371.36,-414.88 387.05,-513.69 1.23,138.18 24.05,436.93 184.69,645.32 0.9,12.83 145.53,-6.26 162.66,-15.32 0,0 12.7,-60.64 21.63,-164.34 5.09,-59.11 8.96,-132.21 8.56,-216.06z"/>
    <path class="fil7" d="M2071 1342.44c190.3,181.79 433.16,442.34 664.09,772.62 0,0 89.33,154.44 -77.1,641.79 -9.24,27.06 -19.27,55.15 -30.15,84.29 0,0 -417.5,417.3 -916.7,521.49l-1.52 13.47c580.6,-25.17 1328.59,-632.82 1306.01,-696.66 380.62,-678.8 -248.34,-1512.58 -248.34,-1512.58 -476.34,-622.69 -753.76,-756.59 -753.76,-756.59 0,0 -216.16,-55.35 -443.98,-67.05 -227.82,11.7 -402.65,80.5 -402.65,80.5 0,0 -277.42,133.89 -753.76,756.59 0,0 -628.96,833.78 -248.34,1512.58 3.36,47.46 667.21,643.79 1195.21,679.72 0,0 0,0 -0.49,-4.62 -511.19,-90.61 -865.28,-530.23 -865.28,-530.23 -6.4,-17.14 -12.5,-33.91 -18.32,-50.33 -182.38,-514.17 -88.93,-675.75 -88.93,-675.75 481.8,-689.08 1015.55,-1074.67 1015.55,-1074.67 0,0 73.62,-22.95 149.7,-31.25 76.08,8.3 167.31,34.63 167.31,34.63 0,0 144.72,104.54 351.46,302.05z"/>
    <path class="fil0" d="M1956.63 2007.17c-24.64,10.63 -100.41,15.99 -123.23,-1.43 -20.33,-13.33 -22.96,-111.87 -20.92,-196.48 -3.39,47.89 -8.18,111.45 -14.8,193.93 -55.64,38.93 -245.48,31.15 -249.35,10.04 -0.44,-24.09 -11.49,-377.45 -11.49,-377.45 0.41,83.85 -3.46,156.95 -8.56,216.06 -8.93,103.7 -21.63,164.34 -21.63,164.34 -17.14,9.06 -161.76,28.15 -162.66,15.32 -160.63,-208.39 -183.45,-507.14 -184.69,-645.32 -15.68,98.81 -88.57,286.52 -387.05,513.69 -30.52,151.1 -49.45,339.54 -21.41,534.44 0,0 -39.97,-8.59 -62.4,-56.51 0,0 24.22,73.18 45.67,107.2 0,0 -102.95,-57.79 -163.29,-95.42 -180.91,-27.56 -149.72,286.14 130.93,322.93 51.41,97.57 118.13,184.61 198.48,260.38 119.9,113.06 270.15,201.01 445.15,261.38 59.91,20.67 122.73,38.1 188.22,52.21 64.03,-13.79 126.57,-30.7 187.05,-50.65 200.95,-66.33 379.14,-166.33 513.92,-297.39 68.52,-66.63 125.83,-141.28 169.21,-223.61 280.75,-36.8 322.12,-357.67 141.02,-329.87 -36.72,30.94 -77.29,57.3 -77.29,57.3 13.81,-20.6 30.3,-82.59 34.68,-99.68 -12.02,27.2 -116.43,128.31 -116.43,128.31 80.58,-219.28 67.83,-418.61 37.61,-558.35 -236.75,-80.98 -352.41,-570.1 -352.41,-570.1 58.49,377.93 -114.37,664.73 -114.37,664.73z"/>
    <path class="fil11" d="M1345.4 3234.28c-175.01,-60.37 -325.25,-148.33 -445.15,-261.38l7.87 89.49c-50.64,0 -118.18,-97.07 -118.18,-97.07l12.66 88.63c-101.29,-25.32 -326.71,-266.51 -326.71,-266.51 5.82,16.42 11.93,33.19 18.32,50.33 0,0 354.09,439.62 865.28,530.23 -1.02,-9.72 -4.21,-39.93 -14.1,-133.72z"/>
    <path class="fil11" d="M2234.6 2938.44c-134.79,131.05 -312.97,231.06 -513.92,297.39l4.79 0 -14.32 126.81c499.2,-104.19 916.7,-521.49 916.7,-521.49 10.88,-29.14 20.91,-57.23 30.15,-84.29 0,0 -227.68,229.89 -328.98,255.21l12.66 -88.63c0,0 -67.53,97.07 -118.18,97.07l11.11 -82.06z"/>
    <path class="fil7" d="M1913.02 448.02c84.77,-14.93 -97.67,-382.45 -322.69,-448.02 -231.12,84.41 -441.65,444.43 -321.95,444.43 79.53,-14.41 190.33,41 298.04,36.46 131.99,5.58 247.92,-47.54 346.6,-32.87z"/>
    <path class="fil7" d="M2903.75 2782.07c88.17,20.39 166.84,251.66 166.84,251.66 225.42,-125.31 43.65,-1101.15 43.65,-1101.15l-210.49 849.48z"/>
    <path class="fil13" d="M2071 1342.44c190.3,181.79 433.16,442.34 664.09,772.62 0,0 89.33,154.44 -77.1,641.79 -9.24,27.06 -19.27,55.15 -30.15,84.29 0,0 -417.5,417.3 -916.7,521.49l-1.52 13.47c450.77,-19.54 1002.37,-390.15 1215.97,-584.81 -0,-1.16 -5.63,-1366.42 -1023.25,-1602.56 48.98,42.48 105.97,93.81 168.67,153.71zm-1792.59 1471.35c212.73,189.37 685.4,531.86 1081.58,558.82 0,0 0,0 -0.49,-4.62 -511.19,-90.61 -865.28,-530.23 -865.28,-530.23 -6.4,-17.14 -12.5,-33.91 -18.32,-50.33 -182.38,-514.17 -88.93,-675.75 -88.93,-675.75 295.5,-422.64 610.51,-731.06 809.96,-906.42 -974.68,279.59 -918.53,1608.43 -918.52,1608.53z"/>
    <path class="fil7" d="M1001.02 1138.48c0,0 491.31,890.53 1175.42,16.88l-547.28 -287 -628.14 270.12z"/>
    <path class="fil7" d="M279.75 2819.19c-88.17,20.39 -166.84,251.66 -166.84,251.66 -225.42,-125.31 -43.65,-1101.15 -43.65,-1101.15l210.49 849.48z"/>
    <circle class="fil14" cx="1030.08" cy="997.75" r="59.09"/>
    <path class="fil14" d="M1096.11 1059.98c8.35,-71.65 -26.21,-141.9 -57.25,-157.88 -141.51,-72.86 -162.21,153.66 -162.21,153.66 0,0 118.18,-275.39 219.47,4.22z"/>
    <circle class="fil14" cx="2078.1" cy="997.75" r="59.09"/>
    <path class="fil14" d="M2012.07 1059.98c-8.35,-71.65 26.21,-141.9 57.25,-157.88 141.51,-72.86 162.21,153.66 162.21,153.66 0,0 -118.18,-275.39 -219.47,4.22z"/>
   </g>
   <ellipse class="fil15" transform="matrix(-0.536525 -0.481864 0.481864 -0.536525 1171.65 3213.75)" rx="158.27" ry="219.47"/>
   <path class="fil7" d="M815.92 4279.81c-53.32,81.59 -116.45,183.16 -260.91,149.14 -116.7,-66.39 -93.3,-130.27 -38.08,-297.73 196.14,-599.79 383.14,-913.05 398.92,-887.39 20.28,32.97 107.6,-36.03 107.6,-36.03 -2.42,6.9 -3.88,11.69 -3.88,11.69 1.55,16.82 232.14,128.11 232.14,128.11l15.26 -30.01c64.39,8.93 49.24,74.96 49.24,74.96 -157.88,296.08 -335.14,608.43 -500.3,887.27z"/>
   <path class="fil16" d="M1019.58 3219.47c1.55,16.82 232.14,128.11 232.14,128.11l15.26 -30.01 9.51 -46.43c-3.35,-13.47 -224.39,-112.93 -224.39,-112.93 -10.45,1.71 -22.58,32.28 -28.65,49.57 -2.42,6.9 -3.88,11.69 -3.88,11.69z"/>
   <ellipse class="fil15" transform="matrix(0.536525 -0.481864 -0.481864 -0.536525 1866.74 3209.51)" rx="158.27" ry="219.47"/>
   <path class="fil7" d="M2222.47 4275.57c53.32,81.59 116.45,183.16 260.91,149.14 116.7,-66.39 93.3,-130.27 38.08,-297.73 -196.14,-599.79 -383.14,-913.05 -398.92,-887.39 -20.28,32.97 -107.6,-36.03 -107.6,-36.03 2.42,6.9 3.88,11.69 3.88,11.69 -1.55,16.82 -232.14,128.11 -232.14,128.11l-15.26 -30.01c-64.39,8.93 -49.24,74.96 -49.24,74.96 157.88,296.08 335.14,608.43 500.3,887.27z"/>
   <path class="fil16" d="M2018.81 3215.23c-1.55,16.82 -232.14,128.11 -232.14,128.11l-15.26 -30.01 -9.51 -46.43c3.35,-13.47 224.39,-112.93 224.39,-112.93 10.45,1.71 22.58,32.28 28.65,49.57 2.42,6.9 3.88,11.69 3.88,11.69z"/>
   <polyline class="fil17 str0" points="934.21,2165.41 1339.38,2367.99 934.21,2511.49 "/>
   <polyline class="fil17 str0" points="2196.16,2182.29 1790.98,2384.88 2196.16,2528.38 "/>
   <path class="fil18" d="M1250.79 2819.59l567.67 0c0,0 -71.75,265.9 -278.56,263.79 -206.81,-2.11 -289.11,-263.79 -289.11,-263.79z"/>
  </g>
 </g>
</svg>
