<?xml version="1.0" encoding="UTF-8"?>
<!DOCTYPE svg PUBLIC "-//W3C//DTD SVG 1.1//EN" "http://www.w3.org/Graphics/SVG/1.1/DTD/svg11.dtd">
<!-- Creator: CorelDRAW 2018 (64-Bit) -->
<svg xmlns="http://www.w3.org/2000/svg" xml:space="preserve" width="59.6195mm" height="59.6195mm" version="1.1" style="shape-rendering:geometricPrecision; text-rendering:geometricPrecision; image-rendering:optimizeQuality; fill-rule:evenodd; clip-rule:evenodd"
viewBox="0 0 1923.77 1923.77"
 xmlns:xlink="http://www.w3.org/1999/xlink">
 <defs>
  <style type="text/css">
   <![CDATA[
    .fil2 {fill:#FEFEFE}
    .fil0 {fill:#00000000}
    .fil1 {fill:#222222}
   ]]>
  </style>
 </defs>
 <g id="Layer_x0020_1">
  <metadata id="CorelCorpID_0Corel-Layer"/>
  <rect class="fil0" x="-0" y="-0" width="1923.77" height="1923.77"/>
  <g id="_1726715826768">
   <path class="fil1" d="M114.67 1567.98l1610.56 -1327.1 41.94 50.9 -1610.56 1327.1 -41.94 -50.9zm41.94 50.9l749.6 -617.68 41.94 50.9 -749.6 617.67 -41.94 -50.9zm93.7 8.24l639.02 -526.56 41.94 50.9 -639.02 526.56 -41.94 -50.9zm101.88 1.5l518 -426.84 41.94 50.9 -518 426.84 -41.94 -50.9zm99.62 3.37l404.9 -333.64 41.94 50.9 -404.9 333.64 -41.94 -50.9zm565.74 -722.53l749.6 -617.68 41.94 50.9 -749.61 617.67 -41.94 -50.9zm93.71 8.24l639.03 -526.56 41.94 50.9 -639.03 526.56 -41.94 -50.9zm101.88 1.5l518.01 -426.84 41.94 50.9 -518.01 426.84 -41.94 -50.9zm99.62 3.37l404.9 -333.64 41.94 50.9 -404.9 333.64 -41.94 -50.9z"/>
   <g>
    <rect class="fil2" transform="matrix(1.15318 -0.95022 0.95022 1.15318 265.65 1523.59)" width="51.82" height="44.14"/>
    <rect class="fil2" transform="matrix(1.15318 -0.95022 0.95022 1.15318 367.458 1525.1)" width="51.82" height="44.14"/>
    <rect class="fil2" transform="matrix(1.15318 -0.95022 0.95022 1.15318 469.396 1527.88)" width="51.82" height="44.14"/>
    <rect class="fil2" transform="matrix(1.15318 -0.95022 0.95022 1.15318 388.715 1422.18)" width="51.82" height="44.14"/>
    <rect class="fil2" transform="matrix(1.15318 -0.95022 0.95022 1.15318 490.523 1423.7)" width="51.82" height="44.14"/>
    <rect class="fil2" transform="matrix(1.15318 -0.95022 0.95022 1.15318 592.461 1426.48)" width="51.82" height="44.14"/>
   </g>
   <g>
    <rect class="fil2" transform="matrix(1.15318 -0.95022 0.95022 1.15318 1129.17 818.294)" width="51.82" height="44.14"/>
    <rect class="fil2" transform="matrix(1.15318 -0.95022 0.95022 1.15318 1230.98 819.808)" width="51.82" height="44.14"/>
    <rect class="fil2" transform="matrix(1.15318 -0.95022 0.95022 1.15318 1332.92 822.588)" width="51.82" height="44.14"/>
    <rect class="fil2" transform="matrix(1.15318 -0.95022 0.95022 1.15318 1252.24 716.888)" width="51.82" height="44.14"/>
    <rect class="fil2" transform="matrix(1.15318 -0.95022 0.95022 1.15318 1354.05 718.403)" width="51.82" height="44.14"/>
    <rect class="fil2" transform="matrix(1.15318 -0.95022 0.95022 1.15318 1455.99 721.183)" width="51.82" height="44.14"/>
   </g>
  </g>
 </g>
</svg>
