<?xml version="1.0" encoding="UTF-8"?>
<!DOCTYPE svg PUBLIC "-//W3C//DTD SVG 1.1//EN" "http://www.w3.org/Graphics/SVG/1.1/DTD/svg11.dtd">
<!-- Creator: CorelDRAW 2018 (64-Bit) -->
<svg xmlns="http://www.w3.org/2000/svg" xml:space="preserve" width="67.4255mm" height="167.762mm" version="1.1" style="shape-rendering:geometricPrecision; text-rendering:geometricPrecision; image-rendering:optimizeQuality; fill-rule:evenodd; clip-rule:evenodd"
viewBox="0 0 2543.04 6327.36"
 xmlns:xlink="http://www.w3.org/1999/xlink">
 <defs>
  <style type="text/css">
   <![CDATA[
    .fil18 {fill:#FEFEFE}
    .fil8 {fill:#ED84B1}
    .fil15 {fill:#ECA4A9}
    .fil4 {fill:#F2F6FB}
    .fil13 {fill:#E1E9ED}
    .fil5 {fill:#C7D5E3}
    .fil6 {fill:#BDE2E9}
    .fil9 {fill:#9499A1}
    .fil7 {fill:#8BAEB6}
    .fil2 {fill:#403C37}
    .fil11 {fill:#494F57}
    .fil14 {fill:#3C414A}
    .fil0 {fill:#3C4654}
    .fil3 {fill:#2E343B}
    .fil17 {fill:#222222}
    .fil12 {fill:#A570FF}
    .fil16 {fill:#FFB096}
    .fil1 {fill:#FFC6B7}
    .fil10 {fill:#F7F1E4}
   ]]>
  </style>
 </defs>
 <g id="Layer_x0020_1">
  <metadata id="CorelCorpID_0Corel-Layer"/>
  <g id="_2255707569216">
   <path class="fil17" d="M501.22 1743l1632.47 0 0 51.59 -1632.47 0 0 -51.59zm0 51.59l759.8 0 0 51.59 -759.8 0 0 -51.59zm52.47 51.59l647.72 0 0 51.59 -647.72 0 0 -51.59zm60.76 51.59l525.05 0 0 51.59 -525.05 0 0 -51.59zm58.47 51.59l410.41 0 0 51.59 -410.41 0 0 -51.59zm700.96 -154.77l759.8 0 0 51.59 -759.8 0 0 -51.59zm52.47 51.59l647.72 0 0 51.59 -647.72 0 0 -51.59zm60.76 51.59l525.05 0 0 51.59 -525.05 0 0 -51.59zm58.47 51.59l410.41 0 0 51.59 -410.41 0 0 -51.59z"/>
   <g>
    <rect class="fil18" x="614.45" y="1791.31" width="60.57" height="51.59"/>
    <rect class="fil18" x="675.16" y="1842.87" width="60.57" height="51.59"/>
    <rect class="fil18" x="735.31" y="1895.26" width="60.57" height="51.59"/>
    <rect class="fil18" x="739.19" y="1791.31" width="60.57" height="51.59"/>
    <rect class="fil18" x="799.89" y="1842.87" width="60.57" height="51.59"/>
    <rect class="fil18" x="860.05" y="1895.26" width="60.57" height="51.59"/>
   </g>
   <g>
    <rect class="fil18" x="1486.61" y="1795.08" width="60.57" height="51.59"/>
    <rect class="fil18" x="1547.32" y="1846.64" width="60.57" height="51.59"/>
    <rect class="fil18" x="1607.48" y="1899.03" width="60.57" height="51.59"/>
    <rect class="fil18" x="1611.35" y="1795.08" width="60.57" height="51.59"/>
    <rect class="fil18" x="1672.06" y="1846.64" width="60.57" height="51.59"/>
    <rect class="fil18" x="1732.22" y="1899.03" width="60.57" height="51.59"/>
   </g>
  </g>
 </g>
</svg>
