<?xml version="1.0" encoding="UTF-8"?>
<!DOCTYPE svg PUBLIC "-//W3C//DTD SVG 1.1//EN" "http://www.w3.org/Graphics/SVG/1.1/DTD/svg11.dtd">
<!-- Creator: CorelDRAW 2018 (64-Bit) -->
<svg xmlns="http://www.w3.org/2000/svg" xml:space="preserve" width="64.6859mm" height="167.762mm" version="1.1" style="shape-rendering:geometricPrecision; text-rendering:geometricPrecision; image-rendering:optimizeQuality; fill-rule:evenodd; clip-rule:evenodd"
viewBox="0 0 15061.39 39061.52"
 xmlns:xlink="http://www.w3.org/1999/xlink">
 <defs>
  <style type="text/css">
   <![CDATA[
    .str0 {stroke:#ECA4A9;stroke-width:232.84;stroke-linecap:round;stroke-miterlimit:22.9256}
    .fil16 {fill:none}
    .fil18 {fill:#FEFEFE}
    .fil8 {fill:#ED84B1}
    .fil4 {fill:#F2F6FB}
    .fil13 {fill:#E1E9ED}
    .fil5 {fill:#C7D5E3}
    .fil6 {fill:#BDE2E9}
    .fil9 {fill:#9499A1}
    .fil7 {fill:#8BAEB6}
    .fil2 {fill:#403C37}
    .fil11 {fill:#494F57}
    .fil15 {fill:#3C414A}
    .fil0 {fill:#3C4654}
    .fil3 {fill:#2E343B}
    .fil17 {fill:#222222}
    .fil12 {fill:#A570FF}
    .fil14 {fill:#FFB096}
    .fil1 {fill:#FFC6B7}
    .fil10 {fill:#F7F1E4}
   ]]>
  </style>
 </defs>
 <g id="Layer_x0020_1">
  <metadata id="CorelCorpID_0Corel-Layer"/>
  <g id="_2255665743200">
   <path class="fil17" d="M2319.21 10977.65l10077.92 0 0 318.48 -10077.92 0 0 -318.48zm0 318.48l4690.59 0 0 318.48 -4690.59 0 0 -318.48zm323.93 318.48l3998.64 0 0 318.48 -3998.64 0 0 -318.48zm375.1 318.48l3241.37 0 0 318.48 -3241.37 0 0 -318.48zm360.95 318.48l2533.64 0 0 318.48 -2533.64 0 0 -318.48zm4327.36 -955.43l4690.59 0 0 318.48 -4690.59 0 0 -318.48zm323.95 318.48l3998.64 0 0 318.48 -3998.64 0 0 -318.48zm375.1 318.48l3241.37 0 0 318.48 -3241.37 0 0 -318.48zm360.95 318.48l2533.64 0 0 318.48 -2533.64 0 0 -318.48z"/>
   <g>
    <rect class="fil18" x="3018.24" y="11275.87" width="373.94" height="318.48"/>
    <rect class="fil18" x="3393.02" y="11594.17" width="373.94" height="318.48"/>
    <rect class="fil18" x="3764.4" y="11917.58" width="373.94" height="318.48"/>
    <rect class="fil18" x="3788.31" y="11275.87" width="373.94" height="318.48"/>
    <rect class="fil18" x="4163.09" y="11594.17" width="373.94" height="318.48"/>
    <rect class="fil18" x="4534.47" y="11917.58" width="373.94" height="318.48"/>
   </g>
   <g>
    <rect class="fil18" x="8402.48" y="11299.16" width="373.94" height="318.48"/>
    <rect class="fil18" x="8777.26" y="11617.45" width="373.94" height="318.48"/>
    <rect class="fil18" x="9148.64" y="11940.86" width="373.94" height="318.48"/>
    <rect class="fil18" x="9172.55" y="11299.16" width="373.94" height="318.48"/>
    <rect class="fil18" x="9547.33" y="11617.45" width="373.94" height="318.48"/>
    <rect class="fil18" x="9918.7" y="11940.86" width="373.94" height="318.48"/>
   </g>
  </g>
 </g>
</svg>
