<?xml version="1.0" encoding="UTF-8"?>
<!DOCTYPE svg PUBLIC "-//W3C//DTD SVG 1.1//EN" "http://www.w3.org/Graphics/SVG/1.1/DTD/svg11.dtd">
<!-- Creator: CorelDRAW 2018 (64-Bit) -->
<svg xmlns="http://www.w3.org/2000/svg" xml:space="preserve" width="79.9277mm" height="172.496mm" version="1.1" style="shape-rendering:geometricPrecision; text-rendering:geometricPrecision; image-rendering:optimizeQuality; fill-rule:evenodd; clip-rule:evenodd"
viewBox="0 0 1009.52 2178.7"
 xmlns:xlink="http://www.w3.org/1999/xlink">
 <defs>
  <style type="text/css">
   <![CDATA[
    .str0 {stroke:#332C2B;stroke-width:2.53;stroke-miterlimit:22.9256}
    .fil18 {fill:#FEFEFE}
    .fil9 {fill:#ED84B1}
    .fil16 {fill:#ECA4A9}
    .fil4 {fill:#F2F6FB}
    .fil14 {fill:#E1E9ED}
    .fil5 {fill:#C7D5E3}
    .fil6 {fill:#BDE2E9}
    .fil0 {fill:#00000000}
    .fil10 {fill:#9499A1}
    .fil7 {fill:#8BAEB6}
    .fil2 {fill:#403C37}
    .fil12 {fill:#494F57}
    .fil15 {fill:#3C414A}
    .fil8 {fill:#3C4654}
    .fil3 {fill:#2E343B}
    .fil17 {fill:#222222}
    .fil13 {fill:#A570FF}
    .fil1 {fill:#FFC6B7}
    .fil11 {fill:#F7F1E4}
   ]]>
  </style>
 </defs>
 <g id="Layer_x0020_1">
  <metadata id="CorelCorpID_0Corel-Layer"/>
  <rect class="fil0" x="1.26" y="1.26" width="1006.99" height="2176.17"/>
  <g id="_1585164835856">
   <g>
    <path class="fil17" d="M233.48 628.95l546.68 0 0 17.28 -546.68 0 0 -17.28zm0 17.28l254.44 0 0 17.28 -254.44 0 0 -17.28zm17.57 17.28l216.91 0 0 17.28 -216.91 0 0 -17.28zm20.35 17.28l175.83 0 0 17.28 -175.83 0 0 -17.28zm19.58 17.28l137.44 0 0 17.28 -137.44 0 0 -17.28zm234.74 -51.83l254.44 0 0 17.28 -254.44 0 0 -17.28zm17.57 17.28l216.91 0 0 17.28 -216.91 0 0 -17.28zm20.35 17.28l175.83 0 0 17.28 -175.83 0 0 -17.28zm19.58 17.28l137.44 0 0 17.28 -137.44 0 0 -17.28z"/>
    <g>
     <rect class="fil18" x="271.4" y="645.12" width="20.28" height="17.28"/>
     <rect class="fil18" x="291.73" y="662.39" width="20.28" height="17.28"/>
     <rect class="fil18" x="311.88" y="679.93" width="20.28" height="17.28"/>
     <rect class="fil18" x="313.18" y="645.12" width="20.28" height="17.28"/>
     <rect class="fil18" x="333.51" y="662.39" width="20.28" height="17.28"/>
     <rect class="fil18" x="353.65" y="679.93" width="20.28" height="17.28"/>
    </g>
    <g>
     <rect class="fil18" x="563.47" y="646.39" width="20.28" height="17.28"/>
     <rect class="fil18" x="583.8" y="663.65" width="20.28" height="17.28"/>
     <rect class="fil18" x="603.95" y="681.19" width="20.28" height="17.28"/>
     <rect class="fil18" x="605.25" y="646.39" width="20.28" height="17.28"/>
     <rect class="fil18" x="625.58" y="663.65" width="20.28" height="17.28"/>
     <rect class="fil18" x="645.72" y="681.19" width="20.28" height="17.28"/>
    </g>
   </g>
  </g>
 </g>
</svg>
