<?xml version="1.0" encoding="UTF-8"?>
<!DOCTYPE svg PUBLIC "-//W3C//DTD SVG 1.1//EN" "http://www.w3.org/Graphics/SVG/1.1/DTD/svg11.dtd">
<!-- Creator: CorelDRAW 2018 (64-Bit) -->
<svg xmlns="http://www.w3.org/2000/svg" xml:space="preserve" width="66.3874mm" height="167.762mm" version="1.1" style="shape-rendering:geometricPrecision; text-rendering:geometricPrecision; image-rendering:optimizeQuality; fill-rule:evenodd; clip-rule:evenodd"
viewBox="0 0 1259.47 3182.69"
 xmlns:xlink="http://www.w3.org/1999/xlink">
 <defs>
  <style type="text/css">
   <![CDATA[
    .fil17 {fill:#FEFEFE}
    .fil8 {fill:#ED84B1}
    .fil15 {fill:#ECA4A9}
    .fil3 {fill:#F2F6FB}
    .fil13 {fill:#E1E9ED}
    .fil4 {fill:#C7D5E3}
    .fil5 {fill:#BDE2E9}
    .fil9 {fill:#9499A1}
    .fil6 {fill:#8BAEB6}
    .fil1 {fill:#403C37}
    .fil11 {fill:#494F57}
    .fil14 {fill:#3C414A}
    .fil7 {fill:#3C4654}
    .fil2 {fill:#2E343B}
    .fil16 {fill:#222222}
    .fil12 {fill:#A570FF}
    .fil0 {fill:#FFC6B7}
    .fil10 {fill:#F7F1E4}
   ]]>
  </style>
 </defs>
 <g id="Layer_x0020_1">
  <metadata id="CorelCorpID_0Corel-Layer"/>
  <g id="_2255679076304">
   <path class="fil16" d="M222.27 856.79l821.14 0 0 25.95 -821.14 0 0 -25.95zm0 25.95l382.18 0 0 25.95 -382.18 0 0 -25.95zm26.39 25.95l325.8 0 0 25.95 -325.8 0 0 -25.95zm30.56 25.95l264.1 0 0 25.95 -264.1 0 0 -25.95zm29.41 25.95l206.44 0 0 25.95 -206.44 0 0 -25.95zm352.59 -77.85l382.18 0 0 25.95 -382.18 0 0 -25.95zm26.39 25.95l325.8 0 0 25.95 -325.8 0 0 -25.95zm30.56 25.95l264.1 0 0 25.95 -264.1 0 0 -25.95zm29.41 25.95l206.44 0 0 25.95 -206.44 0 0 -25.95z"/>
   <g>
    <rect class="fil17" x="279.22" y="881.08" width="30.47" height="25.95"/>
    <rect class="fil17" x="309.76" y="907.02" width="30.47" height="25.95"/>
    <rect class="fil17" x="340.02" y="933.37" width="30.47" height="25.95"/>
    <rect class="fil17" x="341.97" y="881.08" width="30.47" height="25.95"/>
    <rect class="fil17" x="372.5" y="907.02" width="30.47" height="25.95"/>
    <rect class="fil17" x="402.76" y="933.37" width="30.47" height="25.95"/>
   </g>
   <g>
    <rect class="fil17" x="717.92" y="882.98" width="30.47" height="25.95"/>
    <rect class="fil17" x="748.46" y="908.92" width="30.47" height="25.95"/>
    <rect class="fil17" x="778.72" y="935.27" width="30.47" height="25.95"/>
    <rect class="fil17" x="780.67" y="882.98" width="30.47" height="25.95"/>
    <rect class="fil17" x="811.2" y="908.92" width="30.47" height="25.95"/>
    <rect class="fil17" x="841.46" y="935.27" width="30.47" height="25.95"/>
   </g>
  </g>
 </g>
</svg>
