<?xml version="1.0" encoding="UTF-8"?>
<!DOCTYPE svg PUBLIC "-//W3C//DTD SVG 1.1//EN" "http://www.w3.org/Graphics/SVG/1.1/DTD/svg11.dtd">
<!-- Creator: CorelDRAW 2018 (64-Bit) -->
<svg xmlns="http://www.w3.org/2000/svg" xml:space="preserve" width="79.9277mm" height="172.496mm" version="1.1" style="shape-rendering:geometricPrecision; text-rendering:geometricPrecision; image-rendering:optimizeQuality; fill-rule:evenodd; clip-rule:evenodd"
viewBox="0 0 1009.52 2178.7"
 xmlns:xlink="http://www.w3.org/1999/xlink">
 <defs>
  <style type="text/css">
   <![CDATA[
    .str0 {stroke:#332C2B;stroke-width:2.53;stroke-miterlimit:22.9256}
    .fil19 {fill:#FEFEFE}
    .fil10 {fill:#ED84B1}
    .fil17 {fill:#ECA4A9}
    .fil6 {fill:#F2F6FB}
    .fil15 {fill:#E1E9ED}
    .fil7 {fill:#C7D5E3}
    .fil8 {fill:#BDE2E9}
    .fil0 {fill:#00000000}
    .fil11 {fill:#9499A1}
    .fil9 {fill:#8BAEB6}
    .fil5 {fill:#403C37}
    .fil13 {fill:#494F57}
    .fil16 {fill:#3C414A}
    .fil3 {fill:#3C4654}
    .fil4 {fill:#2E343B}
    .fil18 {fill:#222222}
    .fil14 {fill:#A570FF}
    .fil2 {fill:#FFB096}
    .fil1 {fill:#FFC6B7}
    .fil12 {fill:#F7F1E4}
   ]]>
  </style>
 </defs>
 <g id="Layer_x0020_1">
  <metadata id="CorelCorpID_0Corel-Layer"/>
  <rect class="fil0" x="1.26" y="1.26" width="1006.99" height="2176.17"/>
  <g id="_1585043788464">
   <g>
    <path class="fil18" d="M214.28 721.69l535.99 -107.59 3.4 16.94 -535.99 107.59 -3.4 -16.94zm3.4 16.94l249.47 -50.08 3.4 16.94 -249.47 50.08 -3.4 -16.94zm20.63 13.48l212.66 -42.69 3.4 16.94 -212.66 42.69 -3.4 -16.94zm23.35 12.93l172.39 -34.61 3.4 16.94 -172.39 34.6 -3.4 -16.94zm22.6 13.08l134.75 -27.05 3.4 16.94 -134.75 27.05 -3.4 -16.94zm219.95 -97.01l249.47 -50.08 3.4 16.94 -249.47 50.08 -3.4 -16.94zm20.63 13.48l212.66 -42.69 3.4 16.94 -212.66 42.69 -3.4 -16.94zm23.35 12.93l172.39 -34.6 3.4 16.94 -172.39 34.61 -3.4 -16.94zm22.6 13.09l134.75 -27.05 3.4 16.94 -134.75 27.05 -3.4 -16.94z"/>
    <g>
     <rect class="fil19" transform="matrix(0.980442 -0.19681 0.19681 0.980442 254.646 730.084)" width="20.28" height="17.28"/>
     <rect class="fil19" transform="matrix(0.980442 -0.19681 0.19681 0.980442 277.976 743.011)" width="20.28" height="17.28"/>
     <rect class="fil19" transform="matrix(0.980442 -0.19681 0.19681 0.980442 301.18 756.246)" width="20.28" height="17.28"/>
     <rect class="fil19" transform="matrix(0.980442 -0.19681 0.19681 0.980442 295.601 721.863)" width="20.28" height="17.28"/>
     <rect class="fil19" transform="matrix(0.980442 -0.19681 0.19681 0.980442 318.932 734.789)" width="20.28" height="17.28"/>
     <rect class="fil19" transform="matrix(0.980442 -0.19681 0.19681 0.980442 342.136 748.025)" width="20.28" height="17.28"/>
    </g>
    <g>
     <rect class="fil19" transform="matrix(0.980442 -0.19681 0.19681 0.980442 541.251 673.84)" width="20.28" height="17.28"/>
     <rect class="fil19" transform="matrix(0.980442 -0.19681 0.19681 0.980442 564.582 686.767)" width="20.28" height="17.28"/>
     <rect class="fil19" transform="matrix(0.980442 -0.19681 0.19681 0.980442 587.786 700.002)" width="20.28" height="17.28"/>
     <rect class="fil19" transform="matrix(0.980442 -0.19681 0.19681 0.980442 582.207 665.619)" width="20.28" height="17.28"/>
     <rect class="fil19" transform="matrix(0.980442 -0.19681 0.19681 0.980442 605.537 678.546)" width="20.28" height="17.28"/>
     <rect class="fil19" transform="matrix(0.980442 -0.19681 0.19681 0.980442 628.742 691.781)" width="20.28" height="17.28"/>
    </g>
   </g>
  </g>
 </g>
</svg>
