<?xml version="1.0" encoding="UTF-8"?>
<!DOCTYPE svg PUBLIC "-//W3C//DTD SVG 1.1//EN" "http://www.w3.org/Graphics/SVG/1.1/DTD/svg11.dtd">
<!-- Creator: CorelDRAW 2018 (64-Bit) -->
<svg xmlns="http://www.w3.org/2000/svg" xml:space="preserve" width="69.1617mm" height="165.458mm" version="1.1" style="shape-rendering:geometricPrecision; text-rendering:geometricPrecision; image-rendering:optimizeQuality; fill-rule:evenodd; clip-rule:evenodd"
viewBox="0 0 1660.07 3971.45"
 xmlns:xlink="http://www.w3.org/1999/xlink">
 <defs>
  <style type="text/css">
   <![CDATA[
    .fil18 {fill:#FEFEFE}
    .fil9 {fill:#ED84B1}
    .fil16 {fill:#ECA4A9}
    .fil5 {fill:#F2F6FB}
    .fil14 {fill:#E1E9ED}
    .fil6 {fill:#C7D5E3}
    .fil7 {fill:#BDE2E9}
    .fil10 {fill:#9499A1}
    .fil8 {fill:#8BAEB6}
    .fil4 {fill:#403C37}
    .fil12 {fill:#494F57}
    .fil15 {fill:#3C414A}
    .fil2 {fill:#3C4654}
    .fil3 {fill:#2E343B}
    .fil17 {fill:#222222}
    .fil13 {fill:#A570FF}
    .fil1 {fill:#FFB096}
    .fil0 {fill:#FFC6B7}
    .fil11 {fill:#F7F1E4}
   ]]>
  </style>
 </defs>
 <g id="Layer_x0020_1">
  <metadata id="CorelCorpID_0Corel-Layer"/>
  <g id="_2255707026944">
   <path class="fil17" d="M278.02 1204.96l1018.58 -204.47 6.46 32.19 -1018.58 204.47 -6.46 -32.19zm6.46 32.19l474.08 -95.17 6.46 32.19 -474.08 95.17 -6.46 -32.19zm39.2 25.62l404.15 -81.13 6.46 32.19 -404.15 81.13 -6.46 -32.19zm44.37 24.58l327.61 -65.77 6.46 32.19 -327.61 65.76 -6.46 -32.19zm42.94 24.86l256.08 -51.4 6.46 32.19 -256.08 51.4 -6.46 -32.19zm417.99 -184.36l474.08 -95.17 6.46 32.19 -474.08 95.16 -6.46 -32.19zm39.2 25.62l404.15 -81.13 6.46 32.19 -404.15 81.13 -6.46 -32.19zm44.37 24.58l327.61 -65.76 6.46 32.19 -327.61 65.77 -6.46 -32.19zm42.94 24.87l256.08 -51.4 6.46 32.19 -256.08 51.4 -6.46 -32.19z"/>
   <g>
    <rect class="fil18" transform="matrix(0.980442 -0.19681 0.19681 0.980442 354.72 1220.91)" width="38.55" height="32.83"/>
    <rect class="fil18" transform="matrix(0.980442 -0.19681 0.19681 0.980442 399.057 1245.48)" width="38.55" height="32.83"/>
    <rect class="fil18" transform="matrix(0.980442 -0.19681 0.19681 0.980442 443.154 1270.63)" width="38.55" height="32.83"/>
    <rect class="fil18" transform="matrix(0.980442 -0.19681 0.19681 0.980442 432.552 1205.29)" width="38.55" height="32.83"/>
    <rect class="fil18" transform="matrix(0.980442 -0.19681 0.19681 0.980442 476.888 1229.86)" width="38.55" height="32.83"/>
    <rect class="fil18" transform="matrix(0.980442 -0.19681 0.19681 0.980442 520.986 1255.01)" width="38.55" height="32.83"/>
   </g>
   <g>
    <rect class="fil18" transform="matrix(0.980442 -0.19681 0.19681 0.980442 899.383 1114.03)" width="38.55" height="32.83"/>
    <rect class="fil18" transform="matrix(0.980442 -0.19681 0.19681 0.980442 943.719 1138.59)" width="38.55" height="32.83"/>
    <rect class="fil18" transform="matrix(0.980442 -0.19681 0.19681 0.980442 987.817 1163.75)" width="38.55" height="32.83"/>
    <rect class="fil18" transform="matrix(0.980442 -0.19681 0.19681 0.980442 977.214 1098.4)" width="38.55" height="32.83"/>
    <rect class="fil18" transform="matrix(0.980442 -0.19681 0.19681 0.980442 1021.55 1122.97)" width="38.55" height="32.83"/>
    <rect class="fil18" transform="matrix(0.980442 -0.19681 0.19681 0.980442 1065.65 1148.12)" width="38.55" height="32.83"/>
   </g>
  </g>
 </g>
</svg>
