<?xml version="1.0" encoding="UTF-8"?>
<!DOCTYPE svg PUBLIC "-//W3C//DTD SVG 1.1//EN" "http://www.w3.org/Graphics/SVG/1.1/DTD/svg11.dtd">
<!-- Creator: CorelDRAW 2018 (64-Bit) -->
<svg xmlns="http://www.w3.org/2000/svg" xml:space="preserve" width="64.6859mm" height="167.762mm" version="1.1" style="shape-rendering:geometricPrecision; text-rendering:geometricPrecision; image-rendering:optimizeQuality; fill-rule:evenodd; clip-rule:evenodd"
viewBox="0 0 3290.76 8534.54"
 xmlns:xlink="http://www.w3.org/1999/xlink">
 <defs>
  <style type="text/css">
   <![CDATA[
    .str0 {stroke:#3C414A;stroke-width:50.87;stroke-linecap:round;stroke-miterlimit:22.9256}
    .fil15 {fill:none}
    .fil18 {fill:#FEFEFE}
    .fil8 {fill:#ED84B1}
    .fil16 {fill:#ECA4A9}
    .fil3 {fill:#F2F6FB}
    .fil13 {fill:#E1E9ED}
    .fil4 {fill:#C7D5E3}
    .fil5 {fill:#BDE2E9}
    .fil9 {fill:#9499A1}
    .fil6 {fill:#8BAEB6}
    .fil1 {fill:#403C37}
    .fil11 {fill:#494F57}
    .fil7 {fill:#3C4654}
    .fil2 {fill:#2E343B}
    .fil17 {fill:#222222}
    .fil12 {fill:#A570FF}
    .fil14 {fill:#FFB096}
    .fil0 {fill:#FFC6B7}
    .fil10 {fill:#F7F1E4}
   ]]>
  </style>
 </defs>
 <g id="Layer_x0020_1">
  <metadata id="CorelCorpID_0Corel-Layer"/>
  <g id="_2255709752992">
   <path class="fil17" d="M496.81 2469.49l2201.92 0 0 69.58 -2201.92 0 0 -69.58zm0 69.58l1024.84 0 0 69.58 -1024.84 0 0 -69.58zm70.77 69.58l873.66 0 0 69.58 -873.66 0 0 -69.58zm81.96 69.58l708.21 0 0 69.58 -708.21 0 0 -69.58zm78.86 69.58l553.57 0 0 69.58 -553.57 0 0 -69.58zm945.48 -208.75l1024.84 0 0 69.58 -1024.84 0 0 -69.58zm70.78 69.58l873.66 0 0 69.58 -873.66 0 0 -69.58zm81.96 69.58l708.21 0 0 69.58 -708.21 0 0 -69.58zm78.86 69.58l553.57 0 0 69.58 -553.57 0 0 -69.58z"/>
   <g>
    <rect class="fil18" x="649.55" y="2534.65" width="81.7" height="69.58"/>
    <rect class="fil18" x="731.43" y="2604.19" width="81.7" height="69.58"/>
    <rect class="fil18" x="812.57" y="2674.86" width="81.7" height="69.58"/>
    <rect class="fil18" x="817.8" y="2534.65" width="81.7" height="69.58"/>
    <rect class="fil18" x="899.68" y="2604.19" width="81.7" height="69.58"/>
    <rect class="fil18" x="980.82" y="2674.86" width="81.7" height="69.58"/>
   </g>
   <g>
    <rect class="fil18" x="1825.95" y="2539.74" width="81.7" height="69.58"/>
    <rect class="fil18" x="1907.83" y="2609.28" width="81.7" height="69.58"/>
    <rect class="fil18" x="1988.97" y="2679.94" width="81.7" height="69.58"/>
    <rect class="fil18" x="1994.2" y="2539.74" width="81.7" height="69.58"/>
    <rect class="fil18" x="2076.08" y="2609.28" width="81.7" height="69.58"/>
    <rect class="fil18" x="2157.22" y="2679.94" width="81.7" height="69.58"/>
   </g>
  </g>
 </g>
</svg>
