<?xml version="1.0" encoding="UTF-8"?>
<!DOCTYPE svg PUBLIC "-//W3C//DTD SVG 1.1//EN" "http://www.w3.org/Graphics/SVG/1.1/DTD/svg11.dtd">
<!-- Creator: CorelDRAW 2018 (64-Bit) -->
<svg xmlns="http://www.w3.org/2000/svg" xml:space="preserve" width="79.9277mm" height="172.496mm" version="1.1" style="shape-rendering:geometricPrecision; text-rendering:geometricPrecision; image-rendering:optimizeQuality; fill-rule:evenodd; clip-rule:evenodd"
viewBox="0 0 1009.52 2178.7"
 xmlns:xlink="http://www.w3.org/1999/xlink">
 <defs>
  <style type="text/css">
   <![CDATA[
    .str0 {stroke:#332C2B;stroke-width:2.53;stroke-miterlimit:22.9256}
    .str1 {stroke:#3C414A;stroke-width:12.63;stroke-linecap:round;stroke-miterlimit:22.9256}
    .fil16 {fill:none}
    .fil19 {fill:#FEFEFE}
    .fil9 {fill:#ED84B1}
    .fil17 {fill:#ECA4A9}
    .fil4 {fill:#F2F6FB}
    .fil14 {fill:#E1E9ED}
    .fil5 {fill:#C7D5E3}
    .fil6 {fill:#BDE2E9}
    .fil0 {fill:#AAB6BD}
    .fil10 {fill:#9499A1}
    .fil7 {fill:#8BAEB6}
    .fil2 {fill:#403C37}
    .fil12 {fill:#494F57}
    .fil8 {fill:#3C4654}
    .fil3 {fill:#2E343B}
    .fil18 {fill:#222222}
    .fil13 {fill:#A570FF}
    .fil15 {fill:#FFB096}
    .fil1 {fill:#FFC6B7}
    .fil11 {fill:#F7F1E4}
   ]]>
  </style>
 </defs>
 <g id="Layer_x0020_1">
  <metadata id="CorelCorpID_0Corel-Layer"/>
  <g id="_1586714134976">
   <g>
    <path class="fil18" d="M219.6 671.64l546.68 0 0 17.28 -546.68 0 0 -17.28zm0 17.28l254.44 0 0 17.28 -254.44 0 0 -17.28zm17.57 17.28l216.91 0 0 17.28 -216.91 0 0 -17.28zm20.35 17.28l175.83 0 0 17.28 -175.83 0 0 -17.28zm19.58 17.28l137.44 0 0 17.28 -137.44 0 0 -17.28zm234.74 -51.83l254.44 0 0 17.28 -254.44 0 0 -17.28zm17.57 17.28l216.91 0 0 17.28 -216.91 0 0 -17.28zm20.35 17.28l175.83 0 0 17.28 -175.83 0 0 -17.28zm19.58 17.28l137.44 0 0 17.28 -137.44 0 0 -17.28z"/>
    <g>
     <rect class="fil19" x="257.52" y="687.82" width="20.28" height="17.28"/>
     <rect class="fil19" x="277.85" y="705.09" width="20.28" height="17.28"/>
     <rect class="fil19" x="298" y="722.63" width="20.28" height="17.28"/>
     <rect class="fil19" x="299.29" y="687.82" width="20.28" height="17.28"/>
     <rect class="fil19" x="319.62" y="705.09" width="20.28" height="17.28"/>
     <rect class="fil19" x="339.77" y="722.63" width="20.28" height="17.28"/>
    </g>
    <g>
     <rect class="fil19" x="549.59" y="689.08" width="20.28" height="17.28"/>
     <rect class="fil19" x="569.92" y="706.35" width="20.28" height="17.28"/>
     <rect class="fil19" x="590.06" y="723.89" width="20.28" height="17.28"/>
     <rect class="fil19" x="591.36" y="689.08" width="20.28" height="17.28"/>
     <rect class="fil19" x="611.69" y="706.35" width="20.28" height="17.28"/>
     <rect class="fil19" x="631.84" y="723.89" width="20.28" height="17.28"/>
    </g>
   </g>
  </g>
 </g>
</svg>
