<?xml version="1.0" encoding="UTF-8"?>
<!DOCTYPE svg PUBLIC "-//W3C//DTD SVG 1.1//EN" "http://www.w3.org/Graphics/SVG/1.1/DTD/svg11.dtd">
<!-- Creator: CorelDRAW 2018 (64-Bit) -->
<svg xmlns="http://www.w3.org/2000/svg" xml:space="preserve" width="64.6859mm" height="167.762mm" version="1.1" style="shape-rendering:geometricPrecision; text-rendering:geometricPrecision; image-rendering:optimizeQuality; fill-rule:evenodd; clip-rule:evenodd"
viewBox="0 0 15061.39 39061.52"
 xmlns:xlink="http://www.w3.org/1999/xlink">
 <defs>
  <style type="text/css">
   <![CDATA[
    .str0 {stroke:#ECA4A9;stroke-width:232.84;stroke-linecap:round;stroke-miterlimit:22.9256}
    .fil16 {fill:none}
    .fil8 {fill:#ED84B1}
    .fil4 {fill:#F2F6FB}
    .fil13 {fill:#E1E9ED}
    .fil5 {fill:#C7D5E3}
    .fil6 {fill:#BDE2E9}
    .fil9 {fill:#9499A1}
    .fil7 {fill:#8BAEB6}
    .fil2 {fill:#403C37}
    .fil11 {fill:#494F57}
    .fil15 {fill:#3C414A}
    .fil0 {fill:#3C4654}
    .fil3 {fill:#2E343B}
    .fil12 {fill:#A570FF}
    .fil14 {fill:#FFB096}
    .fil1 {fill:#FFC6B7}
    .fil10 {fill:#F7F1E4}
   ]]>
  </style>
 </defs>
 <g id="Layer_x0020_1">
  <metadata id="CorelCorpID_0Corel-Layer"/>
  <g id="_2555356934224">
   <path class="fil0" d="M2500.01 19616.05c33.37,338.36 5.15,630.5 397.85,830.26 391.54,146.15 701.01,122.85 984.77,22.56 346.05,-801.62 705.94,-1715.18 1061.14,-2736.49 1053.53,-593.83 1281.89,-1996.92 1281.89,-1996.92 0,0 -802.2,34.81 -1848.55,1372.28 -535.86,684.94 -1185.92,1552.73 -1877.1,2508.3z"/>
   <path class="fil0" d="M12250.05 19896.22c-33.37,338.36 -5.15,630.5 -397.85,830.26 -391.54,146.15 -701.01,122.85 -984.77,22.56 -346.05,-801.62 -705.94,-1715.18 -1061.14,-2736.49 -1053.53,-593.83 -1281.89,-1996.92 -1281.89,-1996.92 0,0 802.2,34.81 1848.55,1372.28 535.86,684.94 1185.92,1552.73 1877.1,2508.3z"/>
   <ellipse class="fil1" cx="7299.17" cy="13852.24" rx="1560.65" ry="3121.34"/>
   <g>
    <path class="fil1" d="M6691.28 27104.26c-1199.47,-4996.96 -3470.44,-883.02 -3470.44,-883.02 0,0 243.29,939.46 525.31,2104.1 1.19,4.84 2.35,9.69 3.54,14.53 81.98,163.08 1548.1,818.85 2679.49,443.86 146.08,-937.57 262.11,-1679.47 262.11,-1679.47z"/>
    <path class="fil2" d="M6429.17 28783.73c-1131.39,374.99 -2597.53,-280.78 -2679.51,-443.86 377.85,1560.98 823.55,3519.9 847.02,4165.14 41.07,1129.43 -246.41,4579.31 184.83,5031.09 0,0 574.97,328.56 1067.82,-266.95 -41.07,-636.58 -61.61,-4271.31 0,-4723.07 37.86,-277.57 347.02,-2268.36 579.84,-3762.35z"/>
    <path class="fil3" d="M5849.33 37269.15c-492.85,595.51 -1067.82,266.95 -1067.82,266.95 0,0 410.4,1190.92 1067.54,1375.75 657.14,184.83 0.28,-1642.7 0.28,-1642.7z"/>
   </g>
   <g>
    <path class="fil1" d="M7771.84 27240.8c1199.47,-4996.96 3470.44,-883.02 3470.44,-883.02 0,0 -243.29,939.46 -525.31,2104.1 -1.19,4.84 -2.35,9.69 -3.54,14.53 -81.98,163.08 -1548.1,818.85 -2679.49,443.86 -146.08,-937.57 -262.11,-1679.47 -262.11,-1679.47z"/>
    <path class="fil2" d="M8033.94 28920.27c1131.39,374.99 2597.53,-280.78 2679.51,-443.86 -377.85,1560.98 -823.55,3519.9 -847.02,4165.14 -41.07,1129.43 246.41,4579.31 -184.83,5031.09 0,0 -574.97,328.56 -1067.82,-266.95 41.07,-636.58 61.61,-4271.31 0,-4723.07 -37.86,-277.57 -347.02,-2268.36 -579.84,-3762.35z"/>
    <path class="fil3" d="M8613.78 37405.68c492.85,595.51 1067.82,266.95 1067.82,266.95 0,0 -410.4,1190.92 -1067.54,1375.75 -657.14,184.83 -0.28,-1642.7 -0.28,-1642.7z"/>
   </g>
   <g>
    <g>
     <path class="fil4" d="M6549.73 22716.18c-454.76,1147.27 -623.85,4762.72 -655.09,5530.81 0,0 1145.87,133.53 1279.36,102.73 133.49,30.8 1327.55,-130.44 1327.55,-130.44 -31.25,-768.09 -200.33,-4383.54 -655.09,-5530.81l-1296.73 27.71z"/>
     <path class="fil5" d="M5252.1 22531.59c-699.84,2634.57 -989.47,4737.43 -1065.82,5357.9 0,0 1192.93,299.22 1819.24,525.12 0,0 1.77,-51.27 5.54,-144.34 31.25,-768.09 200.33,-4383.54 655.09,-5530.81l-1414.05 -207.88z"/>
     <path class="fil4" d="M5135.68 22508.3c-699.84,2634.57 -989.47,4737.43 -1065.82,5357.9 0,0 1192.93,299.22 1819.24,525.12 0,0 1.77,-51.27 5.54,-144.34 31.25,-768.09 200.33,-4383.54 655.09,-5530.81l-1414.05 -207.88z"/>
     <path class="fil5" d="M5252.1 22554.87l-1298.61 -323.39c0,0 -1572.29,3906.36 -1572.29,5333.57 0,0 1413.66,247.07 1783.29,534.55 0,0 6.75,-64.68 21.79,-186.83 76.35,-620.47 365.98,-2723.33 1065.82,-5357.9z"/>
     <path class="fil4" d="M5135.68 22508.3l-1298.61 -323.39c0,0 -1572.29,3906.36 -1572.29,5333.57 0,0 1413.66,247.07 1783.29,534.55 0,0 6.75,-64.68 21.79,-186.83 76.35,-620.47 365.98,-2723.33 1065.82,-5357.9z"/>
     <path class="fil5" d="M7730.04 22711.76c454.76,1147.27 623.85,4762.72 655.09,5530.81 3.77,93.07 5.54,144.34 5.54,144.34 626.31,-225.9 1819.24,-525.12 1819.24,-525.12 -76.35,-620.47 -365.98,-2723.33 -1065.82,-5357.9l-1414.05 207.88z"/>
     <path class="fil4" d="M7846.46 22688.47c454.76,1147.27 623.85,4762.72 655.09,5530.81 3.77,93.07 5.54,144.34 5.54,144.34 626.31,-225.9 1819.24,-525.12 1819.24,-525.12 -76.35,-620.47 -365.98,-2723.33 -1065.82,-5357.9l-1414.05 207.88z"/>
     <path class="fil5" d="M9120.81 22527.16c699.84,2634.57 989.47,4737.43 1065.82,5357.9 15.04,122.15 21.79,186.83 21.79,186.83 369.63,-287.49 1783.29,-534.55 1783.29,-534.55 0,-1427.21 -1572.29,-5333.57 -1572.29,-5333.57l-1298.61 323.39z"/>
     <path class="fil4" d="M9260.51 22480.59c699.84,2634.57 989.47,4737.43 1065.82,5357.9 15.04,122.15 21.79,186.83 21.79,186.83 369.63,-287.49 1783.29,-534.55 1783.29,-534.55 0,-1427.21 -1572.29,-5333.57 -1572.29,-5333.57l-1298.61 323.39z"/>
    </g>
    <g>
     <path class="fil5" d="M7210.62 17630.35c0,0 -1574.18,-79.84 -1604.98,-767.79 -947.61,1707.69 -1914.24,5070.18 -1914.24,5070.18 -10.27,246.44 82.12,256.7 82.12,256.7 2397.68,708.76 3509,586.29 3509,586.29 0,0 1352.79,-52.37 3509,-586.29 0,0 92.39,-10.27 82.12,-256.7 0,0 -955.48,-3323.68 -1897.78,-5040.38 -51.48,674.56 -1569.8,744.34 -1569.8,744.34l340.6 11.06c0,0 38.91,552.15 -176.7,687.32 190.58,1022.16 296.96,1294.12 235.35,2088.75 -61.61,794.61 -554.44,977.97 -554.44,977.97 41.07,-305.6 -87.73,-1773.25 -87.73,-1773.25 -309.72,1592.04 -795.28,1896.47 -795.28,1896.47 61.61,-473.5 61.61,-1521.97 61.61,-1521.97 -82.15,-1183.78 627.08,-1664.63 627.08,-1664.63 0,0 -126.08,-94.81 -186.22,-719.1l340.29 11.04z"/>
     <path class="fil4" d="M7210.62 17513.93c0,0 -1574.18,-79.84 -1604.98,-767.79 -947.61,1707.69 -1914.24,5070.18 -1914.24,5070.18 -10.27,246.44 82.12,256.7 82.12,256.7 2397.68,708.76 3509,586.29 3509,586.29 0,0 1352.79,-52.37 3509,-586.29 0,0 92.39,-10.27 82.12,-256.7 0,0 -955.48,-3323.68 -1897.78,-5040.38 -51.48,674.56 -1569.8,744.34 -1569.8,744.34l340.6 11.06c0,0 38.91,552.15 -176.7,687.32 190.58,1022.16 296.96,1294.12 235.35,2088.75 -61.61,794.61 -554.44,977.97 -554.44,977.97 41.07,-305.6 -87.73,-1773.25 -87.73,-1773.25 -309.72,1592.04 -795.28,1896.47 -795.28,1896.47 61.61,-473.5 61.61,-1521.97 61.61,-1521.97 -82.15,-1183.78 627.08,-1664.63 627.08,-1664.63 0,0 -126.08,-94.81 -186.22,-719.1l340.29 11.04z"/>
     <path class="fil4" d="M6381.74 16454.19c260.06,619.86 828.88,1059.74 828.88,1059.77l195.44 6.33c0,0 540.95,-429.75 794.1,-1041.14 -742.17,-219.47 -1818.43,-24.96 -1818.43,-24.96z"/>
     <path class="fil5" d="M8130.31 16479.15c-253.14,611.39 -794.1,1041.14 -794.1,1041.14 0,0 1518.32,-69.78 1569.8,-744.34 -220.92,-402.46 -441.11,-716.61 -648.11,-878.87 -3.31,205.57 -52.92,401.74 -127.6,582.07z"/>
     <path class="fil5" d="M7280.48 17513.93c0,0 -568.83,-439.88 -828.88,-1059.74 -74.46,-177.47 -123.59,-369.7 -126.83,-570.59 -206.97,154.14 -427.61,463.07 -649.27,862.55 30.8,687.95 1604.98,767.79 1604.98,767.79z"/>
     <path class="fil5" d="M8200.17 16572.28c-253.14,611.39 -794.1,1041.14 -794.1,1041.14 0,0 1518.32,-69.78 1569.8,-744.34 -220.92,-402.46 -441.11,-716.61 -648.11,-878.87 -3.31,205.57 -52.92,401.74 -127.6,582.07z"/>
     <path class="fil4" d="M8200.17 16479.15c-253.14,611.39 -794.1,1041.14 -794.1,1041.14 0,0 1518.32,-69.78 1569.8,-744.34 -220.92,-402.46 -441.11,-716.61 -648.11,-878.87 -3.31,205.57 -52.92,401.74 -127.6,582.07z"/>
     <path class="fil5" d="M7210.62 17607.07c0,0 -568.83,-439.88 -828.88,-1059.74 -74.46,-177.47 -123.59,-369.7 -126.83,-570.59 -206.97,154.14 -427.61,463.07 -649.27,862.55 30.8,687.95 1604.98,767.79 1604.98,767.79z"/>
     <path class="fil4" d="M7210.62 17513.93c0,0 -568.83,-439.88 -828.88,-1059.74 -74.46,-177.47 -123.59,-369.7 -126.83,-570.59 -206.97,154.14 -427.61,463.07 -649.27,862.55 30.8,687.95 1604.98,767.79 1604.98,767.79z"/>
     <path class="fil6" d="M7338.92 18220.15c-44.43,504.4 -105.59,931.24 -175.77,1291.98 0,0 128.81,1467.65 87.73,1773.25 0,0 492.83,-183.36 554.44,-977.97 61.61,-794.63 -44.77,-1066.59 -235.35,-2088.75l-231.05 1.49z"/>
     <path class="fil7" d="M7103.12 18221.99c0,0 -709.23,480.86 -627.08,1664.63 0,0 0,1048.47 -61.61,1521.97 0,0 485.56,-304.44 795.28,-1896.47 70.18,-360.74 131.34,-787.58 175.77,-1291.98l-282.36 1.84z"/>
     <path class="fil6" d="M7056.55 18221.99c0,0 -709.23,480.86 -627.08,1664.63 0,0 0,1048.47 -61.61,1521.97 0,0 485.56,-304.44 795.28,-1896.47 70.18,-360.74 131.34,-787.58 175.77,-1291.98l-282.36 1.84z"/>
     <path class="fil7" d="M6870.33 17549.46c60.14,624.29 186.22,719.1 186.22,719.1l282.36 -1.84 231.05 -1.49c215.61,-135.16 176.7,-687.32 176.7,-687.32l-340.6 -11.06 -195.47 -6.36 -340.27 -11.04z"/>
     <path class="fil6" d="M6870.33 17502.89c60.14,624.29 186.22,719.1 186.22,719.1l282.36 -1.84 231.05 -1.49c215.61,-135.16 176.7,-687.32 176.7,-687.32l-340.6 -11.06 -195.47 -6.36 -340.27 -11.04z"/>
    </g>
    <g>
     <path class="fil0" d="M4538.4 24819.53c0,0 -410.7,-6181.03 2156.18,-9138.11l-451.78 41.05c0,0 -2197.25,2135.64 -3634.71,8357.8 0,0 -308.02,431.24 1930.3,739.26z"/>
     <path class="fil0" d="M7838.66 15671.45c2566.89,2957.08 2156.18,9138.11 2156.18,9138.11 2238.33,-308.02 1930.3,-739.26 1930.3,-739.26 -1437.45,-6222.15 -3634.71,-8357.8 -3634.71,-8357.8l-451.78 -41.05z"/>
    </g>
   </g>
   <g>
    <path class="fil8" d="M11968.13 11374.6c3.49,-13.67 5.4,-21.42 5.4,-21.42 0.37,5.38 -1.51,12.6 -5.4,21.42zm-3355.93 -2594.92c13.9,-577.74 72.39,-1022.09 0,0zm-3178.02 -2058.53c-2.05,-228.55 8.03,-366.84 8.03,-366.84 0,0 29.29,131.67 -8.03,366.84zm1836.91 1214.44c0,0 53.79,1719.28 55.9,1836.47 18.84,102.73 942.51,140.59 1213.21,-48.83 32.2,-401.27 55.51,-710.53 71.99,-943.56 -9.9,411.71 2.86,891.14 101.8,955.99 110.99,84.78 479.69,58.68 599.56,6.96 0,0 841.04,-1395.43 556.46,-3234.25 0,0 562.72,2379.82 1714.65,2773.83 147.01,679.91 209.07,1649.76 -183.01,2716.67 0,0 508.03,-491.94 566.47,-624.29 -21.3,83.12 -101.56,384.77 -168.74,484.98 0,0 197.35,-128.25 376.03,-278.8 881.16,-135.23 679.84,1425.95 -686.13,1605 -211.07,400.58 -489.89,763.78 -823.29,1087.96l-54.04 399.27c246.41,0 575,-472.29 575,-472.29l-61.61 431.22c492.85,-123.22 1600.65,-1241.73 1600.65,-1241.73 809.77,-2371.23 375.15,-3122.65 375.15,-3122.65 -1123.56,-1606.96 -2305.2,-2874.68 -3231.13,-3759.18 -1005.91,-960.95 -1710.04,-1469.61 -1710.04,-1469.61 0,0 -443.86,-128.08 -814.05,-168.48 -370.19,40.4 -728.39,152.04 -728.39,152.04 0,0 -2596.97,1876.05 -4941.17,5228.79 0,0 -454.71,786.18 432.68,3287.87 0,0 1096.74,1173.48 1589.59,1296.7l-61.61 -431.22c0,0 328.58,472.29 575,472.29l-38.3 -435.41c-390.96,-368.65 -715.58,-792.16 -965.72,-1266.9 -1365.53,-179.01 -1517.27,-1705.34 -637.05,-1571.22 293.61,183.06 794.49,464.26 794.49,464.26 -104.38,-165.53 -222.22,-521.58 -222.22,-521.58 109.13,233.14 303.6,274.96 303.6,274.96 -136.44,-948.33 -44.33,-1865.16 104.15,-2600.34 1452.22,-1105.31 1806.88,-2018.62 1883.2,-2499.39 6.01,672.32 117.02,2125.89 898.6,3139.83 4.4,62.4 708.06,-30.48 791.44,-74.56 0,0 61.8,-295.03 105.24,-799.59 24.77,-287.6 43.61,-643.29 41.63,-1051.24z"/>
    <path class="fil9" d="M9870.02 6508.38c925.93,884.51 2107.56,2152.22 3231.13,3759.18 0,0 434.62,751.42 -375.15,3122.65 -44.96,131.67 -93.76,268.32 -146.69,410.12 0,0 -2031.36,2030.38 -4460.21,2537.32l-7.4 65.54c2824.92,-122.45 6464.26,-3078.97 6354.38,-3389.62 1851.91,-3302.73 -1208.29,-7359.48 -1208.29,-7359.48 -2317.65,-3029.72 -3667.45,-3681.18 -3667.45,-3681.18 0,0 -1051.71,-269.3 -2160.19,-326.23 -1108.48,56.93 -1959.08,391.68 -1959.08,391.68 0,0 -1349.79,651.46 -3667.45,3681.18 0,0 -3060.2,4056.75 -1208.29,7359.48 16.37,230.91 3246.33,3132.36 5815.29,3307.2 0,0 0,0 -2.37,-22.47 -2487.18,-440.86 -4210.03,-2579.85 -4210.03,-2579.85 -31.13,-83.4 -60.82,-165.01 -89.15,-244.9 -887.4,-2501.69 -432.68,-3287.87 -432.68,-3287.87 2344.2,-3352.74 4941.17,-5228.79 4941.17,-5228.79 0,0 358.2,-111.65 728.39,-152.04 370.19,40.4 814.05,168.48 814.05,168.48 0,0 704.13,508.66 1710.04,1469.61z"/>
    <path class="fil10" d="M9313.56 9742.63c-119.87,51.71 -488.57,77.81 -599.56,-6.96 -98.93,-64.85 -111.69,-544.28 -101.8,-955.99 -16.48,233.03 -39.79,542.28 -71.99,943.56 -270.7,189.41 -1194.37,151.55 -1213.21,48.83 -2.12,-117.19 -55.9,-1836.47 -55.9,-1836.47 1.98,407.96 -16.86,763.64 -41.63,1051.24 -43.45,504.56 -105.24,799.59 -105.24,799.59 -83.38,44.08 -787.04,136.96 -791.44,74.56 -781.57,-1013.94 -892.59,-2467.51 -898.6,-3139.83 -76.3,480.74 -430.96,1394.05 -1883.2,2499.39 -148.48,735.19 -240.59,1652.02 -104.15,2600.34 0,0 -194.47,-41.82 -303.6,-274.96 0,0 117.84,356.06 222.22,521.58 0,0 -500.88,-281.2 -794.49,-464.26 -880.22,-134.12 -728.48,1392.21 637.05,1571.22 250.14,474.74 574.76,898.25 965.72,1266.9 583.38,550.08 1314.4,978.04 2165.89,1271.77 291.51,100.56 597.14,185.39 915.8,254 311.56,-67.08 615.84,-149.37 910.07,-246.46 977.74,-322.71 1844.69,-809.3 2500.5,-1446.93 333.4,-324.18 612.23,-687.39 823.29,-1087.96 1365.97,-179.05 1567.29,-1740.24 686.13,-1605 -178.68,150.55 -376.03,278.8 -376.03,278.8 67.17,-100.21 147.43,-401.86 168.74,-484.98 -58.47,132.35 -566.47,624.29 -566.47,624.29 392.08,-1066.91 330.03,-2036.76 183.01,-2716.67 -1151.92,-394.01 -1714.65,-2773.83 -1714.65,-2773.83 284.58,1838.82 -556.46,3234.25 -556.46,3234.25z"/>
    <path class="fil11" d="M6339.62 15713.13c-851.49,-293.73 -1582.51,-721.68 -2165.89,-1271.77l38.3 435.41c-246.41,0 -575,-472.29 -575,-472.29l61.61 431.22c-492.85,-123.22 -1589.59,-1296.7 -1589.59,-1296.7 28.34,79.89 58.02,161.5 89.15,244.9 0,0 1722.84,2139 4210.03,2579.85 -4.98,-47.31 -20.49,-194.26 -68.62,-650.62z"/>
    <path class="fil11" d="M10666 14273.75c-655.81,637.63 -1522.77,1124.22 -2500.5,1446.93l23.28 0 -69.69 616.98c2428.86,-506.94 4460.21,-2537.32 4460.21,-2537.32 52.92,-141.8 101.73,-278.45 146.69,-410.12 0,0 -1107.8,1118.51 -1600.65,1241.73l61.61 -431.22c0,0 -328.58,472.29 -575,472.29l54.04 -399.27z"/>
    <path class="fil12" d="M11968.13 11374.6c3.49,-13.67 5.4,-21.42 5.4,-21.42 0.37,5.38 -1.51,12.6 -5.4,21.42zm-3355.93 -2594.92c13.9,-577.74 72.39,-1022.09 0,0zm-3178.02 -2058.53c-2.05,-228.55 8.03,-366.84 8.03,-366.84 0,0 29.29,131.67 -8.03,366.84zm1836.91 1214.44c0,0 53.79,1719.28 55.9,1836.47 18.84,102.73 942.51,140.59 1213.21,-48.83 32.2,-401.27 55.51,-710.53 71.99,-943.56 -9.9,411.71 2.86,891.14 101.8,955.99 110.99,84.78 479.69,58.68 599.56,6.96 0,0 841.04,-1395.43 556.46,-3234.25 0,0 562.72,2379.82 1714.65,2773.83 147.01,679.91 209.07,1649.76 -183.01,2716.67 0,0 508.03,-491.94 566.47,-624.29 -21.3,83.12 -101.56,384.77 -168.74,484.98 0,0 197.35,-128.25 376.03,-278.8 881.16,-135.23 679.84,1425.95 -686.13,1605 -211.07,400.58 -489.89,763.78 -823.29,1087.96l-54.04 399.27c246.41,0 575,-472.29 575,-472.29l-61.61 431.22c492.85,-123.22 1600.65,-1241.73 1600.65,-1241.73 809.77,-2371.23 375.15,-3122.65 375.15,-3122.65 -1123.56,-1606.96 -2305.2,-2874.68 -3231.13,-3759.18 -1005.91,-960.95 -1710.04,-1469.61 -1710.04,-1469.61 0,0 -443.86,-128.08 -814.05,-168.48 -370.19,40.4 -728.39,152.04 -728.39,152.04 0,0 -2596.97,1876.05 -4941.17,5228.79 0,0 -454.71,786.18 432.68,3287.87 0,0 1096.74,1173.48 1589.59,1296.7l-61.61 -431.22c0,0 328.58,472.29 575,472.29l-38.3 -435.41c-390.96,-368.65 -715.58,-792.16 -965.72,-1266.9 -1365.53,-179.01 -1517.27,-1705.34 -637.05,-1571.22 293.61,183.06 794.49,464.26 794.49,464.26 -104.38,-165.53 -222.22,-521.58 -222.22,-521.58 109.13,233.14 303.6,274.96 303.6,274.96 -136.44,-948.33 -44.33,-1865.16 104.15,-2600.34 1452.22,-1105.31 1806.88,-2018.62 1883.2,-2499.39 6.01,672.32 117.02,2125.89 898.6,3139.83 4.4,62.4 708.06,-30.48 791.44,-74.56 0,0 61.8,-295.03 105.24,-799.59 24.77,-287.6 43.61,-643.29 41.63,-1051.24z"/>
    <path class="fil0" d="M9870.02 6508.38c925.93,884.51 2107.56,2152.22 3231.13,3759.18 0,0 434.62,751.42 -375.15,3122.65 -44.96,131.67 -93.76,268.32 -146.69,410.12 0,0 -2031.36,2030.38 -4460.21,2537.32l-7.4 65.54c2824.92,-122.45 6464.26,-3078.97 6354.38,-3389.62 1851.91,-3302.73 -1208.29,-7359.48 -1208.29,-7359.48 -2317.65,-3029.72 -3667.45,-3681.18 -3667.45,-3681.18 0,0 -1051.71,-269.3 -2160.19,-326.23 -1108.48,56.93 -1959.08,391.68 -1959.08,391.68 0,0 -1349.79,651.46 -3667.45,3681.18 0,0 -3060.2,4056.75 -1208.29,7359.48 16.37,230.91 3246.33,3132.36 5815.29,3307.2 0,0 0,0 -2.37,-22.47 -2487.18,-440.86 -4210.03,-2579.85 -4210.03,-2579.85 -31.13,-83.4 -60.82,-165.01 -89.15,-244.9 -887.4,-2501.69 -432.68,-3287.87 -432.68,-3287.87 2344.2,-3352.74 4941.17,-5228.79 4941.17,-5228.79 0,0 358.2,-111.65 728.39,-152.04 370.19,40.4 814.05,168.48 814.05,168.48 0,0 704.13,508.66 1710.04,1469.61z"/>
    <path class="fil1" d="M9313.56 9742.63c-119.87,51.71 -488.57,77.81 -599.56,-6.96 -98.93,-64.85 -111.69,-544.28 -101.8,-955.99 -16.48,233.03 -39.79,542.28 -71.99,943.56 -270.7,189.41 -1194.37,151.55 -1213.21,48.83 -2.12,-117.19 -55.9,-1836.47 -55.9,-1836.47 1.98,407.96 -16.86,763.64 -41.63,1051.24 -43.45,504.56 -105.24,799.59 -105.24,799.59 -83.38,44.08 -787.04,136.96 -791.44,74.56 -781.57,-1013.94 -892.59,-2467.51 -898.6,-3139.83 -76.3,480.74 -430.96,1394.05 -1883.2,2499.39 -148.48,735.19 -240.59,1652.02 -104.15,2600.34 0,0 -194.47,-41.82 -303.6,-274.96 0,0 117.84,356.06 222.22,521.58 0,0 -500.88,-281.2 -794.49,-464.26 -880.22,-134.12 -728.48,1392.21 637.05,1571.22 250.14,474.74 574.76,898.25 965.72,1266.9 583.38,550.08 1314.4,978.04 2165.89,1271.77 291.51,100.56 597.14,185.39 915.8,254 311.56,-67.08 615.84,-149.37 910.07,-246.46 977.74,-322.71 1844.69,-809.3 2500.5,-1446.93 333.4,-324.18 612.23,-687.39 823.29,-1087.96 1365.97,-179.05 1567.29,-1740.24 686.13,-1605 -178.68,150.55 -376.03,278.8 -376.03,278.8 67.17,-100.21 147.43,-401.86 168.74,-484.98 -58.47,132.35 -566.47,624.29 -566.47,624.29 392.08,-1066.91 330.03,-2036.76 183.01,-2716.67 -1151.92,-394.01 -1714.65,-2773.83 -1714.65,-2773.83 284.58,1838.82 -556.46,3234.25 -556.46,3234.25z"/>
    <path class="fil11" d="M6339.62 15713.13c-851.49,-293.73 -1582.51,-721.68 -2165.89,-1271.77l38.3 435.41c-246.41,0 -575,-472.29 -575,-472.29l61.61 431.22c-492.85,-123.22 -1589.59,-1296.7 -1589.59,-1296.7 28.34,79.89 58.02,161.5 89.15,244.9 0,0 1722.84,2139 4210.03,2579.85 -4.98,-47.31 -20.49,-194.26 -68.62,-650.62z"/>
    <path class="fil11" d="M10666 14273.75c-655.81,637.63 -1522.77,1124.22 -2500.5,1446.93l23.28 0 -69.69 616.98c2428.86,-506.94 4460.21,-2537.32 4460.21,-2537.32 52.92,-141.8 101.73,-278.45 146.69,-410.12 0,0 -1107.8,1118.51 -1600.65,1241.73l61.61 -431.22c0,0 -328.58,472.29 -575,472.29l54.04 -399.27z"/>
    <path class="fil13" d="M4423.61 3850.88c246.44,1252.65 1026.8,1622.26 -800.85,3347.22 0,0 -1739.35,1693.83 -1930.3,1232.11 -323.72,-782.76 2370.39,-4837.04 2731.15,-4579.34z"/>
    <path class="fil13" d="M10441.8 3789.27c-246.44,1252.65 -1026.8,1622.26 800.85,3347.22 0,0 1739.35,1693.83 1930.3,1232.11 323.72,-782.76 -2370.39,-4837.04 -2731.15,-4579.34z"/>
    <path class="fil0" d="M986.05 13348.63c-304.65,99.21 -576.44,1224.48 -576.44,1224.48 -778.85,-609.71 -150.83,-5357.65 -150.83,-5357.65l727.27 4133.17z"/>
    <path class="fil0" d="M8816.54 2179.84c339.08,-72.65 -390.68,-1860.8 -1290.77,-2179.84 -924.49,410.7 -1766.6,2162.4 -1287.81,2162.4 318.13,-70.11 761.34,199.5 1192.18,177.38 527.96,27.13 991.68,-231.3 1386.39,-159.94z"/>
    <path class="fil0" d="M13921.74 13512.9c304.65,99.21 576.44,1224.48 576.44,1224.48 778.85,-609.71 150.83,-5357.65 150.83,-5357.65l-727.27 4133.17z"/>
   </g>
   <g>
    <ellipse class="fil14" transform="matrix(0.0601631 -0.718633 0.718633 0.0601631 9939.18 18955.4)" rx="770.07" ry="1067.82"/>
    <path class="fil0" d="M4759.44 20707.5c-473.11,32.92 -1052.5,86.43 -1344.9,-573.78 -85.34,-647.66 231.14,-744.6 1042.86,-1022.37 2902.48,-1001.32 4666.84,-1196.35 4613.68,-1059.72 -68.27,175.51 455.85,311.47 455.85,311.47 -33.88,10.9 -56.72,19.3 -56.72,19.3 -60.68,55.37 185.11,1276.73 185.11,1276.73l161.22 -28.97c154.54,275.96 -146.06,411.19 -146.06,411.19 -1612.18,257.47 -3344.36,487.56 -4911.04,666.15z"/>
    <path class="fil3" d="M9470.21 18382.4c-60.68,55.37 185.11,1276.73 185.11,1276.73l161.22 -28.97 208.04 -99.52c42.35,-52.58 -221.2,-1202.05 -221.2,-1202.05 -37.35,-35.48 -191.53,7.24 -276.45,34.51 -33.88,10.9 -56.72,19.3 -56.72,19.3z"/>
   </g>
   <g>
    <ellipse class="fil14" transform="matrix(-0.0601631 -0.718633 -0.718633 0.0601631 4532.38 18635)" rx="770.07" ry="1067.82"/>
    <path class="fil0" d="M9712.13 20387.12c473.11,32.92 1052.5,86.43 1344.9,-573.78 85.34,-647.66 -231.14,-744.6 -1042.86,-1022.37 -2902.48,-1001.32 -4666.84,-1196.35 -4613.68,-1059.72 68.27,175.51 -455.85,311.47 -455.85,311.47 33.88,10.9 56.72,19.3 56.72,19.3 60.68,55.37 -185.11,1276.73 -185.11,1276.73l-161.22 -28.97c-154.54,275.96 146.06,411.19 146.06,411.19 1612.18,257.47 3344.36,487.56 4911.04,666.15z"/>
    <path class="fil3" d="M5001.36 18062.01c60.68,55.37 -185.11,1276.73 -185.11,1276.73l-161.22 -28.97 -208.04 -99.52c-42.35,-52.58 221.2,-1202.05 221.2,-1202.05 37.35,-35.48 191.53,7.24 276.45,34.51 33.88,10.9 56.72,19.3 56.72,19.3z"/>
   </g>
   <path class="fil15" d="M9951.72 10335.35l-572.76 185.08c-238.17,0 -431.24,289.6 -431.24,646.85 0,357.24 193.07,646.85 431.24,646.85 238.17,0 431.24,-289.6 431.24,-646.85 0,-146.11 -32.29,-280.87 -86.76,-389.17l228.28 -442.77z"/>
   <path class="fil15" d="M4922.82 10212.13l572.76 185.08c238.17,0 431.24,289.6 431.24,646.85 0,357.24 -193.07,646.85 -431.24,646.85 -238.17,0 -431.24,-289.6 -431.24,-646.85 0,-146.11 32.29,-280.87 86.76,-389.17l-228.28 -442.77z"/>
   <polyline class="fil16 str0" points="6736.42,14372.49 7393.54,13540.84 8112.27,14423.83 "/>
  </g>
 </g>
</svg>
