<?xml version="1.0" encoding="UTF-8"?>
<!DOCTYPE svg PUBLIC "-//W3C//DTD SVG 1.1//EN" "http://www.w3.org/Graphics/SVG/1.1/DTD/svg11.dtd">
<!-- Creator: CorelDRAW 2018 (64-Bit) -->
<svg xmlns="http://www.w3.org/2000/svg" xml:space="preserve" width="66.3874mm" height="167.762mm" version="1.1" style="shape-rendering:geometricPrecision; text-rendering:geometricPrecision; image-rendering:optimizeQuality; fill-rule:evenodd; clip-rule:evenodd"
viewBox="0 0 1259.47 3182.69"
 xmlns:xlink="http://www.w3.org/1999/xlink">
 <defs>
  <style type="text/css">
   <![CDATA[
    .fil8 {fill:#ED84B1}
    .fil15 {fill:#ECA4A9}
    .fil3 {fill:#F2F6FB}
    .fil13 {fill:#E1E9ED}
    .fil4 {fill:#C7D5E3}
    .fil5 {fill:#BDE2E9}
    .fil9 {fill:#9499A1}
    .fil6 {fill:#8BAEB6}
    .fil1 {fill:#403C37}
    .fil11 {fill:#494F57}
    .fil14 {fill:#3C414A}
    .fil7 {fill:#3C4654}
    .fil2 {fill:#2E343B}
    .fil12 {fill:#A570FF}
    .fil0 {fill:#FFC6B7}
    .fil10 {fill:#F7F1E4}
   ]]>
  </style>
 </defs>
 <g id="Layer_x0020_1">
  <metadata id="CorelCorpID_0Corel-Layer"/>
  <g id="_2555350110272">
   <g>
    <g>
     <ellipse class="fil0" cx="627.01" cy="1128.67" rx="127.16" ry="254.32"/>
     <g>
      <path class="fil0" d="M577.48 2208.43c-97.73,-407.15 -282.77,-71.95 -282.77,-71.95 0,0 19.82,76.55 42.8,171.44 0.1,0.39 0.19,0.79 0.29,1.18 6.68,13.29 126.14,66.72 218.32,36.17 11.9,-76.39 21.36,-136.84 21.36,-136.84z"/>
      <path class="fil1" d="M556.12 2345.27c-92.18,30.55 -211.64,-22.88 -218.32,-36.17 30.79,127.19 67.1,286.8 69.01,339.37 3.35,92.02 -20.08,373.12 15.06,409.93 0,0 46.85,26.77 87.01,-21.75 -3.35,-51.87 -5.02,-348.02 0,-384.83 3.08,-22.62 28.28,-184.82 47.24,-306.55z"/>
      <path class="fil2" d="M508.88 3036.65c-40.16,48.52 -87.01,21.75 -87.01,21.75 0,0 33.44,97.04 86.98,112.09 53.54,15.06 0.02,-133.85 0.02,-133.85z"/>
     </g>
     <g>
      <path class="fil0" d="M665.52 2219.55c97.73,-407.15 282.77,-71.95 282.77,-71.95 0,0 -19.82,76.55 -42.8,171.44 -0.1,0.39 -0.19,0.79 -0.29,1.18 -6.68,13.29 -126.14,66.72 -218.32,36.17 -11.9,-76.39 -21.36,-136.84 -21.36,-136.84z"/>
      <path class="fil1" d="M686.88 2356.39c92.18,30.55 211.64,-22.88 218.32,-36.17 -30.79,127.19 -67.1,286.8 -69.01,339.37 -3.35,92.02 20.08,373.12 -15.06,409.93 0,0 -46.85,26.77 -87.01,-21.75 3.35,-51.87 5.02,-348.02 0,-384.83 -3.08,-22.62 -28.28,-184.82 -47.24,-306.55z"/>
      <path class="fil2" d="M734.12 3047.77c40.16,48.52 87.01,21.75 87.01,21.75 0,0 -33.44,97.04 -86.98,112.09 -53.54,15.06 -0.02,-133.85 -0.02,-133.85z"/>
     </g>
     <g>
      <g>
       <path class="fil3" d="M565.95 1850.89c-37.05,93.48 -50.83,388.06 -53.38,450.64 0,0 93.36,10.88 104.24,8.37 10.88,2.51 108.17,-10.63 108.17,-10.63 -2.55,-62.58 -16.32,-357.17 -53.38,-450.64l-105.66 2.26z"/>
       <path class="fil4" d="M460.22 1835.85c-57.02,214.66 -80.62,386 -86.84,436.56 0,0 97.2,24.38 148.23,42.79 0,0 0.14,-4.18 0.45,-11.76 2.55,-62.58 16.32,-357.17 53.38,-450.64l-115.22 -16.94z"/>
       <path class="fil3" d="M450.73 1833.95c-57.02,214.66 -80.62,386 -86.84,436.56 0,0 97.2,24.38 148.23,42.79 0,0 0.14,-4.18 0.45,-11.76 2.55,-62.58 16.32,-357.17 53.38,-450.64l-115.22 -16.94z"/>
       <path class="fil4" d="M460.22 1837.75l-105.81 -26.35c0,0 -128.11,318.29 -128.11,434.57 0,0 115.18,20.13 145.3,43.55 0,0 0.55,-5.27 1.78,-15.22 6.22,-50.56 29.82,-221.89 86.84,-436.56z"/>
       <path class="fil3" d="M450.73 1833.95l-105.81 -26.35c0,0 -128.11,318.29 -128.11,434.57 0,0 115.18,20.13 145.3,43.55 0,0 0.55,-5.27 1.78,-15.22 6.22,-50.56 29.82,-221.89 86.84,-436.56z"/>
       <path class="fil4" d="M662.12 1850.53c37.05,93.48 50.83,388.06 53.38,450.64 0.31,7.58 0.45,11.76 0.45,11.76 51.03,-18.41 148.23,-42.79 148.23,-42.79 -6.22,-50.56 -29.82,-221.89 -86.84,-436.56l-115.22 16.94z"/>
       <path class="fil3" d="M671.6 1848.63c37.05,93.48 50.83,388.06 53.38,450.64 0.31,7.58 0.45,11.76 0.45,11.76 51.03,-18.41 148.23,-42.79 148.23,-42.79 -6.22,-50.56 -29.82,-221.89 -86.84,-436.56l-115.22 16.94z"/>
       <path class="fil4" d="M775.43 1835.49c57.02,214.66 80.62,386 86.84,436.56 1.23,9.95 1.78,15.22 1.78,15.22 30.12,-23.42 145.3,-43.55 145.3,-43.55 0,-116.29 -128.11,-434.57 -128.11,-434.57l-105.81 26.35z"/>
       <path class="fil3" d="M786.82 1831.69c57.02,214.66 80.62,386 86.84,436.56 1.23,9.95 1.78,15.22 1.78,15.22 30.12,-23.42 145.3,-43.55 145.3,-43.55 0,-116.29 -128.11,-434.57 -128.11,-434.57l-105.81 26.35z"/>
      </g>
      <g>
       <path class="fil4" d="M619.79 1436.5c0,0 -128.26,-6.51 -130.77,-62.56 -77.21,139.14 -155.97,413.11 -155.97,413.11 -0.84,20.08 6.69,20.92 6.69,20.92 195.36,57.75 285.91,47.77 285.91,47.77 0,0 110.22,-4.27 285.91,-47.77 0,0 7.53,-0.84 6.69,-20.92 0,0 -77.85,-270.81 -154.63,-410.68 -4.19,54.96 -127.91,60.65 -127.91,60.65l27.75 0.9c0,0 3.17,44.99 -14.4,56 15.53,83.28 24.2,105.44 19.18,170.19 -5.02,64.74 -45.17,79.68 -45.17,79.68 3.35,-24.9 -7.15,-144.48 -7.15,-144.48 -25.24,129.72 -64.8,154.52 -64.8,154.52 5.02,-38.58 5.02,-124.01 5.02,-124.01 -6.69,-96.45 51.09,-135.63 51.09,-135.63 0,0 -10.27,-7.73 -15.17,-58.59l27.73 0.9z"/>
       <path class="fil3" d="M619.79 1427.02c0,0 -128.26,-6.51 -130.77,-62.56 -77.21,139.14 -155.97,413.11 -155.97,413.11 -0.84,20.08 6.69,20.92 6.69,20.92 195.36,57.75 285.91,47.77 285.91,47.77 0,0 110.22,-4.27 285.91,-47.77 0,0 7.53,-0.84 6.69,-20.92 0,0 -77.85,-270.81 -154.63,-410.68 -4.19,54.96 -127.91,60.65 -127.91,60.65l27.75 0.9c0,0 3.17,44.99 -14.4,56 15.53,83.28 24.2,105.44 19.18,170.19 -5.02,64.74 -45.17,79.68 -45.17,79.68 3.35,-24.9 -7.15,-144.48 -7.15,-144.48 -25.24,129.72 -64.8,154.52 -64.8,154.52 5.02,-38.58 5.02,-124.01 5.02,-124.01 -6.69,-96.45 51.09,-135.63 51.09,-135.63 0,0 -10.27,-7.73 -15.17,-58.59l27.73 0.9z"/>
       <path class="fil3" d="M552.26 1340.67c21.19,50.51 67.54,86.35 67.54,86.35l15.92 0.52c0,0 44.08,-35.02 64.7,-84.83 -60.47,-17.88 -148.16,-2.03 -148.16,-2.03z"/>
       <path class="fil4" d="M694.73 1342.7c-20.63,49.82 -64.7,84.83 -64.7,84.83 0,0 123.71,-5.69 127.91,-60.65 -18,-32.79 -35.94,-58.39 -52.81,-71.61 -0.27,16.75 -4.31,32.73 -10.4,47.43z"/>
       <path class="fil4" d="M625.49 1427.02c0,0 -46.35,-35.84 -67.54,-86.35 -6.07,-14.46 -10.07,-30.12 -10.33,-46.49 -16.86,12.56 -34.84,37.73 -52.9,70.28 2.51,56.05 130.77,62.56 130.77,62.56z"/>
       <path class="fil4" d="M700.42 1350.29c-20.63,49.82 -64.7,84.83 -64.7,84.83 0,0 123.71,-5.69 127.91,-60.65 -18,-32.79 -35.94,-58.39 -52.81,-71.61 -0.27,16.75 -4.31,32.73 -10.4,47.43z"/>
       <path class="fil3" d="M700.42 1342.7c-20.63,49.82 -64.7,84.83 -64.7,84.83 0,0 123.71,-5.69 127.91,-60.65 -18,-32.79 -35.94,-58.39 -52.81,-71.61 -0.27,16.75 -4.31,32.73 -10.4,47.43z"/>
       <path class="fil4" d="M619.79 1434.6c0,0 -46.35,-35.84 -67.54,-86.35 -6.07,-14.46 -10.07,-30.12 -10.33,-46.49 -16.86,12.56 -34.84,37.73 -52.9,70.28 2.51,56.05 130.77,62.56 130.77,62.56z"/>
       <path class="fil3" d="M619.79 1427.02c0,0 -46.35,-35.84 -67.54,-86.35 -6.07,-14.46 -10.07,-30.12 -10.33,-46.49 -16.86,12.56 -34.84,37.73 -52.9,70.28 2.51,56.05 130.77,62.56 130.77,62.56z"/>
       <path class="fil5" d="M630.25 1484.56c-3.62,41.1 -8.6,75.88 -14.32,105.27 0,0 10.5,119.58 7.15,144.48 0,0 40.15,-14.94 45.17,-79.68 5.02,-64.75 -3.65,-86.9 -19.18,-170.19l-18.83 0.12z"/>
       <path class="fil6" d="M611.03 1484.71c0,0 -57.79,39.18 -51.09,135.63 0,0 0,85.43 -5.02,124.01 0,0 39.56,-24.81 64.8,-154.52 5.72,-29.39 10.7,-64.17 14.32,-105.27l-23.01 0.15z"/>
       <path class="fil5" d="M607.24 1484.71c0,0 -57.79,39.18 -51.09,135.63 0,0 0,85.43 -5.02,124.01 0,0 39.56,-24.81 64.8,-154.52 5.72,-29.39 10.7,-64.17 14.32,-105.27l-23.01 0.15z"/>
       <path class="fil6" d="M592.07 1429.91c4.9,50.87 15.17,58.59 15.17,58.59l23.01 -0.15 18.83 -0.12c17.57,-11.01 14.4,-56 14.4,-56l-27.75 -0.9 -15.93 -0.52 -27.72 -0.9z"/>
       <path class="fil5" d="M592.07 1426.12c4.9,50.87 15.17,58.59 15.17,58.59l23.01 -0.15 18.83 -0.12c17.57,-11.01 14.4,-56 14.4,-56l-27.75 -0.9 -15.93 -0.52 -27.72 -0.9z"/>
      </g>
      <g>
       <path class="fil7" d="M402.06 2022.27c0,0 -33.46,-503.62 175.68,-744.56l-36.81 3.34c0,0 -179.03,174.01 -296.15,680.98 0,0 -25.1,35.14 157.28,60.23z"/>
       <path class="fil7" d="M670.97 1276.89c209.15,240.94 175.68,744.56 175.68,744.56 182.38,-25.1 157.28,-60.23 157.28,-60.23 -117.12,-506.97 -296.15,-680.98 -296.15,-680.98l-36.81 -3.34z"/>
      </g>
     </g>
     <g>
      <ellipse class="fil0" transform="matrix(0.490278 0.528848 -0.528848 0.490278 55.3549 2005.62)" rx="62.74" ry="87.01"/>
      <path class="fil7" d="M433.5 1444.17c85.84,-48.38 104.45,-162.71 104.45,-162.71 0,0 -65.36,2.84 -150.62,111.81 -102.04,130.43 -254.89,342.22 -382.58,536.54 0,0 -8.37,25.52 16.73,31.38l7.11 -11.29c0,0 87.01,52.29 87.01,58.98 0,0 -0.75,1.84 -1.95,4.47 0,0 36.97,-24.08 43.78,-10.33 6.81,13.75 145.37,-183 276.07,-558.85z"/>
      <path class="fil2" d="M115.6 2008.87c0,-6.69 -87.01,-58.98 -87.01,-58.98l-7.11 11.29 -5.44 17.99c0.84,5.44 84.5,52.71 84.5,52.71 4.19,-0.3 10.08,-11.93 13.11,-18.53 1.2,-2.64 1.95,-4.47 1.95,-4.47z"/>
     </g>
     <g>
      <ellipse class="fil0" transform="matrix(-0.490278 0.528848 0.528848 0.490278 1183.47 2001.29)" rx="62.74" ry="87.01"/>
      <path class="fil7" d="M805.33 1439.83c-85.84,-48.38 -104.45,-162.71 -104.45,-162.71 0,0 65.36,2.84 150.62,111.81 102.04,130.43 254.89,342.22 382.58,536.54 0,0 8.37,25.52 -16.73,31.38l-7.11 -11.29c0,0 -87.01,52.29 -87.01,58.98 0,0 0.75,1.84 1.95,4.47 0,0 -36.97,-24.08 -43.78,-10.33 -6.81,13.75 -145.37,-183 -276.07,-558.85z"/>
      <path class="fil2" d="M1123.23 2004.53c0,-6.69 87.01,-58.98 87.01,-58.98l7.11 11.29 5.44 17.99c-0.84,5.44 -84.5,52.71 -84.5,52.71 -4.19,-0.3 -10.08,-11.93 -13.11,-18.53 -1.2,-2.64 -1.95,-4.47 -1.95,-4.47z"/>
     </g>
    </g>
    <g>
     <path class="fil8" d="M1007.43 926.79c0.28,-1.11 0.44,-1.75 0.44,-1.75 0.03,0.44 -0.12,1.03 -0.44,1.75zm-273.44 -211.43c1.13,-47.07 5.9,-83.28 0,0zm-258.94 -167.73c-0.17,-18.62 0.65,-29.89 0.65,-29.89 0,0 2.39,10.73 -0.65,29.89zm149.67 98.95c0,0 4.38,140.09 4.56,149.63 1.53,8.37 76.79,11.45 98.85,-3.98 2.62,-32.7 4.52,-57.89 5.87,-76.88 -0.81,33.55 0.23,72.61 8.29,77.89 9.04,6.91 39.09,4.78 48.85,0.57 0,0 68.53,-113.7 45.34,-263.52 0,0 45.85,193.91 139.71,226.01 11.98,55.4 17.03,134.42 -14.91,221.35 0,0 41.39,-40.08 46.16,-50.87 -1.74,6.77 -8.28,31.35 -13.75,39.52 0,0 16.08,-10.45 30.64,-22.72 71.8,-11.02 55.39,116.19 -55.91,130.77 -17.2,32.64 -39.92,62.23 -67.08,88.65l-4.4 32.53c20.08,0 46.85,-38.48 46.85,-38.48l-5.02 35.14c40.16,-10.04 130.42,-101.17 130.42,-101.17 65.98,-193.21 30.57,-254.43 30.57,-254.43 -91.55,-130.93 -187.83,-234.23 -263.27,-306.29 -81.96,-78.3 -139.33,-119.74 -139.33,-119.74 0,0 -36.17,-10.44 -66.33,-13.73 -30.16,3.29 -59.35,12.39 -59.35,12.39 0,0 -211.6,152.86 -402.6,426.04 0,0 -37.05,64.06 35.25,267.89 0,0 89.36,95.61 129.52,105.65l-5.02 -35.14c0,0 26.77,38.48 46.85,38.48l-3.12 -35.48c-31.85,-30.04 -58.3,-64.54 -78.69,-103.23 -111.26,-14.59 -123.63,-138.95 -51.91,-128.02 23.92,14.92 64.73,37.83 64.73,37.83 -8.5,-13.49 -18.11,-42.5 -18.11,-42.5 8.89,19 24.74,22.4 24.74,22.4 -11.12,-77.27 -3.61,-151.97 8.49,-211.87 118.32,-90.06 147.22,-164.47 153.44,-203.65 0.49,54.78 9.54,173.22 73.22,255.83 0.36,5.08 57.69,-2.48 64.49,-6.07 0,0 5.04,-24.04 8.58,-65.15 2.02,-23.43 3.55,-52.41 3.39,-85.65z"/>
     <path class="fil9" d="M836.48 530.3c75.44,72.07 171.72,175.36 263.27,306.29 0,0 35.41,61.22 -30.57,254.43 -3.66,10.73 -7.64,21.86 -11.95,33.42 0,0 -165.51,165.43 -363.41,206.74l-0.6 5.34c230.17,-9.98 526.7,-250.87 517.75,-276.18 150.89,-269.1 -98.45,-599.64 -98.45,-599.64 -188.84,-246.86 -298.82,-299.94 -298.82,-299.94 0,0 -85.69,-21.94 -176.01,-26.58 -90.32,4.64 -159.62,31.91 -159.62,31.91 0,0 -109.98,53.08 -298.82,299.94 0,0 -249.34,330.54 -98.45,599.64 1.33,18.81 264.51,255.22 473.82,269.47 0,0 0,0 -0.19,-1.83 -202.65,-35.92 -343.03,-210.2 -343.03,-210.2 -2.54,-6.8 -4.96,-13.45 -7.26,-19.95 -72.3,-203.84 -35.25,-267.89 -35.25,-267.89 191,-273.18 402.6,-426.04 402.6,-426.04 0,0 29.19,-9.1 59.35,-12.39 30.16,3.29 66.33,13.73 66.33,13.73 0,0 57.37,41.45 139.33,119.74z"/>
     <path class="fil10" d="M791.14 793.82c-9.77,4.21 -39.81,6.34 -48.85,-0.57 -8.06,-5.28 -9.1,-44.35 -8.29,-77.89 -1.34,18.99 -3.24,44.18 -5.87,76.88 -22.06,15.43 -97.32,12.35 -98.85,3.98 -0.17,-9.55 -4.56,-149.63 -4.56,-149.63 0.16,33.24 -1.37,62.22 -3.39,85.65 -3.54,41.11 -8.58,65.15 -8.58,65.15 -6.79,3.59 -64.13,11.16 -64.49,6.07 -63.68,-82.62 -72.73,-201.05 -73.22,-255.83 -6.22,39.17 -35.11,113.59 -153.44,203.65 -12.1,59.9 -19.6,134.6 -8.49,211.87 0,0 -15.84,-3.41 -24.74,-22.4 0,0 9.6,29.01 18.11,42.5 0,0 -40.81,-22.91 -64.73,-37.83 -71.72,-10.93 -59.36,113.44 51.91,128.02 20.38,38.68 46.83,73.19 78.69,103.23 47.53,44.82 107.1,79.69 176.47,103.62 23.75,8.19 48.65,15.11 74.62,20.7 25.39,-5.47 50.18,-12.17 74.15,-20.08 79.66,-26.29 150.3,-65.94 203.74,-117.89 27.17,-26.41 49.88,-56.01 67.08,-88.65 111.3,-14.59 127.7,-141.79 55.91,-130.77 -14.56,12.27 -30.64,22.72 -30.64,22.72 5.47,-8.17 12.01,-32.74 13.75,-39.52 -4.76,10.78 -46.16,50.87 -46.16,50.87 31.95,-86.93 26.89,-165.95 14.91,-221.35 -93.86,-32.1 -139.71,-226.01 -139.71,-226.01 23.19,149.83 -45.34,263.52 -45.34,263.52z"/>
     <path class="fil11" d="M548.83 1280.29c-69.38,-23.93 -128.94,-58.8 -176.47,-103.62l3.12 35.48c-20.08,0 -46.85,-38.48 -46.85,-38.48l5.02 35.14c-40.16,-10.04 -129.52,-105.65 -129.52,-105.65 2.31,6.51 4.73,13.16 7.26,19.95 0,0 140.38,174.28 343.03,210.2 -0.41,-3.86 -1.67,-15.83 -5.59,-53.01z"/>
     <path class="fil11" d="M901.33 1163.01c-53.44,51.95 -124.07,91.6 -203.74,117.89l1.9 0 -5.68 50.27c197.9,-41.3 363.41,-206.74 363.41,-206.74 4.31,-11.55 8.29,-22.69 11.95,-33.42 0,0 -90.26,91.14 -130.42,101.17l5.02 -35.14c0,0 -26.77,38.48 -46.85,38.48l4.4 -32.53z"/>
     <path class="fil12" d="M1007.43 926.79c0.28,-1.11 0.44,-1.75 0.44,-1.75 0.03,0.44 -0.12,1.03 -0.44,1.75zm-273.44 -211.43c1.13,-47.07 5.9,-83.28 0,0zm-258.94 -167.73c-0.17,-18.62 0.65,-29.89 0.65,-29.89 0,0 2.39,10.73 -0.65,29.89zm149.67 98.95c0,0 4.38,140.09 4.56,149.63 1.53,8.37 76.79,11.45 98.85,-3.98 2.62,-32.7 4.52,-57.89 5.87,-76.88 -0.81,33.55 0.23,72.61 8.29,77.89 9.04,6.91 39.09,4.78 48.85,0.57 0,0 68.53,-113.7 45.34,-263.52 0,0 45.85,193.91 139.71,226.01 11.98,55.4 17.03,134.42 -14.91,221.35 0,0 41.39,-40.08 46.16,-50.87 -1.74,6.77 -8.28,31.35 -13.75,39.52 0,0 16.08,-10.45 30.64,-22.72 71.8,-11.02 55.39,116.19 -55.91,130.77 -17.2,32.64 -39.92,62.23 -67.08,88.65l-4.4 32.53c20.08,0 46.85,-38.48 46.85,-38.48l-5.02 35.14c40.16,-10.04 130.42,-101.17 130.42,-101.17 65.98,-193.21 30.57,-254.43 30.57,-254.43 -91.55,-130.93 -187.83,-234.23 -263.27,-306.29 -81.96,-78.3 -139.33,-119.74 -139.33,-119.74 0,0 -36.17,-10.44 -66.33,-13.73 -30.16,3.29 -59.35,12.39 -59.35,12.39 0,0 -211.6,152.86 -402.6,426.04 0,0 -37.05,64.06 35.25,267.89 0,0 89.36,95.61 129.52,105.65l-5.02 -35.14c0,0 26.77,38.48 46.85,38.48l-3.12 -35.48c-31.85,-30.04 -58.3,-64.54 -78.69,-103.23 -111.26,-14.59 -123.63,-138.95 -51.91,-128.02 23.92,14.92 64.73,37.83 64.73,37.83 -8.5,-13.49 -18.11,-42.5 -18.11,-42.5 8.89,19 24.74,22.4 24.74,22.4 -11.12,-77.27 -3.61,-151.97 8.49,-211.87 118.32,-90.06 147.22,-164.47 153.44,-203.65 0.49,54.78 9.54,173.22 73.22,255.83 0.36,5.08 57.69,-2.48 64.49,-6.07 0,0 5.04,-24.04 8.58,-65.15 2.02,-23.43 3.55,-52.41 3.39,-85.65z"/>
     <path class="fil7" d="M836.48 530.3c75.44,72.07 171.72,175.36 263.27,306.29 0,0 35.41,61.22 -30.57,254.43 -3.66,10.73 -7.64,21.86 -11.95,33.42 0,0 -165.51,165.43 -363.41,206.74l-0.6 5.34c230.17,-9.98 526.7,-250.87 517.75,-276.18 150.89,-269.1 -98.45,-599.64 -98.45,-599.64 -188.84,-246.86 -298.82,-299.94 -298.82,-299.94 0,0 -85.69,-21.94 -176.01,-26.58 -90.32,4.64 -159.62,31.91 -159.62,31.91 0,0 -109.98,53.08 -298.82,299.94 0,0 -249.34,330.54 -98.45,599.64 1.33,18.81 264.51,255.22 473.82,269.47 0,0 0,0 -0.19,-1.83 -202.65,-35.92 -343.03,-210.2 -343.03,-210.2 -2.54,-6.8 -4.96,-13.45 -7.26,-19.95 -72.3,-203.84 -35.25,-267.89 -35.25,-267.89 191,-273.18 402.6,-426.04 402.6,-426.04 0,0 29.19,-9.1 59.35,-12.39 30.16,3.29 66.33,13.73 66.33,13.73 0,0 57.37,41.45 139.33,119.74z"/>
     <path class="fil0" d="M791.14 793.82c-9.77,4.21 -39.81,6.34 -48.85,-0.57 -8.06,-5.28 -9.1,-44.35 -8.29,-77.89 -1.34,18.99 -3.24,44.18 -5.87,76.88 -22.06,15.43 -97.32,12.35 -98.85,3.98 -0.17,-9.55 -4.56,-149.63 -4.56,-149.63 0.16,33.24 -1.37,62.22 -3.39,85.65 -3.54,41.11 -8.58,65.15 -8.58,65.15 -6.79,3.59 -64.13,11.16 -64.49,6.07 -63.68,-82.62 -72.73,-201.05 -73.22,-255.83 -6.22,39.17 -35.11,113.59 -153.44,203.65 -12.1,59.9 -19.6,134.6 -8.49,211.87 0,0 -15.84,-3.41 -24.74,-22.4 0,0 9.6,29.01 18.11,42.5 0,0 -40.81,-22.91 -64.73,-37.83 -71.72,-10.93 -59.36,113.44 51.91,128.02 20.38,38.68 46.83,73.19 78.69,103.23 47.53,44.82 107.1,79.69 176.47,103.62 23.75,8.19 48.65,15.11 74.62,20.7 25.39,-5.47 50.18,-12.17 74.15,-20.08 79.66,-26.29 150.3,-65.94 203.74,-117.89 27.17,-26.41 49.88,-56.01 67.08,-88.65 111.3,-14.59 127.7,-141.79 55.91,-130.77 -14.56,12.27 -30.64,22.72 -30.64,22.72 5.47,-8.17 12.01,-32.74 13.75,-39.52 -4.76,10.78 -46.16,50.87 -46.16,50.87 31.95,-86.93 26.89,-165.95 14.91,-221.35 -93.86,-32.1 -139.71,-226.01 -139.71,-226.01 23.19,149.83 -45.34,263.52 -45.34,263.52z"/>
     <path class="fil11" d="M548.83 1280.29c-69.38,-23.93 -128.94,-58.8 -176.47,-103.62l3.12 35.48c-20.08,0 -46.85,-38.48 -46.85,-38.48l5.02 35.14c-40.16,-10.04 -129.52,-105.65 -129.52,-105.65 2.31,6.51 4.73,13.16 7.26,19.95 0,0 140.38,174.28 343.03,210.2 -0.41,-3.86 -1.67,-15.83 -5.59,-53.01z"/>
     <path class="fil11" d="M901.33 1163.01c-53.44,51.95 -124.07,91.6 -203.74,117.89l1.9 0 -5.68 50.27c197.9,-41.3 363.41,-206.74 363.41,-206.74 4.31,-11.55 8.29,-22.69 11.95,-33.42 0,0 -90.26,91.14 -130.42,101.17l5.02 -35.14c0,0 -26.77,38.48 -46.85,38.48l4.4 -32.53z"/>
     <path class="fil13" d="M392.71 313.77c20.08,102.06 83.66,132.18 -65.25,272.73 0,0 -141.72,138.01 -157.28,100.39 -26.38,-63.78 193.14,-394.12 222.53,-373.12z"/>
     <path class="fil13" d="M883.07 308.75c-20.08,102.06 -83.66,132.18 65.25,272.73 0,0 141.72,138.01 157.28,100.39 26.38,-63.78 -193.14,-394.12 -222.53,-373.12z"/>
     <path class="fil7" d="M112.62 1087.63c-24.82,8.08 -46.97,99.77 -46.97,99.77 -63.46,-49.68 -12.29,-436.54 -12.29,-436.54l59.26 336.77z"/>
     <path class="fil7" d="M750.64 177.61c27.63,-5.92 -31.83,-151.62 -105.17,-177.61 -75.33,33.46 -143.94,176.19 -104.93,176.19 25.92,-5.71 62.03,16.25 97.14,14.45 43.02,2.21 80.8,-18.85 112.96,-13.03z"/>
     <path class="fil7" d="M1166.61 1101.02c24.82,8.08 46.97,99.77 46.97,99.77 63.46,-49.68 12.29,-436.54 12.29,-436.54l-59.26 336.77z"/>
    </g>
   </g>
   <path class="fil14" d="M425.2 823.26l46.67 15.08c19.41,0 35.14,23.6 35.14,52.7 0,29.11 -15.73,52.7 -35.14,52.7 -19.41,0 -35.14,-23.6 -35.14,-52.7 0,-11.9 2.63,-22.89 7.07,-31.71l-18.6 -36.08z"/>
   <path class="fil14" d="M837.48 830.93l-46.67 15.08c-19.41,0 -35.14,23.6 -35.14,52.7 0,29.11 15.73,52.7 35.14,52.7 19.41,0 35.14,-23.6 35.14,-52.7 0,-11.9 -2.63,-22.89 -7.07,-31.71l18.6 -36.08z"/>
   <path class="fil15" d="M514.49 1076.38l225.04 0c0,0 -28.45,105.41 -110.43,104.57 -81.99,-0.84 -114.61,-104.57 -114.61,-104.57z"/>
  </g>
 </g>
</svg>
