<?xml version="1.0" encoding="UTF-8"?>
<!DOCTYPE svg PUBLIC "-//W3C//DTD SVG 1.1//EN" "http://www.w3.org/Graphics/SVG/1.1/DTD/svg11.dtd">
<!-- Creator: CorelDRAW 2018 (64-Bit) -->
<svg xmlns="http://www.w3.org/2000/svg" xml:space="preserve" width="69.1617mm" height="165.458mm" version="1.1" style="shape-rendering:geometricPrecision; text-rendering:geometricPrecision; image-rendering:optimizeQuality; fill-rule:evenodd; clip-rule:evenodd"
viewBox="0 0 1660.07 3971.45"
 xmlns:xlink="http://www.w3.org/1999/xlink">
 <defs>
  <style type="text/css">
   <![CDATA[
    .fil9 {fill:#ED84B1}
    .fil16 {fill:#ECA4A9}
    .fil5 {fill:#F2F6FB}
    .fil14 {fill:#E1E9ED}
    .fil6 {fill:#C7D5E3}
    .fil7 {fill:#BDE2E9}
    .fil10 {fill:#9499A1}
    .fil8 {fill:#8BAEB6}
    .fil4 {fill:#403C37}
    .fil12 {fill:#494F57}
    .fil15 {fill:#3C414A}
    .fil2 {fill:#3C4654}
    .fil3 {fill:#2E343B}
    .fil13 {fill:#A570FF}
    .fil1 {fill:#FFB096}
    .fil0 {fill:#FFC6B7}
    .fil11 {fill:#F7F1E4}
   ]]>
  </style>
 </defs>
 <g id="Layer_x0020_1">
  <metadata id="CorelCorpID_0Corel-Layer"/>
  <g id="_2555073613952">
   <ellipse class="fil0" cx="877.18" cy="1372.69" rx="160.88" ry="321.77"/>
   <g>
    <ellipse class="fil1" transform="matrix(-0.490278 0.528848 0.528848 0.490278 1590.03 2478.52)" rx="79.38" ry="110.08"/>
    <path class="fil2" d="M1111.6 1768.16c-108.61,-61.22 -132.15,-205.86 -132.15,-205.86 0,0 82.7,3.59 190.56,141.46 129.1,165.02 322.49,432.97 484.04,678.83 0,0 10.59,32.29 -21.16,39.7l-9 -14.29c0,0 -110.08,66.15 -110.08,74.62 0,0 0.95,2.32 2.47,5.66 0,0 -46.77,-30.46 -55.39,-13.07 -8.62,17.39 -183.92,-231.54 -349.29,-707.05z"/>
    <path class="fil3" d="M1513.81 2482.62c0,-8.47 110.08,-74.62 110.08,-74.62l9 14.29 6.88 22.76c-1.06,6.88 -106.9,66.68 -106.9,66.68 -5.3,-0.38 -12.76,-15.09 -16.58,-23.45 -1.52,-3.34 -2.47,-5.66 -2.47,-5.66z"/>
   </g>
   <g>
    <path class="fil0" d="M814.52 2738.81c-123.65,-515.12 -357.76,-91.03 -357.76,-91.03 0,0 25.08,96.85 54.15,216.91 0.12,0.5 0.24,1 0.36,1.5 8.45,16.81 159.59,84.41 276.22,45.76 15.06,-96.65 27.02,-173.13 27.02,-173.13z"/>
    <path class="fil4" d="M787.5 2911.94c-116.63,38.66 -267.77,-28.94 -276.22,-45.76 38.95,160.92 84.9,362.86 87.32,429.37 4.23,116.43 -25.4,472.07 19.05,518.64 0,0 59.27,33.87 110.08,-27.52 -4.23,-65.62 -6.35,-440.32 0,-486.89 3.9,-28.61 35.77,-233.84 59.77,-387.85z"/>
    <path class="fil3" d="M727.72 3786.68c-50.81,61.39 -110.08,27.52 -110.08,27.52 0,0 42.31,122.77 110.05,141.82 67.74,19.05 0.03,-169.34 0.03,-169.34z"/>
   </g>
   <g>
    <path class="fil0" d="M925.91 2752.88c123.65,-515.12 357.76,-91.03 357.76,-91.03 0,0 -25.08,96.85 -54.15,216.91 -0.12,0.5 -0.24,1 -0.36,1.5 -8.45,16.81 -159.59,84.41 -276.22,45.76 -15.06,-96.65 -27.02,-173.13 -27.02,-173.13z"/>
    <path class="fil4" d="M952.93 2926.01c116.63,38.66 267.77,-28.94 276.22,-45.76 -38.95,160.92 -84.9,362.86 -87.32,429.37 -4.23,116.43 25.4,472.07 -19.05,518.64 0,0 -59.27,33.87 -110.08,-27.52 4.23,-65.62 6.35,-440.32 0,-486.89 -3.9,-28.61 -35.77,-233.84 -59.77,-387.85z"/>
    <path class="fil3" d="M1012.7 3800.75c50.81,61.39 110.08,27.52 110.08,27.52 0,0 -42.31,122.77 -110.05,141.82 -67.74,19.05 -0.03,-169.34 -0.03,-169.34z"/>
   </g>
   <g>
    <g>
     <path class="fil5" d="M799.92 2286.45c-46.88,118.27 -64.31,490.98 -67.53,570.16 0,0 118.12,13.77 131.89,10.59 13.76,3.18 136.85,-13.45 136.85,-13.45 -3.22,-79.18 -20.65,-451.89 -67.53,-570.16l-133.68 2.86z"/>
     <path class="fil6" d="M666.15 2267.42c-72.14,271.59 -102,488.37 -109.87,552.33 0,0 122.98,30.85 187.54,54.13 0,0 0.18,-5.29 0.57,-14.88 3.22,-79.18 20.65,-451.89 67.53,-570.16l-145.77 -21.43z"/>
     <path class="fil5" d="M654.15 2265.02c-72.14,271.59 -102,488.37 -109.87,552.33 0,0 122.98,30.85 187.54,54.13 0,0 0.18,-5.29 0.57,-14.88 3.22,-79.18 20.65,-451.89 67.53,-570.16l-145.77 -21.43z"/>
     <path class="fil6" d="M666.15 2269.82l-133.87 -33.34c0,0 -162.08,402.7 -162.08,549.82 0,0 145.73,25.47 183.83,55.11 0,0 0.7,-6.67 2.25,-19.26 7.87,-63.96 37.73,-280.74 109.87,-552.33z"/>
     <path class="fil5" d="M654.15 2265.02l-133.87 -33.34c0,0 -162.08,402.7 -162.08,549.82 0,0 145.73,25.47 183.83,55.11 0,0 0.7,-6.67 2.25,-19.26 7.87,-63.96 37.73,-280.74 109.87,-552.33z"/>
     <path class="fil6" d="M921.6 2286c46.88,118.27 64.31,490.98 67.53,570.16 0.39,9.59 0.57,14.88 0.57,14.88 64.56,-23.29 187.54,-54.13 187.54,-54.13 -7.87,-63.96 -37.73,-280.74 -109.87,-552.33l-145.77 21.43z"/>
     <path class="fil5" d="M933.6 2283.6c46.88,118.27 64.31,490.98 67.53,570.16 0.39,9.59 0.57,14.88 0.57,14.88 64.56,-23.29 187.54,-54.13 187.54,-54.13 -7.87,-63.96 -37.73,-280.74 -109.87,-552.33l-145.77 21.43z"/>
     <path class="fil6" d="M1064.97 2266.97c72.14,271.59 102,488.37 109.87,552.33 1.55,12.59 2.25,19.26 2.25,19.26 38.1,-29.64 183.83,-55.11 183.83,-55.11 0,-147.13 -162.08,-549.82 -162.08,-549.82l-133.87 33.34z"/>
     <path class="fil5" d="M1079.37 2262.17c72.14,271.59 102,488.37 109.87,552.33 1.55,12.59 2.25,19.26 2.25,19.26 38.1,-29.64 183.83,-55.11 183.83,-55.11 0,-147.13 -162.08,-549.82 -162.08,-549.82l-133.87 33.34z"/>
    </g>
    <g>
     <path class="fil6" d="M868.05 1762.17c0,0 -162.28,-8.23 -165.45,-79.15 -97.69,176.04 -197.33,522.67 -197.33,522.67 -1.06,25.4 8.47,26.46 8.47,26.46 247.17,73.06 361.73,60.44 361.73,60.44 0,0 139.46,-5.4 361.73,-60.44 0,0 9.52,-1.06 8.47,-26.46 0,0 -98.5,-342.63 -195.64,-519.6 -5.31,69.54 -161.83,76.73 -161.83,76.73l35.11 1.14c0,0 4.01,56.92 -18.22,70.85 19.65,105.37 30.61,133.41 24.26,215.32 -6.35,81.91 -57.16,100.82 -57.16,100.82 4.23,-31.5 -9.04,-182.8 -9.04,-182.8 -31.93,164.12 -81.98,195.5 -81.98,195.5 6.35,-48.81 6.35,-156.9 6.35,-156.9 -8.47,-122.03 64.64,-171.6 64.64,-171.6 0,0 -13,-9.77 -19.2,-74.13l35.08 1.14z"/>
     <path class="fil5" d="M868.05 1750.17c0,0 -162.28,-8.23 -165.45,-79.15 -97.69,176.04 -197.33,522.67 -197.33,522.67 -1.06,25.4 8.47,26.46 8.47,26.46 247.17,73.06 361.73,60.44 361.73,60.44 0,0 139.46,-5.4 361.73,-60.44 0,0 9.52,-1.06 8.47,-26.46 0,0 -98.5,-342.63 -195.64,-519.6 -5.31,69.54 -161.83,76.73 -161.83,76.73l35.11 1.14c0,0 4.01,56.92 -18.22,70.85 19.65,105.37 30.61,133.41 24.26,215.32 -6.35,81.91 -57.16,100.82 -57.16,100.82 4.23,-31.5 -9.04,-182.8 -9.04,-182.8 -31.93,164.12 -81.98,195.5 -81.98,195.5 6.35,-48.81 6.35,-156.9 6.35,-156.9 -8.47,-122.03 64.64,-171.6 64.64,-171.6 0,0 -13,-9.77 -19.2,-74.13l35.08 1.14z"/>
     <path class="fil5" d="M782.61 1640.92c26.81,63.9 85.45,109.25 85.45,109.25l20.15 0.65c0,0 55.77,-44.3 81.86,-107.33 -76.51,-22.62 -187.46,-2.57 -187.46,-2.57z"/>
     <path class="fil6" d="M962.86 1643.49c-26.1,63.03 -81.86,107.33 -81.86,107.33 0,0 156.52,-7.19 161.83,-76.73 -22.77,-41.49 -45.47,-73.87 -66.81,-90.6 -0.34,21.19 -5.46,41.41 -13.15,60z"/>
     <path class="fil6" d="M875.25 1750.17c0,0 -58.64,-45.35 -85.45,-109.25 -7.68,-18.29 -12.74,-38.11 -13.07,-58.82 -21.34,15.89 -44.08,47.74 -66.93,88.92 3.18,70.92 165.45,79.15 165.45,79.15z"/>
     <path class="fil6" d="M970.06 1653.1c-26.1,63.03 -81.86,107.33 -81.86,107.33 0,0 156.52,-7.19 161.83,-76.73 -22.77,-41.49 -45.47,-73.87 -66.81,-90.6 -0.34,21.19 -5.46,41.41 -13.15,60z"/>
     <path class="fil5" d="M970.06 1643.49c-26.1,63.03 -81.86,107.33 -81.86,107.33 0,0 156.52,-7.19 161.83,-76.73 -22.77,-41.49 -45.47,-73.87 -66.81,-90.6 -0.34,21.19 -5.46,41.41 -13.15,60z"/>
     <path class="fil6" d="M868.05 1759.77c0,0 -58.64,-45.35 -85.45,-109.25 -7.68,-18.29 -12.74,-38.11 -13.07,-58.82 -21.34,15.89 -44.08,47.74 -66.93,88.92 3.18,70.92 165.45,79.15 165.45,79.15z"/>
     <path class="fil5" d="M868.05 1750.17c0,0 -58.64,-45.35 -85.45,-109.25 -7.68,-18.29 -12.74,-38.11 -13.07,-58.82 -21.34,15.89 -44.08,47.74 -66.93,88.92 3.18,70.92 165.45,79.15 165.45,79.15z"/>
     <path class="fil7" d="M881.28 1822.97c-4.58,52 -10.89,96 -18.12,133.19 0,0 13.28,151.3 9.04,182.8 0,0 50.8,-18.9 57.16,-100.82 6.35,-81.92 -4.62,-109.95 -24.26,-215.32l-23.82 0.15z"/>
     <path class="fil8" d="M856.97 1823.16c0,0 -73.11,49.57 -64.64,171.6 0,0 0,108.08 -6.35,156.9 0,0 50.06,-31.38 81.98,-195.5 7.23,-37.19 13.54,-81.19 18.12,-133.19l-29.11 0.19z"/>
     <path class="fil7" d="M852.17 1823.16c0,0 -73.11,49.57 -64.64,171.6 0,0 0,108.08 -6.35,156.9 0,0 50.06,-31.38 81.98,-195.5 7.23,-37.19 13.54,-81.19 18.12,-133.19l-29.11 0.19z"/>
     <path class="fil8" d="M832.97 1753.83c6.2,64.36 19.2,74.13 19.2,74.13l29.11 -0.19 23.82 -0.15c22.23,-13.93 18.22,-70.85 18.22,-70.85l-35.11 -1.14 -20.15 -0.66 -35.08 -1.14z"/>
     <path class="fil7" d="M832.97 1749.03c6.2,64.36 19.2,74.13 19.2,74.13l29.11 -0.19 23.82 -0.15c22.23,-13.93 18.22,-70.85 18.22,-70.85l-35.11 -1.14 -20.15 -0.66 -35.08 -1.14z"/>
    </g>
    <g>
     <path class="fil2" d="M592.58 2503.28c0,0 -42.34,-637.19 222.27,-942.02l-46.57 4.23c0,0 -226.51,220.16 -374.69,861.58 0,0 -31.75,44.46 198.99,76.21z"/>
     <path class="fil2" d="M932.8 1560.23c264.61,304.84 222.27,942.02 222.27,942.02 230.74,-31.75 198.99,-76.21 198.99,-76.21 -148.18,-641.42 -374.69,-861.58 -374.69,-861.58l-46.57 -4.23z"/>
    </g>
   </g>
   <g>
    <path class="fil9" d="M1234.42 1046.69c0.05,-1.45 0.07,-2.28 0.07,-2.28 0.16,0.53 0.13,1.3 -0.07,2.28zm-395.38 -186.86c-11.41,-58.47 -15.37,-104.51 0,0zm-365.58 -136.81c-5.27,-22.97 -7.32,-37.11 -7.32,-37.11 0,0 5.87,12.61 7.32,37.11zm211.85 81.55c0,0 43.52,171.9 46.33,183.65 4.17,9.92 98,-6.74 121.06,-31.81 -5.65,-41.11 -10.16,-72.76 -13.66,-96.59 8.13,41.67 20.04,89.65 31.44,93.99 13.05,6.08 49.59,-4.72 60.52,-12.59 0,0 53.74,-159.13 -15.66,-337.95 0,0 109.4,227.12 234.11,241.26 29.87,65.19 57.61,161.46 41.79,277.56 0,0 40.24,-60.79 43.19,-75.41 -0.3,8.84 -1.7,40.99 -6.24,52.57 0,0 17.03,-17.28 31.68,-36.4 85.71,-33.15 100.05,128.49 -33.5,176.79 -12.37,45.01 -32.39,87.75 -58.77,127.78l3.41 41.4c24.81,-5.46 47.42,-60.29 47.42,-60.29l3.35 44.78c46.89,-23.33 133.63,-160.49 133.63,-160.49 28.97,-256.67 -31.44,-322.69 -31.44,-322.69 -148.74,-136.88 -295.8,-238.32 -408.62,-306.85 -122.57,-74.45 -204.73,-110.05 -204.73,-110.05 0,0 -47.53,-3.06 -85.69,1.08 -36.37,12.27 -69.96,31.45 -69.96,31.45 0,0 -219.87,246.43 -381.57,635.93 0,0 -28.35,89.23 116.43,321.42 0,0 136.43,93.83 188.78,95.31l-15.76 -42.05c0,0 43.55,40.27 68.35,34.8l-13.51 -42.99c-47.53,-28.45 -89.6,-63.89 -125.31,-106.14 -141.44,12.25 -190.55,-138.06 -98.96,-144.06 33.62,11.92 90.28,29.13 90.28,29.13 -14.18,-14.35 -33.93,-47.59 -33.93,-47.59 16.15,21.05 36.66,20.95 36.66,20.95 -34.76,-92.45 -45.8,-186.8 -47.15,-264.1 121.7,-143.47 137.17,-243.28 134.19,-293.37 15.51,67.55 58.9,211.43 160.06,296.19 1.82,6.19 70.61,-18.76 78.03,-25.05 0,0 -0.32,-31.07 -7.13,-82.83 -3.88,-29.5 -9.87,-65.73 -19.11,-106.76z"/>
    <path class="fil10" d="M915.33 603.28c112.82,68.53 259.88,169.97 408.62,306.85 0,0 60.41,66.02 31.44,322.69 -1.61,14.25 -3.49,29.09 -5.68,44.54 0,0 -159.51,249.43 -392.8,354.3l0.71 6.76c281.69,-74.94 582.56,-453.26 564.61,-482.09 113.24,-373.55 -284.77,-714.15 -284.77,-714.15 -300.49,-253.65 -450.82,-289.32 -450.82,-289.32 0,0 -111.85,-3.8 -224.71,15.04 -110.34,30.3 -188.55,82.85 -188.55,82.85 0,0 -121.45,95.5 -287.63,451.89 0,0 -218.17,476.24 41.47,767.71 6.77,22.88 396.26,243.4 658.76,204.06 0,0 0,0 -0.74,-2.21 -260.17,10.74 -481.03,-166.42 -481.03,-166.42 -4.98,-7.71 -9.78,-15.27 -14.4,-22.68 -144.79,-232.19 -116.43,-321.42 -116.43,-321.42 161.69,-389.5 381.57,-635.93 381.57,-635.93 0,0 33.59,-19.18 69.96,-31.45 38.16,-4.14 85.69,-1.08 85.69,-1.08 0,0 82.16,35.6 204.73,110.05z"/>
    <path class="fil11" d="M931 941.23c-10.92,7.86 -47.46,18.66 -60.52,12.59 -11.4,-4.33 -23.31,-52.32 -31.44,-93.99 3.5,23.83 8.01,55.48 13.66,96.59 -23.05,25.07 -116.89,41.73 -121.06,31.81 -2.81,-11.75 -46.33,-183.65 -46.33,-183.65 9.24,41.03 15.23,77.26 19.11,106.76 6.81,51.76 7.13,82.83 7.13,82.83 -7.42,6.28 -76.2,31.23 -78.03,25.05 -101.16,-84.76 -144.55,-228.64 -160.06,-296.19 2.97,50.09 -12.49,149.9 -134.19,293.37 1.35,77.31 12.39,171.65 47.15,264.1 0,0 -20.51,0.1 -36.66,-20.95 0,0 19.76,33.23 33.93,47.59 0,0 -56.66,-17.21 -90.28,-29.13 -91.59,6.01 -42.48,156.31 98.96,144.06 35.71,42.25 77.78,77.69 125.31,106.14 70.93,42.45 154.01,69.33 246.24,80.03 31.58,3.66 64.23,5.43 97.83,5.27 29.88,-13.66 58.69,-28.69 86.16,-44.98 91.28,-54.16 167.78,-122.37 219.67,-201.09 26.38,-40.03 46.4,-82.77 58.77,-127.78 133.55,-48.3 119.22,-209.94 33.5,-176.79 -14.65,19.12 -31.68,36.4 -31.68,36.4 4.54,-11.58 5.94,-43.73 6.24,-52.57 -2.95,14.62 -43.19,75.41 -43.19,75.41 15.82,-116.1 -11.92,-212.37 -41.79,-277.56 -124.7,-14.14 -234.11,-241.26 -234.11,-241.26 69.41,178.82 15.66,337.95 15.66,337.95z"/>
    <path class="fil12" d="M763.92 1608.23c-92.24,-10.7 -175.32,-37.58 -246.24,-80.03l13.51 42.99c-24.81,5.46 -68.35,-34.8 -68.35,-34.8l15.76 42.05c-52.35,-1.48 -188.78,-95.31 -188.78,-95.31 4.63,7.41 9.42,14.97 14.4,22.68 0,0 220.86,177.16 481.03,166.42 -1.55,-4.65 -6.37,-19.1 -21.33,-63.98z"/>
    <path class="fil12" d="M1167.59 1367.42c-51.89,78.73 -128.39,146.93 -219.67,201.09l2.34 -0.52 6.66 63.66c233.29,-104.87 392.8,-354.3 392.8,-354.3 2.18,-15.45 4.07,-30.29 5.68,-44.54 0,0 -86.74,137.16 -133.63,160.49l-3.35 -44.78c0,0 -22.61,54.83 -47.42,60.29l-3.41 -41.4z"/>
    <path class="fil13" d="M1234.42 1046.69c0.05,-1.45 0.07,-2.28 0.07,-2.28 0.16,0.53 0.13,1.3 -0.07,2.28zm-395.38 -186.86c-11.41,-58.47 -15.37,-104.51 0,0zm-365.58 -136.81c-5.27,-22.97 -7.32,-37.11 -7.32,-37.11 0,0 5.87,12.61 7.32,37.11zm211.85 81.55c0,0 43.52,171.9 46.33,183.65 4.17,9.92 98,-6.74 121.06,-31.81 -5.65,-41.11 -10.16,-72.76 -13.66,-96.59 8.13,41.67 20.04,89.65 31.44,93.99 13.05,6.08 49.59,-4.72 60.52,-12.59 0,0 53.74,-159.13 -15.66,-337.95 0,0 109.4,227.12 234.11,241.26 29.87,65.19 57.61,161.46 41.79,277.56 0,0 40.24,-60.79 43.19,-75.41 -0.3,8.84 -1.7,40.99 -6.24,52.57 0,0 17.03,-17.28 31.68,-36.4 85.71,-33.15 100.05,128.49 -33.5,176.79 -12.37,45.01 -32.39,87.75 -58.77,127.78l3.41 41.4c24.81,-5.46 47.42,-60.29 47.42,-60.29l3.35 44.78c46.89,-23.33 133.63,-160.49 133.63,-160.49 28.97,-256.67 -31.44,-322.69 -31.44,-322.69 -148.74,-136.88 -295.8,-238.32 -408.62,-306.85 -122.57,-74.45 -204.73,-110.05 -204.73,-110.05 0,0 -47.53,-3.06 -85.69,1.08 -36.37,12.27 -69.96,31.45 -69.96,31.45 0,0 -219.87,246.43 -381.57,635.93 0,0 -28.35,89.23 116.43,321.42 0,0 136.43,93.83 188.78,95.31l-15.76 -42.05c0,0 43.55,40.27 68.35,34.8l-13.51 -42.99c-47.53,-28.45 -89.6,-63.89 -125.31,-106.14 -141.44,12.25 -190.55,-138.06 -98.96,-144.06 33.62,11.92 90.28,29.13 90.28,29.13 -14.18,-14.35 -33.93,-47.59 -33.93,-47.59 16.15,21.05 36.66,20.95 36.66,20.95 -34.76,-92.45 -45.8,-186.8 -47.15,-264.1 121.7,-143.47 137.17,-243.28 134.19,-293.37 15.51,67.55 58.9,211.43 160.06,296.19 1.82,6.19 70.61,-18.76 78.03,-25.05 0,0 -0.32,-31.07 -7.13,-82.83 -3.88,-29.5 -9.87,-65.73 -19.11,-106.76z"/>
    <path class="fil2" d="M915.33 603.28c112.82,68.53 259.88,169.97 408.62,306.85 0,0 60.41,66.02 31.44,322.69 -1.61,14.25 -3.49,29.09 -5.68,44.54 0,0 -159.51,249.43 -392.8,354.3l0.71 6.76c281.69,-74.94 582.56,-453.26 564.61,-482.09 113.24,-373.55 -284.77,-714.15 -284.77,-714.15 -300.49,-253.65 -450.82,-289.32 -450.82,-289.32 0,0 -111.85,-3.8 -224.71,15.04 -110.34,30.3 -188.55,82.85 -188.55,82.85 0,0 -121.45,95.5 -287.63,451.89 0,0 -218.17,476.24 41.47,767.71 6.77,22.88 396.26,243.4 658.76,204.06 0,0 0,0 -0.74,-2.21 -260.17,10.74 -481.03,-166.42 -481.03,-166.42 -4.98,-7.71 -9.78,-15.27 -14.4,-22.68 -144.79,-232.19 -116.43,-321.42 -116.43,-321.42 161.69,-389.5 381.57,-635.93 381.57,-635.93 0,0 33.59,-19.18 69.96,-31.45 38.16,-4.14 85.69,-1.08 85.69,-1.08 0,0 82.16,35.6 204.73,110.05z"/>
    <path class="fil0" d="M931 941.23c-10.92,7.86 -47.46,18.66 -60.52,12.59 -11.4,-4.33 -23.31,-52.32 -31.44,-93.99 3.5,23.83 8.01,55.48 13.66,96.59 -23.05,25.07 -116.89,41.73 -121.06,31.81 -2.81,-11.75 -46.33,-183.65 -46.33,-183.65 9.24,41.03 15.23,77.26 19.11,106.76 6.81,51.76 7.13,82.83 7.13,82.83 -7.42,6.28 -76.2,31.23 -78.03,25.05 -101.16,-84.76 -144.55,-228.64 -160.06,-296.19 2.97,50.09 -12.49,149.9 -134.19,293.37 1.35,77.31 12.39,171.65 47.15,264.1 0,0 -20.51,0.1 -36.66,-20.95 0,0 19.76,33.23 33.93,47.59 0,0 -56.66,-17.21 -90.28,-29.13 -91.59,6.01 -42.48,156.31 98.96,144.06 35.71,42.25 77.78,77.69 125.31,106.14 70.93,42.45 154.01,69.33 246.24,80.03 31.58,3.66 64.23,5.43 97.83,5.27 29.88,-13.66 58.69,-28.69 86.16,-44.98 91.28,-54.16 167.78,-122.37 219.67,-201.09 26.38,-40.03 46.4,-82.77 58.77,-127.78 133.55,-48.3 119.22,-209.94 33.5,-176.79 -14.65,19.12 -31.68,36.4 -31.68,36.4 4.54,-11.58 5.94,-43.73 6.24,-52.57 -2.95,14.62 -43.19,75.41 -43.19,75.41 15.82,-116.1 -11.92,-212.37 -41.79,-277.56 -124.7,-14.14 -234.11,-241.26 -234.11,-241.26 69.41,178.82 15.66,337.95 15.66,337.95z"/>
    <path class="fil12" d="M763.92 1608.23c-92.24,-10.7 -175.32,-37.58 -246.24,-80.03l13.51 42.99c-24.81,5.46 -68.35,-34.8 -68.35,-34.8l15.76 42.05c-52.35,-1.48 -188.78,-95.31 -188.78,-95.31 4.63,7.41 9.42,14.97 14.4,22.68 0,0 220.86,177.16 481.03,166.42 -1.55,-4.65 -6.37,-19.1 -21.33,-63.98z"/>
    <path class="fil12" d="M1167.59 1367.42c-51.89,78.73 -128.39,146.93 -219.67,201.09l2.34 -0.52 6.66 63.66c233.29,-104.87 392.8,-354.3 392.8,-354.3 2.18,-15.45 4.07,-30.29 5.68,-44.54 0,0 -86.74,137.16 -133.63,160.49l-3.35 -44.78c0,0 -22.61,54.83 -47.42,60.29l-3.41 -41.4z"/>
    <path class="fil14" d="M308.11 456.45c52.58,120.65 139.33,140.56 -6.44,354.74 0,0 -137.57,209.08 -167.03,166.83 -49.94,-71.63 131.43,-539.51 173.46,-521.56z"/>
    <path class="fil14" d="M912.63 316.85c2.95,131.58 -67.42,186.08 154.82,319.24 0,0 212.65,131.98 221.65,81.26 15.24,-85.98 -345.85,-434.44 -376.46,-400.5z"/>
    <path class="fil2" d="M172.54 1488.84c-28.47,16.74 -30.89,136.05 -30.89,136.05 -91.92,-44.12 -133.93,-536.05 -133.93,-536.05l164.83 399.99z"/>
    <path class="fil2" d="M713.33 190.85c32.53,-14.83 -80.57,-178.68 -178.26,-190.85 -83.97,61.84 -129.93,256.86 -81.72,246.24 30.47,-14.11 81.07,3.21 123.95,-8.57 53.76,-8.97 94.71,-45.27 136.03,-46.83z"/>
    <path class="fil2" d="M1478.5 1218.66c32.87,3.24 85.17,110.5 85.17,110.5 64.9,-78.65 -103.56,-542.73 -103.56,-542.73l18.39 432.23z"/>
   </g>
   <g>
    <ellipse class="fil1" transform="matrix(-0.536525 -0.481864 0.481864 -0.536525 675.33 1530.5)" rx="79.38" ry="110.08"/>
    <path class="fil2" d="M496.91 2065.2c-26.74,40.92 -58.41,91.87 -130.86,74.8 -58.53,-33.3 -46.8,-65.34 -19.1,-149.33 98.38,-300.84 192.17,-457.96 200.09,-445.09 10.17,16.54 53.97,-18.07 53.97,-18.07 -1.21,3.46 -1.95,5.86 -1.95,5.86 0.78,8.43 116.44,64.26 116.44,64.26l7.65 -15.05c32.3,4.48 24.7,37.6 24.7,37.6 -79.19,148.51 -168.1,305.17 -250.94,445.03z"/>
    <path class="fil3" d="M599.05 1533.37c0.78,8.43 116.44,64.26 116.44,64.26l7.65 -15.05 4.77 -23.29c-1.68,-6.75 -112.55,-56.64 -112.55,-56.64 -5.24,0.86 -11.33,16.19 -14.37,24.86 -1.21,3.46 -1.95,5.86 -1.95,5.86z"/>
   </g>
   <path class="fil15" d="M1057.9 1005.28l-59.04 19.08c-24.55,0 -44.46,29.85 -44.46,66.68 0,36.83 19.9,66.68 44.46,66.68 24.55,0 44.46,-29.85 44.46,-66.68 0,-15.06 -3.33,-28.95 -8.94,-40.12l23.53 -45.64z"/>
   <path class="fil15" d="M672.63 1079.37l-59.04 19.08c-24.55,0 -44.46,29.85 -44.46,66.68 0,36.83 19.9,66.68 44.46,66.68 24.55,0 44.46,-29.85 44.46,-66.68 0,-15.06 -3.33,-28.95 -8.94,-40.12l23.53 -45.64z"/>
   <path class="fil16" d="M794.78 1445.6l122.78 -9.53c0,0 10.06,-27.52 -50.8,-93.67 -79.38,67.21 -71.97,103.2 -71.97,103.2z"/>
   <g>
    <ellipse class="fil1" transform="matrix(-0.536525 -0.481864 0.481864 -0.536525 675.33 1530.5)" rx="79.38" ry="110.08"/>
    <path class="fil2" d="M496.91 2065.2c-26.74,40.92 -58.41,91.87 -130.86,74.8 -58.53,-33.3 -46.8,-65.34 -19.1,-149.33 98.38,-300.84 192.17,-457.96 200.09,-445.09 10.17,16.54 53.97,-18.07 53.97,-18.07 -1.21,3.46 -1.95,5.86 -1.95,5.86 0.78,8.43 116.44,64.26 116.44,64.26l7.65 -15.05c32.3,4.48 24.7,37.6 24.7,37.6 -79.19,148.51 -168.1,305.17 -250.94,445.03z"/>
    <path class="fil3" d="M599.05 1533.37c0.78,8.43 116.44,64.26 116.44,64.26l7.65 -15.05 4.77 -23.29c-1.68,-6.75 -112.55,-56.64 -112.55,-56.64 -5.24,0.86 -11.33,16.19 -14.37,24.86 -1.21,3.46 -1.95,5.86 -1.95,5.86z"/>
   </g>
  </g>
 </g>
</svg>
