<?xml version="1.0" encoding="UTF-8"?>
<!DOCTYPE svg PUBLIC "-//W3C//DTD SVG 1.1//EN" "http://www.w3.org/Graphics/SVG/1.1/DTD/svg11.dtd">
<!-- Creator: CorelDRAW 2018 (64-Bit) -->
<svg xmlns="http://www.w3.org/2000/svg" xml:space="preserve" width="67.4255mm" height="167.762mm" version="1.1" style="shape-rendering:geometricPrecision; text-rendering:geometricPrecision; image-rendering:optimizeQuality; fill-rule:evenodd; clip-rule:evenodd"
viewBox="0 0 2543.04 6327.36"
 xmlns:xlink="http://www.w3.org/1999/xlink">
 <defs>
  <style type="text/css">
   <![CDATA[
    .fil8 {fill:#ED84B1}
    .fil15 {fill:#ECA4A9}
    .fil4 {fill:#F2F6FB}
    .fil13 {fill:#E1E9ED}
    .fil5 {fill:#C7D5E3}
    .fil6 {fill:#BDE2E9}
    .fil9 {fill:#9499A1}
    .fil7 {fill:#8BAEB6}
    .fil2 {fill:#403C37}
    .fil11 {fill:#494F57}
    .fil14 {fill:#3C414A}
    .fil0 {fill:#3C4654}
    .fil3 {fill:#2E343B}
    .fil12 {fill:#A570FF}
    .fil16 {fill:#FFB096}
    .fil1 {fill:#FFC6B7}
    .fil10 {fill:#F7F1E4}
   ]]>
  </style>
 </defs>
 <g id="Layer_x0020_1">
  <metadata id="CorelCorpID_0Corel-Layer"/>
  <g id="_2553433210032">
   <path class="fil0" d="M2096.4 3245.72c-5.4,54.81 -0.83,102.13 -64.45,134.49 -63.42,23.67 -113.55,19.9 -159.52,3.65 -56.05,-129.85 -114.35,-277.83 -171.89,-443.27 -170.65,-96.19 -207.65,-323.47 -207.65,-323.47 0,0 129.94,5.64 299.44,222.29 86.8,110.95 192.1,251.52 304.06,406.31z"/>
   <ellipse class="fil1" cx="1285.68" cy="2243.85" rx="252.8" ry="505.61"/>
   <g>
    <path class="fil1" d="M1187.21 4390.47c-194.3,-809.43 -562.16,-143.04 -562.16,-143.04 0,0 39.41,152.18 85.09,340.83 0.19,0.78 0.38,1.57 0.57,2.35 13.28,26.42 250.77,132.64 434.04,71.9 23.66,-151.87 42.46,-272.05 42.46,-272.05z"/>
    <path class="fil2" d="M1144.75 4662.52c-183.27,60.74 -420.76,-45.48 -434.04,-71.9 61.21,252.85 133.4,570.17 137.2,674.69 6.65,182.95 -39.92,741.78 29.94,814.96 0,0 93.14,53.22 172.97,-43.24 -6.65,-103.12 -9.98,-691.89 0,-765.06 6.13,-44.96 56.21,-367.44 93.92,-609.44z"/>
    <path class="fil3" d="M1050.83 6037.03c-79.83,96.46 -172.97,43.24 -172.97,43.24 0,0 66.48,192.91 172.93,222.85 106.45,29.94 0.05,-266.09 0.05,-266.09z"/>
   </g>
   <g>
    <path class="fil1" d="M1362.24 4412.59c194.3,-809.43 562.16,-143.04 562.16,-143.04 0,0 -39.41,152.18 -85.09,340.83 -0.19,0.78 -0.38,1.57 -0.57,2.35 -13.28,26.42 -250.77,132.64 -434.04,71.9 -23.66,-151.87 -42.46,-272.05 -42.46,-272.05z"/>
    <path class="fil2" d="M1404.7 4684.64c183.27,60.74 420.76,-45.48 434.04,-71.9 -61.21,252.85 -133.4,570.17 -137.2,674.69 -6.65,182.95 39.92,741.78 -29.94,814.96 0,0 -93.14,53.22 -172.97,-43.24 6.65,-103.12 9.98,-691.89 0,-765.06 -6.13,-44.96 -56.21,-367.44 -93.92,-609.44z"/>
    <path class="fil3" d="M1498.63 6059.14c79.83,96.46 172.97,43.24 172.97,43.24 0,0 -66.48,192.91 -172.93,222.85 -106.45,29.94 -0.05,-266.09 -0.05,-266.09z"/>
   </g>
   <g>
    <g>
     <path class="fil4" d="M1164.28 3679.67c-73.66,185.84 -101.05,771.49 -106.11,895.91 0,0 185.61,21.63 207.24,16.64 21.62,4.99 215.04,-21.13 215.04,-21.13 -5.06,-124.42 -32.45,-710.07 -106.11,-895.91l-210.05 4.49z"/>
     <path class="fil5" d="M954.09 3649.77c-113.36,426.76 -160.28,767.39 -172.65,867.9 0,0 193.24,48.47 294.69,85.06 0,0 0.29,-8.31 0.9,-23.38 5.06,-124.42 32.45,-710.07 106.11,-895.91l-229.05 -33.67z"/>
     <path class="fil4" d="M935.23 3646c-113.36,426.76 -160.28,767.39 -172.65,867.9 0,0 193.24,48.47 294.69,85.06 0,0 0.29,-8.31 0.9,-23.38 5.06,-124.42 32.45,-710.07 106.11,-895.91l-229.05 -33.67z"/>
     <path class="fil5" d="M954.09 3653.54l-210.36 -52.38c0,0 -254.69,632.77 -254.69,863.96 0,0 228.99,40.02 288.87,86.59 0,0 1.09,-10.48 3.53,-30.26 12.37,-100.51 59.28,-441.14 172.65,-867.9z"/>
     <path class="fil4" d="M935.23 3646l-210.36 -52.38c0,0 -254.69,632.77 -254.69,863.96 0,0 228.99,40.02 288.87,86.59 0,0 1.09,-10.48 3.53,-30.26 12.37,-100.51 59.28,-441.14 172.65,-867.9z"/>
     <path class="fil5" d="M1355.47 3678.95c73.66,185.84 101.05,771.49 106.11,895.91 0.61,15.08 0.9,23.38 0.9,23.38 101.45,-36.59 294.69,-85.06 294.69,-85.06 -12.37,-100.51 -59.28,-441.14 -172.65,-867.9l-229.05 33.67z"/>
     <path class="fil4" d="M1374.33 3675.18c73.66,185.84 101.05,771.49 106.11,895.91 0.61,15.08 0.9,23.38 0.9,23.38 101.45,-36.59 294.69,-85.06 294.69,-85.06 -12.37,-100.51 -59.28,-441.14 -172.65,-867.9l-229.05 33.67z"/>
     <path class="fil5" d="M1580.76 3649.05c113.36,426.76 160.28,767.39 172.65,867.9 2.44,19.79 3.53,30.26 3.53,30.26 59.87,-46.57 288.87,-86.59 288.87,-86.59 0,-231.19 -254.69,-863.96 -254.69,-863.96l-210.36 52.38z"/>
     <path class="fil4" d="M1603.39 3641.51c113.36,426.76 160.28,767.39 172.65,867.9 2.44,19.79 3.53,30.26 3.53,30.26 59.87,-46.57 288.87,-86.59 288.87,-86.59 0,-231.19 -254.69,-863.96 -254.69,-863.96l-210.36 52.38z"/>
    </g>
    <g>
     <path class="fil5" d="M1271.34 2855.84c0,0 -254.99,-12.93 -259.98,-124.37 -153.5,276.62 -310.08,821.29 -310.08,821.29 -1.66,39.92 13.3,41.58 13.3,41.58 388.39,114.81 568.4,94.97 568.4,94.97 0,0 219.13,-8.48 568.4,-94.97 0,0 14.97,-1.66 13.3,-41.58 0,0 -154.77,-538.39 -307.41,-816.46 -8.34,109.27 -254.28,120.57 -254.28,120.57l55.17 1.79c0,0 6.3,89.44 -28.62,111.33 30.87,165.57 48.1,209.63 38.12,338.35 -9.98,128.71 -89.81,158.42 -89.81,158.42 6.65,-49.5 -14.21,-287.24 -14.21,-287.24 -50.17,257.89 -128.82,307.2 -128.82,307.2 9.98,-76.7 9.98,-246.54 9.98,-246.54 -13.31,-191.75 101.58,-269.65 101.58,-269.65 0,0 -20.42,-15.36 -30.17,-116.48l55.12 1.79z"/>
     <path class="fil4" d="M1271.34 2836.99c0,0 -254.99,-12.93 -259.98,-124.37 -153.5,276.62 -310.08,821.29 -310.08,821.29 -1.66,39.92 13.3,41.58 13.3,41.58 388.39,114.81 568.4,94.97 568.4,94.97 0,0 219.13,-8.48 568.4,-94.97 0,0 14.97,-1.66 13.3,-41.58 0,0 -154.77,-538.39 -307.41,-816.46 -8.34,109.27 -254.28,120.57 -254.28,120.57l55.17 1.79c0,0 6.3,89.44 -28.62,111.33 30.87,165.57 48.1,209.63 38.12,338.35 -9.98,128.71 -89.81,158.42 -89.81,158.42 6.65,-49.5 -14.21,-287.24 -14.21,-287.24 -50.17,257.89 -128.82,307.2 -128.82,307.2 9.98,-76.7 9.98,-246.54 9.98,-246.54 -13.31,-191.75 101.58,-269.65 101.58,-269.65 0,0 -20.42,-15.36 -30.17,-116.48l55.12 1.79z"/>
     <path class="fil4" d="M1137.07 2665.32c42.13,100.41 134.27,171.66 134.27,171.67l31.66 1.03c0,0 87.63,-69.61 128.63,-168.65 -120.22,-35.55 -294.56,-4.04 -294.56,-4.04z"/>
     <path class="fil5" d="M1420.31 2669.37c-41.01,99.04 -128.63,168.65 -128.63,168.65 0,0 245.94,-11.3 254.28,-120.57 -35.79,-65.19 -71.45,-116.08 -104.98,-142.36 -0.54,33.3 -8.57,65.08 -20.67,94.29z"/>
     <path class="fil5" d="M1282.65 2836.99c0,0 -92.14,-71.25 -134.27,-171.66 -12.06,-28.75 -20.02,-59.89 -20.54,-92.43 -33.53,24.97 -69.27,75.01 -105.17,139.72 4.99,111.44 259.98,124.37 259.98,124.37z"/>
     <path class="fil5" d="M1431.63 2684.45c-41.01,99.04 -128.63,168.65 -128.63,168.65 0,0 245.94,-11.3 254.28,-120.57 -35.79,-65.19 -71.45,-116.08 -104.98,-142.36 -0.54,33.3 -8.57,65.08 -20.67,94.29z"/>
     <path class="fil4" d="M1431.63 2669.37c-41.01,99.04 -128.63,168.65 -128.63,168.65 0,0 245.94,-11.3 254.28,-120.57 -35.79,-65.19 -71.45,-116.08 -104.98,-142.36 -0.54,33.3 -8.57,65.08 -20.67,94.29z"/>
     <path class="fil5" d="M1271.34 2852.07c0,0 -92.14,-71.25 -134.27,-171.66 -12.06,-28.75 -20.02,-59.89 -20.54,-92.43 -33.53,24.97 -69.27,75.01 -105.17,139.72 4.99,111.44 259.98,124.37 259.98,124.37z"/>
     <path class="fil4" d="M1271.34 2836.99c0,0 -92.14,-71.25 -134.27,-171.66 -12.06,-28.75 -20.02,-59.89 -20.54,-92.43 -33.53,24.97 -69.27,75.01 -105.17,139.72 4.99,111.44 259.98,124.37 259.98,124.37z"/>
     <path class="fil6" d="M1292.12 2951.38c-7.2,81.7 -17.1,150.85 -28.47,209.28 0,0 20.86,237.74 14.21,287.24 0,0 79.83,-29.7 89.81,-158.42 9.98,-128.72 -7.25,-172.77 -38.12,-338.35l-37.43 0.24z"/>
     <path class="fil7" d="M1253.92 2951.68c0,0 -114.88,77.89 -101.58,269.65 0,0 0,169.84 -9.98,246.54 0,0 78.65,-49.31 128.82,-307.2 11.37,-58.43 21.28,-127.58 28.47,-209.28l-45.74 0.3z"/>
     <path class="fil6" d="M1246.38 2951.68c0,0 -114.88,77.89 -101.58,269.65 0,0 0,169.84 -9.98,246.54 0,0 78.65,-49.31 128.82,-307.2 11.37,-58.43 21.28,-127.58 28.47,-209.28l-45.74 0.3z"/>
     <path class="fil7" d="M1216.21 2842.74c9.74,101.12 30.17,116.48 30.17,116.48l45.74 -0.3 37.43 -0.24c34.93,-21.89 28.62,-111.33 28.62,-111.33l-55.17 -1.79 -31.66 -1.03 -55.12 -1.79z"/>
     <path class="fil6" d="M1216.21 2835.2c9.74,101.12 30.17,116.48 30.17,116.48l45.74 -0.3 37.43 -0.24c34.93,-21.89 28.62,-111.33 28.62,-111.33l-55.17 -1.79 -31.66 -1.03 -55.12 -1.79z"/>
    </g>
    <g>
     <path class="fil0" d="M838.48 4020.38c0,0 -66.53,-1001.23 349.27,-1480.23l-73.18 6.65c0,0 -355.92,345.94 -588.77,1353.83 0,0 -49.89,69.85 312.68,119.75z"/>
     <path class="fil0" d="M1373.07 2538.53c415.8,479 349.27,1480.23 349.27,1480.23 362.57,-49.89 312.68,-119.75 312.68,-119.75 -232.85,-1007.89 -588.77,-1353.83 -588.77,-1353.83l-73.18 -6.65z"/>
    </g>
   </g>
   <g>
    <path class="fil8" d="M2041.98 1842.51c0.57,-2.21 0.88,-3.47 0.88,-3.47 0.06,0.87 -0.25,2.04 -0.88,3.47zm-543.61 -420.34c2.25,-93.59 11.73,-165.56 0,0zm-514.79 -333.45c-0.33,-37.02 1.3,-59.42 1.3,-59.42 0,0 4.74,21.33 -1.3,59.42zm297.55 196.72c0,0 8.71,278.5 9.06,297.48 3.05,16.64 152.67,22.77 196.52,-7.91 5.22,-65 8.99,-115.1 11.66,-152.84 -1.6,66.69 0.46,144.35 16.49,154.86 17.98,13.73 77.7,9.5 97.12,1.13 0,0 136.24,-226.04 90.14,-523.9 0,0 91.15,385.49 277.75,449.32 23.81,110.14 33.87,267.24 -29.65,440.06 0,0 82.29,-79.69 91.76,-101.12 -3.45,13.46 -16.45,62.33 -27.33,78.56 0,0 31.97,-20.77 60.91,-45.16 142.73,-21.91 110.12,230.98 -111.14,259.99 -34.19,64.89 -79.36,123.72 -133.36,176.23l-8.75 64.68c39.92,0 93.14,-76.5 93.14,-76.5l-9.98 69.85c79.83,-19.96 259.28,-201.14 259.28,-201.14 131.17,-384.1 60.77,-505.82 60.77,-505.82 -182,-260.3 -373.41,-465.65 -523.39,-608.93 -162.94,-155.66 -277,-238.05 -277,-238.05 0,0 -71.9,-20.75 -131.86,-27.29 -59.97,6.54 -117.99,24.63 -117.99,24.63 0,0 -420.67,303.89 -800.39,846.98 0,0 -73.66,127.35 70.09,532.58 0,0 177.66,190.09 257.49,210.05l-9.98 -69.85c0,0 53.23,76.5 93.14,76.5l-6.2 -70.53c-63.33,-59.72 -115.91,-128.32 -156.43,-205.22 -221.19,-29 -245.77,-276.24 -103.19,-254.51 47.56,29.65 128.7,75.2 128.7,75.2 -16.91,-26.81 -36,-84.49 -36,-84.49 17.68,37.77 49.18,44.54 49.18,44.54 -22.1,-153.61 -7.18,-302.13 16.87,-421.22 235.24,-179.04 292.69,-326.99 305.05,-404.86 0.97,108.91 18.96,344.36 145.56,508.6 0.71,10.11 114.7,-4.94 128.2,-12.08 0,0 10.01,-47.79 17.05,-129.52 4.01,-46.59 7.06,-104.2 6.74,-170.29z"/>
    <path class="fil9" d="M1702.12 1054.26c149.99,143.28 341.39,348.63 523.39,608.93 0,0 70.4,121.72 -60.77,505.82 -7.28,21.33 -15.19,43.46 -23.76,66.43 0,0 -329.05,328.89 -722.49,411.01l-1.2 10.62c457.59,-19.84 1047.11,-498.75 1029.31,-549.07 299.98,-534.99 -195.72,-1192.12 -195.72,-1192.12 -375.42,-490.77 -594.07,-596.29 -594.07,-596.29 0,0 -170.36,-43.62 -349.92,-52.84 -179.56,9.22 -317.34,63.45 -317.34,63.45 0,0 -218.65,105.53 -594.07,596.29 0,0 -495.71,657.13 -195.72,1192.12 2.65,37.4 525.86,507.39 941.99,535.71 0,0 0,0 -0.38,-3.64 -402.89,-71.41 -681.96,-417.9 -681.96,-417.9 -5.04,-13.51 -9.85,-26.73 -14.44,-39.67 -143.74,-405.24 -70.09,-532.58 -70.09,-532.58 379.72,-543.09 800.39,-846.98 800.39,-846.98 0,0 58.02,-18.08 117.99,-24.63 59.97,6.54 131.86,27.29 131.86,27.29 0,0 114.06,82.4 277,238.05z"/>
    <path class="fil10" d="M1611.98 1578.16c-19.42,8.38 -79.14,12.6 -97.12,-1.13 -16.03,-10.5 -18.09,-88.17 -16.49,-154.86 -2.67,37.75 -6.45,87.84 -11.66,152.84 -43.85,30.68 -193.47,24.55 -196.52,7.91 -0.34,-18.98 -9.06,-297.48 -9.06,-297.48 0.32,66.08 -2.73,123.7 -6.74,170.29 -7.04,81.73 -17.05,129.52 -17.05,129.52 -13.51,7.14 -127.49,22.18 -128.2,12.08 -126.6,-164.24 -144.59,-399.7 -145.56,-508.6 -12.36,77.87 -69.81,225.82 -305.05,404.86 -24.05,119.09 -38.97,267.6 -16.87,421.22 0,0 -31.5,-6.77 -49.18,-44.54 0,0 19.09,57.68 36,84.49 0,0 -81.14,-45.55 -128.7,-75.2 -142.58,-21.72 -118,225.52 103.19,254.51 40.52,76.9 93.1,145.5 156.43,205.22 94.5,89.1 212.91,158.43 350.84,206.01 47.22,16.29 96.73,30.03 148.35,41.14 50.47,-10.87 99.76,-24.2 147.42,-39.92 158.38,-52.27 298.81,-131.09 405.04,-234.38 54.01,-52.51 99.17,-111.35 133.36,-176.23 221.27,-29 253.88,-281.89 111.14,-259.99 -28.94,24.39 -60.91,45.16 -60.91,45.16 10.88,-16.23 23.88,-65.09 27.33,-78.56 -9.47,21.44 -91.76,101.12 -91.76,101.12 63.51,-172.82 53.46,-329.92 29.65,-440.06 -186.59,-63.82 -277.75,-449.32 -277.75,-449.32 46.1,297.86 -90.14,523.9 -90.14,523.9z"/>
    <path class="fil11" d="M1130.25 2545.28c-137.93,-47.58 -256.34,-116.9 -350.84,-206.01l6.2 70.53c-39.92,0 -93.14,-76.5 -93.14,-76.5l9.98 69.85c-79.83,-19.96 -257.49,-210.05 -257.49,-210.05 4.59,12.94 9.4,26.16 14.44,39.67 0,0 279.07,346.48 681.96,417.9 -0.81,-7.66 -3.32,-31.47 -11.11,-105.39z"/>
    <path class="fil11" d="M1831.05 2312.13c-106.23,103.29 -246.66,182.11 -405.04,234.38l3.77 0 -11.29 99.94c393.44,-82.12 722.49,-411.01 722.49,-411.01 8.57,-22.97 16.48,-45.1 23.76,-66.43 0,0 -179.45,181.18 -259.28,201.14l9.98 -69.85c0,0 -53.23,76.5 -93.14,76.5l8.75 -64.68z"/>
    <path class="fil12" d="M2041.98 1842.51c0.57,-2.21 0.88,-3.47 0.88,-3.47 0.06,0.87 -0.25,2.04 -0.88,3.47zm-543.61 -420.34c2.25,-93.59 11.73,-165.56 0,0zm-514.79 -333.45c-0.33,-37.02 1.3,-59.42 1.3,-59.42 0,0 4.74,21.33 -1.3,59.42zm297.55 196.72c0,0 8.71,278.5 9.06,297.48 3.05,16.64 152.67,22.77 196.52,-7.91 5.22,-65 8.99,-115.1 11.66,-152.84 -1.6,66.69 0.46,144.35 16.49,154.86 17.98,13.73 77.7,9.5 97.12,1.13 0,0 136.24,-226.04 90.14,-523.9 0,0 91.15,385.49 277.75,449.32 23.81,110.14 33.87,267.24 -29.65,440.06 0,0 82.29,-79.69 91.76,-101.12 -3.45,13.46 -16.45,62.33 -27.33,78.56 0,0 31.97,-20.77 60.91,-45.16 142.73,-21.91 110.12,230.98 -111.14,259.99 -34.19,64.89 -79.36,123.72 -133.36,176.23l-8.75 64.68c39.92,0 93.14,-76.5 93.14,-76.5l-9.98 69.85c79.83,-19.96 259.28,-201.14 259.28,-201.14 131.17,-384.1 60.77,-505.82 60.77,-505.82 -182,-260.3 -373.41,-465.65 -523.39,-608.93 -162.94,-155.66 -277,-238.05 -277,-238.05 0,0 -71.9,-20.75 -131.86,-27.29 -59.97,6.54 -117.99,24.63 -117.99,24.63 0,0 -420.67,303.89 -800.39,846.98 0,0 -73.66,127.35 70.09,532.58 0,0 177.66,190.09 257.49,210.05l-9.98 -69.85c0,0 53.23,76.5 93.14,76.5l-6.2 -70.53c-63.33,-59.72 -115.91,-128.32 -156.43,-205.22 -221.19,-29 -245.77,-276.24 -103.19,-254.51 47.56,29.65 128.7,75.2 128.7,75.2 -16.91,-26.81 -36,-84.49 -36,-84.49 17.68,37.77 49.18,44.54 49.18,44.54 -22.1,-153.61 -7.18,-302.13 16.87,-421.22 235.24,-179.04 292.69,-326.99 305.05,-404.86 0.97,108.91 18.96,344.36 145.56,508.6 0.71,10.11 114.7,-4.94 128.2,-12.08 0,0 10.01,-47.79 17.05,-129.52 4.01,-46.59 7.06,-104.2 6.74,-170.29z"/>
    <path class="fil0" d="M1702.12 1054.26c149.99,143.28 341.39,348.63 523.39,608.93 0,0 70.4,121.72 -60.77,505.82 -7.28,21.33 -15.19,43.46 -23.76,66.43 0,0 -329.05,328.89 -722.49,411.01l-1.2 10.62c457.59,-19.84 1047.11,-498.75 1029.31,-549.07 299.98,-534.99 -195.72,-1192.12 -195.72,-1192.12 -375.42,-490.77 -594.07,-596.29 -594.07,-596.29 0,0 -170.36,-43.62 -349.92,-52.84 -179.56,9.22 -317.34,63.45 -317.34,63.45 0,0 -218.65,105.53 -594.07,596.29 0,0 -495.71,657.13 -195.72,1192.12 2.65,37.4 525.86,507.39 941.99,535.71 0,0 0,0 -0.38,-3.64 -402.89,-71.41 -681.96,-417.9 -681.96,-417.9 -5.04,-13.51 -9.85,-26.73 -14.44,-39.67 -143.74,-405.24 -70.09,-532.58 -70.09,-532.58 379.72,-543.09 800.39,-846.98 800.39,-846.98 0,0 58.02,-18.08 117.99,-24.63 59.97,6.54 131.86,27.29 131.86,27.29 0,0 114.06,82.4 277,238.05z"/>
    <path class="fil1" d="M1611.98 1578.16c-19.42,8.38 -79.14,12.6 -97.12,-1.13 -16.03,-10.5 -18.09,-88.17 -16.49,-154.86 -2.67,37.75 -6.45,87.84 -11.66,152.84 -43.85,30.68 -193.47,24.55 -196.52,7.91 -0.34,-18.98 -9.06,-297.48 -9.06,-297.48 0.32,66.08 -2.73,123.7 -6.74,170.29 -7.04,81.73 -17.05,129.52 -17.05,129.52 -13.51,7.14 -127.49,22.18 -128.2,12.08 -126.6,-164.24 -144.59,-399.7 -145.56,-508.6 -12.36,77.87 -69.81,225.82 -305.05,404.86 -24.05,119.09 -38.97,267.6 -16.87,421.22 0,0 -31.5,-6.77 -49.18,-44.54 0,0 19.09,57.68 36,84.49 0,0 -81.14,-45.55 -128.7,-75.2 -142.58,-21.72 -118,225.52 103.19,254.51 40.52,76.9 93.1,145.5 156.43,205.22 94.5,89.1 212.91,158.43 350.84,206.01 47.22,16.29 96.73,30.03 148.35,41.14 50.47,-10.87 99.76,-24.2 147.42,-39.92 158.38,-52.27 298.81,-131.09 405.04,-234.38 54.01,-52.51 99.17,-111.35 133.36,-176.23 221.27,-29 253.88,-281.89 111.14,-259.99 -28.94,24.39 -60.91,45.16 -60.91,45.16 10.88,-16.23 23.88,-65.09 27.33,-78.56 -9.47,21.44 -91.76,101.12 -91.76,101.12 63.51,-172.82 53.46,-329.92 29.65,-440.06 -186.59,-63.82 -277.75,-449.32 -277.75,-449.32 46.1,297.86 -90.14,523.9 -90.14,523.9z"/>
    <path class="fil11" d="M1130.25 2545.28c-137.93,-47.58 -256.34,-116.9 -350.84,-206.01l6.2 70.53c-39.92,0 -93.14,-76.5 -93.14,-76.5l9.98 69.85c-79.83,-19.96 -257.49,-210.05 -257.49,-210.05 4.59,12.94 9.4,26.16 14.44,39.67 0,0 279.07,346.48 681.96,417.9 -0.81,-7.66 -3.32,-31.47 -11.11,-105.39z"/>
    <path class="fil11" d="M1831.05 2312.13c-106.23,103.29 -246.66,182.11 -405.04,234.38l3.77 0 -11.29 99.94c393.44,-82.12 722.49,-411.01 722.49,-411.01 8.57,-22.97 16.48,-45.1 23.76,-66.43 0,0 -179.45,181.18 -259.28,201.14l9.98 -69.85c0,0 -53.23,76.5 -93.14,76.5l8.75 -64.68z"/>
    <path class="fil13" d="M819.88 623.78c39.92,202.91 166.33,262.78 -129.73,542.2 0,0 -281.75,274.37 -312.68,199.58 -52.44,-126.79 383.97,-783.53 442.4,-741.78z"/>
    <path class="fil13" d="M1794.74 613.8c-39.92,202.91 -166.33,262.78 129.73,542.2 0,0 281.75,274.37 312.68,199.58 52.44,-126.79 -383.97,-783.53 -442.4,-741.78z"/>
    <path class="fil0" d="M263.05 2162.27c-49.35,16.07 -93.37,198.35 -93.37,198.35 -126.16,-98.76 -24.43,-867.86 -24.43,-867.86l117.81 669.51z"/>
    <path class="fil0" d="M1531.47 353.1c54.93,-11.77 -63.28,-301.42 -209.08,-353.1 -149.75,66.53 -286.16,350.28 -208.61,350.28 51.53,-11.36 123.32,32.32 193.11,28.73 85.52,4.39 160.64,-37.47 224.57,-25.91z"/>
    <path class="fil0" d="M2358.43 2188.88c49.35,16.07 93.37,198.35 93.37,198.35 126.16,-98.76 24.43,-867.86 24.43,-867.86l-117.81 669.51z"/>
   </g>
   <path class="fil14" d="M892.01 1655.55l92.78 29.98c38.58,0 69.85,46.91 69.85,104.78 0,57.87 -31.27,104.78 -69.85,104.78 -38.58,0 -69.85,-46.91 -69.85,-104.78 0,-23.67 5.23,-45.5 14.05,-63.04l-36.98 -71.72z"/>
   <path class="fil14" d="M1711.64 1670.79l-92.78 29.98c-38.58,0 -69.85,46.91 -69.85,104.78 0,57.87 31.27,104.78 69.85,104.78 38.58,0 69.85,-46.91 69.85,-104.78 0,-23.67 -5.23,-45.5 -14.05,-63.04l36.98 -71.72z"/>
   <path class="fil15" d="M1069.52 2158.75l447.4 0c0,0 -56.55,209.56 -219.54,207.9 -162.99,-1.66 -227.86,-207.9 -227.86,-207.9z"/>
   <g>
    <ellipse class="fil16" transform="matrix(0.719786 0.044274 0.044274 -0.719786 2276.22 2376.65)" rx="124.74" ry="172.97"/>
    <path class="fil0" d="M1874.18 3165.89c-16.35,75.06 -38.48,166.68 60.5,228.99 101.82,28.83 124.76,-19.63 188.27,-143.24 228.41,-441.79 300.96,-720.03 277.81,-714.71 -29.73,6.84 -39.26,-80.35 -39.26,-80.35 -2.54,5.17 -4.42,8.64 -4.42,8.64 -10.3,8.43 -200.31,-59.54 -200.31,-59.54l8.42 -25.16c-40.62,-31.23 -69.33,13.79 -69.33,13.79 -78.99,252.38 -156.4,524.65 -221.69,771.58z"/>
    <path class="fil3" d="M2357.09 2465.22c-10.3,8.43 -200.31,-59.54 -200.31,-59.54l8.42 -25.16 20.82 -31.02c9.42,-5.56 187.5,63.58 187.5,63.58 4.82,6.82 -5.64,30.53 -12,43.5 -2.54,5.17 -4.42,8.64 -4.42,8.64z"/>
   </g>
   <g>
    <ellipse class="fil16" transform="matrix(0.719786 0.044274 0.044274 -0.719786 2276.22 2376.65)" rx="124.74" ry="172.97"/>
    <path class="fil0" d="M1874.18 3165.89c-16.35,75.06 -38.48,166.68 60.5,228.99 101.82,28.83 124.76,-19.63 188.27,-143.24 228.41,-441.79 300.96,-720.03 277.81,-714.71 -29.73,6.84 -39.26,-80.35 -39.26,-80.35 -2.54,5.17 -4.42,8.64 -4.42,8.64 -10.3,8.43 -200.31,-59.54 -200.31,-59.54l8.42 -25.16c-40.62,-31.23 -69.33,13.79 -69.33,13.79 -78.99,252.38 -156.4,524.65 -221.69,771.58z"/>
    <path class="fil3" d="M2357.09 2465.22c-10.3,8.43 -200.31,-59.54 -200.31,-59.54l8.42 -25.16 20.82 -31.02c9.42,-5.56 187.5,63.58 187.5,63.58 4.82,6.82 -5.64,30.53 -12,43.5 -2.54,5.17 -4.42,8.64 -4.42,8.64z"/>
   </g>
   <g>
    <ellipse class="fil16" transform="matrix(0.490278 0.528848 -0.528848 0.490278 110.049 4053.69)" rx="124.74" ry="172.97"/>
    <path class="fil0" d="M861.82 2937.48c170.65,-96.19 207.65,-323.47 207.65,-323.47 0,0 -129.94,5.64 -299.44,222.29 -202.86,259.3 -506.74,680.35 -760.58,1066.66 0,0 -16.64,50.73 33.25,62.38l14.14 -22.45c0,0 172.97,103.95 172.97,117.26 0,0 -1.49,3.65 -3.88,8.89 0,0 73.5,-47.87 87.04,-20.54 13.54,27.33 288.99,-363.82 548.85,-1111.02z"/>
    <path class="fil3" d="M229.81 4060.14c0,-13.31 -172.97,-117.26 -172.97,-117.26l-14.14 22.45 -10.81 35.76c1.66,10.81 167.98,104.78 167.98,104.78 8.32,-0.59 20.05,-23.71 26.05,-36.85 2.39,-5.24 3.88,-8.89 3.88,-8.89z"/>
   </g>
  </g>
 </g>
</svg>
