<?xml version="1.0" encoding="UTF-8"?>
<!DOCTYPE svg PUBLIC "-//W3C//DTD SVG 1.1//EN" "http://www.w3.org/Graphics/SVG/1.1/DTD/svg11.dtd">
<!-- Creator: CorelDRAW 2018 (64-Bit) -->
<svg xmlns="http://www.w3.org/2000/svg" xml:space="preserve" width="79.9277mm" height="172.496mm" version="1.1" style="shape-rendering:geometricPrecision; text-rendering:geometricPrecision; image-rendering:optimizeQuality; fill-rule:evenodd; clip-rule:evenodd"
viewBox="0 0 1009.52 2178.7"
 xmlns:xlink="http://www.w3.org/1999/xlink">
 <defs>
  <style type="text/css">
   <![CDATA[
    .str0 {stroke:#332C2B;stroke-width:2.53;stroke-miterlimit:22.9256}
    .fil19 {fill:#FEFEFE}
    .fil10 {fill:#ED84B1}
    .fil17 {fill:#ECA4A9}
    .fil6 {fill:#F2F6FB}
    .fil15 {fill:#E1E9ED}
    .fil7 {fill:#C7D5E3}
    .fil8 {fill:#BDE2E9}
    .fil0 {fill:#AAB6BD}
    .fil11 {fill:#9499A1}
    .fil9 {fill:#8BAEB6}
    .fil5 {fill:#403C37}
    .fil13 {fill:#494F57}
    .fil16 {fill:#3C414A}
    .fil3 {fill:#3C4654}
    .fil4 {fill:#2E343B}
    .fil18 {fill:#222222}
    .fil14 {fill:#A570FF}
    .fil2 {fill:#FFB096}
    .fil1 {fill:#FFC6B7}
    .fil12 {fill:#F7F1E4}
   ]]>
  </style>
 </defs>
 <g id="Layer_x0020_1">
  <metadata id="CorelCorpID_0Corel-Layer"/>
  <g id="_1585043788464">
   <g>
    <ellipse class="fil1" cx="529.57" cy="809.95" rx="84.66" ry="169.32"/>
    <g>
     <ellipse class="fil2" transform="matrix(-0.490278 0.528848 0.528848 0.490278 904.677 1391.84)" rx="41.77" ry="57.92"/>
     <path class="fil3" d="M652.92 1018.05c-57.15,-32.21 -69.54,-108.32 -69.54,-108.32 0,0 43.52,1.89 100.28,74.44 67.93,86.83 169.7,227.83 254.7,357.2 0,0 5.57,16.99 -11.14,20.89l-4.73 -7.52c0,0 -57.93,34.81 -57.93,39.27 0,0 0.5,1.22 1.3,2.98 0,0 -24.61,-16.03 -29.15,-6.88 -4.54,9.15 -96.78,-121.84 -183.8,-372.06z"/>
     <path class="fil4" d="M864.57 1394c0,-4.46 57.93,-39.27 57.93,-39.27l4.73 7.52 3.62 11.97c-0.56,3.62 -56.25,35.09 -56.25,35.09 -2.79,-0.2 -6.71,-7.94 -8.73,-12.34 -0.8,-1.76 -1.3,-2.98 -1.3,-2.98z"/>
    </g>
    <g>
     <path class="fil1" d="M496.59 1528.81c-65.07,-271.06 -188.25,-47.9 -188.25,-47.9 0,0 13.2,50.96 28.5,114.14 0.06,0.26 0.13,0.53 0.19,0.79 4.45,8.85 83.98,44.42 145.35,24.08 7.92,-50.86 14.22,-91.1 14.22,-91.1z"/>
     <path class="fil5" d="M482.38 1619.91c-61.37,20.34 -140.9,-15.23 -145.35,-24.08 20.5,84.68 44.67,190.94 45.95,225.94 2.23,61.27 -13.37,248.41 10.03,272.91 0,0 31.19,17.82 57.92,-14.48 -2.23,-34.53 -3.34,-231.7 0,-256.2 2.05,-15.06 18.82,-123.05 31.45,-204.09z"/>
     <path class="fil4" d="M450.92 2080.21c-26.73,32.3 -57.92,14.48 -57.92,14.48 0,0 22.26,64.6 57.91,74.63 35.65,10.03 0.02,-89.11 0.02,-89.11z"/>
    </g>
    <g>
     <path class="fil1" d="M555.21 1536.22c65.07,-271.06 188.25,-47.9 188.25,-47.9 0,0 -13.2,50.96 -28.5,114.14 -0.06,0.26 -0.13,0.53 -0.19,0.79 -4.45,8.85 -83.98,44.42 -145.35,24.08 -7.92,-50.86 -14.22,-91.1 -14.22,-91.1z"/>
     <path class="fil5" d="M569.43 1627.32c61.37,20.34 140.9,-15.23 145.35,-24.08 -20.5,84.68 -44.67,190.94 -45.95,225.94 -2.23,61.27 13.37,248.41 -10.03,272.91 0,0 -31.19,17.82 -57.92,-14.48 2.23,-34.53 3.34,-231.7 0,-256.2 -2.05,-15.06 -18.82,-123.05 -31.45,-204.09z"/>
     <path class="fil4" d="M600.88 2087.61c26.73,32.3 57.92,14.48 57.92,14.48 0,0 -22.26,64.6 -57.91,74.63 -35.65,10.03 -0.02,-89.11 -0.02,-89.11z"/>
    </g>
    <g>
     <g>
      <path class="fil6" d="M488.92 1290.78c-24.67,62.23 -33.84,258.36 -35.54,300.02 0,0 62.16,7.24 69.4,5.57 7.24,1.67 72.01,-7.08 72.01,-7.08 -1.7,-41.67 -10.87,-237.79 -35.54,-300.02l-70.34 1.5z"/>
      <path class="fil7" d="M418.53 1280.77c-37.96,142.91 -53.67,256.98 -57.82,290.64 0,0 64.71,16.23 98.69,28.49 0,0 0.1,-2.78 0.3,-7.83 1.7,-41.67 10.87,-237.79 35.54,-300.02l-76.71 -11.28z"/>
      <path class="fil6" d="M412.21 1279.5c-37.96,142.91 -53.67,256.98 -57.82,290.64 0,0 64.71,16.23 98.69,28.49 0,0 0.1,-2.78 0.3,-7.83 1.7,-41.67 10.87,-237.79 35.54,-300.02l-76.71 -11.28z"/>
      <path class="fil7" d="M418.53 1282.03l-70.44 -17.54c0,0 -85.29,211.9 -85.29,289.32 0,0 76.68,13.4 96.74,29 0,0 0.37,-3.51 1.18,-10.13 4.14,-33.66 19.85,-147.73 57.82,-290.64z"/>
      <path class="fil6" d="M412.21 1279.5l-70.44 -17.54c0,0 -85.29,211.9 -85.29,289.32 0,0 76.68,13.4 96.74,29 0,0 0.37,-3.51 1.18,-10.13 4.14,-33.66 19.85,-147.73 57.82,-290.64z"/>
      <path class="fil7" d="M552.94 1290.54c24.67,62.23 33.84,258.36 35.54,300.02 0.2,5.05 0.3,7.83 0.3,7.83 33.97,-12.25 98.69,-28.49 98.69,-28.49 -4.14,-33.66 -19.85,-147.73 -57.82,-290.64l-76.71 11.28z"/>
      <path class="fil6" d="M559.26 1289.28c24.67,62.23 33.84,258.36 35.54,300.02 0.2,5.05 0.3,7.83 0.3,7.83 33.97,-12.25 98.69,-28.49 98.69,-28.49 -4.14,-33.66 -19.85,-147.73 -57.82,-290.64l-76.71 11.28z"/>
      <path class="fil7" d="M628.38 1280.53c37.96,142.91 53.67,256.98 57.82,290.64 0.82,6.63 1.18,10.13 1.18,10.13 20.05,-15.59 96.74,-29 96.74,-29 0,-77.42 -85.29,-289.32 -85.29,-289.32l-70.44 17.54z"/>
      <path class="fil6" d="M635.96 1278c37.96,142.91 53.67,256.98 57.82,290.64 0.82,6.63 1.18,10.13 1.18,10.13 20.05,-15.59 96.74,-29 96.74,-29 0,-77.42 -85.29,-289.32 -85.29,-289.32l-70.44 17.54z"/>
     </g>
     <g>
      <path class="fil7" d="M524.77 1014.9c0,0 -85.39,-4.33 -87.06,-41.65 -51.4,92.63 -103.84,275.03 -103.84,275.03 -0.56,13.37 4.45,13.93 4.45,13.93 130.06,38.45 190.35,31.8 190.35,31.8 0,0 73.38,-2.84 190.35,-31.8 0,0 5.01,-0.56 4.45,-13.93 0,0 -51.83,-180.29 -102.95,-273.42 -2.79,36.59 -85.15,40.38 -85.15,40.38l18.48 0.6c0,0 2.11,29.95 -9.59,37.28 10.34,55.45 16.11,70.2 12.77,113.3 -3.34,43.1 -30.08,53.05 -30.08,53.05 2.23,-16.58 -4.76,-96.19 -4.76,-96.19 -16.8,86.36 -43.14,102.87 -43.14,102.87 3.34,-25.69 3.34,-82.56 3.34,-82.56 -4.46,-64.21 34.02,-90.3 34.02,-90.3 0,0 -6.84,-5.14 -10.1,-39.01l18.46 0.6z"/>
      <path class="fil6" d="M524.77 1008.58c0,0 -85.39,-4.33 -87.06,-41.65 -51.4,92.63 -103.84,275.03 -103.84,275.03 -0.56,13.37 4.45,13.93 4.45,13.93 130.06,38.45 190.35,31.8 190.35,31.8 0,0 73.38,-2.84 190.35,-31.8 0,0 5.01,-0.56 4.45,-13.93 0,0 -51.83,-180.29 -102.95,-273.42 -2.79,36.59 -85.15,40.38 -85.15,40.38l18.48 0.6c0,0 2.11,29.95 -9.59,37.28 10.34,55.45 16.11,70.2 12.77,113.3 -3.34,43.1 -30.08,53.05 -30.08,53.05 2.23,-16.58 -4.76,-96.19 -4.76,-96.19 -16.8,86.36 -43.14,102.87 -43.14,102.87 3.34,-25.69 3.34,-82.56 3.34,-82.56 -4.46,-64.21 34.02,-90.3 34.02,-90.3 0,0 -6.84,-5.14 -10.1,-39.01l18.46 0.6z"/>
      <path class="fil6" d="M479.8 951.1c14.11,33.62 44.96,57.49 44.96,57.49l10.6 0.34c0,0 29.34,-23.31 43.08,-56.48 -40.26,-11.91 -98.64,-1.35 -98.64,-1.35z"/>
      <path class="fil7" d="M574.65 952.45c-13.73,33.16 -43.08,56.48 -43.08,56.48 0,0 82.36,-3.79 85.15,-40.38 -11.98,-21.83 -23.93,-38.87 -35.16,-47.67 -0.18,11.15 -2.87,21.79 -6.92,31.57z"/>
      <path class="fil7" d="M528.55 1008.58c0,0 -30.86,-23.86 -44.96,-57.49 -4.04,-9.63 -6.7,-20.05 -6.88,-30.95 -11.23,8.36 -23.2,25.12 -35.22,46.79 1.67,37.32 87.06,41.65 87.06,41.65z"/>
      <path class="fil7" d="M578.44 957.5c-13.73,33.16 -43.08,56.48 -43.08,56.48 0,0 82.36,-3.79 85.15,-40.38 -11.98,-21.83 -23.93,-38.87 -35.16,-47.67 -0.18,11.15 -2.87,21.79 -6.92,31.57z"/>
      <path class="fil6" d="M578.44 952.45c-13.73,33.16 -43.08,56.48 -43.08,56.48 0,0 82.36,-3.79 85.15,-40.38 -11.98,-21.83 -23.93,-38.87 -35.16,-47.67 -0.18,11.15 -2.87,21.79 -6.92,31.57z"/>
      <path class="fil7" d="M524.77 1013.63c0,0 -30.86,-23.86 -44.96,-57.49 -4.04,-9.63 -6.7,-20.05 -6.88,-30.95 -11.23,8.36 -23.2,25.12 -35.22,46.79 1.67,37.32 87.06,41.65 87.06,41.65z"/>
      <path class="fil6" d="M524.77 1008.58c0,0 -30.86,-23.86 -44.96,-57.49 -4.04,-9.63 -6.7,-20.05 -6.88,-30.95 -11.23,8.36 -23.2,25.12 -35.22,46.79 1.67,37.32 87.06,41.65 87.06,41.65z"/>
      <path class="fil8" d="M531.73 1046.89c-2.41,27.36 -5.73,50.52 -9.53,70.08 0,0 6.99,79.61 4.76,96.19 0,0 26.73,-9.95 30.08,-53.05 3.34,-43.11 -2.43,-57.86 -12.77,-113.3l-12.53 0.08z"/>
      <path class="fil9" d="M518.93 1046.99c0,0 -38.47,26.08 -34.02,90.3 0,0 0,56.87 -3.34,82.56 0,0 26.34,-16.51 43.14,-102.87 3.81,-19.57 7.12,-42.72 9.53,-70.08l-15.32 0.1z"/>
      <path class="fil8" d="M516.41 1046.99c0,0 -38.47,26.08 -34.02,90.3 0,0 0,56.87 -3.34,82.56 0,0 26.34,-16.51 43.14,-102.87 3.81,-19.57 7.12,-42.72 9.53,-70.08l-15.32 0.1z"/>
      <path class="fil9" d="M506.31 1010.51c3.26,33.86 10.1,39.01 10.1,39.01l15.32 -0.1 12.53 -0.08c11.7,-7.33 9.59,-37.28 9.59,-37.28l-18.48 -0.6 -10.6 -0.34 -18.46 -0.6z"/>
      <path class="fil8" d="M506.31 1007.98c3.26,33.86 10.1,39.01 10.1,39.01l15.32 -0.1 12.53 -0.08c11.7,-7.33 9.59,-37.28 9.59,-37.28l-18.48 -0.6 -10.6 -0.34 -18.46 -0.6z"/>
     </g>
     <g>
      <path class="fil3" d="M379.81 1404.88c0,0 -22.28,-335.29 116.96,-495.7l-24.51 2.23c0,0 -119.19,115.85 -197.17,453.37 0,0 -16.71,23.39 104.71,40.1z"/>
      <path class="fil3" d="M558.83 908.64c139.24,160.41 116.96,495.7 116.96,495.7 121.42,-16.71 104.71,-40.1 104.71,-40.1 -77.98,-337.52 -197.17,-453.37 -197.17,-453.37l-24.51 -2.23z"/>
     </g>
    </g>
    <g>
     <path class="fil10" d="M717.55 638.41c0.03,-0.76 0.04,-1.2 0.04,-1.2 0.08,0.28 0.07,0.68 -0.04,1.2zm-208.05 -98.33c-6,-30.77 -8.09,-54.99 0,0zm-192.37 -71.99c-2.77,-12.08 -3.85,-19.53 -3.85,-19.53 0,0 3.09,6.63 3.85,19.53zm111.48 42.91c0,0 22.9,90.46 24.38,96.64 2.2,5.22 51.57,-3.55 63.7,-16.74 -2.97,-21.63 -5.35,-38.29 -7.19,-50.83 4.28,21.93 10.55,47.18 16.54,49.46 6.87,3.2 26.1,-2.49 31.84,-6.62 0,0 28.28,-83.73 -8.24,-177.83 0,0 57.57,119.51 123.19,126.95 15.72,34.3 30.32,84.96 21.99,146.05 0,0 21.18,-31.99 22.73,-39.68 -0.16,4.65 -0.89,21.57 -3.28,27.66 0,0 8.96,-9.1 16.67,-19.16 45.1,-17.44 52.65,67.61 -17.63,93.03 -6.51,23.68 -17.04,46.18 -30.93,67.24l1.79 21.78c13.05,-2.87 24.95,-31.73 24.95,-31.73l1.76 23.56c24.67,-12.28 70.31,-84.45 70.31,-84.45 15.24,-135.06 -16.54,-169.8 -16.54,-169.8 -78.27,-72.03 -155.65,-125.4 -215.02,-161.46 -64.5,-39.18 -107.73,-57.91 -107.73,-57.91 0,0 -25.01,-1.61 -45.09,0.57 -19.14,6.46 -36.81,16.55 -36.81,16.55 0,0 -115.7,129.68 -200.78,334.63 0,0 -14.92,46.95 61.27,169.13 0,0 71.79,49.38 99.34,50.16l-8.29 -22.13c0,0 22.92,21.19 35.97,18.31l-7.11 -22.62c-25.01,-14.97 -47.15,-33.62 -65.94,-55.85 -74.43,6.44 -100.27,-72.65 -52.07,-75.81 17.69,6.27 47.5,15.33 47.5,15.33 -7.46,-7.55 -17.86,-25.04 -17.86,-25.04 8.5,11.08 19.29,11.03 19.29,11.03 -18.29,-48.65 -24.1,-98.29 -24.81,-138.97 64.04,-75.49 72.18,-128.01 70.61,-154.37 8.16,35.55 31,111.26 84.23,155.86 0.96,3.25 37.15,-9.87 41.06,-13.18 0,0 -0.17,-16.35 -3.75,-43.59 -2.04,-15.53 -5.19,-34.59 -10.06,-56.18z"/>
     <path class="fil11" d="M549.65 405.08c59.37,36.06 136.75,89.44 215.02,161.46 0,0 31.79,34.74 16.54,169.8 -0.85,7.5 -1.84,15.31 -2.99,23.44 0,0 -83.93,131.25 -206.69,186.44l0.37 3.56c148.23,-39.43 306.55,-238.51 297.1,-253.68 59.59,-196.57 -149.85,-375.79 -149.85,-375.79 -158.12,-133.47 -237.22,-152.24 -237.22,-152.24 0,0 -58.86,-2 -118.24,7.91 -58.06,15.94 -99.22,43.6 -99.22,43.6 0,0 -63.91,50.25 -151.36,237.79 0,0 -114.8,250.6 21.82,403.97 3.56,12.04 208.51,128.08 346.65,107.38 0,0 0,0 -0.39,-1.16 -136.9,5.65 -253.12,-87.57 -253.12,-87.57 -2.62,-4.06 -5.15,-8.03 -7.58,-11.93 -76.19,-122.18 -61.27,-169.13 -61.27,-169.13 85.08,-204.96 200.78,-334.63 200.78,-334.63 0,0 17.67,-10.09 36.81,-16.55 20.08,-2.18 45.09,-0.57 45.09,-0.57 0,0 43.24,18.73 107.73,57.91z"/>
     <path class="fil12" d="M557.89 582.91c-5.75,4.14 -24.98,9.82 -31.84,6.62 -6,-2.28 -12.27,-27.53 -16.54,-49.46 1.84,12.54 4.22,29.19 7.19,50.83 -12.13,13.19 -61.51,21.96 -63.7,16.74 -1.48,-6.18 -24.38,-96.64 -24.38,-96.64 4.86,21.59 8.01,40.65 10.06,56.18 3.58,27.24 3.75,43.59 3.75,43.59 -3.9,3.31 -40.1,16.43 -41.06,13.18 -53.23,-44.6 -76.07,-120.31 -84.23,-155.86 1.56,26.36 -6.57,78.88 -70.61,154.37 0.71,40.68 6.52,90.32 24.81,138.97 0,0 -10.79,0.05 -19.29,-11.03 0,0 10.4,17.49 17.86,25.04 0,0 -29.81,-9.05 -47.5,-15.33 -48.2,3.16 -22.35,82.25 52.07,75.81 18.79,22.23 40.93,40.88 65.94,55.85 37.32,22.34 81.04,36.48 129.57,42.11 16.62,1.93 33.8,2.86 51.48,2.77 15.72,-7.19 30.88,-15.1 45.34,-23.67 48.03,-28.5 88.29,-64.39 115.59,-105.82 13.88,-21.06 24.42,-43.56 30.93,-67.24 70.28,-25.42 62.73,-110.47 17.63,-93.03 -7.71,10.06 -16.67,19.16 -16.67,19.16 2.39,-6.09 3.12,-23.01 3.28,-27.66 -1.55,7.69 -22.73,39.68 -22.73,39.68 8.33,-61.09 -6.27,-111.75 -21.99,-146.05 -65.62,-7.44 -123.19,-126.95 -123.19,-126.95 36.52,94.1 8.24,177.83 8.24,177.83z"/>
     <path class="fil13" d="M469.97 933.89c-48.53,-5.63 -92.25,-19.78 -129.57,-42.11l7.11 22.62c-13.05,2.87 -35.97,-18.31 -35.97,-18.31l8.29 22.13c-27.55,-0.78 -99.34,-50.16 -99.34,-50.16 2.43,3.9 4.96,7.88 7.58,11.93 0,0 116.22,93.22 253.12,87.57 -0.82,-2.45 -3.35,-10.05 -11.22,-33.67z"/>
     <path class="fil13" d="M682.38 807.18c-27.31,41.43 -67.56,77.32 -115.59,105.82l1.23 -0.27 3.5 33.5c122.76,-55.18 206.69,-186.44 206.69,-186.44 1.15,-8.13 2.14,-15.94 2.99,-23.44 0,0 -45.64,72.18 -70.31,84.45l-1.76 -23.56c0,0 -11.9,28.85 -24.95,31.73l-1.79 -21.78z"/>
     <path class="fil14" d="M717.55 638.41c0.03,-0.76 0.04,-1.2 0.04,-1.2 0.08,0.28 0.07,0.68 -0.04,1.2zm-208.05 -98.33c-6,-30.77 -8.09,-54.99 0,0zm-192.37 -71.99c-2.77,-12.08 -3.85,-19.53 -3.85,-19.53 0,0 3.09,6.63 3.85,19.53zm111.48 42.91c0,0 22.9,90.46 24.38,96.64 2.2,5.22 51.57,-3.55 63.7,-16.74 -2.97,-21.63 -5.35,-38.29 -7.19,-50.83 4.28,21.93 10.55,47.18 16.54,49.46 6.87,3.2 26.1,-2.49 31.84,-6.62 0,0 28.28,-83.73 -8.24,-177.83 0,0 57.57,119.51 123.19,126.95 15.72,34.3 30.32,84.96 21.99,146.05 0,0 21.18,-31.99 22.73,-39.68 -0.16,4.65 -0.89,21.57 -3.28,27.66 0,0 8.96,-9.1 16.67,-19.16 45.1,-17.44 52.65,67.61 -17.63,93.03 -6.51,23.68 -17.04,46.18 -30.93,67.24l1.79 21.78c13.05,-2.87 24.95,-31.73 24.95,-31.73l1.76 23.56c24.67,-12.28 70.31,-84.45 70.31,-84.45 15.24,-135.06 -16.54,-169.8 -16.54,-169.8 -78.27,-72.03 -155.65,-125.4 -215.02,-161.46 -64.5,-39.18 -107.73,-57.91 -107.73,-57.91 0,0 -25.01,-1.61 -45.09,0.57 -19.14,6.46 -36.81,16.55 -36.81,16.55 0,0 -115.7,129.68 -200.78,334.63 0,0 -14.92,46.95 61.27,169.13 0,0 71.79,49.38 99.34,50.16l-8.29 -22.13c0,0 22.92,21.19 35.97,18.31l-7.11 -22.62c-25.01,-14.97 -47.15,-33.62 -65.94,-55.85 -74.43,6.44 -100.27,-72.65 -52.07,-75.81 17.69,6.27 47.5,15.33 47.5,15.33 -7.46,-7.55 -17.86,-25.04 -17.86,-25.04 8.5,11.08 19.29,11.03 19.29,11.03 -18.29,-48.65 -24.1,-98.29 -24.81,-138.97 64.04,-75.49 72.18,-128.01 70.61,-154.37 8.16,35.55 31,111.26 84.23,155.86 0.96,3.25 37.15,-9.87 41.06,-13.18 0,0 -0.17,-16.35 -3.75,-43.59 -2.04,-15.53 -5.19,-34.59 -10.06,-56.18z"/>
     <path class="fil3" d="M549.65 405.08c59.37,36.06 136.75,89.44 215.02,161.46 0,0 31.79,34.74 16.54,169.8 -0.85,7.5 -1.84,15.31 -2.99,23.44 0,0 -83.93,131.25 -206.69,186.44l0.37 3.56c148.23,-39.43 306.55,-238.51 297.1,-253.68 59.59,-196.57 -149.85,-375.79 -149.85,-375.79 -158.12,-133.47 -237.22,-152.24 -237.22,-152.24 0,0 -58.86,-2 -118.24,7.91 -58.06,15.94 -99.22,43.6 -99.22,43.6 0,0 -63.91,50.25 -151.36,237.79 0,0 -114.8,250.6 21.82,403.97 3.56,12.04 208.51,128.08 346.65,107.38 0,0 0,0 -0.39,-1.16 -136.9,5.65 -253.12,-87.57 -253.12,-87.57 -2.62,-4.06 -5.15,-8.03 -7.58,-11.93 -76.19,-122.18 -61.27,-169.13 -61.27,-169.13 85.08,-204.96 200.78,-334.63 200.78,-334.63 0,0 17.67,-10.09 36.81,-16.55 20.08,-2.18 45.09,-0.57 45.09,-0.57 0,0 43.24,18.73 107.73,57.91z"/>
     <path class="fil1" d="M557.89 582.91c-5.75,4.14 -24.98,9.82 -31.84,6.62 -6,-2.28 -12.27,-27.53 -16.54,-49.46 1.84,12.54 4.22,29.19 7.19,50.83 -12.13,13.19 -61.51,21.96 -63.7,16.74 -1.48,-6.18 -24.38,-96.64 -24.38,-96.64 4.86,21.59 8.01,40.65 10.06,56.18 3.58,27.24 3.75,43.59 3.75,43.59 -3.9,3.31 -40.1,16.43 -41.06,13.18 -53.23,-44.6 -76.07,-120.31 -84.23,-155.86 1.56,26.36 -6.57,78.88 -70.61,154.37 0.71,40.68 6.52,90.32 24.81,138.97 0,0 -10.79,0.05 -19.29,-11.03 0,0 10.4,17.49 17.86,25.04 0,0 -29.81,-9.05 -47.5,-15.33 -48.2,3.16 -22.35,82.25 52.07,75.81 18.79,22.23 40.93,40.88 65.94,55.85 37.32,22.34 81.04,36.48 129.57,42.11 16.62,1.93 33.8,2.86 51.48,2.77 15.72,-7.19 30.88,-15.1 45.34,-23.67 48.03,-28.5 88.29,-64.39 115.59,-105.82 13.88,-21.06 24.42,-43.56 30.93,-67.24 70.28,-25.42 62.73,-110.47 17.63,-93.03 -7.71,10.06 -16.67,19.16 -16.67,19.16 2.39,-6.09 3.12,-23.01 3.28,-27.66 -1.55,7.69 -22.73,39.68 -22.73,39.68 8.33,-61.09 -6.27,-111.75 -21.99,-146.05 -65.62,-7.44 -123.19,-126.95 -123.19,-126.95 36.52,94.1 8.24,177.83 8.24,177.83z"/>
     <path class="fil13" d="M469.97 933.89c-48.53,-5.63 -92.25,-19.78 -129.57,-42.11l7.11 22.62c-13.05,2.87 -35.97,-18.31 -35.97,-18.31l8.29 22.13c-27.55,-0.78 -99.34,-50.16 -99.34,-50.16 2.43,3.9 4.96,7.88 7.58,11.93 0,0 116.22,93.22 253.12,87.57 -0.82,-2.45 -3.35,-10.05 -11.22,-33.67z"/>
     <path class="fil13" d="M682.38 807.18c-27.31,41.43 -67.56,77.32 -115.59,105.82l1.23 -0.27 3.5 33.5c122.76,-55.18 206.69,-186.44 206.69,-186.44 1.15,-8.13 2.14,-15.94 2.99,-23.44 0,0 -45.64,72.18 -70.31,84.45l-1.76 -23.56c0,0 -11.9,28.85 -24.95,31.73l-1.79 -21.78z"/>
     <path class="fil15" d="M230.12 327.82c27.67,63.49 73.32,73.97 -3.39,186.66 0,0 -72.39,110.02 -87.89,87.79 -26.28,-37.69 69.16,-283.9 91.28,-274.45z"/>
     <path class="fil15" d="M548.22 254.36c1.55,69.24 -35.48,97.92 81.46,167.98 0,0 111.9,69.45 116.63,42.76 8.02,-45.24 -181.99,-228.6 -198.1,-210.74z"/>
     <path class="fil3" d="M158.78 871.07c-14.98,8.81 -16.26,71.59 -16.26,71.59 -48.37,-23.22 -70.48,-282.07 -70.48,-282.07l86.73 210.48z"/>
     <path class="fil3" d="M443.35 188.06c17.12,-7.8 -42.4,-94.02 -93.8,-100.43 -44.19,32.54 -68.37,135.16 -43,129.58 16.04,-7.42 42.66,1.69 65.23,-4.51 28.29,-4.72 49.84,-23.82 71.58,-24.64z"/>
     <path class="fil3" d="M845.99 728.9c17.3,1.7 44.82,58.15 44.82,58.15 34.15,-41.38 -54.5,-285.59 -54.5,-285.59l9.68 227.44z"/>
    </g>
    <g>
     <ellipse class="fil2" transform="matrix(-0.536525 -0.481864 0.481864 -0.536525 423.353 892.988)" rx="41.77" ry="57.92"/>
     <path class="fil3" d="M329.47 1174.35c-14.07,21.53 -30.73,48.34 -68.86,39.36 -30.8,-17.52 -24.63,-34.38 -10.05,-78.58 51.77,-158.3 101.12,-240.98 105.29,-234.21 5.35,8.7 28.4,-9.51 28.4,-9.51 -0.64,1.82 -1.02,3.08 -1.02,3.08 0.41,4.44 61.27,33.81 61.27,33.81l4.03 -7.92c16.99,2.36 13,19.78 13,19.78 -41.67,78.15 -88.45,160.58 -132.05,234.18z"/>
     <path class="fil4" d="M383.22 894.5c0.41,4.44 61.27,33.81 61.27,33.81l4.03 -7.92 2.51 -12.26c-0.89,-3.55 -59.22,-29.81 -59.22,-29.81 -2.76,0.45 -5.96,8.52 -7.56,13.08 -0.64,1.82 -1.02,3.08 -1.02,3.08z"/>
    </g>
    <path class="fil16" d="M624.67 616.62l-31.07 10.04c-12.92,0 -23.39,15.71 -23.39,35.09 0,19.38 10.47,35.09 23.39,35.09 12.92,0 23.39,-15.71 23.39,-35.09 0,-7.93 -1.75,-15.24 -4.71,-21.11l12.38 -24.02z"/>
    <path class="fil16" d="M421.93 655.6l-31.07 10.04c-12.92,0 -23.39,15.71 -23.39,35.09 0,19.38 10.47,35.09 23.39,35.09 12.92,0 23.39,-15.71 23.39,-35.09 0,-7.93 -1.75,-15.24 -4.71,-21.11l12.38 -24.02z"/>
    <path class="fil17" d="M486.21 848.32l64.61 -5.01c0,0 5.29,-14.48 -26.73,-49.29 -41.77,35.37 -37.87,54.3 -37.87,54.3z"/>
    <g>
     <ellipse class="fil2" transform="matrix(-0.536525 -0.481864 0.481864 -0.536525 423.353 892.988)" rx="41.77" ry="57.92"/>
     <path class="fil3" d="M329.47 1174.35c-14.07,21.53 -30.73,48.34 -68.86,39.36 -30.8,-17.52 -24.63,-34.38 -10.05,-78.58 51.77,-158.3 101.12,-240.98 105.29,-234.21 5.35,8.7 28.4,-9.51 28.4,-9.51 -0.64,1.82 -1.02,3.08 -1.02,3.08 0.41,4.44 61.27,33.81 61.27,33.81l4.03 -7.92c16.99,2.36 13,19.78 13,19.78 -41.67,78.15 -88.45,160.58 -132.05,234.18z"/>
     <path class="fil4" d="M383.22 894.5c0.41,4.44 61.27,33.81 61.27,33.81l4.03 -7.92 2.51 -12.26c-0.89,-3.55 -59.22,-29.81 -59.22,-29.81 -2.76,0.45 -5.96,8.52 -7.56,13.08 -0.64,1.82 -1.02,3.08 -1.02,3.08z"/>
    </g>
   </g>
  </g>
 </g>
</svg>
