<?xml version="1.0" encoding="UTF-8"?>
<!DOCTYPE svg PUBLIC "-//W3C//DTD SVG 1.1//EN" "http://www.w3.org/Graphics/SVG/1.1/DTD/svg11.dtd">
<!-- Creator: CorelDRAW 2018 (64-Bit) -->
<svg xmlns="http://www.w3.org/2000/svg" xml:space="preserve" width="64.6859mm" height="167.762mm" version="1.1" style="shape-rendering:geometricPrecision; text-rendering:geometricPrecision; image-rendering:optimizeQuality; fill-rule:evenodd; clip-rule:evenodd"
viewBox="0 0 3290.76 8534.54"
 xmlns:xlink="http://www.w3.org/1999/xlink">
 <defs>
  <style type="text/css">
   <![CDATA[
    .str0 {stroke:#3C414A;stroke-width:50.87;stroke-linecap:round;stroke-miterlimit:22.9256}
    .fil15 {fill:none}
    .fil8 {fill:#ED84B1}
    .fil16 {fill:#ECA4A9}
    .fil3 {fill:#F2F6FB}
    .fil13 {fill:#E1E9ED}
    .fil4 {fill:#C7D5E3}
    .fil5 {fill:#BDE2E9}
    .fil9 {fill:#9499A1}
    .fil6 {fill:#8BAEB6}
    .fil1 {fill:#403C37}
    .fil11 {fill:#494F57}
    .fil7 {fill:#3C4654}
    .fil2 {fill:#2E343B}
    .fil12 {fill:#A570FF}
    .fil14 {fill:#FFB096}
    .fil0 {fill:#FFC6B7}
    .fil10 {fill:#F7F1E4}
   ]]>
  </style>
 </defs>
 <g id="Layer_x0020_1">
  <metadata id="CorelCorpID_0Corel-Layer"/>
  <g id="_2555342829168">
   <ellipse class="fil0" cx="1594.79" cy="3026.57" rx="340.99" ry="681.98"/>
   <g>
    <path class="fil0" d="M1461.98 5922c-262.07,-1091.78 -758.26,-192.93 -758.26,-192.93 0,0 53.16,205.26 114.77,459.72 0.26,1.06 0.51,2.12 0.77,3.17 17.91,35.63 338.24,178.91 585.44,96.98 31.92,-204.85 57.27,-366.95 57.27,-366.95z"/>
    <path class="fil1" d="M1404.71 6288.95c-247.2,81.93 -567.53,-61.35 -585.45,-96.98 82.56,341.06 179.94,769.06 185.07,910.04 8.97,246.77 -53.84,1000.53 40.38,1099.24 0,0 125.63,71.79 233.31,-58.33 -8.97,-139.09 -13.46,-933.24 0,-1031.94 8.27,-60.65 75.82,-495.61 126.69,-822.03z"/>
    <path class="fil2" d="M1278.02 8142.92c-107.68,130.11 -233.31,58.33 -233.31,58.33 0,0 89.67,260.2 233.25,300.59 143.58,40.38 0.06,-358.91 0.06,-358.91z"/>
   </g>
   <g>
    <path class="fil0" d="M1698.07 5951.83c262.07,-1091.78 758.26,-192.93 758.26,-192.93 0,0 -53.16,205.26 -114.77,459.72 -0.26,1.06 -0.51,2.12 -0.77,3.17 -17.91,35.63 -338.24,178.91 -585.44,96.98 -31.92,-204.85 -57.27,-366.95 -57.27,-366.95z"/>
    <path class="fil1" d="M1755.33 6318.78c247.2,81.93 567.53,-61.35 585.45,-96.98 -82.56,341.06 -179.94,769.06 -185.07,910.04 -8.97,246.77 53.84,1000.53 -40.38,1099.24 0,0 -125.63,71.79 -233.31,-58.33 8.97,-139.09 13.46,-933.24 0,-1031.94 -8.27,-60.65 -75.82,-495.61 -126.69,-822.03z"/>
    <path class="fil2" d="M1882.02 8172.76c107.68,130.11 233.31,58.33 233.31,58.33 0,0 -89.67,260.2 -233.25,300.59 -143.58,40.38 -0.06,-358.91 -0.06,-358.91z"/>
   </g>
   <g>
    <g>
     <path class="fil3" d="M1431.05 4963.25c-99.36,250.67 -136.3,1040.61 -143.13,1208.42 0,0 250.36,29.18 279.53,22.45 29.17,6.73 290.06,-28.5 290.06,-28.5 -6.83,-167.82 -43.77,-957.76 -143.13,-1208.42l-283.32 6.05z"/>
     <path class="fil4" d="M1147.53 4922.92c-152.91,575.63 -216.19,1035.08 -232.87,1170.65 0,0 260.64,65.38 397.49,114.73 0,0 0.39,-11.2 1.21,-31.54 6.83,-167.82 43.77,-957.76 143.13,-1208.42l-308.96 -45.42z"/>
     <path class="fil3" d="M1122.09 4917.83c-152.91,575.63 -216.19,1035.08 -232.87,1170.65 0,0 260.64,65.38 397.49,114.73 0,0 0.39,-11.2 1.21,-31.54 6.83,-167.82 43.77,-957.76 143.13,-1208.42l-308.96 -45.42z"/>
     <path class="fil4" d="M1147.53 4928.01l-283.73 -70.66c0,0 -343.53,853.5 -343.53,1165.33 0,0 308.87,53.98 389.63,116.79 0,0 1.48,-14.13 4.76,-40.82 16.68,-135.57 79.96,-595.02 232.87,-1170.65z"/>
     <path class="fil3" d="M1122.09 4917.83l-283.73 -70.66c0,0 -343.53,853.5 -343.53,1165.33 0,0 308.87,53.98 389.63,116.79 0,0 1.48,-14.13 4.76,-40.82 16.68,-135.57 79.96,-595.02 232.87,-1170.65z"/>
     <path class="fil4" d="M1688.93 4962.28c99.36,250.67 136.3,1040.61 143.13,1208.42 0.82,20.33 1.21,31.54 1.21,31.54 136.84,-49.36 397.49,-114.73 397.49,-114.73 -16.68,-135.57 -79.96,-595.02 -232.87,-1170.65l-308.96 45.42z"/>
     <path class="fil3" d="M1714.37 4957.2c99.36,250.67 136.3,1040.61 143.13,1208.42 0.82,20.33 1.21,31.54 1.21,31.54 136.84,-49.36 397.49,-114.73 397.49,-114.73 -16.68,-135.57 -79.96,-595.02 -232.87,-1170.65l-308.96 45.42z"/>
     <path class="fil4" d="M1992.8 4921.95c152.91,575.63 216.19,1035.08 232.87,1170.65 3.29,26.69 4.76,40.82 4.76,40.82 80.76,-62.81 389.63,-116.79 389.63,-116.79 0,-311.83 -343.53,-1165.33 -343.53,-1165.33l-283.73 70.66z"/>
     <path class="fil3" d="M2023.33 4911.78c152.91,575.63 216.19,1035.08 232.87,1170.65 3.29,26.69 4.76,40.82 4.76,40.82 80.76,-62.81 389.63,-116.79 389.63,-116.79 0,-311.83 -343.53,-1165.33 -343.53,-1165.33l-283.73 70.66z"/>
    </g>
    <g>
     <path class="fil4" d="M1575.45 3852.05c0,0 -343.94,-17.44 -350.67,-167.75 -207.04,373.11 -418.24,1107.78 -418.24,1107.78 -2.24,53.84 17.94,56.09 17.94,56.09 523.87,154.86 766.68,128.1 766.68,128.1 0,0 295.57,-11.44 766.68,-128.1 0,0 20.19,-2.24 17.94,-56.09 0,0 -208.76,-726.19 -414.64,-1101.27 -11.25,147.38 -342.99,162.63 -342.99,162.63l74.42 2.42c0,0 8.5,120.64 -38.61,150.17 41.64,223.33 64.88,282.75 51.42,456.37 -13.46,173.61 -121.14,213.68 -121.14,213.68 8.97,-66.77 -19.17,-387.44 -19.17,-387.44 -67.67,347.84 -173.76,414.36 -173.76,414.36 13.46,-103.46 13.46,-332.54 13.46,-332.54 -17.95,-258.64 137.01,-363.71 137.01,-363.71 0,0 -27.55,-20.72 -40.69,-157.12l74.35 2.41z"/>
     <path class="fil3" d="M1575.45 3826.61c0,0 -343.94,-17.44 -350.67,-167.75 -207.04,373.11 -418.24,1107.78 -418.24,1107.78 -2.24,53.84 17.94,56.09 17.94,56.09 523.87,154.86 766.68,128.1 766.68,128.1 0,0 295.57,-11.44 766.68,-128.1 0,0 20.19,-2.24 17.94,-56.09 0,0 -208.76,-726.19 -414.64,-1101.27 -11.25,147.38 -342.99,162.63 -342.99,162.63l74.42 2.42c0,0 8.5,120.64 -38.61,150.17 41.64,223.33 64.88,282.75 51.42,456.37 -13.46,173.61 -121.14,213.68 -121.14,213.68 8.97,-66.77 -19.17,-387.44 -19.17,-387.44 -67.67,347.84 -173.76,414.36 -173.76,414.36 13.46,-103.46 13.46,-332.54 13.46,-332.54 -17.95,-258.64 137.01,-363.71 137.01,-363.71 0,0 -27.55,-20.72 -40.69,-157.12l74.35 2.41z"/>
     <path class="fil3" d="M1394.34 3595.07c56.82,135.43 181.1,231.54 181.1,231.55l42.7 1.38c0,0 118.19,-93.9 173.5,-227.48 -162.16,-47.95 -397.31,-5.45 -397.31,-5.45z"/>
     <path class="fil4" d="M1776.39 3600.52c-55.31,133.58 -173.5,227.48 -173.5,227.48 0,0 331.74,-15.25 342.99,-162.63 -48.27,-87.93 -96.38,-156.57 -141.6,-192.02 -0.72,44.92 -11.56,87.78 -27.88,127.18z"/>
     <path class="fil4" d="M1590.71 3826.61c0,0 -124.28,-96.11 -181.1,-231.54 -16.27,-38.78 -27,-80.78 -27.71,-124.67 -45.22,33.68 -93.43,101.18 -141.86,188.46 6.73,150.31 350.67,167.75 350.67,167.75z"/>
     <path class="fil4" d="M1791.65 3620.87c-55.31,133.58 -173.5,227.48 -173.5,227.48 0,0 331.74,-15.25 342.99,-162.63 -48.27,-87.93 -96.38,-156.57 -141.6,-192.02 -0.72,44.92 -11.56,87.78 -27.88,127.18z"/>
     <path class="fil3" d="M1791.65 3600.52c-55.31,133.58 -173.5,227.48 -173.5,227.48 0,0 331.74,-15.25 342.99,-162.63 -48.27,-87.93 -96.38,-156.57 -141.6,-192.02 -0.72,44.92 -11.56,87.78 -27.88,127.18z"/>
     <path class="fil4" d="M1575.45 3846.96c0,0 -124.28,-96.11 -181.1,-231.54 -16.27,-38.78 -27,-80.78 -27.71,-124.67 -45.22,33.68 -93.43,101.18 -141.86,188.46 6.73,150.31 350.67,167.75 350.67,167.75z"/>
     <path class="fil3" d="M1575.45 3826.61c0,0 -124.28,-96.11 -181.1,-231.54 -16.27,-38.78 -27,-80.78 -27.71,-124.67 -45.22,33.68 -93.43,101.18 -141.86,188.46 6.73,150.31 350.67,167.75 350.67,167.75z"/>
     <path class="fil5" d="M1603.48 3980.92c-9.71,110.21 -23.07,203.47 -38.4,282.28 0,0 28.14,320.67 19.17,387.44 0,0 107.68,-40.06 121.14,-213.68 13.46,-173.62 -9.78,-233.04 -51.42,-456.37l-50.48 0.33z"/>
     <path class="fil6" d="M1551.96 3981.32c0,0 -154.96,105.06 -137.01,363.71 0,0 0,229.08 -13.46,332.54 0,0 106.09,-66.52 173.76,-414.36 15.33,-78.82 28.7,-172.08 38.4,-282.28l-61.69 0.4z"/>
     <path class="fil5" d="M1541.78 3981.32c0,0 -154.96,105.06 -137.01,363.71 0,0 0,229.08 -13.46,332.54 0,0 106.09,-66.52 173.76,-414.36 15.33,-78.82 28.7,-172.08 38.4,-282.28l-61.69 0.4z"/>
     <path class="fil6" d="M1501.1 3834.38c13.14,136.4 40.69,157.12 40.69,157.12l61.69 -0.4 50.48 -0.33c47.11,-29.53 38.61,-150.17 38.61,-150.17l-74.42 -2.42 -42.71 -1.39 -74.35 -2.41z"/>
     <path class="fil5" d="M1501.1 3824.2c13.14,136.4 40.69,157.12 40.69,157.12l61.69 -0.4 50.48 -0.33c47.11,-29.53 38.61,-150.17 38.61,-150.17l-74.42 -2.42 -42.71 -1.39 -74.35 -2.41z"/>
    </g>
    <g>
     <path class="fil7" d="M991.59 5422.81c0,0 -89.73,-1350.49 471.1,-1996.58l-98.71 8.97c0,0 -480.08,466.62 -794.15,1826.09 0,0 -67.3,94.22 421.75,161.52z"/>
     <path class="fil7" d="M1712.67 3424.05c560.84,646.09 471.1,1996.58 471.1,1996.58 489.05,-67.3 421.75,-161.52 421.75,-161.52 -314.07,-1359.48 -794.15,-1826.09 -794.15,-1826.09l-98.71 -8.97z"/>
    </g>
   </g>
   <g>
    <path class="fil8" d="M2614.91 2485.23c0.76,-2.99 1.18,-4.68 1.18,-4.68 0.08,1.18 -0.33,2.75 -1.18,4.68zm-733.24 -566.96c3.04,-126.23 15.82,-223.32 0,0zm-694.36 -449.77c-0.45,-49.94 1.76,-80.15 1.76,-80.15 0,0 6.4,28.77 -1.76,80.15zm401.35 265.34c0,0 11.75,375.65 12.21,401.25 4.12,22.45 205.93,30.72 265.07,-10.67 7.04,-87.67 12.13,-155.24 15.73,-206.16 -2.16,89.95 0.63,194.71 22.24,208.87 24.25,18.52 104.81,12.82 131,1.52 0,0 183.76,-304.89 121.58,-706.65 0,0 122.95,519.97 374.63,606.05 32.12,148.55 45.68,360.45 -39.99,593.56 0,0 111,-107.48 123.77,-136.4 -4.65,18.16 -22.19,84.07 -36.87,105.96 0,0 43.12,-28.02 82.16,-60.92 192.52,-29.55 148.54,311.56 -149.91,350.68 -46.12,87.52 -107.04,166.88 -179.88,237.71l-11.81 87.24c53.84,0 125.63,-103.19 125.63,-103.19l-13.46 94.22c107.68,-26.92 349.73,-271.31 349.73,-271.31 176.93,-518.09 81.97,-682.27 81.97,-682.27 -245.49,-351.1 -503.66,-628.09 -705.97,-821.34 -219.78,-209.96 -373.63,-321.09 -373.63,-321.09 0,0 -96.98,-27.99 -177.86,-36.81 -80.88,8.83 -159.15,33.22 -159.15,33.22 0,0 -567.41,409.9 -1079.59,1142.44 0,0 -99.35,171.77 94.54,718.37 0,0 239.63,256.39 347.31,283.32l-13.46 -94.22c0,0 71.79,103.19 125.63,103.19l-8.37 -95.13c-85.42,-80.55 -156.35,-173.08 -211,-276.8 -298.35,-39.11 -331.51,-372.6 -139.19,-343.3 64.15,40 173.59,101.44 173.59,101.44 -22.81,-36.17 -48.55,-113.96 -48.55,-113.96 23.84,50.94 66.33,60.08 66.33,60.08 -29.81,-207.2 -9.69,-407.52 22.76,-568.15 317.29,-241.5 394.78,-441.05 411.46,-546.09 1.31,146.9 25.57,464.48 196.33,686.02 0.96,13.63 154.7,-6.66 172.92,-16.29 0,0 13.5,-64.46 22.99,-174.7 5.41,-62.84 9.53,-140.55 9.1,-229.69z"/>
    <path class="fil9" d="M2156.5 1422.01c202.31,193.26 460.48,470.24 705.97,821.34 0,0 94.96,164.18 -81.97,682.27 -9.82,28.77 -20.49,58.63 -32.05,89.61 0,0 -443.83,443.62 -974.51,554.38l-1.62 14.32c617.22,-26.75 1412.37,-672.72 1388.37,-740.6 404.62,-721.61 -264,-1607.97 -264,-1607.97 -506.38,-661.96 -801.3,-804.3 -801.3,-804.3 0,0 -229.79,-58.84 -471.98,-71.28 -242.19,12.44 -428.04,85.58 -428.04,85.58 0,0 -294.92,142.34 -801.3,804.3 0,0 -668.62,886.36 -264,1607.97 3.58,50.45 709.29,684.39 1270.58,722.59 0,0 0,0 -0.52,-4.91 -543.42,-96.32 -919.85,-563.67 -919.85,-563.67 -6.8,-18.22 -13.29,-36.05 -19.48,-53.51 -193.89,-546.59 -94.54,-718.37 -94.54,-718.37 512.18,-732.54 1079.59,-1142.44 1079.59,-1142.44 0,0 78.26,-24.39 159.15,-33.22 80.88,8.83 177.86,36.81 177.86,36.81 0,0 153.84,111.14 373.63,321.09z"/>
    <path class="fil10" d="M2034.92 2128.66c-26.19,11.3 -106.75,17 -131,-1.52 -21.62,-14.17 -24.4,-118.92 -22.24,-208.87 -3.6,50.91 -8.69,118.48 -15.73,206.16 -59.14,41.39 -260.96,33.11 -265.07,10.67 -0.46,-25.6 -12.21,-401.25 -12.21,-401.25 0.43,89.13 -3.68,166.85 -9.1,229.69 -9.49,110.24 -22.99,174.7 -22.99,174.7 -18.22,9.63 -171.96,29.92 -172.92,16.29 -170.77,-221.54 -195.02,-539.13 -196.33,-686.02 -16.67,105.04 -94.16,304.59 -411.46,546.09 -32.44,160.63 -52.57,360.95 -22.76,568.15 0,0 -42.49,-9.14 -66.33,-60.08 0,0 25.75,77.79 48.55,113.96 0,0 -109.44,-61.44 -173.59,-101.44 -192.32,-29.3 -159.17,304.18 139.19,343.3 54.65,103.72 125.58,196.26 211,276.8 127.46,120.19 287.18,213.69 473.22,277.87 63.69,21.97 130.47,40.5 200.09,55.5 68.07,-14.66 134.55,-32.63 198.84,-53.85 213.63,-70.51 403.05,-176.82 546.33,-316.14 72.84,-70.83 133.77,-150.19 179.88,-237.71 298.45,-39.12 342.44,-380.22 149.91,-350.68 -39.04,32.89 -82.16,60.92 -82.16,60.92 14.68,-21.9 32.21,-87.8 36.87,-105.96 -12.77,28.92 -123.77,136.4 -123.77,136.4 85.66,-233.11 72.11,-445.01 39.99,-593.56 -251.68,-86.09 -374.63,-606.05 -374.63,-606.05 62.18,401.76 -121.58,706.65 -121.58,706.65z"/>
    <path class="fil11" d="M1385.14 3433.16c-186.04,-64.18 -345.76,-157.68 -473.22,-277.87l8.37 95.13c-53.84,0 -125.63,-103.19 -125.63,-103.19l13.46 94.22c-107.68,-26.92 -347.31,-283.32 -347.31,-283.32 6.19,17.45 12.68,35.29 19.48,53.51 0,0 376.42,467.35 919.85,563.67 -1.09,-10.34 -4.48,-42.44 -14.99,-142.15z"/>
    <path class="fil11" d="M2330.41 3118.67c-143.29,139.32 -332.71,245.63 -546.33,316.14l5.09 0 -15.23 134.8c530.68,-110.76 974.51,-554.38 974.51,-554.38 11.56,-30.98 22.23,-60.84 32.05,-89.61 0,0 -242.04,244.38 -349.73,271.31l13.46 -94.22c0,0 -71.79,103.19 -125.63,103.19l11.81 -87.24z"/>
    <path class="fil12" d="M2614.91 2485.23c0.76,-2.99 1.18,-4.68 1.18,-4.68 0.08,1.18 -0.33,2.75 -1.18,4.68zm-733.24 -566.96c3.04,-126.23 15.82,-223.32 0,0zm-694.36 -449.77c-0.45,-49.94 1.76,-80.15 1.76,-80.15 0,0 6.4,28.77 -1.76,80.15zm401.35 265.34c0,0 11.75,375.65 12.21,401.25 4.12,22.45 205.93,30.72 265.07,-10.67 7.04,-87.67 12.13,-155.24 15.73,-206.16 -2.16,89.95 0.63,194.71 22.24,208.87 24.25,18.52 104.81,12.82 131,1.52 0,0 183.76,-304.89 121.58,-706.65 0,0 122.95,519.97 374.63,606.05 32.12,148.55 45.68,360.45 -39.99,593.56 0,0 111,-107.48 123.77,-136.4 -4.65,18.16 -22.19,84.07 -36.87,105.96 0,0 43.12,-28.02 82.16,-60.92 192.52,-29.55 148.54,311.56 -149.91,350.68 -46.12,87.52 -107.04,166.88 -179.88,237.71l-11.81 87.24c53.84,0 125.63,-103.19 125.63,-103.19l-13.46 94.22c107.68,-26.92 349.73,-271.31 349.73,-271.31 176.93,-518.09 81.97,-682.27 81.97,-682.27 -245.49,-351.1 -503.66,-628.09 -705.97,-821.34 -219.78,-209.96 -373.63,-321.09 -373.63,-321.09 0,0 -96.98,-27.99 -177.86,-36.81 -80.88,8.83 -159.15,33.22 -159.15,33.22 0,0 -567.41,409.9 -1079.59,1142.44 0,0 -99.35,171.77 94.54,718.37 0,0 239.63,256.39 347.31,283.32l-13.46 -94.22c0,0 71.79,103.19 125.63,103.19l-8.37 -95.13c-85.42,-80.55 -156.35,-173.08 -211,-276.8 -298.35,-39.11 -331.51,-372.6 -139.19,-343.3 64.15,40 173.59,101.44 173.59,101.44 -22.81,-36.17 -48.55,-113.96 -48.55,-113.96 23.84,50.94 66.33,60.08 66.33,60.08 -29.81,-207.2 -9.69,-407.52 22.76,-568.15 317.29,-241.5 394.78,-441.05 411.46,-546.09 1.31,146.9 25.57,464.48 196.33,686.02 0.96,13.63 154.7,-6.66 172.92,-16.29 0,0 13.5,-64.46 22.99,-174.7 5.41,-62.84 9.53,-140.55 9.1,-229.69z"/>
    <path class="fil7" d="M2156.5 1422.01c202.31,193.26 460.48,470.24 705.97,821.34 0,0 94.96,164.18 -81.97,682.27 -9.82,28.77 -20.49,58.63 -32.05,89.61 0,0 -443.83,443.62 -974.51,554.38l-1.62 14.32c617.22,-26.75 1412.37,-672.72 1388.37,-740.6 404.62,-721.61 -264,-1607.97 -264,-1607.97 -506.38,-661.96 -801.3,-804.3 -801.3,-804.3 0,0 -229.79,-58.84 -471.98,-71.28 -242.19,12.44 -428.04,85.58 -428.04,85.58 0,0 -294.92,142.34 -801.3,804.3 0,0 -668.62,886.36 -264,1607.97 3.58,50.45 709.29,684.39 1270.58,722.59 0,0 0,0 -0.52,-4.91 -543.42,-96.32 -919.85,-563.67 -919.85,-563.67 -6.8,-18.22 -13.29,-36.05 -19.48,-53.51 -193.89,-546.59 -94.54,-718.37 -94.54,-718.37 512.18,-732.54 1079.59,-1142.44 1079.59,-1142.44 0,0 78.26,-24.39 159.15,-33.22 80.88,8.83 177.86,36.81 177.86,36.81 0,0 153.84,111.14 373.63,321.09z"/>
    <path class="fil0" d="M2034.92 2128.66c-26.19,11.3 -106.75,17 -131,-1.52 -21.62,-14.17 -24.4,-118.92 -22.24,-208.87 -3.6,50.91 -8.69,118.48 -15.73,206.16 -59.14,41.39 -260.96,33.11 -265.07,10.67 -0.46,-25.6 -12.21,-401.25 -12.21,-401.25 0.43,89.13 -3.68,166.85 -9.1,229.69 -9.49,110.24 -22.99,174.7 -22.99,174.7 -18.22,9.63 -171.96,29.92 -172.92,16.29 -170.77,-221.54 -195.02,-539.13 -196.33,-686.02 -16.67,105.04 -94.16,304.59 -411.46,546.09 -32.44,160.63 -52.57,360.95 -22.76,568.15 0,0 -42.49,-9.14 -66.33,-60.08 0,0 25.75,77.79 48.55,113.96 0,0 -109.44,-61.44 -173.59,-101.44 -192.32,-29.3 -159.17,304.18 139.19,343.3 54.65,103.72 125.58,196.26 211,276.8 127.46,120.19 287.18,213.69 473.22,277.87 63.69,21.97 130.47,40.5 200.09,55.5 68.07,-14.66 134.55,-32.63 198.84,-53.85 213.63,-70.51 403.05,-176.82 546.33,-316.14 72.84,-70.83 133.77,-150.19 179.88,-237.71 298.45,-39.12 342.44,-380.22 149.91,-350.68 -39.04,32.89 -82.16,60.92 -82.16,60.92 14.68,-21.9 32.21,-87.8 36.87,-105.96 -12.77,28.92 -123.77,136.4 -123.77,136.4 85.66,-233.11 72.11,-445.01 39.99,-593.56 -251.68,-86.09 -374.63,-606.05 -374.63,-606.05 62.18,401.76 -121.58,706.65 -121.58,706.65z"/>
    <path class="fil11" d="M1385.14 3433.16c-186.04,-64.18 -345.76,-157.68 -473.22,-277.87l8.37 95.13c-53.84,0 -125.63,-103.19 -125.63,-103.19l13.46 94.22c-107.68,-26.92 -347.31,-283.32 -347.31,-283.32 6.19,17.45 12.68,35.29 19.48,53.51 0,0 376.42,467.35 919.85,563.67 -1.09,-10.34 -4.48,-42.44 -14.99,-142.15z"/>
    <path class="fil11" d="M2330.41 3118.67c-143.29,139.32 -332.71,245.63 -546.33,316.14l5.09 0 -15.23 134.8c530.68,-110.76 974.51,-554.38 974.51,-554.38 11.56,-30.98 22.23,-60.84 32.05,-89.61 0,0 -242.04,244.38 -349.73,271.31l13.46 -94.22c0,0 -71.79,103.19 -125.63,103.19l11.81 -87.24z"/>
    <path class="fil13" d="M966.51 841.38c53.84,273.69 224.34,354.45 -174.98,731.33 0,0 -380.03,370.09 -421.75,269.2 -70.73,-171.02 517.91,-1056.84 596.73,-1000.54z"/>
    <path class="fil13" d="M2281.43 827.92c-53.84,273.69 -224.34,354.45 174.98,731.33 0,0 380.03,370.09 421.75,269.2 70.73,-171.02 -517.91,-1056.84 -596.73,-1000.54z"/>
    <path class="fil7" d="M215.44 2916.54c-66.56,21.68 -125.95,267.54 -125.95,267.54 -170.17,-133.22 -32.96,-1170.59 -32.96,-1170.59l158.9 903.05z"/>
    <path class="fil7" d="M1926.32 476.27c74.09,-15.87 -85.36,-406.57 -282.02,-476.27 -201.99,89.73 -385.98,472.46 -281.37,472.46 69.51,-15.32 166.34,43.59 260.48,38.75 115.35,5.93 216.67,-50.54 302.91,-34.94z"/>
    <path class="fil7" d="M3041.76 2952.43c66.56,21.68 125.95,267.54 125.95,267.54 170.17,-133.22 32.96,-1170.59 32.96,-1170.59l-158.9 903.05z"/>
   </g>
   <g>
    <g>
     <ellipse class="fil14" transform="matrix(-0.536525 -0.481864 0.481864 -0.536525 1225.3 3414.87)" rx="168.25" ry="233.31"/>
     <path class="fil7" d="M847.14 4548.16c-56.68,86.74 -123.79,194.71 -277.36,158.54 -124.06,-70.58 -99.19,-138.49 -40.48,-316.51 208.51,-637.62 407.3,-970.63 424.08,-943.35 21.56,35.05 114.39,-38.31 114.39,-38.31 -2.57,7.34 -4.13,12.42 -4.13,12.42 1.64,17.88 246.78,136.19 246.78,136.19l16.22 -31.9c68.45,9.49 52.35,79.68 52.35,79.68 -167.84,314.76 -356.28,646.8 -531.86,943.22z"/>
     <path class="fil2" d="M1063.64 3420.96c1.64,17.88 246.78,136.19 246.78,136.19l16.22 -31.9 10.11 -49.36c-3.57,-14.32 -238.54,-120.05 -238.54,-120.05 -11.11,1.82 -24.01,34.31 -30.46,52.7 -2.57,7.34 -4.13,12.42 -4.13,12.42z"/>
    </g>
    <g>
     <ellipse class="fil14" transform="matrix(0.536525 -0.481864 -0.481864 -0.536525 1964.22 3410.36)" rx="168.25" ry="233.31"/>
     <path class="fil7" d="M2342.39 4543.65c56.68,86.74 123.79,194.71 277.36,158.54 124.06,-70.58 99.19,-138.49 40.48,-316.51 -208.51,-637.62 -407.3,-970.63 -424.08,-943.35 -21.56,35.05 -114.39,-38.31 -114.39,-38.31 2.57,7.34 4.13,12.42 4.13,12.42 -1.64,17.88 -246.78,136.19 -246.78,136.19l-16.22 -31.9c-68.45,9.49 -52.35,79.68 -52.35,79.68 167.84,314.76 356.28,646.8 531.86,943.22z"/>
     <path class="fil2" d="M2125.89 3416.45c-1.64,17.88 -246.78,136.19 -246.78,136.19l-16.22 -31.9 -10.11 -49.36c3.57,-14.32 238.54,-120.05 238.54,-120.05 11.11,1.82 24.01,34.31 30.46,52.7 2.57,7.34 4.13,12.42 4.13,12.42z"/>
    </g>
   </g>
   <polyline class="fil15 str0" points="938.1,2292.31 1368.83,2507.67 938.1,2660.22 "/>
   <polyline class="fil15 str0" points="2279.63,2310.26 1848.9,2525.62 2279.63,2678.17 "/>
   <path class="fil16" d="M1274.64 2987.75l603.46 0c0,0 -76.28,282.67 -296.13,280.42 -219.85,-2.24 -307.34,-280.42 -307.34,-280.42z"/>
   <g>
    <g>
     <ellipse class="fil14" transform="matrix(-0.536525 -0.481864 0.481864 -0.536525 1225.3 3414.87)" rx="168.25" ry="233.31"/>
     <path class="fil7" d="M847.14 4548.16c-56.68,86.74 -123.79,194.71 -277.36,158.54 -124.06,-70.58 -99.19,-138.49 -40.48,-316.51 208.51,-637.62 407.3,-970.63 424.08,-943.35 21.56,35.05 114.39,-38.31 114.39,-38.31 -2.57,7.34 -4.13,12.42 -4.13,12.42 1.64,17.88 246.78,136.19 246.78,136.19l16.22 -31.9c68.45,9.49 52.35,79.68 52.35,79.68 -167.84,314.76 -356.28,646.8 -531.86,943.22z"/>
     <path class="fil2" d="M1063.64 3420.96c1.64,17.88 246.78,136.19 246.78,136.19l16.22 -31.9 10.11 -49.36c-3.57,-14.32 -238.54,-120.05 -238.54,-120.05 -11.11,1.82 -24.01,34.31 -30.46,52.7 -2.57,7.34 -4.13,12.42 -4.13,12.42z"/>
    </g>
    <g>
     <ellipse class="fil14" transform="matrix(0.536525 -0.481864 -0.481864 -0.536525 1964.22 3410.36)" rx="168.25" ry="233.31"/>
     <path class="fil7" d="M2342.39 4543.65c56.68,86.74 123.79,194.71 277.36,158.54 124.06,-70.58 99.19,-138.49 40.48,-316.51 -208.51,-637.62 -407.3,-970.63 -424.08,-943.35 -21.56,35.05 -114.39,-38.31 -114.39,-38.31 2.57,7.34 4.13,12.42 4.13,12.42 -1.64,17.88 -246.78,136.19 -246.78,136.19l-16.22 -31.9c-68.45,9.49 -52.35,79.68 -52.35,79.68 167.84,314.76 356.28,646.8 531.86,943.22z"/>
     <path class="fil2" d="M2125.89 3416.45c-1.64,17.88 -246.78,136.19 -246.78,136.19l-16.22 -31.9 -10.11 -49.36c3.57,-14.32 238.54,-120.05 238.54,-120.05 11.11,1.82 24.01,34.31 30.46,52.7 2.57,7.34 4.13,12.42 4.13,12.42z"/>
    </g>
   </g>
  </g>
 </g>
</svg>
