<?xml version="1.0" encoding="UTF-8"?>
<!DOCTYPE svg PUBLIC "-//W3C//DTD SVG 1.1//EN" "http://www.w3.org/Graphics/SVG/1.1/DTD/svg11.dtd">
<!-- Creator: CorelDRAW 2018 (64-Bit) -->
<svg xmlns="http://www.w3.org/2000/svg" xml:space="preserve" width="114.859mm" height="114.859mm" version="1.1" style="shape-rendering:geometricPrecision; text-rendering:geometricPrecision; image-rendering:optimizeQuality; fill-rule:evenodd; clip-rule:evenodd"
viewBox="0 0 4687.65 4687.65"
 xmlns:xlink="http://www.w3.org/1999/xlink">
 <defs>
  <style type="text/css">
   <![CDATA[
    .fil2 {fill:#ED84B1}
    .fil11 {fill:#ECA4A9}
    .fil8 {fill:#AAB6BD}
    .fil3 {fill:#9499A1}
    .fil7 {fill:#8A9096}
    .fil5 {fill:#494F57}
    .fil9 {fill:#404547}
    .fil10 {fill:#3C414A}
    .fil0 {fill:#00000000}
    .fil6 {fill:#756A57}
    .fil1 {fill:#FFC6B7}
    .fil4 {fill:#F7F1E4}
   ]]>
  </style>
 </defs>
 <g id="Layer_x0020_1">
  <metadata id="CorelCorpID_0Corel-Layer"/>
  <rect class="fil0" x="-0" y="-0" width="4687.65" height="4687.65"/>
  <g id="_1728626841376">
   <path class="fil1" d="M1997.27 4273.3l556.89 -1.77c65.62,-138.02 105.9,-324.7 105.9,-530.2 0,-425 -172.26,-769.53 -384.76,-769.53 -212.5,0 -384.76,344.53 -384.76,769.53 0,206.37 40.62,393.78 106.74,531.97z"/>
   <g>
    <path class="fil2" d="M3435.98 3128.96c0.86,-3.37 1.33,-5.28 1.33,-5.28 0.09,1.33 -0.38,3.11 -1.33,5.28zm-827.37 -639.75c3.43,-142.44 17.85,-251.99 0,0zm-783.51 -507.51c-0.51,-56.35 1.98,-90.44 1.98,-90.44 0,0 7.22,32.46 -1.98,90.44zm452.87 299.41c0,0 13.26,423.87 13.78,452.76 4.64,25.33 232.37,34.66 299.11,-12.04 7.94,-98.93 13.68,-175.17 17.75,-232.62 -2.44,101.5 0.71,219.7 25.1,235.69 27.36,20.9 118.27,14.46 147.82,1.71 0,0 207.35,-344.03 137.19,-797.37 0,0 138.73,586.72 422.73,683.86 36.25,167.63 51.54,406.73 -45.12,669.77 0,0 125.25,-121.28 139.66,-153.91 -5.25,20.49 -25.04,94.86 -41.6,119.57 0,0 48.66,-31.62 92.71,-68.74 217.24,-33.34 167.61,351.55 -169.16,395.7 -52.04,98.76 -120.78,188.3 -202.98,268.23l-13.32 98.44c60.75,0 141.76,-116.44 141.76,-116.44l-15.19 106.31c121.51,-30.38 394.63,-306.13 394.63,-306.13 199.64,-584.6 92.49,-769.86 92.49,-769.86 -277.01,-396.18 -568.32,-708.72 -796.6,-926.79 -248,-236.91 -421.59,-362.32 -421.59,-362.32 0,0 -109.43,-31.58 -200.69,-41.54 -91.27,9.96 -179.58,37.49 -179.58,37.49 0,0 -640.26,462.52 -1218.19,1289.1 0,0 -112.11,193.83 106.67,810.59 0,0 270.39,289.31 391.9,319.69l-15.19 -106.31c0,0 81.01,116.44 141.76,116.44l-9.44 -107.34c-96.39,-90.89 -176.42,-195.3 -238.09,-312.34 -336.66,-44.13 -374.07,-420.43 -157.06,-387.37 72.39,45.13 195.87,114.46 195.87,114.46 -25.74,-40.81 -54.79,-128.59 -54.79,-128.59 26.9,57.48 74.85,67.79 74.85,67.79 -33.64,-233.8 -10.93,-459.83 25.68,-641.09 358.03,-272.5 445.47,-497.67 464.29,-616.2 1.48,165.76 28.85,524.12 221.54,774.1 1.09,15.38 174.57,-7.52 195.12,-18.38 0,0 15.24,-72.74 25.94,-197.13 6.11,-70.91 10.75,-158.6 10.26,-259.17z"/>
    <path class="fil3" d="M1688.48 4274.29l86.66 -0.28c90.73,37.05 187.79,66.85 290.11,84.98 0.58,5.54 0.58,5.54 0.58,5.54 -122.01,-8.31 -250.07,-41.56 -377.35,-90.24zm1067.8 -3.4l182.36 -0.58c-153.06,55.15 -307.64,92.09 -453.42,98.41l1.82 -16.16c92.59,-19.32 182.83,-47.63 269.24,-81.67z"/>
    <path class="fil3" d="M1688.48 4274.29l86.66 -0.28c-453,-185.01 -747.83,-551.06 -747.83,-551.06 -7.68,-20.56 -14.99,-40.68 -21.98,-60.38 -218.78,-616.76 -106.67,-810.59 -106.67,-810.59 577.94,-826.58 1218.19,-1289.1 1218.19,-1289.1 0,0 88.31,-27.52 179.58,-37.49 91.26,9.96 200.69,41.54 200.69,41.54 0,0 173.6,125.4 421.59,362.32 228.28,218.07 519.6,530.61 796.6,926.79 0,0 107.15,185.26 -92.49,769.86 -11.08,32.46 -23.12,66.15 -36.17,101.11 0,0 -357.92,357.75 -830.38,543.88l182.36 -0.58c578.16,-208.35 1134.6,-676.71 1113.19,-737.27 456.57,-814.26 -297.89,-1814.4 -297.89,-1814.4 -571.39,-746.95 -904.17,-907.56 -904.17,-907.56 0,0 -259.29,-66.39 -532.57,-80.43 -273.28,14.04 -482.99,96.57 -482.99,96.57 0,0 -332.78,160.61 -904.17,907.56 0,0 -754.46,1000.15 -297.89,1814.4 3.26,45.96 522.94,521.08 1056.35,725.11z"/>
    <path class="fil4" d="M2781.52 2726.62c-29.55,12.75 -120.45,19.19 -147.82,-1.71 -24.39,-15.99 -27.54,-134.19 -25.1,-235.69 -4.06,57.45 -9.81,133.69 -17.75,232.62 -66.74,46.7 -294.46,37.37 -299.11,12.04 -0.52,-28.89 -13.78,-452.76 -13.78,-452.76 0.49,100.58 -4.15,188.27 -10.26,259.17 -10.71,124.4 -25.94,197.13 -25.94,197.13 -20.56,10.86 -194.04,33.76 -195.12,18.38 -192.69,-249.98 -220.06,-608.34 -221.54,-774.1 -18.81,118.52 -106.25,343.69 -464.29,616.2 -36.6,181.26 -59.31,407.29 -25.68,641.09 0,0 -47.95,-10.31 -74.85,-67.79 0,0 29.05,87.78 54.79,128.59 0,0 -123.49,-69.32 -195.87,-114.46 -217.01,-33.06 -179.6,343.24 157.06,387.37 61.67,117.04 141.7,221.45 238.09,312.34 143.83,135.62 324.05,241.12 533.98,313.54 71.87,24.79 147.22,45.71 225.78,62.62 76.81,-16.54 151.83,-36.82 224.37,-60.77 241.05,-79.56 454.79,-199.52 616.47,-356.72 82.2,-79.92 150.94,-169.47 202.98,-268.23 336.77,-44.14 386.4,-429.04 169.16,-395.7 -44.05,37.12 -92.71,68.74 -92.71,68.74 16.56,-24.71 36.35,-99.08 41.6,-119.57 -14.41,32.63 -139.66,153.91 -139.66,153.91 96.66,-263.04 81.36,-502.14 45.12,-669.77 -284,-97.14 -422.73,-683.86 -422.73,-683.86 70.16,453.34 -137.19,797.37 -137.19,797.37z"/>
    <path class="fil5" d="M1775.13 4274.01l281.05 -0.89c5.86,55.51 8.16,77.31 9.06,85.88 -102.32,-18.14 -199.38,-47.93 -290.11,-84.98z"/>
    <path class="fil5" d="M1775.13 4274.01l281.05 -0.89c-2.12,-20.1 -4.7,-44.62 -7.86,-74.53 -209.93,-72.42 -390.15,-177.93 -533.98,-313.54l9.44 107.34c-60.75,0 -141.76,-116.44 -141.76,-116.44l15.19 106.31c-121.51,-30.38 -391.9,-319.69 -391.9,-319.69 6.99,19.7 14.3,39.82 21.98,60.38 0,0 294.83,366.05 747.83,551.06z"/>
    <path class="fil5" d="M2496.17 4271.71l260.11 -0.83c-86.41,34.04 -176.65,62.34 -269.24,81.67l9.13 -80.84z"/>
    <path class="fil5" d="M2496.17 4271.71l260.11 -0.83c472.46,-186.13 830.38,-543.88 830.38,-543.88 13.05,-34.96 25.08,-68.65 36.17,-101.11 0,0 -273.12,275.76 -394.63,306.13l15.19 -106.31c0,0 -81.01,116.44 -141.76,116.44l13.32 -98.44c-161.68,157.2 -375.42,277.16 -616.47,356.72l5.74 0 -8.05 71.27z"/>
    <path class="fil6" d="M3435.98 3128.96c0.86,-3.37 1.33,-5.28 1.33,-5.28 0.09,1.33 -0.38,3.11 -1.33,5.28zm-827.37 -639.75c3.43,-142.44 17.85,-251.99 0,0zm-783.51 -507.51c-0.51,-56.35 1.98,-90.44 1.98,-90.44 0,0 7.22,32.46 -1.98,90.44zm452.87 299.41c0,0 13.26,423.87 13.78,452.76 4.64,25.33 232.37,34.66 299.11,-12.04 7.94,-98.93 13.68,-175.17 17.75,-232.62 -2.44,101.5 0.71,219.7 25.1,235.69 27.36,20.9 118.27,14.46 147.82,1.71 0,0 207.35,-344.03 137.19,-797.37 0,0 138.73,586.72 422.73,683.86 36.25,167.63 51.54,406.73 -45.12,669.77 0,0 125.25,-121.28 139.66,-153.91 -5.25,20.49 -25.04,94.86 -41.6,119.57 0,0 48.66,-31.62 92.71,-68.74 217.24,-33.34 167.61,351.55 -169.16,395.7 -52.04,98.76 -120.78,188.3 -202.98,268.23l-13.32 98.44c60.75,0 141.76,-116.44 141.76,-116.44l-15.19 106.31c121.51,-30.38 394.63,-306.13 394.63,-306.13 199.64,-584.6 92.49,-769.86 92.49,-769.86 -277.01,-396.18 -568.32,-708.72 -796.6,-926.79 -248,-236.91 -421.59,-362.32 -421.59,-362.32 0,0 -109.43,-31.58 -200.69,-41.54 -91.27,9.96 -179.58,37.49 -179.58,37.49 0,0 -640.26,462.52 -1218.19,1289.1 0,0 -112.11,193.83 106.67,810.59 0,0 270.39,289.31 391.9,319.69l-15.19 -106.31c0,0 81.01,116.44 141.76,116.44l-9.44 -107.34c-96.39,-90.89 -176.42,-195.3 -238.09,-312.34 -336.66,-44.13 -374.07,-420.43 -157.06,-387.37 72.39,45.13 195.87,114.46 195.87,114.46 -25.74,-40.81 -54.79,-128.59 -54.79,-128.59 26.9,57.48 74.85,67.79 74.85,67.79 -33.64,-233.8 -10.93,-459.83 25.68,-641.09 358.03,-272.5 445.47,-497.67 464.29,-616.2 1.48,165.76 28.85,524.12 221.54,774.1 1.09,15.38 174.57,-7.52 195.12,-18.38 0,0 15.24,-72.74 25.94,-197.13 6.11,-70.91 10.75,-158.6 10.26,-259.17z"/>
    <path class="fil7" d="M1688.48 4274.29l86.66 -0.28c90.73,37.05 187.79,66.85 290.11,84.98 0.58,5.54 0.58,5.54 0.58,5.54 -122.01,-8.31 -250.07,-41.56 -377.35,-90.24zm1067.8 -3.4l182.36 -0.58c-153.06,55.15 -307.64,92.09 -453.42,98.41l1.82 -16.16c92.59,-19.32 182.83,-47.63 269.24,-81.67z"/>
    <path class="fil7" d="M1688.48 4274.29l86.66 -0.28c-453,-185.01 -747.83,-551.06 -747.83,-551.06 -7.68,-20.56 -14.99,-40.68 -21.98,-60.38 -218.78,-616.76 -106.67,-810.59 -106.67,-810.59 577.94,-826.58 1218.19,-1289.1 1218.19,-1289.1 0,0 88.31,-27.52 179.58,-37.49 91.26,9.96 200.69,41.54 200.69,41.54 0,0 173.6,125.4 421.59,362.32 228.28,218.07 519.6,530.61 796.6,926.79 0,0 107.15,185.26 -92.49,769.86 -11.08,32.46 -23.12,66.15 -36.17,101.11 0,0 -357.92,357.75 -830.38,543.88l182.36 -0.58c578.16,-208.35 1134.6,-676.71 1113.19,-737.27 456.57,-814.26 -297.89,-1814.4 -297.89,-1814.4 -571.39,-746.95 -904.17,-907.56 -904.17,-907.56 0,0 -259.29,-66.39 -532.57,-80.43 -273.28,14.04 -482.99,96.57 -482.99,96.57 0,0 -332.78,160.61 -904.17,907.56 0,0 -754.46,1000.15 -297.89,1814.4 3.26,45.96 522.94,521.08 1056.35,725.11z"/>
    <path class="fil1" d="M2781.52 2726.62c-29.55,12.75 -120.45,19.19 -147.82,-1.71 -24.39,-15.99 -27.54,-134.19 -25.1,-235.69 -4.06,57.45 -9.81,133.69 -17.75,232.62 -66.74,46.7 -294.46,37.37 -299.11,12.04 -0.52,-28.89 -13.78,-452.76 -13.78,-452.76 0.49,100.58 -4.15,188.27 -10.26,259.17 -10.71,124.4 -25.94,197.13 -25.94,197.13 -20.56,10.86 -194.04,33.76 -195.12,18.38 -192.69,-249.98 -220.06,-608.34 -221.54,-774.1 -18.81,118.52 -106.25,343.69 -464.29,616.2 -36.6,181.26 -59.31,407.29 -25.68,641.09 0,0 -47.95,-10.31 -74.85,-67.79 0,0 29.05,87.78 54.79,128.59 0,0 -123.49,-69.32 -195.87,-114.46 -217.01,-33.06 -179.6,343.24 157.06,387.37 61.67,117.04 141.7,221.45 238.09,312.34 143.83,135.62 324.05,241.12 533.98,313.54 71.87,24.79 147.22,45.71 225.78,62.62 76.81,-16.54 151.83,-36.82 224.37,-60.77 241.05,-79.56 454.79,-199.52 616.47,-356.72 82.2,-79.92 150.94,-169.47 202.98,-268.23 336.77,-44.14 386.4,-429.04 169.16,-395.7 -44.05,37.12 -92.71,68.74 -92.71,68.74 16.56,-24.71 36.35,-99.08 41.6,-119.57 -14.41,32.63 -139.66,153.91 -139.66,153.91 96.66,-263.04 81.36,-502.14 45.12,-669.77 -284,-97.14 -422.73,-683.86 -422.73,-683.86 70.16,453.34 -137.19,797.37 -137.19,797.37z"/>
    <path class="fil5" d="M1775.13 4274.01l281.05 -0.89c5.86,55.51 8.16,77.31 9.06,85.88 -102.32,-18.14 -199.38,-47.93 -290.11,-84.98z"/>
    <path class="fil5" d="M1775.13 4274.01l281.05 -0.89c-2.12,-20.1 -4.7,-44.62 -7.86,-74.53 -209.93,-72.42 -390.15,-177.93 -533.98,-313.54l9.44 107.34c-60.75,0 -141.76,-116.44 -141.76,-116.44l15.19 106.31c-121.51,-30.38 -391.9,-319.69 -391.9,-319.69 6.99,19.7 14.3,39.82 21.98,60.38 0,0 294.83,366.05 747.83,551.06z"/>
    <path class="fil5" d="M2496.17 4271.71l260.11 -0.83c-86.41,34.04 -176.65,62.34 -269.24,81.67l9.13 -80.84z"/>
    <path class="fil5" d="M2496.17 4271.71l260.11 -0.83c472.46,-186.13 830.38,-543.88 830.38,-543.88 13.05,-34.96 25.08,-68.65 36.17,-101.11 0,0 -273.12,275.76 -394.63,306.13l15.19 -106.31c0,0 -81.01,116.44 -141.76,116.44l13.32 -98.44c-161.68,157.2 -375.42,277.16 -616.47,356.72l5.74 0 -8.05 71.27z"/>
    <path class="fil7" d="M2729.2 856.35c101.69,-17.91 -117.16,-458.76 -387.08,-537.42 -277.24,101.26 -529.77,533.12 -386.19,533.12 95.4,-17.28 228.31,49.18 357.52,43.73 158.33,6.69 297.39,-57.02 415.76,-39.43z"/>
    <path class="fil7" d="M3917.62 3656.14c105.77,24.46 200.13,301.88 200.13,301.88 270.39,-150.32 52.37,-1320.87 52.37,-1320.87l-252.49 1018.99z"/>
    <path class="fil8" d="M1688.47 4274.29l86.66 -0.28c90.73,37.05 187.79,66.85 290.11,84.98 0.58,5.54 0.58,5.54 0.58,5.54 -122.01,-8.3 -250.07,-41.56 -377.36,-90.24zm1067.8 -3.4l182.37 -0.58c-153.06,55.15 -307.64,92.09 -453.43,98.41l1.82 -16.16c92.59,-19.32 182.83,-47.63 269.24,-81.67z"/>
    <path class="fil8" d="M1688.47 4274.29l86.66 -0.28c-453,-185.01 -747.83,-551.06 -747.83,-551.06 -7.68,-20.56 -14.99,-40.68 -21.98,-60.38 -218.78,-616.76 -106.67,-810.59 -106.67,-810.59 354.47,-506.97 732.32,-876.93 971.58,-1087.28 -1169.16,335.38 -1101.81,1929.38 -1101.81,1929.5 189.66,168.84 551.58,439.14 920.05,580.09zm1067.8 -3.4l182.37 -0.58c414.62,-149.41 818.03,-432.55 1005.18,-603.1 -0.01,-1.4 -6.75,-1639.08 -1227.44,-1922.34 58.76,50.95 127.11,112.53 202.32,184.38 228.28,218.07 519.6,530.61 796.6,926.79 0,0 107.15,185.26 -92.49,769.86 -11.08,32.46 -23.12,66.15 -36.17,101.11 0,0 -357.92,357.75 -830.38,543.88z"/>
    <path class="fil7" d="M1635.22 1684.59c0,0 589.35,1068.23 1409.96,20.25l-656.49 -344.26 -753.48 324.02z"/>
    <path class="fil7" d="M770.02 3700.67c-105.77,24.46 -200.12,301.88 -200.12,301.88 -270.4,-150.32 -52.37,-1320.88 -52.37,-1320.88l252.49 1018.99z"/>
    <circle class="fil9" cx="1670.08" cy="1515.77" r="70.88"/>
    <path class="fil9" d="M1749.29 1590.43c10.02,-85.95 -31.44,-170.22 -68.68,-189.39 -169.74,-87.4 -194.58,184.32 -194.58,184.32 0,0 141.76,-330.34 263.26,5.06z"/>
    <circle class="fil9" cx="2927.23" cy="1515.77" r="70.88"/>
    <path class="fil9" d="M2848.02 1590.43c-10.02,-85.95 31.44,-170.22 68.68,-189.39 169.74,-87.4 194.58,184.32 194.58,184.32 0,0 -141.76,-330.34 -263.26,5.06z"/>
   </g>
   <path class="fil10" d="M1664.65 2817.24l141.21 45.63c58.72,0 106.32,71.4 106.32,159.47 0,88.08 -47.6,159.47 -106.32,159.47 -58.72,0 -106.32,-71.4 -106.32,-159.47 0,-36.02 7.96,-69.25 21.39,-95.95l-56.28 -109.16z"/>
   <path class="fil10" d="M2912.13 2840.43l-141.21 45.63c-58.72,0 -106.32,71.4 -106.32,159.47 0,88.07 47.6,159.47 106.32,159.47 58.72,0 106.32,-71.4 106.32,-159.47 0,-36.02 -7.96,-69.25 -21.39,-95.95l56.28 -109.16z"/>
   <path class="fil11" d="M1934.83 3583.12l680.94 0c0,0 -86.07,318.96 -334.14,316.42 -248.07,-2.53 -346.79,-316.42 -346.79,-316.42z"/>
  </g>
 </g>
</svg>
