<?xml version="1.0" encoding="UTF-8"?>
<!DOCTYPE svg PUBLIC "-//W3C//DTD SVG 1.1//EN" "http://www.w3.org/Graphics/SVG/1.1/DTD/svg11.dtd">
<!-- Creator: CorelDRAW 2018 (64-Bit) -->
<svg xmlns="http://www.w3.org/2000/svg" xml:space="preserve" width="114.859mm" height="114.859mm" version="1.1" style="shape-rendering:geometricPrecision; text-rendering:geometricPrecision; image-rendering:optimizeQuality; fill-rule:evenodd; clip-rule:evenodd"
viewBox="0 0 4687.65 4687.65"
 xmlns:xlink="http://www.w3.org/1999/xlink">
 <defs>
  <style type="text/css">
   <![CDATA[
    .fil1 {fill:#ED84B1}
    .fil10 {fill:#ECA4A9}
    .fil8 {fill:#E1E9ED}
    .fil2 {fill:#9499A1}
    .fil4 {fill:#494F57}
    .fil9 {fill:#3C414A}
    .fil0 {fill:#00000000}
    .fil6 {fill:#3C4654}
    .fil5 {fill:#A570FF}
    .fil7 {fill:#FFC6B7}
    .fil3 {fill:#F7F1E4}
   ]]>
  </style>
 </defs>
 <g id="Layer_x0020_1">
  <metadata id="CorelCorpID_0Corel-Layer"/>
  <rect class="fil0" x="-0" y="-0" width="4687.65" height="4687.65"/>
  <g id="_1726728215664">
   <g>
    <path class="fil1" d="M3445.97 3131.92c0.87,-3.4 1.34,-5.32 1.34,-5.32 0.09,1.34 -0.38,3.13 -1.34,5.32zm-833.53 -644.51c3.45,-143.5 17.98,-253.86 0,0zm-789.34 -511.28c-0.51,-56.77 2,-91.11 2,-91.11 0,0 7.27,32.7 -2,91.11zm456.24 301.64c0,0 13.36,427.02 13.88,456.13 4.68,25.52 234.1,34.92 301.33,-12.13 8,-99.67 13.79,-176.48 17.88,-234.36 -2.46,102.26 0.71,221.34 25.28,237.44 27.57,21.06 119.14,14.57 148.92,1.73 0,0 208.89,-346.59 138.21,-803.31 0,0 139.77,591.09 425.87,688.95 36.51,168.87 51.93,409.76 -45.45,674.75 0,0 126.18,-122.19 140.7,-155.06 -5.29,20.65 -25.23,95.57 -41.91,120.46 0,0 49.02,-31.85 93.4,-69.25 218.86,-33.58 168.85,354.17 -170.42,398.64 -52.42,99.5 -121.67,189.7 -204.48,270.22l-13.42 99.17c61.2,0 142.81,-117.3 142.81,-117.3l-15.3 107.1c122.41,-30.61 397.56,-308.41 397.56,-308.41 201.13,-588.95 93.18,-775.59 93.18,-775.59 -279.07,-399.13 -572.55,-714 -802.53,-933.68 -249.85,-238.67 -424.73,-365.01 -424.73,-365.01 0,0 -110.25,-31.81 -202.19,-41.85 -91.95,10.04 -180.91,37.77 -180.91,37.77 0,0 -645.02,465.96 -1227.26,1298.7 0,0 -112.94,195.27 107.47,816.62 0,0 272.4,291.47 394.81,322.07l-15.3 -107.1c0,0 81.61,117.3 142.81,117.3l-9.51 -108.14c-97.1,-91.56 -177.73,-196.75 -239.86,-314.66 -339.16,-44.46 -376.85,-423.56 -158.23,-390.25 72.92,45.46 197.33,115.31 197.33,115.31 -25.93,-41.11 -55.19,-129.55 -55.19,-129.55 27.1,57.91 75.4,68.3 75.4,68.3 -33.89,-235.54 -11.01,-463.26 25.87,-645.86 360.7,-274.53 448.78,-501.38 467.74,-620.78 1.49,166.99 29.07,528.01 223.19,779.85 1.09,15.5 175.86,-7.57 196.58,-18.52 0,0 15.35,-73.27 26.14,-198.6 6.15,-71.43 10.83,-159.78 10.34,-261.1z"/>
    <path class="fil2" d="M2001.53 4370.16l61.4 0.56c0.71,0.13 1.4,0.25 2.11,0.38 0.59,5.58 0.59,5.58 0.59,5.58 -21.19,-1.44 -42.57,-3.63 -64.09,-6.52zm487.3 4.48l72.41 0.67c-24.58,2.66 -48.97,4.54 -73.11,5.59l0.71 -6.25z"/>
    <path class="fil2" d="M2001.53 4370.16l61.4 0.56c-616.62,-110.33 -1043.56,-640.4 -1043.56,-640.4 -7.73,-20.71 -15.1,-40.98 -22.14,-60.83 -220.41,-621.36 -107.47,-816.62 -107.47,-816.62 582.24,-832.74 1227.26,-1298.7 1227.26,-1298.7 0,0 88.97,-27.73 180.91,-37.77 91.95,10.04 202.19,41.85 202.19,41.85 0,0 174.88,126.34 424.73,365.01 229.98,219.69 523.46,534.56 802.53,933.68 0,0 107.95,186.63 -93.18,775.59 -11.17,32.7 -23.29,66.64 -36.43,101.86 0,0 -504.54,504.29 -1107.81,630.2l-1.13 10.03 72.41 0.67c689.63,-74.59 1531.51,-761.8 1505.16,-836.31 459.97,-820.31 -300.11,-1827.91 -300.11,-1827.91 -575.65,-752.51 -910.9,-914.31 -910.9,-914.31 0,0 -261.22,-66.89 -536.54,-81.03 -275.32,14.14 -486.59,97.28 -486.59,97.28 0,0 -335.25,161.8 -910.9,914.31 0,0 -760.08,1007.6 -300.11,1827.91 3.93,55.45 753.89,730.86 1380.28,814.91z"/>
    <path class="fil3" d="M2786.64 2726.58c-29.77,12.84 -121.35,19.33 -148.92,-1.73 -24.57,-16.1 -27.74,-135.19 -25.28,-237.44 -4.09,57.88 -9.88,134.69 -17.88,234.36 -67.23,47.04 -296.65,37.64 -301.33,12.13 -0.53,-29.11 -13.88,-456.13 -13.88,-456.13 0.49,101.32 -4.19,189.67 -10.34,261.1 -10.79,125.32 -26.14,198.6 -26.14,198.6 -20.71,10.95 -195.48,34.02 -196.58,18.52 -194.12,-251.84 -221.7,-612.87 -223.19,-779.85 -18.95,119.4 -107.04,346.25 -467.74,620.78 -36.88,182.6 -59.75,410.32 -25.87,645.86 0,0 -48.3,-10.39 -75.4,-68.3 0,0 29.27,88.44 55.19,129.55 0,0 -124.41,-69.85 -197.33,-115.31 -218.63,-33.31 -180.94,345.79 158.23,390.25 62.13,117.91 142.76,223.1 239.86,314.66 144.9,136.63 326.46,242.92 537.95,315.88 72.41,24.98 148.31,46.04 227.46,63.09 77.38,-16.66 152.96,-37.1 226.04,-61.21 242.84,-80.15 458.17,-201.01 621.06,-359.38 82.81,-80.52 152.06,-170.73 204.48,-270.22 339.27,-44.47 389.28,-432.23 170.42,-398.64 -44.38,37.4 -93.4,69.25 -93.4,69.25 16.68,-24.89 36.62,-99.81 41.91,-120.46 -14.52,32.87 -140.7,155.06 -140.7,155.06 97.38,-264.99 81.97,-505.88 45.45,-674.75 -286.11,-97.86 -425.87,-688.95 -425.87,-688.95 70.68,456.72 -138.21,803.31 -138.21,803.31z"/>
    <path class="fil4" d="M2062.93 4370.72l2.07 0.02c0.01,0.12 0.02,0.24 0.04,0.36 -0.7,-0.12 -1.4,-0.25 -2.11,-0.38z"/>
    <path class="fil4" d="M2062.93 4370.72l2.07 0.02c-1.28,-12.13 -5.17,-49.02 -17.01,-161.25 -211.49,-72.95 -393.06,-179.25 -537.95,-315.88l9.51 108.14c-61.21,0 -142.81,-117.3 -142.81,-117.3l15.3 107.1c-122.41,-30.61 -394.81,-322.07 -394.81,-322.07 7.04,19.84 14.41,40.11 22.14,60.83 0,0 426.94,530.07 1043.56,640.4z"/>
    <path class="fil4" d="M3122.56 3851.99c-162.89,158.37 -378.22,279.23 -621.06,359.38l5.78 0 -17.31 153.24c603.27,-125.91 1107.81,-630.2 1107.81,-630.2 13.15,-35.22 25.27,-69.16 36.43,-101.86 0,0 -275.15,277.81 -397.56,308.41l15.3 -107.1c0,0 -81.61,117.3 -142.81,117.3l13.42 -99.17z"/>
    <path class="fil5" d="M3445.97 3131.92c0.87,-3.4 1.34,-5.32 1.34,-5.32 0.09,1.34 -0.38,3.13 -1.34,5.32zm-833.53 -644.51c3.45,-143.5 17.98,-253.86 0,0zm-789.34 -511.28c-0.51,-56.77 2,-91.11 2,-91.11 0,0 7.27,32.7 -2,91.11zm456.24 301.64c0,0 13.36,427.02 13.88,456.13 4.68,25.52 234.1,34.92 301.33,-12.13 8,-99.67 13.79,-176.48 17.88,-234.36 -2.46,102.26 0.71,221.34 25.28,237.44 27.57,21.06 119.14,14.57 148.92,1.73 0,0 208.89,-346.59 138.21,-803.31 0,0 139.77,591.09 425.87,688.95 36.51,168.87 51.93,409.76 -45.45,674.75 0,0 126.18,-122.19 140.7,-155.06 -5.29,20.65 -25.23,95.57 -41.91,120.46 0,0 49.02,-31.85 93.4,-69.25 218.86,-33.58 168.85,354.17 -170.42,398.64 -52.42,99.5 -121.67,189.7 -204.48,270.22l-13.42 99.17c61.2,0 142.81,-117.3 142.81,-117.3l-15.3 107.1c122.41,-30.61 397.56,-308.41 397.56,-308.41 201.13,-588.95 93.18,-775.59 93.18,-775.59 -279.07,-399.13 -572.55,-714 -802.53,-933.68 -249.85,-238.67 -424.73,-365.01 -424.73,-365.01 0,0 -110.25,-31.81 -202.19,-41.85 -91.95,10.04 -180.91,37.77 -180.91,37.77 0,0 -645.02,465.96 -1227.26,1298.7 0,0 -112.94,195.27 107.47,816.62 0,0 272.4,291.47 394.81,322.07l-15.3 -107.1c0,0 81.61,117.3 142.81,117.3l-9.51 -108.14c-97.1,-91.56 -177.73,-196.75 -239.86,-314.66 -339.16,-44.46 -376.85,-423.56 -158.23,-390.25 72.92,45.46 197.33,115.31 197.33,115.31 -25.93,-41.11 -55.19,-129.55 -55.19,-129.55 27.1,57.91 75.4,68.3 75.4,68.3 -33.89,-235.54 -11.01,-463.26 25.87,-645.86 360.7,-274.53 448.78,-501.38 467.74,-620.78 1.49,166.99 29.07,528.01 223.19,779.85 1.09,15.5 175.86,-7.57 196.58,-18.52 0,0 15.35,-73.27 26.14,-198.6 6.15,-71.43 10.83,-159.78 10.34,-261.1z"/>
    <path class="fil6" d="M2001.53 4370.16l61.4 0.56c0.71,0.13 1.4,0.25 2.11,0.38 0.59,5.58 0.59,5.58 0.59,5.58 -21.19,-1.44 -42.57,-3.63 -64.09,-6.52zm487.3 4.48l72.41 0.67c-24.58,2.66 -48.97,4.54 -73.11,5.59l0.71 -6.25z"/>
    <path class="fil6" d="M2001.53 4370.16l61.4 0.56c-616.62,-110.33 -1043.56,-640.4 -1043.56,-640.4 -7.73,-20.71 -15.1,-40.98 -22.14,-60.83 -220.41,-621.36 -107.47,-816.62 -107.47,-816.62 582.24,-832.74 1227.26,-1298.7 1227.26,-1298.7 0,0 88.97,-27.73 180.91,-37.77 91.95,10.04 202.19,41.85 202.19,41.85 0,0 174.88,126.34 424.73,365.01 229.98,219.69 523.46,534.56 802.53,933.68 0,0 107.95,186.63 -93.18,775.59 -11.17,32.7 -23.29,66.64 -36.43,101.86 0,0 -504.54,504.29 -1107.81,630.2l-1.13 10.03 72.41 0.67c689.63,-74.59 1531.51,-761.8 1505.16,-836.31 459.97,-820.31 -300.11,-1827.91 -300.11,-1827.91 -575.65,-752.51 -910.9,-914.31 -910.9,-914.31 0,0 -261.22,-66.89 -536.54,-81.03 -275.32,14.14 -486.59,97.28 -486.59,97.28 0,0 -335.25,161.8 -910.9,914.31 0,0 -760.08,1007.6 -300.11,1827.91 3.93,55.45 753.89,730.86 1380.28,814.91z"/>
    <path class="fil7" d="M2786.64 2726.58c-29.77,12.84 -121.35,19.33 -148.92,-1.73 -24.57,-16.1 -27.74,-135.19 -25.28,-237.44 -4.09,57.88 -9.88,134.69 -17.88,234.36 -67.23,47.04 -296.65,37.64 -301.33,12.13 -0.53,-29.11 -13.88,-456.13 -13.88,-456.13 0.49,101.32 -4.19,189.67 -10.34,261.1 -10.79,125.32 -26.14,198.6 -26.14,198.6 -20.71,10.95 -195.48,34.02 -196.58,18.52 -194.12,-251.84 -221.7,-612.87 -223.19,-779.85 -18.95,119.4 -107.04,346.25 -467.74,620.78 -36.88,182.6 -59.75,410.32 -25.87,645.86 0,0 -48.3,-10.39 -75.4,-68.3 0,0 29.27,88.44 55.19,129.55 0,0 -124.41,-69.85 -197.33,-115.31 -218.63,-33.31 -180.94,345.79 158.23,390.25 62.13,117.91 142.76,223.1 239.86,314.66 144.9,136.63 326.46,242.92 537.95,315.88 72.41,24.98 148.31,46.04 227.46,63.09 77.38,-16.66 152.96,-37.1 226.04,-61.21 242.84,-80.15 458.17,-201.01 621.06,-359.38 82.81,-80.52 152.06,-170.73 204.48,-270.22 339.27,-44.47 389.28,-432.23 170.42,-398.64 -44.38,37.4 -93.4,69.25 -93.4,69.25 16.68,-24.89 36.62,-99.81 41.91,-120.46 -14.52,32.87 -140.7,155.06 -140.7,155.06 97.38,-264.99 81.97,-505.88 45.45,-674.75 -286.11,-97.86 -425.87,-688.95 -425.87,-688.95 70.68,456.72 -138.21,803.31 -138.21,803.31z"/>
    <path class="fil4" d="M2062.93 4370.72l2.07 0.02c0.01,0.12 0.02,0.24 0.04,0.36 -0.7,-0.12 -1.4,-0.25 -2.11,-0.38z"/>
    <path class="fil4" d="M2062.93 4370.72l2.07 0.02c-1.28,-12.13 -5.17,-49.02 -17.01,-161.25 -211.49,-72.95 -393.06,-179.25 -537.95,-315.88l9.51 108.14c-61.21,0 -142.81,-117.3 -142.81,-117.3l15.3 107.1c-122.41,-30.61 -394.81,-322.07 -394.81,-322.07 7.04,19.84 14.41,40.11 22.14,60.83 0,0 426.94,530.07 1043.56,640.4z"/>
    <path class="fil4" d="M3122.56 3851.99c-162.89,158.37 -378.22,279.23 -621.06,359.38l5.78 0 -17.31 153.24c603.27,-125.91 1107.81,-630.2 1107.81,-630.2 13.15,-35.22 25.27,-69.16 36.43,-101.86 0,0 -275.15,277.81 -397.56,308.41l15.3 -107.1c0,0 -81.61,117.3 -142.81,117.3l13.42 -99.17z"/>
    <path class="fil8" d="M1572.1 1263.22c61.21,311.13 255.03,402.93 -198.91,831.37 0,0 -432.01,420.7 -479.44,306.02 -80.4,-194.42 588.75,-1201.4 678.35,-1137.39z"/>
    <path class="fil8" d="M3066.87 1247.92c-61.21,311.12 -255.03,402.93 198.91,831.36 0,0 432.01,420.71 479.44,306.03 80.4,-194.42 -588.75,-1201.4 -678.35,-1137.39z"/>
    <path class="fil6" d="M718.3 3622.22c-75.67,24.64 -143.17,304.13 -143.17,304.13 -193.45,-151.44 -37.47,-1330.7 -37.47,-1330.7l180.64 1026.57z"/>
    <path class="fil6" d="M2663.19 848.17c84.22,-18.04 -97.04,-462.18 -320.59,-541.42 -229.62,102.01 -438.78,537.08 -319.86,537.08 79.02,-17.41 189.1,49.55 296.11,44.06 131.13,6.74 246.31,-57.45 344.34,-39.72z"/>
    <path class="fil6" d="M3931.2 3663.02c75.67,24.64 143.17,304.13 143.17,304.13 193.45,-151.44 37.47,-1330.7 37.47,-1330.7l-180.64 1026.57z"/>
   </g>
   <path class="fil9" d="M1671.13 2816.33l142.26 45.97c59.16,0 107.11,71.93 107.11,160.66 0,88.73 -47.95,160.66 -107.11,160.66 -59.15,0 -107.11,-71.93 -107.11,-160.66 0,-36.29 8.02,-69.76 21.55,-96.66l-56.7 -109.97z"/>
   <path class="fil9" d="M2927.89 2839.7l-142.26 45.97c-59.15,0 -107.11,71.93 -107.11,160.66 0,88.73 47.95,160.66 107.11,160.66 59.16,0 107.11,-71.93 107.11,-160.66 0,-36.29 -8.02,-69.76 -21.55,-96.66l56.7 -109.97z"/>
   <path class="fil10" d="M1943.32 3587.91l686.01 0c0,0 -86.71,321.33 -336.63,318.78 -249.92,-2.55 -349.38,-318.78 -349.38,-318.78z"/>
  </g>
 </g>
</svg>
